<svg width="537" height="533" viewBox="0 0 537 533" fill="none" xmlns="http://www.w3.org/2000/svg">
<g filter="url(#filter0_d_1382_1028)">
<path d="M4 17.834L514.689 0.000342093L532.173 500.695L21.4846 518.529L4 17.834Z" fill="#F5F5F5"/>
</g>
<g filter="url(#filter1_d_1382_1028)">
<path d="M12.9062 24.499L160.816 19.3339L178.266 519.029L30.356 524.194L12.9062 24.499Z" fill="#F5F5F5"/>
</g>
<path d="M54.2957 102.761C57.8834 102.636 60.698 99.8495 60.5823 96.5378C60.4667 93.2261 57.4646 90.643 53.8769 90.7683C50.2892 90.8936 47.4746 93.6798 47.5903 96.9915C47.7059 100.303 50.708 102.886 54.2957 102.761Z" fill="#1684AC"/>
<path d="M78.2957 102.761C81.8834 102.636 84.698 99.8495 84.5823 96.5378C84.4667 93.2261 81.4646 90.643 77.8769 90.7683C74.2892 90.8936 71.4746 93.6798 71.5903 96.9915C71.7059 100.303 74.708 102.886 78.2957 102.761Z" fill="#1684AC" fill-opacity="0.7"/>
<path d="M103.296 102.761C106.883 102.636 109.698 99.8495 109.582 96.5378C109.467 93.2261 106.465 90.643 102.877 90.7683C99.2892 90.8936 96.4746 93.6798 96.5903 96.9915C96.7059 100.303 99.708 102.886 103.296 102.761Z" fill="#1684AC" fill-opacity="0.5"/>
<rect x="47.3926" y="146.653" width="108" height="13" rx="6.5" transform="rotate(-2 47.3926 146.653)" fill="#C0CCD2"/>
<rect x="49.4707" y="170.146" width="79" height="8" rx="4" transform="rotate(-2 49.4707 170.146)" fill="#C0CCD2" fill-opacity="0.6"/>
<rect x="49.4707" y="198.146" width="79" height="8" rx="4" transform="rotate(-2 49.4707 198.146)" fill="#C0CCD2" fill-opacity="0.6"/>
<rect x="49.4707" y="184.146" width="79" height="8" rx="4" transform="rotate(-2 49.4707 184.146)" fill="#C0CCD2" fill-opacity="0.6"/>
<rect x="47.3926" y="239.653" width="108" height="13" rx="6.5" transform="rotate(-2 47.3926 239.653)" fill="#C0CCD2"/>
<rect x="49.4707" y="263.146" width="79" height="8" rx="4" transform="rotate(-2 49.4707 263.146)" fill="#C0CCD2" fill-opacity="0.6"/>
<rect x="49.4707" y="291.146" width="79" height="8" rx="4" transform="rotate(-2 49.4707 291.146)" fill="#C0CCD2" fill-opacity="0.6"/>
<rect x="49.4707" y="277.146" width="79" height="8" rx="4" transform="rotate(-2 49.4707 277.146)" fill="#C0CCD2" fill-opacity="0.6"/>
<path d="M331.645 171.057C331.246 170.924 330.898 170.677 330.648 170.348C330.398 170.019 330.258 169.624 330.245 169.215L329.506 148.052C329.48 147.336 329.162 146.659 328.621 146.171C328.08 145.683 327.36 145.422 326.62 145.447L322.142 145.604C320.292 145.666 318.494 145.016 317.141 143.796C315.789 142.575 314.993 140.884 314.929 139.094L313.443 96.5442C313.382 94.7535 314.058 93.0112 315.322 91.6994C316.586 90.3876 318.335 89.6135 320.185 89.5469L478.124 84.0315C479.974 83.9689 481.773 84.6191 483.125 85.8396C484.478 87.06 485.273 88.751 485.338 90.5414L486.824 133.091C486.884 134.882 486.209 136.624 484.945 137.936C483.681 139.248 481.932 140.022 480.082 140.088L358.175 144.345C357.788 144.359 357.408 144.451 357.059 144.614C356.71 144.777 356.4 145.009 356.148 145.294L333.929 170.457C333.741 170.671 333.51 170.845 333.249 170.968C332.988 171.091 332.704 171.159 332.415 171.17C332.153 171.179 331.892 171.14 331.645 171.057Z" fill="white"/>
<path d="M331.645 171.057C331.246 170.924 330.898 170.677 330.648 170.348C330.398 170.019 330.258 169.624 330.245 169.215L329.506 148.052C329.48 147.336 329.162 146.659 328.621 146.171C328.08 145.683 327.36 145.422 326.62 145.447L322.142 145.604C320.292 145.666 318.494 145.016 317.141 143.796C315.789 142.575 314.993 140.884 314.929 139.094L313.443 96.5442C313.382 94.7535 314.058 93.0112 315.322 91.6994C316.586 90.3876 318.335 89.6135 320.185 89.5469L478.124 84.0315C479.974 83.9689 481.773 84.6191 483.125 85.8396C484.478 87.06 485.273 88.751 485.338 90.5414L486.824 133.091C486.884 134.882 486.209 136.624 484.945 137.936C483.681 139.248 481.932 140.022 480.082 140.088L358.175 144.345C357.788 144.359 357.408 144.451 357.059 144.614C356.71 144.777 356.4 145.009 356.148 145.294L333.929 170.457C333.741 170.671 333.51 170.845 333.249 170.968C332.988 171.091 332.704 171.159 332.415 171.17C332.153 171.179 331.892 171.14 331.645 171.057ZM320.216 90.4468C318.613 90.5045 317.097 91.1755 316.002 92.3125C314.906 93.4495 314.32 94.9597 314.373 96.5117L315.859 139.061C315.915 140.613 316.604 142.079 317.776 143.137C318.949 144.195 320.507 144.758 322.111 144.704L326.589 144.547C327.575 144.514 328.535 144.861 329.256 145.512C329.977 146.163 330.401 147.065 330.436 148.019L331.175 169.183C331.183 169.41 331.261 169.629 331.4 169.811C331.539 169.994 331.732 170.132 331.953 170.206C332.175 170.281 332.414 170.289 332.641 170.229C332.867 170.17 333.07 170.046 333.222 169.873L355.441 144.709C355.777 144.329 356.191 144.021 356.656 143.804C357.121 143.586 357.628 143.464 358.144 143.446L480.051 139.188C481.654 139.131 483.17 138.46 484.265 137.323C485.361 136.186 485.947 134.676 485.894 133.124L484.408 90.5739C484.352 89.022 483.663 87.5564 482.49 86.4986C481.318 85.4408 479.759 84.8772 478.156 84.9314L320.216 90.4468Z" fill="#3F3D56"/>
<path d="M282.672 180.833C276.415 184.975 269.083 187.37 261.497 187.75C253.911 188.131 246.37 186.482 239.721 182.989C240.796 180.905 242.184 178.983 243.84 177.282C246.395 174.648 249.545 172.607 253.048 171.317C256.551 170.026 260.314 169.521 264.048 169.84C267.782 170.158 271.387 171.292 274.587 173.153C277.787 175.015 280.496 177.556 282.506 180.58C282.56 180.661 282.618 180.747 282.672 180.833Z" fill="#1684AC"/>
<path d="M259.784 159.752C271.099 159.357 279.959 150.088 279.573 139.049C279.188 128.01 269.703 119.382 258.388 119.777C247.073 120.172 238.213 129.441 238.598 140.48C238.984 151.519 248.469 160.148 259.784 159.752Z" fill="#2F2E41"/>
<path d="M261.733 162.16C269.936 161.874 276.174 154.887 275.664 146.555C275.154 138.223 268.091 131.701 259.887 131.987C251.684 132.274 245.446 139.26 245.956 147.592C246.466 155.924 253.529 162.447 261.733 162.16Z" fill="#FFB8B8"/>
<path d="M245.621 137.978C249.096 140.125 253.17 141.19 257.294 141.03C255.857 142.069 254.205 142.794 252.452 143.156C257.977 144.104 263.646 143.936 269.106 142.666C270.321 142.433 271.487 142 272.551 141.385C273.081 141.074 273.538 140.659 273.892 140.166C274.246 139.673 274.489 139.114 274.605 138.525C274.9 136.493 273.21 134.714 271.477 133.537C268.824 131.762 265.796 130.582 262.611 130.081C259.427 129.579 256.165 129.77 253.063 130.638C251.037 131.22 249.021 132.156 247.749 133.79C246.477 135.424 246.17 137.886 247.491 139.478L245.621 137.978Z" fill="#2F2E41"/>
<path d="M261.469 187.741C251.49 188.086 241.725 184.952 233.966 178.914C226.208 172.875 220.975 164.337 219.228 154.865C217.481 145.393 219.336 135.623 224.455 127.347C229.573 119.071 237.611 112.843 247.093 109.806C256.576 106.769 266.868 107.127 276.081 110.814C285.294 114.501 292.811 121.27 297.252 129.879C301.693 138.488 302.762 148.36 300.261 157.684C297.761 167.008 291.859 175.158 283.638 180.641C277.101 185.004 269.406 187.468 261.469 187.741ZM258.707 108.653C250.683 108.933 242.918 111.499 236.396 116.029C229.874 120.558 224.887 126.847 222.065 134.1C219.244 141.352 218.715 149.243 220.545 156.774C222.375 164.305 226.482 171.138 232.347 176.408C238.212 181.679 245.571 185.151 253.494 186.385C261.417 187.619 269.547 186.559 276.857 183.34C284.167 180.121 290.328 174.887 294.561 168.301C298.794 161.714 300.909 154.07 300.638 146.336C300.264 135.97 295.639 126.181 287.778 119.117C279.917 112.052 269.462 108.289 258.707 108.653Z" fill="#3F3D56"/>
<path d="M335.314 105.76C338.349 105.654 340.709 102.66 340.583 99.0721C340.458 95.4844 337.896 92.662 334.86 92.768C331.824 92.874 329.465 95.8683 329.59 99.456C329.715 103.044 332.278 105.866 335.314 105.76Z" fill="#1684AC" fill-opacity="0.5"/>
<path d="M476.395 129.259L332.991 134.267C332.563 134.282 332.138 134.219 331.738 134.083C331.338 133.946 330.971 133.738 330.659 133.47C330.347 133.202 330.096 132.88 329.92 132.521C329.744 132.163 329.646 131.776 329.632 131.382C329.618 130.988 329.689 130.595 329.84 130.225C329.991 129.855 330.219 129.516 330.511 129.227C330.804 128.938 331.155 128.705 331.544 128.541C331.934 128.377 332.354 128.285 332.781 128.27L476.186 123.262C477.048 123.232 477.886 123.519 478.515 124.06C479.144 124.601 479.513 125.352 479.541 126.147C479.568 126.942 479.253 127.717 478.663 128.3C478.073 128.884 477.257 129.229 476.395 129.259Z" fill="#E6E6E6"/>
<path d="M429.422 117.078L332.969 120.446C332.543 120.462 332.118 120.399 331.719 120.263C331.32 120.126 330.955 119.918 330.643 119.65C330.332 119.382 330.082 119.059 329.906 118.701C329.73 118.343 329.632 117.956 329.618 117.562C329.605 117.168 329.675 116.775 329.825 116.405C329.976 116.035 330.204 115.696 330.495 115.407C330.787 115.118 331.137 114.885 331.526 114.721C331.914 114.556 332.334 114.465 332.76 114.45L429.213 111.082C430.072 111.053 430.907 111.34 431.533 111.881C432.16 112.422 432.528 113.172 432.556 113.967C432.583 114.762 432.269 115.536 431.681 116.119C431.094 116.702 430.281 117.047 429.422 117.078Z" fill="#E6E6E6"/>
<path d="M331.139 172.763C337.486 172.542 342.608 171.691 342.579 170.863C342.55 170.035 337.381 169.544 331.034 169.765C324.687 169.987 319.564 170.838 319.593 171.666C319.622 172.494 324.791 172.985 331.139 172.763Z" fill="#F2F2F2"/>
<path d="M331.645 415.057C331.246 414.924 330.898 414.677 330.648 414.348C330.398 414.019 330.258 413.624 330.245 413.215L329.506 392.052C329.48 391.336 329.162 390.659 328.621 390.171C328.08 389.683 327.36 389.422 326.62 389.447L322.142 389.604C320.292 389.666 318.494 389.016 317.141 387.796C315.789 386.575 314.993 384.884 314.929 383.094L313.443 340.544C313.382 338.754 314.058 337.011 315.322 335.699C316.586 334.388 318.335 333.613 320.185 333.547L478.124 328.031C479.974 327.969 481.773 328.619 483.125 329.84C484.478 331.06 485.273 332.751 485.338 334.541L486.824 377.091C486.884 378.882 486.209 380.624 484.945 381.936C483.681 383.248 481.932 384.022 480.082 384.088L358.175 388.345C357.788 388.359 357.408 388.451 357.059 388.614C356.71 388.777 356.4 389.009 356.148 389.294L333.929 414.457C333.741 414.671 333.51 414.845 333.249 414.968C332.988 415.091 332.704 415.159 332.415 415.17C332.153 415.179 331.892 415.14 331.645 415.057Z" fill="white"/>
<path d="M331.645 415.057C331.246 414.924 330.898 414.677 330.648 414.348C330.398 414.019 330.258 413.624 330.245 413.215L329.506 392.052C329.48 391.336 329.162 390.659 328.621 390.171C328.08 389.683 327.36 389.422 326.62 389.447L322.142 389.604C320.292 389.666 318.494 389.016 317.141 387.796C315.789 386.575 314.993 384.884 314.929 383.094L313.443 340.544C313.382 338.754 314.058 337.011 315.322 335.699C316.586 334.388 318.335 333.613 320.185 333.547L478.124 328.031C479.974 327.969 481.773 328.619 483.125 329.84C484.478 331.06 485.273 332.751 485.338 334.541L486.824 377.091C486.884 378.882 486.209 380.624 484.945 381.936C483.681 383.248 481.932 384.022 480.082 384.088L358.175 388.345C357.788 388.359 357.408 388.451 357.059 388.614C356.71 388.777 356.4 389.009 356.148 389.294L333.929 414.457C333.741 414.671 333.51 414.845 333.249 414.968C332.988 415.091 332.704 415.159 332.415 415.17C332.153 415.179 331.892 415.14 331.645 415.057ZM320.216 334.447C318.613 334.505 317.097 335.176 316.002 336.313C314.906 337.45 314.32 338.96 314.373 340.512L315.859 383.061C315.915 384.613 316.604 386.079 317.776 387.137C318.949 388.195 320.507 388.758 322.111 388.704L326.589 388.547C327.575 388.514 328.535 388.861 329.256 389.512C329.977 390.163 330.401 391.065 330.436 392.019L331.175 413.183C331.183 413.41 331.261 413.629 331.4 413.811C331.539 413.994 331.732 414.132 331.953 414.206C332.175 414.281 332.414 414.289 332.641 414.229C332.867 414.17 333.07 414.046 333.222 413.873L355.441 388.709C355.777 388.329 356.191 388.021 356.656 387.804C357.121 387.586 357.628 387.464 358.144 387.446L480.051 383.188C481.654 383.131 483.17 382.46 484.265 381.323C485.361 380.186 485.947 378.676 485.894 377.124L484.408 334.574C484.352 333.022 483.663 331.556 482.49 330.499C481.318 329.441 479.759 328.877 478.156 328.931L320.216 334.447Z" fill="#3F3D56"/>
<path d="M282.672 424.833C276.415 428.975 269.083 431.37 261.497 431.75C253.911 432.131 246.37 430.482 239.721 426.989C240.796 424.905 242.184 422.983 243.84 421.282C246.395 418.648 249.545 416.607 253.048 415.317C256.551 414.026 260.314 413.521 264.048 413.84C267.782 414.158 271.387 415.292 274.587 417.153C277.787 419.015 280.496 421.556 282.506 424.58C282.56 424.661 282.618 424.747 282.672 424.833Z" fill="#1684AC"/>
<path d="M259.784 403.752C271.099 403.357 279.959 394.088 279.573 383.049C279.188 372.01 269.703 363.382 258.388 363.777C247.073 364.172 238.213 373.441 238.598 384.48C238.984 395.519 248.469 404.148 259.784 403.752Z" fill="#2F2E41"/>
<path d="M261.733 406.16C269.936 405.874 276.174 398.887 275.664 390.555C275.154 382.223 268.091 375.701 259.887 375.987C251.684 376.274 245.446 383.26 245.956 391.592C246.466 399.924 253.529 406.447 261.733 406.16Z" fill="#FFB8B8"/>
<path d="M245.621 381.978C249.096 384.125 253.17 385.19 257.294 385.03C255.857 386.069 254.205 386.794 252.452 387.156C257.977 388.104 263.646 387.936 269.106 386.666C270.321 386.433 271.487 386 272.551 385.385C273.081 385.074 273.538 384.659 273.892 384.166C274.246 383.673 274.489 383.114 274.605 382.525C274.9 380.493 273.21 378.714 271.477 377.537C268.824 375.762 265.796 374.582 262.611 374.081C259.427 373.579 256.165 373.77 253.063 374.638C251.037 375.22 249.021 376.156 247.749 377.79C246.477 379.424 246.17 381.886 247.491 383.478L245.621 381.978Z" fill="#2F2E41"/>
<path d="M261.469 431.74C251.49 432.086 241.725 428.952 233.966 422.913C226.208 416.875 220.975 408.336 219.228 398.865C217.481 389.393 219.336 379.623 224.455 371.346C229.573 363.07 237.611 356.842 247.093 353.806C256.576 350.769 266.868 351.127 276.081 354.814C285.294 358.501 292.811 365.269 297.252 373.878C301.693 382.487 302.762 392.359 300.261 401.683C297.761 411.007 291.859 419.158 283.638 424.641C277.101 429.004 269.406 431.468 261.469 431.74ZM258.707 352.653C250.683 352.932 242.918 355.499 236.396 360.028C229.874 364.558 224.887 370.846 222.065 378.099C219.244 385.352 218.715 393.242 220.545 400.773C222.375 408.304 226.482 415.137 232.347 420.408C238.212 425.679 245.571 429.15 253.494 430.384C261.417 431.618 269.547 430.559 276.857 427.34C284.167 424.121 290.328 418.887 294.561 412.3C298.794 405.713 300.909 398.07 300.638 390.336C300.264 379.97 295.639 370.181 287.778 363.116C279.917 356.052 269.462 352.289 258.707 352.653Z" fill="#3F3D56"/>
<path d="M335.314 349.76C338.349 349.654 340.709 346.66 340.583 343.072C340.458 339.484 337.896 336.662 334.86 336.768C331.824 336.874 329.465 339.868 329.59 343.456C329.715 347.044 332.278 349.866 335.314 349.76Z" fill="#1684AC"/>
<path d="M476.395 373.259L332.991 378.267C332.563 378.282 332.138 378.219 331.738 378.083C331.338 377.946 330.971 377.738 330.659 377.47C330.347 377.202 330.096 376.88 329.92 376.521C329.744 376.163 329.646 375.776 329.632 375.382C329.618 374.988 329.689 374.595 329.84 374.225C329.991 373.855 330.219 373.516 330.511 373.227C330.804 372.938 331.155 372.705 331.544 372.541C331.934 372.377 332.354 372.285 332.781 372.27L476.186 367.262C477.048 367.232 477.886 367.519 478.515 368.06C479.144 368.601 479.513 369.352 479.541 370.147C479.568 370.942 479.253 371.717 478.663 372.3C478.073 372.884 477.257 373.229 476.395 373.259Z" fill="#E6E6E6"/>
<path d="M429.422 361.078L332.969 364.446C332.543 364.462 332.118 364.399 331.719 364.263C331.32 364.126 330.955 363.918 330.643 363.65C330.332 363.382 330.082 363.059 329.906 362.701C329.73 362.343 329.632 361.956 329.618 361.562C329.605 361.168 329.675 360.775 329.825 360.405C329.976 360.035 330.204 359.696 330.495 359.407C330.787 359.118 331.137 358.885 331.526 358.721C331.914 358.556 332.334 358.465 332.76 358.45L429.213 355.082C430.072 355.053 430.907 355.34 431.533 355.881C432.16 356.422 432.528 357.172 432.556 357.967C432.583 358.762 432.269 359.536 431.681 360.119C431.094 360.702 430.281 361.047 429.422 361.078Z" fill="#E6E6E6"/>
<path d="M331.139 416.763C337.486 416.542 342.608 415.691 342.579 414.863C342.55 414.035 337.381 413.544 331.034 413.765C324.687 413.987 319.564 414.838 319.593 415.666C319.622 416.494 324.791 416.985 331.139 416.763Z" fill="#F2F2F2"/>
<path d="M475.474 305.159C468.647 301.475 460.821 299.609 452.874 299.771C444.927 299.933 437.172 302.116 430.479 306.075C431.75 308.077 433.337 309.896 435.187 311.474C438.042 313.919 441.477 315.73 445.226 316.767C448.976 317.804 452.94 318.039 456.816 317.455C460.691 316.871 464.374 315.483 467.582 313.397C470.79 311.312 473.437 308.584 475.32 305.424C475.37 305.339 475.424 305.249 475.474 305.159Z" fill="#1684AC"/>
<path d="M454.905 251.776C466.496 251.371 476.197 259.768 476.573 270.531C476.949 281.294 467.857 290.348 456.267 290.752C444.676 291.157 434.975 282.76 434.599 271.997C434.223 261.234 443.315 252.181 454.905 251.776Z" fill="#2F2E41"/>
<path d="M453.586 262.416C461.814 262.129 468.389 268.781 468.271 277.275C468.153 285.768 461.387 292.887 453.159 293.174C444.932 293.461 438.357 286.809 438.475 278.315C438.593 269.822 445.359 262.704 453.586 262.416Z" fill="#FFB8B8"/>
<path d="M439.571 267.563C442.888 265.178 446.878 263.832 451.003 263.704C449.497 262.768 447.799 262.159 446.025 261.92C451.47 260.59 457.137 260.361 462.672 261.248C463.901 261.395 465.094 261.746 466.198 262.285C466.749 262.558 467.234 262.941 467.621 263.408C468.008 263.874 468.29 264.415 468.447 264.995C468.883 267.002 467.321 268.894 465.674 270.189C463.152 272.144 460.213 273.533 457.071 274.255C453.929 274.978 450.662 275.015 447.507 274.366C445.446 273.926 443.369 273.134 441.986 271.592C440.604 270.05 440.125 267.616 441.332 265.936L439.571 267.563Z" fill="#2F2E41"/>
<path d="M452.677 238.789C442.458 239.149 432.703 242.965 425.203 249.536C417.702 256.107 412.959 264.994 411.843 274.566C410.727 284.137 413.313 293.752 419.126 301.647C424.939 309.542 433.59 315.187 443.493 317.546C453.395 319.906 463.884 318.823 473.036 314.494C482.188 310.166 489.389 302.883 493.319 293.982C497.249 285.081 497.643 275.158 494.43 266.034C491.217 256.909 484.612 249.195 475.827 244.306C468.84 240.415 460.805 238.501 452.677 238.789ZM455.439 317.877C447.221 318.164 439.108 316.152 432.125 312.094C425.142 308.036 419.603 302.115 416.208 295.08C412.813 288.044 411.716 280.21 413.054 272.569C414.392 264.927 418.106 257.821 423.725 252.149C429.345 246.478 436.618 242.495 444.625 240.705C452.632 238.915 461.014 239.397 468.709 242.092C476.404 244.787 483.068 249.573 487.857 255.845C492.647 262.117 495.347 269.592 495.616 277.326C495.966 287.693 491.932 297.784 484.4 305.386C476.868 312.988 466.452 317.48 455.439 317.877Z" fill="#3F3D56"/>
<path d="M384.22 285.253C383.924 285.263 383.629 285.215 383.354 285.112C383.079 285.01 382.831 284.855 382.624 284.657L358.178 261.42C357.901 261.157 357.568 260.951 357.2 260.815C356.832 260.678 356.438 260.615 356.042 260.628L231.3 264.984C229.407 265.048 227.568 264.408 226.186 263.204C224.803 262 223.991 260.331 223.927 258.562L222.46 216.532C222.4 214.763 223.094 213.041 224.389 211.743C225.683 210.446 227.474 209.679 229.367 209.611L390.979 203.967C392.872 203.903 394.712 204.543 396.094 205.747C397.476 206.951 398.288 208.621 398.352 210.389L399.82 252.42C399.88 254.189 399.186 255.911 397.891 257.208C396.596 258.506 394.806 259.273 392.913 259.341L388.331 259.501C387.574 259.528 386.858 259.835 386.339 260.354C385.821 260.873 385.544 261.562 385.568 262.269L386.298 283.175C386.314 283.578 386.198 283.977 385.966 284.319C385.733 284.66 385.396 284.928 384.998 285.087C384.751 285.187 384.488 285.243 384.22 285.253Z" fill="white"/>
<path d="M384.22 285.253C383.924 285.263 383.629 285.215 383.354 285.112C383.079 285.01 382.831 284.855 382.624 284.657L358.178 261.42C357.901 261.157 357.568 260.951 357.2 260.815C356.832 260.678 356.438 260.615 356.042 260.628L231.3 264.984C229.407 265.048 227.568 264.408 226.186 263.204C224.803 262 223.991 260.331 223.927 258.562L222.46 216.532C222.4 214.763 223.094 213.041 224.389 211.743C225.683 210.446 227.474 209.679 229.367 209.611L390.979 203.967C392.872 203.903 394.712 204.543 396.094 205.747C397.476 206.951 398.288 208.621 398.352 210.389L399.82 252.42C399.88 254.189 399.186 255.911 397.891 257.208C396.596 258.506 394.806 259.273 392.913 259.341L388.331 259.501C387.574 259.528 386.858 259.835 386.339 260.354C385.821 260.873 385.544 261.562 385.568 262.269L386.298 283.175C386.314 283.578 386.198 283.977 385.966 284.319C385.733 284.66 385.396 284.928 384.998 285.087C384.751 285.187 384.488 285.243 384.22 285.253ZM229.398 210.5C227.757 210.559 226.205 211.224 225.083 212.348C223.961 213.473 223.359 214.965 223.411 216.498L224.879 258.529C224.934 260.062 225.638 261.509 226.836 262.553C228.034 263.596 229.629 264.151 231.269 264.095L356.011 259.739C356.539 259.721 357.065 259.806 357.555 259.988C358.045 260.169 358.489 260.444 358.858 260.795L383.305 284.032C383.472 284.191 383.688 284.299 383.924 284.342C384.159 284.385 384.403 284.36 384.624 284.271C384.844 284.182 385.031 284.033 385.16 283.843C385.289 283.653 385.354 283.432 385.346 283.208L384.616 262.303C384.585 261.359 384.955 260.441 385.645 259.749C386.336 259.057 387.291 258.648 388.3 258.612L392.882 258.452C394.523 258.393 396.074 257.728 397.197 256.603C398.319 255.479 398.92 253.986 398.869 252.453L397.401 210.423C397.345 208.89 396.642 207.443 395.443 206.399C394.245 205.356 392.651 204.801 391.01 204.856L229.398 210.5Z" fill="#3F3D56"/>
<path d="M242.278 224.761C245.866 224.635 248.688 222.073 248.582 219.037C248.476 216.001 245.482 213.642 241.894 213.767C238.307 213.893 235.484 216.455 235.59 219.491C235.696 222.527 238.691 224.886 242.278 224.761Z" fill="#1684AC" fill-opacity="0.7"/>
<path d="M384.334 249.208L238.058 254.316C237.622 254.332 237.188 254.27 236.78 254.133C236.372 253.997 235.998 253.789 235.68 253.521C235.362 253.253 235.106 252.931 234.927 252.573C234.747 252.215 234.648 251.828 234.634 251.434C234.62 251.04 234.692 250.647 234.847 250.277C235.001 249.907 235.234 249.568 235.532 249.278C235.831 248.989 236.189 248.756 236.586 248.591C236.984 248.427 237.413 248.334 237.848 248.32L384.125 243.212C385.004 243.182 385.857 243.469 386.497 244.009C387.138 244.55 387.513 245.3 387.541 246.094C387.569 246.889 387.246 247.663 386.645 248.247C386.044 248.831 385.213 249.176 384.334 249.208Z" fill="#E6E6E6"/>
<path d="M336.371 237.045L238.049 240.479C237.615 240.495 237.182 240.419 236.774 240.258C236.367 240.096 235.993 239.852 235.674 239.537C235.355 239.223 235.098 238.846 234.917 238.427C234.736 238.008 234.634 237.556 234.618 237.097C234.602 236.637 234.672 236.179 234.823 235.748C234.975 235.318 235.205 234.923 235.501 234.588C235.797 234.252 236.153 233.982 236.548 233.792C236.944 233.603 237.371 233.498 237.805 233.483L336.127 230.05C337.004 230.019 337.857 230.358 338.5 230.992C339.143 231.627 339.522 232.504 339.554 233.432C339.587 234.36 339.27 235.262 338.673 235.939C338.076 236.617 337.248 237.015 336.371 237.045Z" fill="#E6E6E6"/>
<path d="M382.638 292.763C389.262 292.532 394.608 291.673 394.579 290.845C394.55 290.017 389.157 289.534 382.534 289.765C375.91 289.996 370.564 290.855 370.593 291.683C370.622 292.511 376.015 292.994 382.638 292.763Z" fill="#F2F2F2"/>
<path d="M469.181 185.754C478.012 185.446 484.905 177.589 484.578 168.206C484.25 158.823 476.825 151.466 467.994 151.775C459.163 152.083 452.27 159.94 452.597 169.323C452.925 178.706 460.35 186.062 469.181 185.754Z" fill="#E6E6E6"/>
<path d="M466.404 178.294C465.867 178.314 465.337 178.147 464.895 177.82L464.868 177.799L459.096 173.434C458.556 173.024 458.19 172.405 458.079 171.71C457.968 171.016 458.12 170.305 458.503 169.733C458.886 169.161 459.468 168.774 460.121 168.659C460.774 168.544 461.444 168.709 461.984 169.118L465.723 171.953L473.897 159.746C474.28 159.174 474.862 158.789 475.514 158.674C476.166 158.559 476.836 158.724 477.375 159.133L477.325 159.213L477.377 159.133C477.916 159.542 478.281 160.162 478.392 160.855C478.503 161.549 478.35 162.259 477.968 162.831L468.354 177.191C468.131 177.522 467.84 177.793 467.502 177.984C467.165 178.176 466.79 178.281 466.406 178.293L466.404 178.294Z" fill="#1684AC"/>
<path d="M469.181 185.754C478.012 185.446 484.905 177.589 484.578 168.206C484.25 158.823 476.825 151.466 467.994 151.775C459.163 152.083 452.27 159.94 452.597 169.323C452.925 178.706 460.35 186.062 469.181 185.754Z" fill="#E6E6E6"/>
<path d="M466.404 178.294C465.867 178.314 465.337 178.147 464.895 177.82L464.868 177.799L459.096 173.434C458.556 173.024 458.19 172.405 458.079 171.71C457.968 171.016 458.12 170.305 458.503 169.733C458.886 169.161 459.468 168.774 460.121 168.659C460.774 168.544 461.444 168.709 461.984 169.118L465.723 171.953L473.897 159.746C474.28 159.174 474.862 158.789 475.514 158.674C476.166 158.559 476.836 158.724 477.375 159.133L477.325 159.213L477.377 159.133C477.916 159.542 478.281 160.162 478.392 160.855C478.503 161.549 478.35 162.259 477.968 162.831L468.354 177.191C468.131 177.522 467.84 177.793 467.502 177.984C467.165 178.176 466.79 178.281 466.406 178.293L466.404 178.294Z" fill="#1684AC"/>
<path d="M234.087 307.857C242.918 307.549 249.812 299.693 249.484 290.309C249.156 280.926 241.732 273.57 232.9 273.878C224.069 274.187 217.176 282.043 217.503 291.426C217.831 300.809 225.256 308.166 234.087 307.857Z" fill="#E6E6E6"/>
<path d="M231.31 300.398C230.773 300.417 230.243 300.251 229.802 299.923L229.774 299.903L224.003 295.537C223.462 295.128 223.096 294.508 222.985 293.814C222.874 293.12 223.027 292.409 223.41 291.836C223.793 291.264 224.374 290.878 225.027 290.763C225.68 290.647 226.35 290.813 226.891 291.222L230.629 294.056L238.804 281.849C239.186 281.278 239.768 280.892 240.42 280.777C241.072 280.662 241.742 280.827 242.282 281.236L242.231 281.317L242.284 281.236C242.823 281.646 243.188 282.265 243.298 282.959C243.409 283.652 243.257 284.363 242.875 284.934L233.26 299.295C233.038 299.625 232.746 299.897 232.409 300.088C232.071 300.279 231.696 300.385 231.313 300.397L231.31 300.398Z" fill="#1684AC"/>
<path d="M471.273 423.65C480.104 423.342 486.997 415.485 486.669 406.102C486.342 396.719 478.917 389.363 470.086 389.671C461.255 389.979 454.361 397.836 454.689 407.219C455.017 416.602 462.441 423.959 471.273 423.65Z" fill="#E6E6E6"/>
<path d="M468.496 416.191C467.958 416.21 467.429 416.044 466.987 415.716L466.96 415.696L461.188 411.33C460.648 410.921 460.282 410.301 460.171 409.607C460.059 408.913 460.212 408.202 460.595 407.629C460.978 407.057 461.56 406.671 462.213 406.556C462.866 406.44 463.536 406.606 464.076 407.015L467.815 409.849L475.989 397.642C476.372 397.071 476.953 396.685 477.606 396.57C478.258 396.455 478.927 396.62 479.467 397.029L479.417 397.11L479.469 397.029C480.008 397.439 480.373 398.058 480.484 398.752C480.595 399.445 480.442 400.156 480.06 400.727L470.446 415.088C470.223 415.418 469.932 415.69 469.594 415.881C469.256 416.072 468.881 416.178 468.498 416.19L468.496 416.191Z" fill="#1684AC"/>
<path d="M471.273 423.65C480.104 423.342 486.997 415.485 486.669 406.102C486.342 396.719 478.917 389.363 470.086 389.671C461.255 389.979 454.361 397.836 454.689 407.219C455.017 416.602 462.441 423.959 471.273 423.65Z" fill="#E6E6E6"/>
<path d="M468.496 416.191C467.958 416.21 467.429 416.044 466.987 415.716L466.96 415.696L461.188 411.33C460.648 410.921 460.282 410.301 460.171 409.607C460.059 408.913 460.212 408.202 460.595 407.629C460.978 407.057 461.56 406.671 462.213 406.556C462.866 406.44 463.536 406.606 464.076 407.015L467.815 409.849L475.989 397.642C476.372 397.071 476.953 396.685 477.606 396.57C478.258 396.455 478.927 396.62 479.467 397.029L479.417 397.11L479.469 397.029C480.008 397.439 480.373 398.058 480.484 398.752C480.595 399.445 480.442 400.156 480.06 400.727L470.446 415.088C470.223 415.418 469.932 415.69 469.594 415.881C469.256 416.072 468.881 416.178 468.498 416.19L468.496 416.191Z" fill="#1684AC"/>
<path d="M234.087 307.857C242.918 307.549 249.812 299.693 249.484 290.309C249.156 280.926 241.732 273.57 232.9 273.878C224.069 274.187 217.176 282.043 217.503 291.426C217.831 300.809 225.256 308.166 234.087 307.857Z" fill="#E6E6E6"/>
<path d="M231.31 300.398C230.773 300.417 230.243 300.251 229.802 299.923L229.774 299.903L224.003 295.537C223.462 295.128 223.096 294.508 222.985 293.814C222.874 293.12 223.027 292.409 223.41 291.836C223.793 291.264 224.374 290.878 225.027 290.763C225.68 290.647 226.35 290.813 226.891 291.222L230.629 294.056L238.804 281.849C239.186 281.278 239.768 280.892 240.42 280.777C241.072 280.662 241.742 280.827 242.282 281.236L242.231 281.317L242.284 281.236C242.823 281.646 243.188 282.265 243.298 282.959C243.409 283.652 243.257 284.363 242.875 284.934L233.26 299.295C233.038 299.625 232.746 299.897 232.409 300.088C232.071 300.279 231.696 300.385 231.313 300.397L231.31 300.398Z" fill="#1684AC"/>
<path d="M471.273 423.65C480.104 423.342 486.997 415.485 486.669 406.102C486.342 396.719 478.917 389.363 470.086 389.671C461.255 389.979 454.361 397.836 454.689 407.219C455.017 416.602 462.441 423.959 471.273 423.65Z" fill="#E6E6E6"/>
<path d="M468.496 416.191C467.958 416.21 467.429 416.044 466.987 415.716L466.96 415.696L461.188 411.33C460.648 410.921 460.282 410.301 460.171 409.607C460.059 408.913 460.212 408.202 460.595 407.629C460.978 407.057 461.56 406.671 462.213 406.556C462.866 406.44 463.536 406.606 464.076 407.015L467.815 409.849L475.989 397.642C476.372 397.071 476.953 396.685 477.606 396.57C478.258 396.455 478.927 396.62 479.467 397.029L479.417 397.11L479.469 397.029C480.008 397.439 480.373 398.058 480.484 398.752C480.595 399.445 480.442 400.156 480.06 400.727L470.446 415.088C470.223 415.418 469.932 415.69 469.594 415.881C469.256 416.072 468.881 416.178 468.498 416.19L468.496 416.191Z" fill="#1684AC"/>
<path d="M471.273 423.65C480.104 423.342 486.997 415.485 486.669 406.102C486.342 396.719 478.917 389.363 470.086 389.671C461.255 389.979 454.361 397.836 454.689 407.219C455.017 416.602 462.441 423.959 471.273 423.65Z" fill="#E6E6E6"/>
<path d="M468.496 416.191C467.958 416.21 467.429 416.044 466.987 415.716L466.96 415.696L461.188 411.33C460.648 410.921 460.282 410.301 460.171 409.607C460.059 408.913 460.212 408.202 460.595 407.629C460.978 407.057 461.56 406.671 462.213 406.556C462.866 406.44 463.536 406.606 464.076 407.015L467.815 409.849L475.989 397.642C476.372 397.071 476.953 396.685 477.606 396.57C478.258 396.455 478.927 396.62 479.467 397.029L479.417 397.11L479.469 397.029C480.008 397.439 480.373 398.058 480.484 398.752C480.595 399.445 480.442 400.156 480.06 400.727L470.446 415.088C470.223 415.418 469.932 415.69 469.594 415.881C469.256 416.072 468.881 416.178 468.498 416.19L468.496 416.191Z" fill="#1684AC"/>
<defs>
<filter id="filter0_d_1382_1028" x="0" y="0.000244141" width="536.174" height="526.529" filterUnits="userSpaceOnUse" color-interpolation-filters="sRGB">
<feFlood flood-opacity="0" result="BackgroundImageFix"/>
<feColorMatrix in="SourceAlpha" type="matrix" values="0 0 0 0 0 0 0 0 0 0 0 0 0 0 0 0 0 0 127 0" result="hardAlpha"/>
<feOffset dy="4"/>
<feGaussianBlur stdDeviation="2"/>
<feComposite in2="hardAlpha" operator="out"/>
<feColorMatrix type="matrix" values="0 0 0 0 0 0 0 0 0 0 0 0 0 0 0 0 0 0 0.25 0"/>
<feBlend mode="normal" in2="BackgroundImageFix" result="effect1_dropShadow_1382_1028"/>
<feBlend mode="normal" in="SourceGraphic" in2="effect1_dropShadow_1382_1028" result="shape"/>
</filter>
<filter id="filter1_d_1382_1028" x="8.90625" y="19.334" width="173.359" height="512.86" filterUnits="userSpaceOnUse" color-interpolation-filters="sRGB">
<feFlood flood-opacity="0" result="BackgroundImageFix"/>
<feColorMatrix in="SourceAlpha" type="matrix" values="0 0 0 0 0 0 0 0 0 0 0 0 0 0 0 0 0 0 127 0" result="hardAlpha"/>
<feOffset dy="4"/>
<feGaussianBlur stdDeviation="2"/>
<feComposite in2="hardAlpha" operator="out"/>
<feColorMatrix type="matrix" values="0 0 0 0 0 0 0 0 0 0 0 0 0 0 0 0 0 0 0.25 0"/>
<feBlend mode="normal" in2="BackgroundImageFix" result="effect1_dropShadow_1382_1028"/>
<feBlend mode="normal" in="SourceGraphic" in2="effect1_dropShadow_1382_1028" result="shape"/>
</filter>
</defs>
</svg>
