<svg width="902" height="928" viewBox="0 0 902 928" fill="none" xmlns="http://www.w3.org/2000/svg">
<path d="M425.677 538.649C427.096 539.114 428.61 538.949 429.933 538.185C431.256 537.422 432.295 536.114 432.854 534.508C433.412 532.902 433.452 531.111 432.965 529.473C432.477 527.835 431.497 526.465 430.21 525.622L417.44 508.551L406.64 511.3L421.83 528.833C421.457 529.766 421.261 530.783 421.258 531.814C421.254 532.844 421.442 533.864 421.809 534.8C422.176 535.735 422.712 536.565 423.381 537.23C424.049 537.895 424.833 538.38 425.677 538.649Z" fill="#A0616A"/>
<path d="M383.666 477.533L415.493 524.61L425.194 519.361L387.785 450.732L383.666 477.533Z" fill="#3F3D56"/>
<path d="M528.356 640.235C530.35 635.676 529.267 629.923 526.784 625.709C524.301 621.495 520.635 618.492 517.049 615.583L512.063 611.537L514.445 625.622C515.249 630.385 516.24 635.527 519.396 638.649C520.635 639.846 522.115 640.647 523.693 640.975C525.272 641.303 526.895 641.146 528.407 640.519" fill="#E6E6E6"/>
<path d="M527.979 657.572C527.953 657.68 527.893 657.771 527.81 657.827C527.727 657.882 527.63 657.897 527.538 657.867C527.448 657.835 527.372 657.763 527.325 657.666C527.279 657.57 527.265 657.456 527.288 657.348C527.566 654.963 527.841 652.576 527.971 650.173C528.188 646.199 527.988 642.121 526.739 638.38C525.609 635.016 523.602 632.162 521.006 630.229C520.617 629.939 520.977 629.209 521.368 629.5C522.868 630.613 524.192 632.027 525.28 633.676C527.329 636.79 528.336 640.588 528.65 644.476C529.004 648.854 528.485 653.241 527.981 657.573L527.979 657.572Z" fill="#F2F2F2"/>
<path d="M477.232 630.82C492.941 642.211 487.704 657.399 487.704 657.399L477.232 630.82Z" fill="#E6E6E6"/>
<path d="M508.105 646.391C495.742 646.298 494.145 657.124 494.145 657.124L508.105 646.391Z" fill="#E6E6E6"/>
<path d="M308.658 658.297C310.586 658.297 312.149 656.456 312.149 654.184C312.149 651.912 310.586 650.07 308.658 650.07C306.73 650.07 305.167 651.912 305.167 654.184C305.167 656.456 306.73 658.297 308.658 658.297Z" fill="#3F3D56"/>
<path d="M311.196 571.354C311.196 571.354 319.447 541.812 320.082 539.755C320.717 537.698 327.381 541.064 329.126 541.625C330.872 542.186 330.396 544.242 330.396 544.242L321.51 574.532L324.207 576.028L332.458 545.551C337.219 539.755 333.728 539.381 333.728 539.381C333.728 539.381 323.573 535.267 319.765 534.893C315.957 534.52 317.385 539.942 317.385 539.942L308.182 568.736L311.196 571.354Z" fill="#3F3D56"/>
<path d="M331.031 578.458L331.029 578.456C329.858 576.478 328.196 574.976 326.271 574.157C326.202 574.127 326.123 574.094 326.033 574.056C321.661 572.256 291.204 562.565 291.204 562.565C291.204 562.565 285.175 559.947 282.477 567.052C279.78 574.157 263.754 633.055 263.754 633.055C263.754 633.055 295.098 652.807 304.236 654.957C304.8 655.117 305.382 655.171 305.961 655.118C307.514 654.864 309.043 654.434 310.526 653.833C312.166 653.204 313.726 652.315 315.164 651.191L332.935 588.554C332.935 588.554 335.474 581.636 331.031 578.458Z" fill="#1684AC"/>
<path d="M331.03 578.458L331.029 578.456C329.858 576.478 328.195 574.976 326.27 574.158C326.202 574.128 326.122 574.094 326.032 574.057C327.47 577.026 328.015 581.637 328.015 581.637C328.015 581.637 310.562 642.778 308.975 648.574C307.766 652.992 305.327 654.494 304.235 654.957C304.8 655.117 305.382 655.172 305.96 655.118C307.513 654.864 309.042 654.434 310.525 653.834C310.959 653.248 311.343 652.613 311.672 651.94C311.672 651.94 329.444 589.303 331.03 586.311C332.617 583.319 331.03 578.458 331.03 578.458Z" fill="#3F3D56"/>
<path d="M297.948 658.391C299.876 658.391 301.439 656.549 301.439 654.278C301.439 652.006 299.876 650.164 297.948 650.164C296.02 650.164 294.457 652.006 294.457 654.278C294.457 656.549 296.02 658.391 297.948 658.391Z" fill="#3F3D56"/>
<path d="M264.071 641.095C265.999 641.095 267.562 639.253 267.562 636.982C267.562 634.71 265.999 632.868 264.071 632.868C262.143 632.868 260.58 634.71 260.58 636.982C260.58 639.253 262.143 641.095 264.071 641.095Z" fill="#3F3D56"/>
<path d="M325.601 542.259C324.197 542.783 322.679 542.681 321.334 541.974C319.989 541.267 318.911 540.003 318.304 538.422C317.697 536.84 317.604 535.052 318.041 533.395C318.479 531.737 319.417 530.327 320.678 529.43L332.923 511.834L343.8 514.129L329.149 532.288C329.55 533.204 329.776 534.212 329.811 535.242C329.846 536.272 329.689 537.299 329.35 538.249C329.012 539.2 328.501 540.052 327.853 540.745C327.206 541.437 326.437 541.954 325.601 542.259Z" fill="#A0616A"/>
<path d="M409.061 619.685L416.646 619.545L415.733 650.01H409.062L409.061 619.685Z" fill="#A0616A"/>
<path d="M407.359 647.442L420.499 647.441H420.499C422.72 647.442 424.85 648.481 426.42 650.332C427.99 652.182 428.872 654.691 428.873 657.308V657.629L407.36 657.63L407.359 647.442Z" fill="#2F2E41"/>
<path d="M358.838 611.605L367.125 617.874L350.55 641.371L344.936 637.124L358.838 611.605Z" fill="#A0616A"/>
<path d="M344.68 633.879L355.737 642.244L355.738 642.244C357.606 643.658 358.922 645.889 359.395 648.445C359.868 651.002 359.459 653.676 358.26 655.878L358.113 656.148L340.01 642.452L344.68 633.879Z" fill="#2F2E41"/>
<path d="M355.887 518.578C355.887 518.578 374.298 446.523 380.214 445.549C386.131 444.575 395.664 464.038 395.664 464.038C408.024 482.621 420.769 542.815 420.769 542.815C420.769 542.815 399.522 544.382 383.991 554.119C368.46 563.856 350.131 553.626 350.131 553.626L355.887 518.578Z" fill="#3F3D56"/>
<path opacity="0.1" d="M355.887 518.579C355.887 518.579 374.298 446.523 380.214 445.55C386.131 444.576 393.243 464.236 393.243 464.236C399.401 494.233 420.769 542.816 420.769 542.816C420.769 542.816 399.522 544.382 383.991 554.12C368.46 563.857 350.131 553.627 350.131 553.627L355.887 518.579Z" fill="black"/>
<path d="M370.991 497.02V533.228L367.374 585.677L349.309 625.351L357.931 632.608L382.566 594.869L392.31 557.397L407.612 640.349L419.109 639.382L411.124 524.37L395.973 491.997L370.991 497.02Z" fill="#2F2E41"/>
<path d="M389.554 461.999C395.302 468.773 389.964 476.03 389.964 476.03L396.534 493.448L370.667 501.673L361.627 454.075L367.786 446.333C380.103 445.85 380.11 445.549 380.11 445.549C382.268 448.038 389.554 461.999 389.554 461.999Z" fill="#CCCCCC"/>
<path d="M360.442 449.268C358.304 451.121 356.804 453.82 356.217 456.871C355.631 459.922 355.997 463.119 357.249 465.877C360.212 472.543 363.4 482.869 361.756 494.205C358.782 514.721 349.247 530.308 343.936 535.313C342.087 537.056 342.022 539.594 342.294 541.416C343.052 546.506 347.24 552.282 350.137 553.44C350.332 553.516 350.537 553.554 350.742 553.552C355.448 553.554 367.024 535.892 380.327 501.39C388.612 479.903 382.599 462.674 376.096 452.005C375.242 450.609 374.162 449.426 372.918 448.525C371.674 447.625 370.29 447.024 368.848 446.758C367.405 446.492 365.932 446.566 364.513 446.975C363.095 447.385 361.76 448.122 360.585 449.144L360.442 449.268Z" fill="#3F3D56"/>
<path d="M372.712 470.041L335.355 527.8L325.501 522.962L360.812 452.807L372.712 470.041Z" fill="#3F3D56"/>
<path d="M383.793 439.279H358.099C357.57 439.278 357.064 439.03 356.69 438.59C356.316 438.15 356.106 437.552 356.105 436.93V423.879C356.104 421.582 356.488 419.307 357.233 417.184C357.978 415.061 359.071 413.132 360.449 411.507C361.828 409.882 363.464 408.593 365.265 407.714C367.066 406.834 368.997 406.382 370.946 406.382C372.896 406.382 374.826 406.834 376.627 407.714C378.428 408.593 380.065 409.882 381.443 411.507C382.821 413.132 383.914 415.061 384.659 417.184C385.405 419.307 385.788 421.582 385.787 423.879V436.93C385.786 437.552 385.576 438.15 385.202 438.59C384.828 439.03 384.322 439.278 383.793 439.279Z" fill="#2F2E41"/>
<path d="M383.543 432.304C386.425 426.09 384.488 418.3 379.215 414.903C373.942 411.507 367.331 413.79 364.448 420.004C361.566 426.217 363.504 434.007 368.777 437.404C374.05 440.8 380.661 438.517 383.543 432.304Z" fill="#A0616A"/>
<path d="M389.298 425.184H373.586L373.425 422.526L372.62 425.184H370.2L369.881 419.915L368.285 425.184H363.604V424.923C363.607 421.255 364.845 417.739 367.046 415.145C369.247 412.552 372.231 411.093 375.343 411.089H377.558C380.671 411.093 383.655 412.552 385.855 415.145C388.056 417.739 389.294 421.255 389.298 424.923V425.184Z" fill="#2F2E41"/>
<path d="M373.458 441.715C373.34 441.715 373.222 441.702 373.105 441.678L361.601 439.286V416.881H374.265L373.951 417.312C369.589 423.307 372.876 433.028 375.223 438.289C375.396 438.674 375.473 439.109 375.445 439.544C375.418 439.979 375.287 440.396 375.067 440.746C374.883 441.046 374.641 441.29 374.361 441.459C374.082 441.627 373.772 441.715 373.458 441.715Z" fill="#2F2E41"/>
<path d="M203 657.907C203 657.778 203.043 657.655 203.12 657.565C203.197 657.474 203.302 657.423 203.411 657.423H551.589C551.698 657.423 551.803 657.474 551.88 657.565C551.957 657.655 552 657.778 552 657.907C552 658.035 551.957 658.158 551.88 658.249C551.803 658.34 551.698 658.391 551.589 658.391H203.411C203.302 658.391 203.197 658.34 203.12 658.249C203.043 658.158 203 658.035 203 657.907Z" fill="#CBCBCB"/>
<path d="M521 351.391C527.627 351.391 533 346.466 533 340.391C533 334.315 527.627 329.391 521 329.391C514.373 329.391 509 334.315 509 340.391C509 346.466 514.373 351.391 521 351.391Z" fill="#1684AC"/>
<path d="M546.739 335.204C546.408 334.223 545.769 333.351 544.899 332.695C544.03 332.039 542.968 331.628 541.845 331.513C541.82 331.51 541.796 331.514 541.77 331.512C541.738 331.503 541.704 331.496 541.67 331.491C536.325 330.865 530.155 333.185 527.928 337.784C527.384 337.111 526.669 336.569 525.842 336.203C525.016 335.838 524.104 335.661 523.186 335.686C522.001 335.758 520.87 336.159 519.946 336.835C519.021 337.512 518.349 338.43 518.02 339.465C517.985 339.592 517.996 339.726 518.05 339.847C518.104 339.968 518.2 340.07 518.322 340.138C518.675 340.41 519.093 340.602 519.543 340.701C520.514 340.887 521.488 341.058 522.466 341.214C524.373 341.517 526.291 341.762 528.218 341.949C532.131 342.329 536.068 342.464 540.001 342.353C541.311 342.316 542.575 342.276 543.775 341.752C544.648 341.36 545.394 340.769 545.94 340.037C546.454 339.333 546.791 338.536 546.93 337.701C547.068 336.866 547.002 336.014 546.739 335.204Z" fill="#F0F0F0"/>
<path d="M522.739 349.551C522.408 348.48 521.769 347.529 520.899 346.813C520.03 346.098 518.968 345.65 517.845 345.524C517.82 345.52 517.796 345.525 517.77 345.523C517.738 345.514 517.704 345.506 517.671 345.501C512.325 344.817 506.155 347.348 503.928 352.365C503.384 351.631 502.669 351.039 501.842 350.641C501.016 350.242 500.104 350.049 499.186 350.077C498.001 350.155 496.87 350.593 495.945 351.33C495.021 352.068 494.349 353.07 494.02 354.199C493.985 354.338 493.996 354.483 494.05 354.615C494.104 354.747 494.2 354.859 494.322 354.933C494.675 355.23 495.093 355.44 495.543 355.547C496.514 355.751 497.488 355.937 498.466 356.107C500.373 356.437 502.291 356.704 504.218 356.908C508.131 357.324 512.068 357.471 516.001 357.349C517.311 357.309 518.575 357.266 519.775 356.693C520.648 356.266 521.394 355.622 521.94 354.823C522.454 354.055 522.791 353.185 522.93 352.275C523.068 351.364 523.002 350.434 522.739 349.551Z" fill="#F0F0F0"/>
<path d="M653 456.891C653.003 469.039 650.405 481.068 645.355 492.292C640.306 503.515 632.903 513.714 623.57 522.303C614.237 530.893 603.157 537.707 590.963 542.354C578.768 547.002 565.699 549.393 552.5 549.391C496.996 549.391 452 507.976 452 456.891C451.99 446.954 453.721 437.08 457.126 427.65C463.809 409.234 476.614 393.217 493.729 381.865C510.844 370.513 531.404 364.4 552.5 364.391C570.694 364.385 588.549 368.927 604.157 377.531C619.766 386.136 632.543 398.48 641.124 413.246C643.252 416.889 645.108 420.661 646.68 424.536C646.897 425.076 647.11 425.615 647.316 426.16V426.165C648.237 428.56 649.049 430.999 649.75 433.483C651.915 441.126 653.007 448.992 653 456.891Z" fill="#3F3D56"/>
<path d="M542 394.169C537.424 391.896 532.344 390.612 527.146 390.417C521.948 390.221 516.771 391.119 512.008 393.042C507.814 394.719 503.399 397.727 502 403.159C507.658 400.091 514.982 404.938 516.438 412.715L516.098 412.801C515.329 418.187 517.045 424.051 520.369 427.391C520.805 423.922 523.288 421.56 525.729 420.086C528.171 418.611 530.873 417.539 532.736 415.004C534.946 411.999 535.507 407.606 536.385 403.6C537.262 399.593 538.928 395.286 542 394.169Z" fill="white"/>
<path d="M510.639 439.478C509.077 441.609 506.991 442.946 505.119 444.611C503.253 446.281 501.477 448.534 501.105 451.428C500.868 453.282 501.235 455.167 501.184 457.042C501.133 458.917 500.445 461.027 499.042 461.493C496.826 462.22 495.134 458.481 492.857 458.22C491.047 458.015 489.418 460.602 489.942 462.845C490.466 465.089 492.93 466.083 494.345 464.618C495.625 466.569 494.723 470.109 492.8 470.708C492.597 471.937 492.395 473.161 492.197 474.391C487.337 471.302 482.427 468.162 478.294 463.639C473.698 458.652 470.847 452.53 470.108 446.06C469.572 440.861 470.367 434.915 467.74 430.914C465.637 427.713 462.029 427.006 458.782 427.206C458.19 427.242 457.592 427.303 457 427.37C458.915 422.144 461.347 417.086 464.267 412.259C464.928 412.002 465.542 411.655 466.088 411.23C469.11 408.899 470.452 404.182 472.904 400.919C473.062 400.709 473.226 400.504 473.395 400.304C475.904 397.328 479.264 395.797 482.511 394.373C489.7 391.202 497.096 387.991 504.685 388.431L502.526 388.621C500.006 395.034 497.484 401.447 494.96 407.86C494.576 408.843 494.189 409.828 493.798 410.815C492.366 414.462 490.889 418.344 491.109 422.427C491.239 424.844 492.163 427.426 493.922 428.256C495.563 429.024 497.356 428.082 498.94 427.149C499.611 426.76 500.276 426.371 500.947 425.976C503.355 424.568 506.021 423.123 508.564 424.066C510.892 424.926 512.612 427.8 512.939 430.899C513.239 433.911 512.43 436.929 510.639 439.478Z" fill="white"/>
<path d="M524.914 483.476C517.797 479.54 510.681 475.605 503.565 471.67L503.686 471.391C499.262 472.904 497.425 479.968 498.156 485.744C498.887 491.521 501.367 496.685 502.619 502.313C504.308 510.016 503.671 517.984 500.773 525.391C510.13 515.961 518.411 505.712 525.492 494.798C526.481 493.422 527.235 491.921 527.728 490.345C528.18 488.668 528.11 486.651 527.205 485.307C526.622 484.535 525.835 483.905 524.914 483.476Z" fill="white"/>
<path d="M496.727 412.169C495.992 413.626 495.71 415.569 496.376 417.076C497.058 418.616 498.497 419.312 499.823 419.891L503.647 421.562C504.919 422.118 506.291 422.68 507.588 422.222C509.152 421.671 510.236 419.508 509.956 417.501C509.657 415.365 508.13 413.895 506.718 412.644C504.741 410.893 502.765 409.142 500.789 407.391L499.675 408.594C498.47 409.63 497.473 410.839 496.727 412.169Z" fill="white"/>
<path d="M632.593 435.78C634.337 436.151 636.08 436.523 637.823 436.894C637.519 442.221 634.601 447.151 630.687 448.937C629.056 449.68 627.24 449.955 625.89 451.344C624.67 452.605 624.052 454.569 623.484 456.447C622.488 459.723 621.493 463 620.498 466.276C619.429 469.807 618.057 473.73 615.28 475.002C612.895 476.096 610.168 474.758 608.335 472.514C606.502 470.27 605.383 467.253 604.297 464.313C604.365 467.518 602.717 470.662 600.384 471.776C598.044 472.891 595.199 471.883 593.636 469.395C592.511 467.609 592.045 465.254 590.942 463.442C589.84 461.631 587.529 460.593 586.326 462.293C585.533 463.422 585.634 465.152 585.24 466.587C584.628 468.815 582.772 470.214 580.933 470.337C579.1 470.459 577.312 469.502 575.777 468.205C572.611 465.518 570.277 461.255 569.372 456.518C568.973 454.406 568.86 452.107 569.552 450.128C570.243 448.148 571.914 446.622 573.572 446.999C574.663 444.913 572.51 442.145 570.57 442.389C568.624 442.633 567.1 444.521 565.503 445.971C563.912 447.421 561.685 448.474 560.082 447.034C560.094 448.372 558.89 449.258 557.85 449.146C556.815 449.039 555.893 448.286 554.943 447.752C551.271 445.681 546.609 447.055 544 450.972C545.631 444.694 548.021 437.489 553.031 436.014C555.078 435.408 557.31 435.907 559.244 434.859C562.669 433.002 563.361 425.986 560.403 423.091C560.78 425.828 560.707 429.023 559.11 430.895C557.513 432.768 554.161 431.547 554.364 428.779C553.902 430.687 551.608 430.977 550.551 429.512C549.488 428.046 549.578 425.65 550.332 423.9C551.085 422.149 552.367 420.893 553.61 419.687C556.281 417.097 558.991 414.477 562.084 412.849C565.183 411.221 568.759 410.671 571.863 412.289C573.499 413.144 574.939 414.569 576.609 415.322C578.279 416.08 580.399 415.983 581.507 414.212C582.749 412.238 582.165 409.308 582.626 406.84C583.452 402.48 588.271 400.44 590.942 403.319C588.946 402.856 586.882 404.993 586.635 407.583C586.382 410.173 587.827 412.788 589.762 413.571C593.012 414.874 596.194 411.597 598.652 408.565C601.216 405.39 603.784 402.217 606.356 399.046C606.766 398.506 607.227 397.998 607.733 397.529C608.539 396.819 609.612 396.412 610.737 396.391C611.861 396.371 612.953 396.737 613.789 397.417C616.387 399.335 617.608 403.268 619.739 405.975C622.832 409.908 627.459 410.865 631.767 411.628C634.978 412.192 638.19 412.761 641.405 413.332C643.548 416.939 645.417 420.674 647 424.51C641.557 426.601 636.535 430.514 632.593 435.78Z" fill="white"/>
<path d="M643 497.603C640.611 502.087 637.832 506.385 634.691 510.453C632.683 509.659 630.525 511.077 628.646 512.407C626.683 513.798 624.324 515.154 622.31 513.886C620.253 512.587 619.589 508.953 620.241 506.072C620.894 503.196 622.522 500.907 624.1 498.732C625.774 496.423 627.564 494.026 629.889 493.13C632.22 492.233 635.215 493.501 635.895 496.562L637.546 496.511C636.62 495.336 637.105 492.903 638.349 492.475C639.782 491.975 641.026 493.794 641.874 495.403C642.253 496.129 642.637 496.861 643 497.603Z" fill="white"/>
<path d="M579.485 476.346C575.969 476.551 573.184 472.542 571.334 468.597C569.483 464.653 567.794 460.142 564.622 458.134C562.809 456.987 560.743 456.83 558.777 456.274C556.81 455.718 554.752 454.568 553.813 452.225L551.582 451.391C548.637 452.925 545.652 454.487 543.114 456.984C540.268 459.785 538.495 463.375 538.069 467.202C537.643 471.338 539.216 475.949 542.156 477.502C544.478 478.73 547.183 477.956 549.536 479.08C552.475 480.484 554.22 484.562 554.881 488.589C555.542 492.616 555.374 496.801 555.847 500.874C556.319 504.946 557.622 509.184 560.318 511.271C563.691 513.883 568.642 511.713 570.155 506.958C570.898 504.626 570.872 501.995 571.427 499.574C572.405 495.311 575.044 492.148 577.137 488.651C579.23 485.154 580.877 480.405 579.485 476.346Z" fill="white"/>
<path d="M544.544 434.448C544.881 434.727 545.195 435.027 545.484 435.346C545.784 435.81 545.936 436.339 545.926 436.875C545.916 437.412 545.743 437.936 545.427 438.391C545.861 438.368 546.286 438.265 546.674 438.088C547.063 437.91 547.406 437.662 547.682 437.36C548.341 436.685 548.92 435.951 549.411 435.169C549.779 434.629 550.171 433.899 549.921 433.257C549.751 432.82 549.347 432.633 549.065 432.304C548.617 431.782 548.506 430.953 548.274 430.237C547.773 428.691 546.573 427.553 545.271 427.391L545.452 427.422C544.908 427.589 544.528 428.366 544.648 429.066C544.757 429.702 545.212 430.231 545.167 430.88C545.102 431.814 544.064 432.253 544 433.187C543.99 433.655 544.186 434.108 544.544 434.448Z" fill="white"/>
<path d="M538 418.391C538.017 418.386 538.033 418.385 538.05 418.381C538.392 418.076 538.71 417.744 539 417.391L538 418.391Z" fill="#E6E6E6"/>
<path d="M539.062 422.189C539.771 421.792 540.167 420.695 539.932 419.776C539.7 418.864 538.875 418.25 538.115 418.419C537.895 418.613 537.621 418.756 537.32 418.833C537.018 418.91 536.699 418.919 536.393 418.86C535.923 418.755 535.407 418.483 534.999 418.792C534.766 419.022 534.603 419.299 534.525 419.598C534.374 420.002 534.223 420.405 534.072 420.808C534 420.952 533.982 421.112 534.018 421.266C534.047 421.328 534.094 421.382 534.154 421.424C534.214 421.465 534.285 421.492 534.36 421.503C535.266 421.735 536.171 421.968 537.076 422.2C537.736 422.369 538.448 422.532 539.062 422.189Z" fill="white"/>
<path d="M615.327 483.228C614.881 482.487 614.434 481.746 613.988 481.006C613.55 480.148 612.951 479.385 612.225 478.761C612.065 478.625 611.88 478.523 611.681 478.461C611.482 478.399 611.273 478.377 611.065 478.399C610.858 478.42 610.657 478.482 610.474 478.583C610.291 478.684 610.13 478.821 610 478.986L610.054 479.41C611.071 480.703 612.147 482.14 612.405 484.06C612.507 484.817 612.471 485.6 612.56 486.36C612.65 487.121 612.903 487.909 613.387 488.237C614.089 488.712 614.914 488.011 615.414 487.155C615.861 486.452 616.062 485.616 615.983 484.783C615.872 484.225 615.648 483.695 615.327 483.228Z" fill="white"/>
<path d="M635.463 456.457C635.586 455.686 635.708 454.916 635.83 454.145C636.029 453.299 636.053 452.423 635.903 451.568C635.869 451.381 635.796 451.202 635.689 451.043C635.582 450.884 635.443 450.746 635.28 450.639C635.117 450.532 634.934 450.457 634.74 450.419C634.547 450.381 634.347 450.381 634.154 450.418L633.939 450.741C633.897 452.226 633.812 453.845 632.844 455.315C632.462 455.895 631.965 456.413 631.572 456.987C631.179 457.562 630.888 458.252 631.042 458.761C631.265 459.5 632.285 459.502 633.163 459.207C633.91 458.986 634.558 458.529 635.003 457.911C635.259 457.462 635.415 456.967 635.463 456.457Z" fill="#E6E6E6"/>
<path d="M622.445 483.845C622.652 483.289 622.353 482.65 622.29 482.035C622.26 481.24 622.485 480.456 622.936 479.782C623.384 479.147 623.723 478.45 623.941 477.717C624.034 477.382 624.017 477.03 623.893 476.705C623.753 476.41 623.414 476.276 623.22 476.509L623.636 476.76C623.074 476.666 622.497 476.693 621.948 476.837C621.634 476.949 621.355 477.131 621.132 477.366C620.909 477.601 620.75 477.883 620.668 478.188C620.6 478.664 620.488 479.133 620.333 479.59C620.085 480.068 619.605 480.227 619.303 480.646C619.097 481.018 618.993 481.432 619 481.851C619.008 482.27 619.126 482.68 619.345 483.045C619.724 483.643 620.327 484.087 621.036 484.291C621.544 484.462 622.213 484.471 622.445 483.845Z" fill="white"/>
<path d="M635.421 487.573C635.62 488.062 635.887 488.523 636.214 488.946C636.826 489.528 637.659 489.17 638.402 489.029C639.076 488.928 639.766 489.002 640.4 489.242C641.033 489.481 641.586 489.878 642 490.391C641.712 489.035 641.083 487.764 640.166 486.685C639.25 485.606 638.072 484.75 636.732 484.19C634.981 483.516 633.136 483.451 631.315 483.391L631 483.467C631.802 485.669 634.319 485.619 635.421 487.573Z" fill="white"/>
<path d="M578.696 495.68C578.326 496.355 578.007 497.057 577.743 497.78C577.393 498.952 577.162 500.156 577.052 501.373C576.965 502.066 576.939 502.95 577.371 503.288C577.496 503.371 577.646 503.405 577.794 503.385C577.941 503.365 578.077 503.292 578.175 503.179C578.415 502.924 578.612 502.63 578.757 502.311C579.607 500.842 580.268 499.271 580.722 497.635C581.136 495.912 581.133 493.883 580.4 492.391C579.832 493.487 579.264 494.584 578.696 495.68Z" fill="white"/>
<path d="M559.117 402.807C559.45 403.087 559.871 403.276 560.329 403.353C560.786 403.429 561.259 403.389 561.69 403.238C562.583 402.903 563.402 402.44 564.112 401.867C564.699 401.494 565.197 401.028 565.579 400.494C565.79 400.175 565.925 399.823 565.976 399.459C566.028 399.095 565.995 398.726 565.88 398.373C565.548 397.542 564.707 397.263 563.964 397.074C562.776 396.772 561.588 396.47 560.399 396.168L561.259 395.503C560.375 395.097 559.396 395.852 558.843 396.787C558.489 397.397 558.242 398.05 558.11 398.722C557.814 400.19 558.103 401.938 559.117 402.807Z" fill="#E6E6E6"/>
<path d="M578.85 396.816C579.209 397.146 579.706 397.349 580.239 397.385C580.772 397.421 581.301 397.287 581.72 397.01C582.08 396.785 582.379 396.5 582.598 396.172C582.817 395.845 582.95 395.483 582.989 395.109C583.08 394.276 582.584 393.349 581.876 393.277L582.038 392.497C580.674 392.292 578.995 392.251 578.264 393.628C578.017 394.156 577.942 394.728 578.045 395.287C578.147 395.847 578.425 396.374 578.85 396.816Z" fill="#E6E6E6"/>
<path d="M571.29 356.544C564.361 355.82 557.405 357.675 551.953 361.7C546.501 365.725 542.999 371.591 542.217 378.007C540.59 391.367 548.191 420.38 562.05 432.391C568.576 409.38 591.443 395.732 594.468 383.465C597.701 370.357 585.719 358.051 571.29 356.544Z" fill="#1684AC"/>
<path d="M566 386.391C570.971 386.391 575 382.809 575 378.391C575 373.972 570.971 370.391 566 370.391C561.029 370.391 557 373.972 557 378.391C557 382.809 561.029 386.391 566 386.391Z" fill="white"/>
<path d="M559.5 444.391C562.538 444.391 565 442.152 565 439.391C565 436.629 562.538 434.391 559.5 434.391C556.462 434.391 554 436.629 554 439.391C554 442.152 556.462 444.391 559.5 444.391Z" fill="#1684AC"/>
<path opacity="0.2" d="M574.839 372.355C575.805 372.903 576.647 373.625 577.317 374.479C577.987 375.334 578.473 376.305 578.745 377.336C579.018 378.368 579.072 379.44 578.906 380.492C578.739 381.543 578.355 382.553 577.774 383.465C577.194 384.376 576.429 385.17 575.523 385.803C574.617 386.435 573.588 386.893 572.495 387.15C570.287 387.67 567.951 387.34 566 386.234C567.989 386.652 570.07 386.388 571.872 385.489C573.673 384.591 575.077 383.117 575.832 381.332C576.587 379.546 576.643 377.566 575.992 375.744C575.341 373.923 574.023 372.379 572.276 371.391C573.18 371.58 574.045 371.905 574.839 372.355Z" fill="#231F20"/>
<path opacity="0.2" d="M593.462 383.625C590.401 395.852 567.266 409.455 560.664 432.391C559.345 431.254 558.121 430.03 557 428.729C564.419 407.17 586.114 394.07 589.071 382.257C591.718 371.684 584.283 361.635 573.613 357.391C586.529 360.352 596.46 371.652 593.462 383.625Z" fill="#231F20"/>
<path d="M491.5 409.391C495.09 409.391 498 406.704 498 403.391C498 400.077 495.09 397.391 491.5 397.391C487.91 397.391 485 400.077 485 403.391C485 406.704 487.91 409.391 491.5 409.391Z" fill="white"/>
<path d="M646.7 526.391C642.662 526.391 638.237 526.195 633.425 525.805C608.532 523.781 576.288 516.744 542.633 505.991C508.978 495.238 477.933 482.053 455.216 468.866C444.15 462.442 435.656 456.361 429.972 450.791C423.954 444.896 421.322 439.756 422.148 435.517C423.758 427.259 438.01 425.452 449.683 425.391L449.687 426.592C433.657 426.676 424.2 429.949 423.058 435.808C421.604 443.271 433.466 454.921 455.603 467.772C478.27 480.93 509.259 494.09 542.86 504.826C576.462 515.562 608.646 522.586 633.484 524.606C657.741 526.579 672.488 523.43 673.942 515.967C675.149 509.771 667.189 500.644 651.527 490.266L651.958 489.2C663.338 496.741 676.548 507.556 674.852 516.258C674.026 520.497 669.816 523.45 662.341 525.035C658.079 525.938 652.845 526.391 646.7 526.391Z" fill="#1684AC"/>
<ellipse cx="450.895" cy="463.677" rx="290.718" ry="361.344" transform="rotate(37.6471 450.895 463.677)" fill="#FDECC0"/>
<path d="M425.677 538.649C427.096 539.114 428.61 538.949 429.933 538.185C431.256 537.422 432.295 536.114 432.854 534.508C433.412 532.902 433.452 531.111 432.965 529.473C432.477 527.835 431.497 526.465 430.21 525.622L417.44 508.551L406.64 511.3L421.83 528.833C421.457 529.766 421.261 530.783 421.258 531.814C421.254 532.844 421.442 533.864 421.809 534.8C422.176 535.735 422.712 536.565 423.381 537.23C424.049 537.895 424.833 538.38 425.677 538.649Z" fill="#A0616A"/>
<path d="M383.666 477.533L415.493 524.61L425.194 519.361L387.785 450.732L383.666 477.533Z" fill="#3F3D56"/>
<path d="M528.356 640.235C530.35 635.676 529.267 629.923 526.784 625.709C524.301 621.495 520.635 618.492 517.049 615.583L512.063 611.537L514.445 625.622C515.249 630.385 516.24 635.527 519.396 638.649C520.635 639.846 522.115 640.647 523.693 640.975C525.272 641.303 526.895 641.146 528.407 640.519" fill="#E6E6E6"/>
<path d="M527.979 657.572C527.953 657.68 527.893 657.771 527.81 657.827C527.727 657.882 527.63 657.897 527.538 657.867C527.448 657.835 527.372 657.763 527.325 657.666C527.279 657.57 527.265 657.456 527.288 657.348C527.566 654.963 527.841 652.576 527.971 650.173C528.188 646.199 527.988 642.121 526.739 638.38C525.609 635.016 523.602 632.162 521.006 630.229C520.617 629.939 520.977 629.209 521.368 629.5C522.868 630.613 524.192 632.027 525.28 633.676C527.329 636.79 528.336 640.588 528.65 644.476C529.004 648.854 528.485 653.241 527.981 657.573L527.979 657.572Z" fill="#F2F2F2"/>
<path d="M477.232 630.82C492.941 642.211 487.704 657.399 487.704 657.399L477.232 630.82Z" fill="#E6E6E6"/>
<path d="M508.105 646.391C495.742 646.298 494.145 657.124 494.145 657.124L508.105 646.391Z" fill="#E6E6E6"/>
<path d="M308.658 658.297C310.586 658.297 312.149 656.456 312.149 654.184C312.149 651.912 310.586 650.07 308.658 650.07C306.73 650.07 305.167 651.912 305.167 654.184C305.167 656.456 306.73 658.297 308.658 658.297Z" fill="#3F3D56"/>
<path d="M311.196 571.354C311.196 571.354 319.447 541.812 320.082 539.755C320.717 537.698 327.381 541.064 329.126 541.625C330.872 542.186 330.396 544.242 330.396 544.242L321.51 574.532L324.207 576.028L332.458 545.551C337.219 539.755 333.728 539.381 333.728 539.381C333.728 539.381 323.573 535.267 319.765 534.893C315.957 534.52 317.385 539.942 317.385 539.942L308.182 568.736L311.196 571.354Z" fill="#3F3D56"/>
<path d="M331.031 578.458L331.029 578.456C329.858 576.478 328.196 574.976 326.271 574.157C326.202 574.127 326.123 574.094 326.033 574.056C321.661 572.256 291.204 562.565 291.204 562.565C291.204 562.565 285.175 559.947 282.477 567.052C279.78 574.157 263.754 633.055 263.754 633.055C263.754 633.055 295.098 652.807 304.236 654.957C304.8 655.117 305.382 655.171 305.961 655.118C307.514 654.864 309.043 654.434 310.526 653.833C312.166 653.204 313.726 652.315 315.164 651.191L332.935 588.554C332.935 588.554 335.474 581.636 331.031 578.458Z" fill="#1684AC"/>
<path d="M331.03 578.458L331.029 578.456C329.858 576.478 328.195 574.976 326.27 574.158C326.202 574.128 326.122 574.094 326.032 574.057C327.47 577.026 328.015 581.637 328.015 581.637C328.015 581.637 310.562 642.778 308.975 648.574C307.766 652.992 305.327 654.494 304.235 654.957C304.8 655.117 305.382 655.172 305.96 655.118C307.513 654.864 309.042 654.434 310.525 653.834C310.959 653.248 311.343 652.613 311.672 651.94C311.672 651.94 329.444 589.303 331.03 586.311C332.617 583.319 331.03 578.458 331.03 578.458Z" fill="#3F3D56"/>
<path d="M297.948 658.391C299.876 658.391 301.439 656.549 301.439 654.278C301.439 652.006 299.876 650.164 297.948 650.164C296.02 650.164 294.457 652.006 294.457 654.278C294.457 656.549 296.02 658.391 297.948 658.391Z" fill="#3F3D56"/>
<path d="M264.071 641.095C265.999 641.095 267.562 639.253 267.562 636.982C267.562 634.71 265.999 632.868 264.071 632.868C262.143 632.868 260.58 634.71 260.58 636.982C260.58 639.253 262.143 641.095 264.071 641.095Z" fill="#3F3D56"/>
<path d="M325.601 542.259C324.197 542.783 322.679 542.681 321.334 541.974C319.989 541.267 318.911 540.003 318.304 538.422C317.697 536.84 317.604 535.052 318.041 533.395C318.479 531.737 319.417 530.327 320.678 529.43L332.923 511.834L343.8 514.129L329.149 532.288C329.55 533.204 329.776 534.212 329.811 535.242C329.846 536.272 329.689 537.299 329.35 538.249C329.012 539.2 328.501 540.052 327.853 540.745C327.206 541.437 326.437 541.954 325.601 542.259Z" fill="#A0616A"/>
<path d="M409.061 619.685L416.646 619.545L415.733 650.01H409.062L409.061 619.685Z" fill="#A0616A"/>
<path d="M407.359 647.442L420.499 647.441H420.499C422.72 647.442 424.85 648.481 426.42 650.332C427.99 652.182 428.872 654.691 428.873 657.308V657.629L407.36 657.63L407.359 647.442Z" fill="#2F2E41"/>
<path d="M358.838 611.605L367.125 617.874L350.55 641.371L344.936 637.124L358.838 611.605Z" fill="#A0616A"/>
<path d="M344.68 633.879L355.737 642.244L355.738 642.244C357.606 643.658 358.922 645.889 359.395 648.445C359.868 651.002 359.459 653.676 358.26 655.878L358.113 656.148L340.01 642.452L344.68 633.879Z" fill="#2F2E41"/>
<path d="M355.887 518.578C355.887 518.578 374.298 446.523 380.214 445.549C386.131 444.575 395.664 464.038 395.664 464.038C408.024 482.621 420.769 542.815 420.769 542.815C420.769 542.815 399.522 544.382 383.991 554.119C368.46 563.856 350.131 553.626 350.131 553.626L355.887 518.578Z" fill="#3F3D56"/>
<path opacity="0.1" d="M355.887 518.579C355.887 518.579 374.298 446.523 380.214 445.55C386.131 444.576 393.243 464.236 393.243 464.236C399.401 494.233 420.769 542.816 420.769 542.816C420.769 542.816 399.522 544.382 383.991 554.12C368.46 563.857 350.131 553.627 350.131 553.627L355.887 518.579Z" fill="black"/>
<path d="M370.991 497.02V533.228L367.374 585.677L349.309 625.351L357.931 632.608L382.566 594.869L392.31 557.397L407.612 640.349L419.109 639.382L411.124 524.37L395.973 491.997L370.991 497.02Z" fill="#2F2E41"/>
<path d="M389.554 461.999C395.302 468.773 389.964 476.03 389.964 476.03L396.534 493.448L370.667 501.673L361.627 454.075L367.786 446.333C380.103 445.85 380.11 445.549 380.11 445.549C382.268 448.038 389.554 461.999 389.554 461.999Z" fill="#CCCCCC"/>
<path d="M360.442 449.268C358.304 451.121 356.804 453.82 356.217 456.871C355.631 459.922 355.997 463.119 357.249 465.877C360.212 472.543 363.4 482.869 361.756 494.205C358.782 514.721 349.247 530.308 343.936 535.313C342.087 537.056 342.022 539.594 342.294 541.416C343.052 546.506 347.24 552.282 350.137 553.44C350.332 553.516 350.537 553.554 350.742 553.552C355.448 553.554 367.024 535.892 380.327 501.39C388.612 479.903 382.599 462.674 376.096 452.005C375.242 450.609 374.162 449.426 372.918 448.525C371.674 447.625 370.29 447.024 368.848 446.758C367.405 446.492 365.932 446.566 364.513 446.975C363.095 447.385 361.76 448.122 360.585 449.144L360.442 449.268Z" fill="#3F3D56"/>
<path d="M372.712 470.041L335.355 527.8L325.501 522.962L360.812 452.807L372.712 470.041Z" fill="#3F3D56"/>
<path d="M383.793 439.279H358.099C357.57 439.278 357.064 439.03 356.69 438.59C356.316 438.15 356.106 437.552 356.105 436.93V423.879C356.104 421.582 356.488 419.307 357.233 417.184C357.978 415.061 359.071 413.132 360.449 411.507C361.828 409.882 363.464 408.593 365.265 407.714C367.066 406.834 368.997 406.382 370.946 406.382C372.896 406.382 374.826 406.834 376.627 407.714C378.428 408.593 380.065 409.882 381.443 411.507C382.821 413.132 383.914 415.061 384.659 417.184C385.405 419.307 385.788 421.582 385.787 423.879V436.93C385.786 437.552 385.576 438.15 385.202 438.59C384.828 439.03 384.322 439.278 383.793 439.279Z" fill="#2F2E41"/>
<path d="M383.543 432.304C386.425 426.09 384.488 418.3 379.215 414.903C373.942 411.507 367.331 413.79 364.448 420.004C361.566 426.217 363.504 434.007 368.777 437.404C374.05 440.8 380.661 438.517 383.543 432.304Z" fill="#A0616A"/>
<path d="M389.298 425.184H373.586L373.425 422.526L372.62 425.184H370.2L369.881 419.915L368.285 425.184H363.604V424.923C363.607 421.255 364.845 417.739 367.046 415.145C369.247 412.552 372.231 411.093 375.343 411.089H377.558C380.671 411.093 383.655 412.552 385.855 415.145C388.056 417.739 389.294 421.255 389.298 424.923V425.184Z" fill="#2F2E41"/>
<path d="M373.458 441.715C373.34 441.715 373.222 441.702 373.105 441.678L361.601 439.286V416.881H374.265L373.951 417.312C369.589 423.307 372.876 433.028 375.223 438.289C375.396 438.674 375.473 439.109 375.445 439.544C375.418 439.979 375.287 440.396 375.067 440.746C374.883 441.046 374.641 441.29 374.361 441.459C374.082 441.627 373.772 441.715 373.458 441.715Z" fill="#2F2E41"/>
<path d="M203 657.907C203 657.778 203.043 657.655 203.12 657.565C203.197 657.474 203.302 657.423 203.411 657.423H551.589C551.698 657.423 551.803 657.474 551.88 657.565C551.957 657.655 552 657.778 552 657.907C552 658.035 551.957 658.158 551.88 658.249C551.803 658.34 551.698 658.391 551.589 658.391H203.411C203.302 658.391 203.197 658.34 203.12 658.249C203.043 658.158 203 658.035 203 657.907Z" fill="#CBCBCB"/>
<path d="M521 351.391C527.627 351.391 533 346.466 533 340.391C533 334.315 527.627 329.391 521 329.391C514.373 329.391 509 334.315 509 340.391C509 346.466 514.373 351.391 521 351.391Z" fill="#1684AC"/>
<path d="M546.739 335.204C546.408 334.223 545.769 333.351 544.899 332.695C544.03 332.039 542.968 331.628 541.845 331.513C541.82 331.51 541.796 331.514 541.77 331.512C541.738 331.503 541.704 331.496 541.67 331.491C536.325 330.865 530.155 333.185 527.928 337.784C527.384 337.111 526.669 336.569 525.842 336.203C525.016 335.838 524.104 335.661 523.186 335.686C522.001 335.758 520.87 336.159 519.946 336.835C519.021 337.512 518.349 338.43 518.02 339.465C517.985 339.592 517.996 339.726 518.05 339.847C518.104 339.968 518.2 340.07 518.322 340.138C518.675 340.41 519.093 340.602 519.543 340.701C520.514 340.887 521.488 341.058 522.466 341.214C524.373 341.517 526.291 341.762 528.218 341.949C532.131 342.329 536.068 342.464 540.001 342.353C541.311 342.316 542.575 342.276 543.775 341.752C544.648 341.36 545.394 340.769 545.94 340.037C546.454 339.333 546.791 338.536 546.93 337.701C547.068 336.866 547.002 336.014 546.739 335.204Z" fill="#F0F0F0"/>
<path d="M522.739 349.551C522.408 348.48 521.769 347.529 520.899 346.813C520.03 346.098 518.968 345.65 517.845 345.524C517.82 345.52 517.796 345.525 517.77 345.523C517.738 345.514 517.704 345.506 517.671 345.501C512.325 344.817 506.155 347.348 503.928 352.365C503.384 351.631 502.669 351.039 501.842 350.641C501.016 350.242 500.104 350.049 499.186 350.077C498.001 350.155 496.87 350.593 495.945 351.33C495.021 352.068 494.349 353.07 494.02 354.199C493.985 354.338 493.996 354.483 494.05 354.615C494.104 354.747 494.2 354.859 494.322 354.933C494.675 355.23 495.093 355.44 495.543 355.547C496.514 355.751 497.488 355.937 498.466 356.107C500.373 356.437 502.291 356.704 504.218 356.908C508.131 357.324 512.068 357.471 516.001 357.349C517.311 357.309 518.575 357.266 519.775 356.693C520.648 356.266 521.394 355.622 521.94 354.823C522.454 354.055 522.791 353.185 522.93 352.275C523.068 351.364 523.002 350.434 522.739 349.551Z" fill="#F0F0F0"/>
<path d="M653 456.891C653.003 469.039 650.405 481.068 645.355 492.292C640.306 503.515 632.903 513.714 623.57 522.303C614.237 530.893 603.157 537.707 590.963 542.354C578.768 547.002 565.699 549.393 552.5 549.391C496.996 549.391 452 507.976 452 456.891C451.99 446.954 453.721 437.08 457.126 427.65C463.809 409.234 476.614 393.217 493.729 381.865C510.844 370.513 531.404 364.4 552.5 364.391C570.694 364.385 588.549 368.927 604.157 377.531C619.766 386.136 632.543 398.48 641.124 413.246C643.252 416.889 645.108 420.661 646.68 424.536C646.897 425.076 647.11 425.615 647.316 426.16V426.165C648.237 428.56 649.049 430.999 649.75 433.483C651.915 441.126 653.007 448.992 653 456.891Z" fill="#3F3D56"/>
<path d="M542 394.169C537.424 391.896 532.344 390.612 527.146 390.417C521.948 390.221 516.771 391.119 512.008 393.042C507.814 394.719 503.399 397.727 502 403.159C507.658 400.091 514.982 404.938 516.438 412.715L516.098 412.801C515.329 418.187 517.045 424.051 520.369 427.391C520.805 423.922 523.288 421.56 525.729 420.086C528.171 418.611 530.873 417.539 532.736 415.004C534.946 411.999 535.507 407.606 536.385 403.6C537.262 399.593 538.928 395.286 542 394.169Z" fill="white"/>
<path d="M510.639 439.478C509.077 441.609 506.991 442.946 505.119 444.611C503.253 446.281 501.477 448.534 501.105 451.428C500.868 453.282 501.235 455.167 501.184 457.042C501.133 458.917 500.445 461.027 499.042 461.493C496.826 462.22 495.134 458.481 492.857 458.22C491.047 458.015 489.418 460.602 489.942 462.845C490.466 465.089 492.93 466.083 494.345 464.618C495.625 466.569 494.723 470.109 492.8 470.708C492.597 471.937 492.395 473.161 492.197 474.391C487.337 471.302 482.427 468.162 478.294 463.639C473.698 458.652 470.847 452.53 470.108 446.06C469.572 440.861 470.367 434.915 467.74 430.914C465.637 427.713 462.029 427.006 458.782 427.206C458.19 427.242 457.592 427.303 457 427.37C458.915 422.144 461.347 417.086 464.267 412.259C464.928 412.002 465.542 411.655 466.088 411.23C469.11 408.899 470.452 404.182 472.904 400.919C473.062 400.709 473.226 400.504 473.395 400.304C475.904 397.328 479.264 395.797 482.511 394.373C489.7 391.202 497.096 387.991 504.685 388.431L502.526 388.621C500.006 395.034 497.484 401.447 494.96 407.86C494.576 408.843 494.189 409.828 493.798 410.815C492.366 414.462 490.889 418.344 491.109 422.427C491.239 424.844 492.163 427.426 493.922 428.256C495.563 429.024 497.356 428.082 498.94 427.149C499.611 426.76 500.276 426.371 500.947 425.976C503.355 424.568 506.021 423.123 508.564 424.066C510.892 424.926 512.612 427.8 512.939 430.899C513.239 433.911 512.43 436.929 510.639 439.478Z" fill="white"/>
<path d="M524.914 483.476C517.797 479.54 510.681 475.605 503.565 471.67L503.686 471.391C499.262 472.904 497.425 479.968 498.156 485.744C498.887 491.521 501.367 496.685 502.619 502.313C504.308 510.016 503.671 517.984 500.773 525.391C510.13 515.961 518.411 505.712 525.492 494.798C526.481 493.422 527.235 491.921 527.728 490.345C528.18 488.668 528.11 486.651 527.205 485.307C526.622 484.535 525.835 483.905 524.914 483.476Z" fill="white"/>
<path d="M496.727 412.169C495.992 413.626 495.71 415.569 496.376 417.076C497.058 418.616 498.497 419.312 499.823 419.891L503.647 421.562C504.919 422.118 506.291 422.68 507.588 422.222C509.152 421.671 510.236 419.508 509.956 417.501C509.657 415.365 508.13 413.895 506.718 412.644C504.741 410.893 502.765 409.142 500.789 407.391L499.675 408.594C498.47 409.63 497.473 410.839 496.727 412.169Z" fill="white"/>
<path d="M632.593 435.78C634.337 436.151 636.08 436.523 637.823 436.894C637.519 442.221 634.601 447.151 630.687 448.937C629.056 449.68 627.24 449.955 625.89 451.344C624.67 452.605 624.052 454.569 623.484 456.447C622.488 459.723 621.493 463 620.498 466.276C619.429 469.807 618.057 473.73 615.28 475.002C612.895 476.096 610.168 474.758 608.335 472.514C606.502 470.27 605.383 467.253 604.297 464.313C604.365 467.518 602.717 470.662 600.384 471.776C598.044 472.891 595.199 471.883 593.636 469.395C592.511 467.609 592.045 465.254 590.942 463.442C589.84 461.631 587.529 460.593 586.326 462.293C585.533 463.422 585.634 465.152 585.24 466.587C584.628 468.815 582.772 470.214 580.933 470.337C579.1 470.459 577.312 469.502 575.777 468.205C572.611 465.518 570.277 461.255 569.372 456.518C568.973 454.406 568.86 452.107 569.552 450.128C570.243 448.148 571.914 446.622 573.572 446.999C574.663 444.913 572.51 442.145 570.57 442.389C568.624 442.633 567.1 444.521 565.503 445.971C563.912 447.421 561.685 448.474 560.082 447.034C560.094 448.372 558.89 449.258 557.85 449.146C556.815 449.039 555.893 448.286 554.943 447.752C551.271 445.681 546.609 447.055 544 450.972C545.631 444.694 548.021 437.489 553.031 436.014C555.078 435.408 557.31 435.907 559.244 434.859C562.669 433.002 563.361 425.986 560.403 423.091C560.78 425.828 560.707 429.023 559.11 430.895C557.513 432.768 554.161 431.547 554.364 428.779C553.902 430.687 551.608 430.977 550.551 429.512C549.488 428.046 549.578 425.65 550.332 423.9C551.085 422.149 552.367 420.893 553.61 419.687C556.281 417.097 558.991 414.477 562.084 412.849C565.183 411.221 568.759 410.671 571.863 412.289C573.499 413.144 574.939 414.569 576.609 415.322C578.279 416.08 580.399 415.983 581.507 414.212C582.749 412.238 582.165 409.308 582.626 406.84C583.452 402.48 588.271 400.44 590.942 403.319C588.946 402.856 586.882 404.993 586.635 407.583C586.382 410.173 587.827 412.788 589.762 413.571C593.012 414.874 596.194 411.597 598.652 408.565C601.216 405.39 603.784 402.217 606.356 399.046C606.766 398.506 607.227 397.998 607.733 397.529C608.539 396.819 609.612 396.412 610.737 396.391C611.861 396.371 612.953 396.737 613.789 397.417C616.387 399.335 617.608 403.268 619.739 405.975C622.832 409.908 627.459 410.865 631.767 411.628C634.978 412.192 638.19 412.761 641.405 413.332C643.548 416.939 645.417 420.674 647 424.51C641.557 426.601 636.535 430.514 632.593 435.78Z" fill="white"/>
<path d="M643 497.603C640.611 502.087 637.832 506.385 634.691 510.453C632.683 509.659 630.525 511.077 628.646 512.407C626.683 513.798 624.324 515.154 622.31 513.886C620.253 512.587 619.589 508.953 620.241 506.072C620.894 503.196 622.522 500.907 624.1 498.732C625.774 496.423 627.564 494.026 629.889 493.13C632.22 492.233 635.215 493.501 635.895 496.562L637.546 496.511C636.62 495.336 637.105 492.903 638.349 492.475C639.782 491.975 641.026 493.794 641.874 495.403C642.253 496.129 642.637 496.861 643 497.603Z" fill="white"/>
<path d="M579.485 476.346C575.969 476.551 573.184 472.542 571.334 468.597C569.483 464.653 567.794 460.142 564.622 458.134C562.809 456.987 560.743 456.83 558.777 456.274C556.81 455.718 554.752 454.568 553.813 452.225L551.582 451.391C548.637 452.925 545.652 454.487 543.114 456.984C540.268 459.785 538.495 463.375 538.069 467.202C537.643 471.338 539.216 475.949 542.156 477.502C544.478 478.73 547.183 477.956 549.536 479.08C552.475 480.484 554.22 484.562 554.881 488.589C555.542 492.616 555.374 496.801 555.847 500.874C556.319 504.946 557.622 509.184 560.318 511.271C563.691 513.883 568.642 511.713 570.155 506.958C570.898 504.626 570.872 501.995 571.427 499.574C572.405 495.311 575.044 492.148 577.137 488.651C579.23 485.154 580.877 480.405 579.485 476.346Z" fill="white"/>
<path d="M544.544 434.448C544.881 434.727 545.195 435.027 545.484 435.346C545.784 435.81 545.936 436.339 545.926 436.875C545.916 437.412 545.743 437.936 545.427 438.391C545.861 438.368 546.286 438.265 546.674 438.088C547.063 437.91 547.406 437.662 547.682 437.36C548.341 436.685 548.92 435.951 549.411 435.169C549.779 434.629 550.171 433.899 549.921 433.257C549.751 432.82 549.347 432.633 549.065 432.304C548.617 431.782 548.506 430.953 548.274 430.237C547.773 428.691 546.573 427.553 545.271 427.391L545.452 427.422C544.908 427.589 544.528 428.366 544.648 429.066C544.757 429.702 545.212 430.231 545.167 430.88C545.102 431.814 544.064 432.253 544 433.187C543.99 433.655 544.186 434.108 544.544 434.448Z" fill="white"/>
<path d="M538 418.391C538.017 418.386 538.033 418.385 538.05 418.381C538.392 418.076 538.71 417.744 539 417.391L538 418.391Z" fill="#E6E6E6"/>
<path d="M539.062 422.189C539.771 421.792 540.167 420.695 539.932 419.776C539.7 418.864 538.875 418.25 538.115 418.419C537.895 418.613 537.621 418.756 537.32 418.833C537.018 418.91 536.699 418.919 536.393 418.86C535.923 418.755 535.407 418.483 534.999 418.792C534.766 419.022 534.603 419.299 534.525 419.598C534.374 420.002 534.223 420.405 534.072 420.808C534 420.952 533.982 421.112 534.018 421.266C534.047 421.328 534.094 421.382 534.154 421.424C534.214 421.465 534.285 421.492 534.36 421.503C535.266 421.735 536.171 421.968 537.076 422.2C537.736 422.369 538.448 422.532 539.062 422.189Z" fill="white"/>
<path d="M615.327 483.228C614.881 482.487 614.434 481.746 613.988 481.006C613.55 480.148 612.951 479.385 612.225 478.761C612.065 478.625 611.88 478.523 611.681 478.461C611.482 478.399 611.273 478.377 611.065 478.399C610.858 478.42 610.657 478.482 610.474 478.583C610.291 478.684 610.13 478.821 610 478.986L610.054 479.41C611.071 480.703 612.147 482.14 612.405 484.06C612.507 484.817 612.471 485.6 612.56 486.36C612.65 487.121 612.903 487.909 613.387 488.237C614.089 488.712 614.914 488.011 615.414 487.155C615.861 486.452 616.062 485.616 615.983 484.783C615.872 484.225 615.648 483.695 615.327 483.228Z" fill="white"/>
<path d="M635.463 456.457C635.586 455.686 635.708 454.916 635.83 454.145C636.029 453.299 636.053 452.423 635.903 451.568C635.869 451.381 635.796 451.202 635.689 451.043C635.582 450.884 635.443 450.746 635.28 450.639C635.117 450.532 634.934 450.457 634.74 450.419C634.547 450.381 634.347 450.381 634.154 450.418L633.939 450.741C633.897 452.226 633.812 453.845 632.844 455.315C632.462 455.895 631.965 456.413 631.572 456.987C631.179 457.562 630.888 458.252 631.042 458.761C631.265 459.5 632.285 459.502 633.163 459.207C633.91 458.986 634.558 458.529 635.003 457.911C635.259 457.462 635.415 456.967 635.463 456.457Z" fill="#E6E6E6"/>
<path d="M622.445 483.845C622.652 483.289 622.353 482.65 622.29 482.035C622.26 481.24 622.485 480.456 622.936 479.782C623.384 479.147 623.723 478.45 623.941 477.717C624.034 477.382 624.017 477.03 623.893 476.705C623.753 476.41 623.414 476.276 623.22 476.509L623.636 476.76C623.074 476.666 622.497 476.693 621.948 476.837C621.634 476.949 621.355 477.131 621.132 477.366C620.909 477.601 620.75 477.883 620.668 478.188C620.6 478.664 620.488 479.133 620.333 479.59C620.085 480.068 619.605 480.227 619.303 480.646C619.097 481.018 618.993 481.432 619 481.851C619.008 482.27 619.126 482.68 619.345 483.045C619.724 483.643 620.327 484.087 621.036 484.291C621.544 484.462 622.213 484.471 622.445 483.845Z" fill="white"/>
<path d="M635.421 487.573C635.62 488.062 635.887 488.523 636.214 488.946C636.826 489.528 637.659 489.17 638.402 489.029C639.076 488.928 639.766 489.002 640.4 489.242C641.033 489.481 641.586 489.878 642 490.391C641.712 489.035 641.083 487.764 640.166 486.685C639.25 485.606 638.072 484.75 636.732 484.19C634.981 483.516 633.136 483.451 631.315 483.391L631 483.467C631.802 485.669 634.319 485.619 635.421 487.573Z" fill="white"/>
<path d="M578.696 495.68C578.326 496.355 578.007 497.057 577.743 497.78C577.393 498.952 577.162 500.156 577.052 501.373C576.965 502.066 576.939 502.95 577.371 503.288C577.496 503.371 577.646 503.405 577.794 503.385C577.941 503.365 578.077 503.292 578.175 503.179C578.415 502.924 578.612 502.63 578.757 502.311C579.607 500.842 580.268 499.271 580.722 497.635C581.136 495.912 581.133 493.883 580.4 492.391C579.832 493.487 579.264 494.584 578.696 495.68Z" fill="white"/>
<path d="M559.117 402.807C559.45 403.087 559.871 403.276 560.329 403.353C560.786 403.429 561.259 403.389 561.69 403.238C562.583 402.903 563.402 402.44 564.112 401.867C564.699 401.494 565.197 401.028 565.579 400.494C565.79 400.175 565.925 399.823 565.976 399.459C566.028 399.095 565.995 398.726 565.88 398.373C565.548 397.542 564.707 397.263 563.964 397.074C562.776 396.772 561.588 396.47 560.399 396.168L561.259 395.503C560.375 395.097 559.396 395.852 558.843 396.787C558.489 397.397 558.242 398.05 558.11 398.722C557.814 400.19 558.103 401.938 559.117 402.807Z" fill="#E6E6E6"/>
<path d="M578.85 396.816C579.209 397.146 579.706 397.349 580.239 397.385C580.772 397.421 581.301 397.287 581.72 397.01C582.08 396.785 582.379 396.5 582.598 396.172C582.817 395.845 582.95 395.483 582.989 395.109C583.08 394.276 582.584 393.349 581.876 393.277L582.038 392.497C580.674 392.292 578.995 392.251 578.264 393.628C578.017 394.156 577.942 394.728 578.045 395.287C578.147 395.847 578.425 396.374 578.85 396.816Z" fill="#E6E6E6"/>
<path d="M571.29 356.544C564.361 355.82 557.405 357.675 551.953 361.7C546.501 365.725 542.999 371.591 542.217 378.007C540.59 391.367 548.191 420.38 562.05 432.391C568.576 409.38 591.443 395.732 594.468 383.465C597.701 370.357 585.719 358.051 571.29 356.544Z" fill="#1684AC"/>
<path d="M566 386.391C570.971 386.391 575 382.809 575 378.391C575 373.972 570.971 370.391 566 370.391C561.029 370.391 557 373.972 557 378.391C557 382.809 561.029 386.391 566 386.391Z" fill="white"/>
<path d="M559.5 444.391C562.538 444.391 565 442.152 565 439.391C565 436.629 562.538 434.391 559.5 434.391C556.462 434.391 554 436.629 554 439.391C554 442.152 556.462 444.391 559.5 444.391Z" fill="#1684AC"/>
<path opacity="0.2" d="M574.839 372.355C575.805 372.903 576.647 373.625 577.317 374.479C577.987 375.334 578.473 376.305 578.745 377.336C579.018 378.368 579.072 379.44 578.906 380.492C578.739 381.543 578.355 382.553 577.774 383.465C577.194 384.376 576.429 385.17 575.523 385.803C574.617 386.435 573.588 386.893 572.495 387.15C570.287 387.67 567.951 387.34 566 386.234C567.989 386.652 570.07 386.388 571.872 385.489C573.673 384.591 575.077 383.117 575.832 381.332C576.587 379.546 576.643 377.566 575.992 375.744C575.341 373.923 574.023 372.379 572.276 371.391C573.18 371.58 574.045 371.905 574.839 372.355Z" fill="#231F20"/>
<path opacity="0.2" d="M593.462 383.625C590.401 395.852 567.266 409.455 560.664 432.391C559.345 431.254 558.121 430.03 557 428.729C564.419 407.17 586.114 394.07 589.071 382.257C591.718 371.684 584.283 361.635 573.613 357.391C586.529 360.352 596.46 371.652 593.462 383.625Z" fill="#231F20"/>
<path d="M491.5 409.391C495.09 409.391 498 406.704 498 403.391C498 400.077 495.09 397.391 491.5 397.391C487.91 397.391 485 400.077 485 403.391C485 406.704 487.91 409.391 491.5 409.391Z" fill="white"/>
<path d="M646.7 526.391C642.662 526.391 638.237 526.195 633.425 525.805C608.532 523.781 576.288 516.744 542.633 505.991C508.978 495.238 477.933 482.053 455.216 468.866C444.15 462.442 435.656 456.361 429.972 450.791C423.954 444.896 421.322 439.756 422.148 435.517C423.758 427.259 438.01 425.452 449.683 425.391L449.687 426.592C433.657 426.676 424.2 429.949 423.058 435.808C421.604 443.271 433.466 454.921 455.603 467.772C478.27 480.93 509.259 494.09 542.86 504.826C576.462 515.562 608.646 522.586 633.484 524.606C657.741 526.579 672.488 523.43 673.942 515.967C675.149 509.771 667.189 500.644 651.527 490.266L651.958 489.2C663.338 496.741 676.548 507.556 674.852 516.258C674.026 520.497 669.816 523.45 662.341 525.035C658.079 525.938 652.845 526.391 646.7 526.391Z" fill="#1684AC"/>
</svg>
