<svg width="537" height="527" viewBox="0 0 537 527" fill="none" xmlns="http://www.w3.org/2000/svg">
<g filter="url(#filter0_d_1382_1064)">
<path d="M21.4844 0L532.173 17.8336L514.688 518.528L3.99973 500.695L21.4844 0Z" fill="#F5F5F5"/>
</g>
<g filter="url(#filter1_d_1382_1064)">
<path d="M30.3574 13.334L178.267 18.4991L160.818 518.195L12.9077 513.029L30.3574 13.334Z" fill="#F5F5F5"/>
</g>
<rect x="47.8457" y="142.884" width="108" height="13" rx="6.5" transform="rotate(2 47.8457 142.884)" fill="#C0CCD2"/>
<rect x="49.75" y="167.388" width="79" height="8" rx="4" transform="rotate(2 49.75 167.388)" fill="#C0CCD2" fill-opacity="0.6"/>
<rect x="49.75" y="195.388" width="79" height="8" rx="4" transform="rotate(2 49.75 195.388)" fill="#C0CCD2" fill-opacity="0.6"/>
<rect x="49.75" y="181.388" width="79" height="8" rx="4" transform="rotate(2 49.75 181.388)" fill="#C0CCD2" fill-opacity="0.6"/>
<rect x="47.8457" y="235.884" width="108" height="13" rx="6.5" transform="rotate(2 47.8457 235.884)" fill="#C0CCD2"/>
<rect x="49.75" y="260.388" width="79" height="8" rx="4" transform="rotate(2 49.75 260.388)" fill="#C0CCD2" fill-opacity="0.6"/>
<rect x="49.75" y="288.388" width="79" height="8" rx="4" transform="rotate(2 49.75 288.388)" fill="#C0CCD2" fill-opacity="0.6"/>
<rect x="49.75" y="274.388" width="79" height="8" rx="4" transform="rotate(2 49.75 274.388)" fill="#C0CCD2" fill-opacity="0.6"/>
<path d="M486.708 361.671L202.881 351.76L208.465 191.857L492.292 201.769L486.708 361.671Z" fill="white"/>
<path d="M486.708 361.671L202.881 351.76L208.465 191.857L492.292 201.769L486.708 361.671ZM206.403 348.501L483.421 358.174L488.769 205.028L211.751 195.355L206.403 348.501Z" fill="#E5E5E5"/>
<path d="M438.6 251.942L256.711 245.59L256.571 249.587L438.46 255.939L438.6 251.942Z" fill="#3F3D56"/>
<path d="M438.6 277.942L256.711 271.59L256.571 275.587L438.46 281.939L438.6 277.942Z" fill="#3F3D56"/>
<path d="M438.6 303.942L256.711 297.59L256.571 301.587L438.46 307.939L438.6 303.942Z" fill="#3F3D56"/>
<path d="M286.897 241.909L278.902 241.63L278.274 259.619L286.269 259.898L286.897 241.909Z" fill="#1684AC"/>
<path d="M343.897 267.909L335.902 267.63L335.274 285.619L343.269 285.898L343.897 267.909Z" fill="#1684AC"/>
<path d="M413.897 293.909L405.902 293.63L405.274 311.619L413.269 311.898L413.897 293.909Z" fill="#1684AC"/>
<path d="M317.64 382.685L207.707 378.846L207.533 383.843L317.466 387.682L317.64 382.685Z" fill="#CBCBCB"/>
<path d="M317.622 398.685L207.689 394.846L207.55 398.844L317.483 402.683L317.622 398.685Z" fill="#CBCBCB"/>
<path d="M261.659 411.708L207.691 409.823L207.517 414.82L261.484 416.705L261.659 411.708Z" fill="#CBCBCB"/>
<path d="M312.984 445.348L279.005 444.161L280.191 410.182L314.171 411.368L312.984 445.348Z" fill="white"/>
<path d="M312.984 445.348L279.005 444.161L280.191 410.182L314.171 411.368L312.984 445.348ZM280.197 443.049L311.872 444.155L312.979 412.48L281.303 411.374L280.197 443.049Z" fill="#CBCBCB"/>
<path d="M486.983 445.33L454.003 444.178L455.189 410.199L488.169 411.35L486.983 445.33Z" fill="white"/>
<path d="M486.983 445.33L454.003 444.178L455.189 410.199L488.169 411.35L486.983 445.33ZM455.161 443.065L485.905 444.139L487.011 412.463L456.267 411.39L455.161 443.065Z" fill="#E5E5E5"/>
<path d="M294.455 433.676L290.573 428.06L293.009 426.218L294.847 428.876L301.614 421.919L303.718 424.151L294.455 433.676Z" fill="#1684AC"/>
<path d="M487.64 382.685L377.707 378.846L377.533 383.843L487.466 387.682L487.64 382.685Z" fill="#E5E5E5"/>
<path d="M487.622 398.685L377.689 394.846L377.55 398.844L487.483 402.683L487.622 398.685Z" fill="#E5E5E5"/>
<path d="M431.659 411.708L377.691 409.823L377.517 414.82L431.484 416.705L431.659 411.708Z" fill="#E5E5E5"/>
<rect x="205.859" y="88.1509" width="150" height="13" rx="6.5" transform="rotate(2 205.859 88.1509)" fill="#C0CCD2"/>
<rect x="205.754" y="114.179" width="91" height="8" rx="4" transform="rotate(2 205.754 114.179)" fill="#C0CCD2" fill-opacity="0.6"/>
<rect x="306.738" y="115.139" width="36" height="8" rx="4" transform="rotate(2 306.738 115.139)" fill="#C0CCD2" fill-opacity="0.6"/>
<defs>
<filter id="filter0_d_1382_1064" x="0" y="0" width="536.174" height="526.529" filterUnits="userSpaceOnUse" color-interpolation-filters="sRGB">
<feFlood flood-opacity="0" result="BackgroundImageFix"/>
<feColorMatrix in="SourceAlpha" type="matrix" values="0 0 0 0 0 0 0 0 0 0 0 0 0 0 0 0 0 0 127 0" result="hardAlpha"/>
<feOffset dy="4"/>
<feGaussianBlur stdDeviation="2"/>
<feComposite in2="hardAlpha" operator="out"/>
<feColorMatrix type="matrix" values="0 0 0 0 0 0 0 0 0 0 0 0 0 0 0 0 0 0 0.25 0"/>
<feBlend mode="normal" in2="BackgroundImageFix" result="effect1_dropShadow_1382_1064"/>
<feBlend mode="normal" in="SourceGraphic" in2="effect1_dropShadow_1382_1064" result="shape"/>
</filter>
<filter id="filter1_d_1382_1064" x="8.9082" y="13.334" width="173.359" height="512.861" filterUnits="userSpaceOnUse" color-interpolation-filters="sRGB">
<feFlood flood-opacity="0" result="BackgroundImageFix"/>
<feColorMatrix in="SourceAlpha" type="matrix" values="0 0 0 0 0 0 0 0 0 0 0 0 0 0 0 0 0 0 127 0" result="hardAlpha"/>
<feOffset dy="4"/>
<feGaussianBlur stdDeviation="2"/>
<feComposite in2="hardAlpha" operator="out"/>
<feColorMatrix type="matrix" values="0 0 0 0 0 0 0 0 0 0 0 0 0 0 0 0 0 0 0.25 0"/>
<feBlend mode="normal" in2="BackgroundImageFix" result="effect1_dropShadow_1382_1064"/>
<feBlend mode="normal" in="SourceGraphic" in2="effect1_dropShadow_1382_1064" result="shape"/>
</filter>
</defs>
</svg>
