<svg width="885" height="815" viewBox="0 0 885 815" fill="none" xmlns="http://www.w3.org/2000/svg">
<ellipse cx="442.479" cy="407.573" rx="290.718" ry="356.845" transform="rotate(66.9889 442.479 407.573)" fill="#FDECC0"/>
<path d="M278.817 326.418C283.11 323.702 288.634 329.687 285.629 333.414C282.591 337.181 275.949 336.113 273.662 332.267C270.744 327.359 273.65 321.522 278.353 318.673C283.695 315.437 290.242 315.255 296.41 315.558C302.64 315.864 308.72 316.271 314.927 315.445C320.181 314.733 325.314 313.402 330.202 311.482C340.252 307.578 349.076 301.395 355.86 293.504C359.026 289.789 361.985 285.613 363.797 281.166C365.193 277.74 365.854 273.235 363.876 269.881C363.446 269.127 362.84 268.471 362.101 267.96C361.362 267.449 360.51 267.097 359.606 266.929C358.702 266.761 357.769 266.782 356.874 266.989C355.98 267.196 355.146 267.585 354.435 268.127C351.138 270.625 350.248 275.263 352.768 278.495C355.473 281.963 360.576 283.152 364.97 282.521C371.076 281.643 376.021 277.656 380.696 274.223L415.318 248.799C421.027 244.607 426.677 240.333 432.46 236.228C437.162 232.889 442.9 229.653 449.025 231.436C451.494 232.154 453.982 233.857 454.599 236.302C454.83 237.422 454.725 238.579 454.298 239.648C453.87 240.717 453.135 241.658 452.171 242.369C451.731 242.715 451.218 242.972 450.665 243.124C450.112 243.277 449.53 243.321 448.957 243.255C448.385 243.188 447.833 243.013 447.338 242.738C446.842 242.464 446.414 242.098 446.08 241.662C444.789 239.997 444.683 237.624 445.426 235.742C447.413 230.714 454.703 230.188 459.567 230.597C465.307 231.135 470.852 232.823 475.815 235.544C486.096 241.067 493.699 250.051 498.159 260.152C503.1 271.343 504.622 283.727 504.421 295.74C504.379 298.191 504.196 300.901 502.705 303.014C501.245 305.083 498.697 305.709 496.411 304.325C495.667 303.875 494.71 302.997 494.904 302.071C495.148 300.908 497.653 300.899 498.656 300.944C501.402 301.066 503.998 302.346 505.965 304.072C510.639 308.174 511.003 314.451 510.393 320.031C509.724 326.158 507.815 332.251 508.573 338.454C509.815 348.615 518.829 354.261 527.683 358.932C532.217 361.324 536.85 363.611 540.927 366.655C545.083 369.769 548.721 373.431 551.724 377.524C557.659 385.6 561.158 394.993 561.86 404.737C562.213 409.605 561.797 414.495 560.626 419.252C559.461 423.905 557.626 429.771 552.793 432.27C551.641 432.88 550.315 433.148 548.993 433.038C547.671 432.928 546.418 432.446 545.402 431.657C543.443 430.203 542.486 427.623 544.509 425.806C546.186 424.301 548.868 424.618 550.891 425.23C553.326 425.967 555.221 427.341 557.036 428.965C560.496 432.061 564.546 435.861 569.81 434.872C570.783 434.689 570.371 433.313 569.4 433.496C563.045 434.689 559.214 427.858 554.528 425.228C551.135 423.324 545.34 421.908 542.689 425.621C539.828 429.629 544.428 433.952 548.703 434.469C554.262 435.14 558.115 430.113 559.981 425.963C564.31 416.34 564.444 405.056 561.797 395.036C559.15 384.86 553.428 375.59 545.298 368.309C541.195 364.692 536.491 361.918 531.584 359.337C526.63 356.731 521.467 354.232 517.228 350.655C514.881 348.74 513.013 346.374 511.755 343.723C510.498 341.072 509.88 338.199 509.946 335.304C509.992 328.637 512.309 322.167 512.165 315.487C512.045 309.948 510.01 304.54 504.801 301.421C502.654 300.074 500.091 299.413 497.5 299.537C496.447 299.617 494.967 299.781 494.099 300.391C493.399 300.882 493.267 302.033 493.408 302.776C493.743 304.543 495.549 305.769 497.303 306.261C498.37 306.578 499.515 306.591 500.589 306.297C501.663 306.004 502.617 305.419 503.327 304.617C505.014 302.815 505.599 300.412 505.838 298.098C506.162 294.963 505.983 291.742 505.833 288.602C505.226 275.84 502.5 262.773 495.329 251.69C489.234 242.268 479.755 234.369 468.389 230.874C463.033 229.227 456.68 228.24 451.153 229.738C446.399 231.027 442.755 234.646 443.54 239.44C444.205 243.498 448.751 246.305 452.757 243.744C453.702 243.139 454.495 242.353 455.082 241.439C455.668 240.526 456.035 239.505 456.157 238.449C456.278 237.392 456.151 236.323 455.786 235.316C455.42 234.308 454.823 233.386 454.036 232.611C450.164 228.86 443.849 228.887 439.016 230.793C436.106 231.941 433.53 233.661 431.045 235.448C427.878 237.726 424.755 240.058 421.612 242.366L383.759 270.163C380.772 272.356 377.832 274.631 374.745 276.704C371.864 278.64 368.685 280.432 365.139 281.053C360.144 281.928 352.239 279.634 352.844 273.775C353.079 271.499 354.709 268.986 357.199 268.334C359.641 267.694 361.946 269.147 362.853 271.203C364.854 275.737 362.504 280.923 360.167 284.903C354.381 294.757 345.253 302.782 334.558 308.004C329.205 310.624 323.467 312.507 317.525 313.595C310.852 314.808 304.303 314.57 297.556 314.192C291.015 313.825 284.146 313.862 278.317 317.015C273.536 319.6 270.347 324.288 271.114 329.512C271.779 334.049 275.713 337.516 280.786 337.133C285.044 336.811 289.322 333.448 287.812 329.176C286.561 325.638 281.731 322.849 278.038 325.185C277.223 325.701 277.994 326.939 278.817 326.418Z" fill="#3F3D56"/>
<path d="M605.881 429.48H568.489C567.904 429.481 567.344 429.696 566.931 430.078C566.518 430.46 566.286 430.978 566.285 431.519V453.051C566.286 453.592 566.518 454.11 566.931 454.492C567.344 454.874 567.904 455.089 568.489 455.09H605.881C606.465 455.089 607.025 454.874 607.438 454.492C607.852 454.11 608.084 453.592 608.085 453.051V431.519C608.084 430.978 607.852 430.46 607.438 430.078C607.025 429.696 606.465 429.481 605.881 429.48Z" fill="#F2F2F2"/>
<path d="M605.881 429.48H568.489C567.904 429.481 567.344 429.696 566.931 430.078C566.518 430.46 566.286 430.978 566.285 431.519V453.051C566.286 453.592 566.518 454.11 566.931 454.492C567.344 454.874 567.904 455.089 568.489 455.09H605.881C606.465 455.089 607.025 454.874 607.438 454.492C607.852 454.11 608.084 453.592 608.085 453.051V431.519C608.084 430.978 607.852 430.46 607.438 430.078C607.025 429.696 606.465 429.481 605.881 429.48ZM606.604 444.948C606.595 447.14 605.658 449.242 603.993 450.802C602.328 452.362 600.068 453.257 597.698 453.293C593.904 453.339 599.798 453.357 595.222 453.357C584.758 453.357 573.847 453.264 569.776 453.205C569.24 453.194 568.73 452.991 568.355 452.637C567.979 452.284 567.768 451.809 567.766 451.314V431.52C567.766 431.343 567.842 431.173 567.977 431.047C568.113 430.921 568.297 430.85 568.488 430.85H605.88C606.071 430.85 606.255 430.92 606.391 431.046C606.527 431.171 606.604 431.341 606.604 431.518L606.604 444.948Z" fill="#E6E6E6"/>
<path d="M601.278 417.081H572.789C572.537 417.081 572.291 417.154 572.085 417.288C571.879 417.422 571.723 417.612 571.638 417.832L567.238 429.25C567.172 429.42 567.152 429.602 567.178 429.782C567.205 429.961 567.277 430.132 567.39 430.28C567.502 430.428 567.652 430.548 567.825 430.632C567.999 430.715 568.192 430.759 568.387 430.759L606.596 430.822H606.597C606.8 430.822 606.999 430.776 607.177 430.687C607.355 430.598 607.506 430.47 607.618 430.314C607.729 430.158 607.797 429.978 607.815 429.792C607.832 429.606 607.8 429.418 607.721 429.247L602.401 417.766C602.307 417.563 602.15 417.389 601.951 417.268C601.751 417.146 601.517 417.081 601.278 417.081Z" fill="#E6E6E6"/>
<path d="M607.819 429.495C607.819 429.648 607.786 429.799 607.72 429.94L602.401 438.777C602.307 438.98 602.15 439.153 601.95 439.275C601.75 439.397 601.517 439.461 601.278 439.462H572.789C572.537 439.462 572.291 439.389 572.085 439.255C571.879 439.121 571.722 438.931 571.637 438.711L567.238 429.937C567.184 429.797 567.16 429.649 567.169 429.501C567.177 429.353 567.216 429.207 567.285 429.073C567.354 428.939 567.45 428.819 567.57 428.719C567.689 428.62 567.828 428.543 567.979 428.493C568.11 428.45 568.248 428.427 568.387 428.427L573.054 428.419L574.959 428.416L600.026 428.375L601.932 428.372L606.596 428.364H606.597C606.921 428.364 607.232 428.483 607.461 428.695C607.69 428.907 607.819 429.195 607.819 429.495Z" fill="#E6E6E6"/>
<path d="M571.291 445.633C571.856 445.633 579.614 446.071 579.614 446.594C579.614 447.116 571.856 447.525 571.291 447.525C571.02 447.525 570.76 447.425 570.568 447.248C570.376 447.071 570.269 446.83 570.269 446.579C570.269 446.328 570.376 446.087 570.568 445.91C570.76 445.733 571.02 445.633 571.291 445.633Z" fill="#E6E6E6"/>
<path d="M599.504 410.136H575.483C574.839 410.136 574.222 410.373 573.767 410.794C573.311 411.215 573.055 411.786 573.055 412.382V439.462H601.278C601.51 439.463 601.737 439.402 601.933 439.286V412.382C601.932 411.786 601.676 411.215 601.22 410.794C600.765 410.373 600.148 410.136 599.504 410.136Z" fill="#F2F2F2"/>
<path d="M590.335 411.956H577.171C576.584 411.957 576.022 412.172 575.608 412.555C575.193 412.939 574.96 413.459 574.959 414.001V439.461H600.026V420.919C600.023 418.543 599.001 416.265 597.184 414.584C595.367 412.904 592.904 411.959 590.335 411.956Z" fill="white"/>
<path d="M595.756 437.2H579.23C579.087 437.2 578.95 437.253 578.849 437.346C578.748 437.44 578.691 437.566 578.691 437.698C578.691 437.831 578.748 437.957 578.849 438.051C578.95 438.144 579.087 438.197 579.23 438.197H595.756C595.899 438.197 596.036 438.144 596.137 438.051C596.238 437.957 596.294 437.831 596.294 437.698C596.294 437.566 596.238 437.44 596.137 437.346C596.036 437.253 595.899 437.2 595.756 437.2Z" fill="#E4E4E4"/>
<path d="M595.755 435.23H579.23C579.087 435.23 578.949 435.283 578.848 435.377C578.747 435.47 578.69 435.597 578.69 435.729C578.69 435.861 578.747 435.988 578.848 436.082C578.949 436.175 579.087 436.228 579.23 436.228H595.755C595.826 436.228 595.896 436.215 595.962 436.19C596.027 436.165 596.087 436.128 596.137 436.082C596.187 436.036 596.226 435.981 596.254 435.92C596.281 435.86 596.295 435.795 596.295 435.729C596.295 435.664 596.281 435.599 596.254 435.538C596.226 435.478 596.187 435.423 596.137 435.377C596.087 435.33 596.027 435.294 595.962 435.268C595.896 435.243 595.826 435.23 595.755 435.23Z" fill="#E4E4E4"/>
<path d="M586.394 433.261H579.23C579.087 433.261 578.95 433.313 578.849 433.407C578.748 433.5 578.691 433.627 578.691 433.759C578.691 433.891 578.748 434.018 578.849 434.111C578.95 434.205 579.087 434.257 579.23 434.257H586.394C586.537 434.257 586.674 434.205 586.775 434.111C586.876 434.018 586.932 433.891 586.932 433.759C586.932 433.627 586.876 433.5 586.775 433.407C586.674 433.313 586.537 433.261 586.394 433.261Z" fill="#E4E4E4"/>
<path d="M595.755 429.135H579.229C579.086 429.135 578.95 429.188 578.849 429.281C578.748 429.375 578.691 429.501 578.691 429.633C578.691 429.765 578.748 429.892 578.849 429.986C578.95 430.079 579.086 430.132 579.229 430.132H595.755C595.826 430.132 595.896 430.12 595.962 430.095C596.027 430.07 596.087 430.033 596.137 429.987C596.187 429.94 596.227 429.885 596.254 429.825C596.282 429.764 596.296 429.699 596.296 429.633C596.296 429.568 596.282 429.503 596.254 429.442C596.227 429.382 596.187 429.327 596.137 429.28C596.087 429.234 596.027 429.197 595.962 429.172C595.896 429.147 595.826 429.135 595.755 429.135Z" fill="#E4E4E4"/>
<path d="M595.756 427.165H579.23C579.087 427.165 578.95 427.218 578.849 427.311C578.748 427.404 578.691 427.531 578.691 427.663C578.691 427.795 578.748 427.922 578.849 428.015C578.95 428.109 579.087 428.161 579.23 428.161H595.756C595.899 428.161 596.036 428.109 596.137 428.015C596.238 427.922 596.294 427.795 596.294 427.663C596.294 427.531 596.238 427.404 596.137 427.311C596.036 427.218 595.899 427.165 595.756 427.165Z" fill="#E4E4E4"/>
<path d="M586.393 425.195H579.23C579.087 425.195 578.949 425.248 578.848 425.341C578.747 425.435 578.69 425.562 578.69 425.694C578.69 425.826 578.747 425.953 578.848 426.047C578.949 426.14 579.087 426.193 579.23 426.193H586.393C586.536 426.193 586.673 426.14 586.775 426.047C586.876 425.953 586.932 425.826 586.932 425.694C586.932 425.562 586.876 425.435 586.775 425.341C586.673 425.248 586.536 425.195 586.393 425.195Z" fill="#E4E4E4"/>
<path d="M595.755 421.068H579.229C579.086 421.069 578.95 421.121 578.849 421.215C578.748 421.308 578.691 421.435 578.691 421.567C578.691 421.699 578.748 421.826 578.849 421.919C578.95 422.013 579.086 422.065 579.229 422.066H595.755C595.826 422.066 595.896 422.053 595.962 422.028C596.027 422.003 596.087 421.967 596.137 421.92C596.187 421.874 596.227 421.819 596.254 421.758C596.282 421.698 596.296 421.633 596.296 421.567C596.296 421.501 596.282 421.436 596.254 421.376C596.227 421.315 596.187 421.26 596.137 421.214C596.087 421.168 596.027 421.131 595.962 421.106C595.896 421.081 595.826 421.068 595.755 421.068Z" fill="#E4E4E4"/>
<path d="M595.755 419.1H579.229C579.086 419.1 578.95 419.153 578.849 419.246C578.748 419.34 578.691 419.466 578.691 419.598C578.691 419.73 578.748 419.857 578.849 419.95C578.95 420.044 579.086 420.097 579.229 420.097H595.755C595.826 420.097 595.896 420.084 595.962 420.059C596.027 420.035 596.087 419.998 596.137 419.951C596.187 419.905 596.227 419.85 596.254 419.79C596.282 419.729 596.296 419.664 596.296 419.598C596.296 419.533 596.282 419.468 596.254 419.407C596.227 419.347 596.187 419.291 596.137 419.245C596.087 419.199 596.027 419.162 595.962 419.137C595.896 419.112 595.826 419.099 595.755 419.1Z" fill="#E4E4E4"/>
<path d="M586.393 417.129H579.23C579.087 417.129 578.949 417.181 578.848 417.275C578.747 417.368 578.69 417.495 578.69 417.628C578.69 417.76 578.747 417.887 578.848 417.98C578.949 418.074 579.087 418.126 579.23 418.126H586.393C586.464 418.126 586.534 418.113 586.6 418.088C586.665 418.063 586.724 418.027 586.775 417.98C586.825 417.934 586.864 417.879 586.891 417.818C586.919 417.758 586.932 417.693 586.932 417.628C586.932 417.562 586.919 417.497 586.891 417.437C586.864 417.376 586.825 417.321 586.775 417.275C586.724 417.229 586.665 417.192 586.6 417.167C586.534 417.142 586.464 417.129 586.393 417.129Z" fill="#E4E4E4"/>
<path d="M408.42 323.751C417.227 323.751 424.367 317.147 424.367 309.001C424.367 300.856 417.227 294.252 408.42 294.252C399.613 294.252 392.474 300.856 392.474 309.001C392.474 317.147 399.613 323.751 408.42 323.751Z" fill="#A0616A"/>
<path d="M426.623 300.556C424.946 298.156 421.798 296.556 418.747 297.005C418.463 295.204 417.65 293.509 416.396 292.106C415.143 290.702 413.498 289.644 411.639 289.045C409.78 288.447 407.78 288.331 405.855 288.712C403.931 289.092 402.156 289.954 400.724 291.202C400.253 290.896 399.704 290.707 399.131 290.654C398.558 290.601 397.98 290.685 397.453 290.9C396.403 291.341 395.489 292.02 394.796 292.873C393.044 294.892 391.918 297.313 391.537 299.878C391.156 302.443 391.533 305.055 392.63 307.437C392.257 306.183 393.615 305.003 394.988 304.722C396.361 304.441 397.801 304.707 399.193 304.524C400.977 304.289 402.581 303.331 404.368 303.116C405.87 302.935 407.38 303.291 408.845 303.648C410.31 304.005 411.816 304.369 413.32 304.204C414.824 304.039 416.762 309.311 416.736 313.024C416.731 313.728 416.887 314.632 417.631 314.781C418.547 314.965 419.077 313.796 419.949 313.477C420.35 313.371 420.781 313.413 421.15 313.594C421.519 313.776 421.797 314.082 421.926 314.45C422.036 314.824 422.048 315.216 421.961 315.595C421.873 315.974 421.689 316.328 421.424 316.627C420.889 317.222 420.253 317.732 419.541 318.138L419.9 318.415C420.497 319.144 421.736 319.176 422.596 318.724C423.419 318.209 424.086 317.507 424.532 316.686C426.124 314.236 427.521 311.627 428.083 308.816C428.644 306.006 428.301 302.956 426.623 300.556Z" fill="#2F2E41"/>
<path d="M427.126 567.29L418.514 567.289L414.417 536.563L427.128 536.564L427.126 567.29Z" fill="#A0616A"/>
<path d="M427.429 575.6L400.945 575.599V575.289C400.945 572.761 402.032 570.336 403.965 568.548C405.898 566.76 408.52 565.755 411.254 565.755H411.254L416.092 562.36L425.118 565.755L427.429 565.755L427.429 575.6Z" fill="#2F2E41"/>
<path d="M442.656 553.226L435.9 558.165L412.084 536.412L422.056 529.121L442.656 553.226Z" fill="#A0616A"/>
<path d="M448.465 559.571L427.689 574.761L427.481 574.518C425.786 572.535 425.012 570.009 425.33 567.498C425.647 564.986 427.03 562.694 429.175 561.126L429.175 561.126L430.694 555.688L440.051 553.174L441.865 551.848L448.465 559.571Z" fill="#2F2E41"/>
<path d="M382.592 423.268L382.066 432.234L384.624 435.092L384.33 444.06L386.812 449.929L388.557 468.604L412.996 546.524L435.019 539.99L410.97 467.355L439.904 466.686L440.883 425.73L435.756 416.562L382.592 423.268Z" fill="#2F2E41"/>
<path d="M437.122 460.512L439.904 466.686L429.145 553.629L414.048 554.649L407.529 457.449L437.122 460.512Z" fill="#2F2E41"/>
<path d="M422.326 332.388L417.368 326.041L401.362 326.634L401.055 331.521L390.422 424.414L400.864 424.198L413.826 426.997L438.758 418.926L422.326 332.388Z" fill="white"/>
<path d="M394.529 426.132H369.98L376.385 384.319L378.982 367.371C378.982 367.371 377.144 355.258 376.254 348.929C376.171 348.254 376.297 347.571 376.618 346.959C376.91 346.387 377.29 345.856 377.747 345.385C380.732 342.201 387.448 339.439 391.659 337.928C393.828 337.154 395.336 336.709 395.336 336.709L401.055 331.522C409.263 341.009 394.529 426.132 394.529 426.132Z" fill="#3F3D56"/>
<path d="M419.217 328.934L427.005 333.061C427.005 333.061 450.068 336.565 452.311 344.577L443.821 368.28V418.096L423.24 425.73C423.24 425.73 405.487 345.249 419.217 328.934Z" fill="#3F3D56"/>
<path opacity="0.4" d="M411.334 455.437L407.529 496.2L414.008 543.642" fill="black"/>
<path d="M319.471 379.498C320.105 379.077 320.831 378.789 321.599 378.655C322.367 378.521 323.157 378.544 323.914 378.724C324.67 378.903 325.375 379.233 325.979 379.692C326.583 380.15 327.071 380.725 327.408 381.377L346.277 379.403L341.804 387.539L324.572 388.166C323.351 388.618 321.993 388.639 320.756 388.227C319.519 387.815 318.488 386.997 317.859 385.928C317.23 384.86 317.047 383.615 317.344 382.43C317.641 381.245 318.398 380.202 319.471 379.498Z" fill="#A0616A"/>
<path d="M398.663 343.875L404.062 346.858L373.822 386.262L336.911 389.163L335.441 379.416L362.637 371.869L376.079 347.769L398.663 343.875Z" fill="#3F3D56"/>
<path d="M508.722 376.167C508.088 375.746 507.361 375.458 506.593 375.324C505.826 375.19 505.036 375.213 504.279 375.393C503.522 375.572 502.817 375.902 502.213 376.361C501.609 376.819 501.122 377.394 500.784 378.046L481.916 376.072L486.388 384.208L503.62 384.835C504.841 385.287 506.199 385.308 507.437 384.896C508.674 384.483 509.705 383.666 510.334 382.597C510.962 381.529 511.146 380.284 510.849 379.099C510.552 377.914 509.795 376.871 508.722 376.167Z" fill="#A0616A"/>
<path d="M429.529 340.544L424.13 343.527L454.37 382.931L491.281 385.832L492.75 376.085L465.555 368.538L452.113 344.438L429.529 340.544Z" fill="#3F3D56"/>
<path d="M356.007 331.272V330.751H346.569V318.603H346.007V330.751H335.19V321.369C335.001 321.507 334.814 321.648 334.63 321.794V330.751H327.485C327.406 330.923 327.329 331.097 327.257 331.272H334.63V341.48H325.476C325.484 341.655 325.497 341.827 325.513 342.001H334.63V350.145H327.8C327.884 350.32 327.972 350.492 328.064 350.663H334.63V357.509H335.19V350.663H346.007V357.509H346.569V350.663H356.007V350.145H346.569C346.569 349.075 346.796 348.016 347.239 347.028C347.681 346.04 348.33 345.142 349.147 344.386C349.965 343.629 350.936 343.03 352.004 342.62C353.072 342.211 354.217 342.001 355.374 342.001H356.007V341.48H346.569V331.272H356.007ZM346.007 350.145H335.19V342.001H346.007V350.145ZM346.007 341.48H335.19V341.276C335.19 339.962 335.47 338.661 336.014 337.447C336.557 336.233 337.354 335.131 338.359 334.202C339.363 333.273 340.555 332.536 341.868 332.033C343.18 331.53 344.587 331.272 346.007 331.272V341.48Z" fill="#E6E6E6"/>
<path d="M438.013 259.194C437.939 259.222 437.856 259.222 437.783 259.194C437.709 259.165 437.65 259.111 437.62 259.043L436.838 257.296C436.808 257.228 436.808 257.152 436.838 257.084C436.869 257.016 436.927 256.961 437.001 256.933C437.075 256.905 437.158 256.905 437.231 256.933C437.305 256.962 437.363 257.016 437.394 257.084L438.175 258.831C438.206 258.899 438.206 258.975 438.175 259.043C438.145 259.111 438.086 259.166 438.013 259.194Z" fill="#3F3D56"/>
<path d="M453.777 246.253L451.444 241.039C451.267 240.642 451.007 240.282 450.679 239.979C450.351 239.675 449.962 239.435 449.534 239.271C449.106 239.106 448.646 239.022 448.183 239.021C447.719 239.021 447.26 239.106 446.831 239.27L434.888 243.841C434.459 244.005 434.07 244.246 433.742 244.549C433.414 244.852 433.154 245.212 432.976 245.608C432.799 246.004 432.707 246.429 432.707 246.858C432.707 247.287 432.798 247.712 432.975 248.108L445.774 276.713C445.951 277.11 446.211 277.47 446.539 277.773C446.867 278.076 447.256 278.317 447.684 278.481C448.112 278.646 448.572 278.73 449.035 278.73C449.499 278.731 449.958 278.646 450.387 278.482L462.33 273.911C462.759 273.747 463.148 273.506 463.476 273.203C463.804 272.9 464.064 272.54 464.242 272.144C464.419 271.748 464.511 271.323 464.511 270.894C464.511 270.465 464.42 270.04 464.243 269.644L455.438 249.964C455.465 249.954 455.489 249.939 455.51 249.92C455.531 249.901 455.547 249.878 455.558 249.853C455.569 249.828 455.575 249.801 455.575 249.774C455.575 249.747 455.57 249.72 455.558 249.695L454.068 246.364C454.057 246.339 454.041 246.317 454.02 246.298C453.999 246.278 453.975 246.263 453.948 246.253C453.921 246.243 453.892 246.237 453.862 246.237C453.833 246.237 453.804 246.242 453.777 246.253Z" fill="#3F3D56"/>
<path d="M450.758 241.325L463.538 269.889C463.804 270.483 463.806 271.149 463.544 271.744C463.281 272.338 462.776 272.813 462.137 273.065C462.129 273.069 462.12 273.073 462.111 273.076L450.11 277.67C449.463 277.917 448.737 277.917 448.091 277.669C447.445 277.421 446.931 276.946 446.664 276.348L433.884 247.784C433.751 247.488 433.683 247.171 433.684 246.851C433.684 246.53 433.752 246.213 433.885 245.917C434.018 245.622 434.212 245.353 434.457 245.126C434.702 244.9 434.993 244.721 435.313 244.598L436.769 244.041C436.77 244.231 436.821 244.419 436.919 244.586C437.016 244.753 437.157 244.896 437.328 245.001C437.5 245.107 437.696 245.171 437.901 245.19C438.106 245.208 438.312 245.179 438.502 245.106L445.345 242.487C445.494 242.43 445.63 242.346 445.743 242.24C445.861 242.133 445.954 242.006 446.018 241.866C446.082 241.726 446.115 241.575 446.116 241.423C446.117 241.271 446.086 241.12 446.024 240.979C445.962 240.838 445.87 240.71 445.754 240.602L447.315 240.005C447.961 239.757 448.686 239.758 449.332 240.005C449.978 240.253 450.491 240.728 450.758 241.325Z" fill="#1684AC"/>
<path d="M436.68 256.214C436.606 256.242 436.523 256.242 436.45 256.214C436.376 256.186 436.317 256.132 436.287 256.064L435.505 254.317C435.475 254.249 435.475 254.172 435.505 254.104C435.536 254.036 435.594 253.982 435.668 253.954C435.742 253.926 435.824 253.926 435.898 253.954C435.972 253.982 436.03 254.036 436.061 254.104L436.842 255.851C436.873 255.919 436.873 255.996 436.842 256.064C436.812 256.132 436.753 256.186 436.68 256.214Z" fill="#3F3D56"/>
<path d="M435.107 252.844C435.033 252.872 434.95 252.872 434.877 252.844C434.803 252.816 434.745 252.762 434.714 252.694L433.932 250.947C433.917 250.913 433.909 250.877 433.909 250.84C433.909 250.804 433.917 250.767 433.932 250.733C433.947 250.7 433.969 250.669 433.997 250.643C434.025 250.617 434.058 250.597 434.095 250.583C434.131 250.569 434.171 250.561 434.21 250.562C434.25 250.562 434.289 250.569 434.325 250.583C434.362 250.597 434.395 250.618 434.423 250.644C434.451 250.669 434.473 250.7 434.488 250.734L435.269 252.481C435.3 252.549 435.3 252.626 435.269 252.694C435.239 252.762 435.18 252.816 435.107 252.844Z" fill="#3F3D56"/>
<path d="M439.505 243.338C439.475 243.27 439.475 243.193 439.505 243.125C439.536 243.057 439.594 243.003 439.668 242.974L441.557 242.252C441.63 242.223 441.713 242.223 441.787 242.252C441.86 242.28 441.919 242.334 441.949 242.402C441.98 242.47 441.98 242.547 441.949 242.615C441.919 242.683 441.86 242.737 441.786 242.765L439.898 243.488C439.824 243.516 439.741 243.516 439.668 243.488C439.594 243.46 439.536 243.406 439.505 243.338Z" fill="white"/>
<path d="M442.727 242.382C442.893 242.382 443.028 242.258 443.028 242.104C443.028 241.951 442.893 241.826 442.727 241.826C442.561 241.826 442.427 241.951 442.427 242.104C442.427 242.258 442.561 242.382 442.727 242.382Z" fill="white"/>
<path d="M507.917 365.743C507.879 365.743 507.841 365.743 507.803 365.741C507.357 365.726 506.921 365.612 506.533 365.407C506.144 365.203 505.815 364.915 505.573 364.568C503.76 362.061 501.535 359.832 498.978 357.96C497.43 356.816 495.813 355.752 494.249 354.723C490.214 352.069 486.414 349.57 484.304 346.117C479.705 338.586 485.121 328.097 492.859 323.393C501.537 318.118 512.953 317.29 523.996 317.182C525.143 317.171 526.292 317.165 527.441 317.165C547.338 317.172 567.193 318.851 586.761 322.182C593.268 323.292 600.079 324.653 605.553 327.954C610.994 331.235 614.301 336.403 613.978 341.12C613.507 348.005 605.616 353.15 598.43 354.495C591.581 355.776 584.466 354.91 576.934 353.993C575.271 353.791 573.551 353.582 571.851 353.4C553.372 351.424 518.659 357.514 517.19 357.774L515.733 358.032L510.08 364.761C509.825 365.068 509.498 365.316 509.123 365.486C508.748 365.657 508.335 365.745 507.917 365.743Z" fill="white"/>
<path d="M590.205 332.154H512.102C511.651 332.154 511.219 331.989 510.9 331.694C510.581 331.399 510.402 330.999 510.402 330.583C510.402 330.166 510.581 329.766 510.9 329.471C511.219 329.176 511.651 329.011 512.102 329.011H590.205C590.656 329.011 591.088 329.176 591.407 329.471C591.726 329.766 591.905 330.166 591.905 330.583C591.905 330.999 591.726 331.399 591.407 331.694C591.088 331.989 590.656 332.154 590.205 332.154Z" fill="#1684AC"/>
<path d="M590.206 341.802H512.102C511.652 341.802 511.22 341.636 510.901 341.342C510.583 341.047 510.404 340.648 510.403 340.232C510.403 339.815 510.581 339.416 510.899 339.12C511.217 338.825 511.648 338.659 512.099 338.658H590.206C590.656 338.659 591.087 338.825 591.405 339.12C591.723 339.414 591.902 339.814 591.902 340.23C591.902 340.646 591.723 341.046 591.405 341.34C591.087 341.635 590.656 341.801 590.206 341.802Z" fill="#1684AC"/>
<path d="M521.203 351.45H512.102C511.651 351.45 511.22 351.284 510.902 350.989C510.584 350.694 510.405 350.295 510.405 349.878C510.405 349.462 510.584 349.063 510.902 348.768C511.22 348.473 511.651 348.307 512.102 348.307H521.203C521.654 348.307 522.085 348.473 522.403 348.768C522.721 349.063 522.9 349.462 522.9 349.878C522.9 350.295 522.721 350.694 522.403 350.989C522.085 351.284 521.654 351.45 521.203 351.45Z" fill="#1684AC"/>
<path d="M508.881 376.702C513.444 376.702 517.142 373.281 517.142 369.061C517.142 364.842 513.444 361.421 508.881 361.421C504.319 361.421 500.621 364.842 500.621 369.061C500.621 373.281 504.319 376.702 508.881 376.702Z" fill="white"/>
<path d="M508.882 376.795C507.228 376.795 505.611 376.342 504.236 375.492C502.861 374.642 501.79 373.434 501.157 372.021C500.524 370.608 500.359 369.053 500.681 367.553C501.004 366.053 501.8 364.675 502.969 363.593C504.139 362.512 505.629 361.775 507.25 361.477C508.872 361.178 510.554 361.331 512.081 361.917C513.609 362.502 514.915 363.493 515.834 364.765C516.752 366.037 517.243 367.532 517.243 369.062C517.24 371.112 516.359 373.078 514.791 374.528C513.224 375.977 511.098 376.793 508.882 376.795Z" fill="#3F3D56"/>
<path d="M508.264 372.115C508.246 372.115 508.228 372.114 508.211 372.114C508.055 372.107 507.903 372.069 507.765 372.002C507.627 371.936 507.506 371.843 507.41 371.729L506.03 370.087C505.942 369.984 505.878 369.865 505.84 369.739C505.803 369.612 505.792 369.48 505.81 369.35C505.828 369.219 505.873 369.094 505.943 368.979C506.013 368.865 506.107 368.765 506.219 368.684L506.269 368.649C506.381 368.568 506.509 368.509 506.646 368.474C506.783 368.439 506.926 368.429 507.066 368.446C507.207 368.462 507.343 368.504 507.467 368.569C507.59 368.634 507.699 368.72 507.786 368.824C507.855 368.907 507.944 368.975 508.044 369.023C508.145 369.071 508.256 369.099 508.369 369.104C508.483 369.109 508.596 369.092 508.701 369.053C508.806 369.014 508.901 368.954 508.979 368.878L511.782 366.141C511.98 365.949 512.251 365.837 512.538 365.829C512.824 365.822 513.102 365.92 513.31 366.102L513.356 366.143C513.459 366.233 513.542 366.341 513.6 366.461C513.658 366.581 513.69 366.71 513.693 366.842C513.697 366.973 513.673 367.104 513.622 367.226C513.572 367.349 513.495 367.461 513.398 367.556L509.048 371.803C508.947 371.901 508.825 371.98 508.691 372.034C508.556 372.087 508.41 372.115 508.264 372.115Z" fill="white"/>
<path d="M354.645 270.299L349.591 242.189C349.489 241.62 349.636 241.037 349.999 240.568C350.361 240.098 350.91 239.781 351.525 239.686L374.477 236.156C375.093 236.062 375.723 236.198 376.23 236.533C376.738 236.869 377.08 237.376 377.183 237.945L382.237 266.055C382.338 266.624 382.192 267.207 381.829 267.676C381.467 268.146 380.918 268.463 380.303 268.558L357.351 272.088C356.735 272.182 356.105 272.046 355.598 271.711C355.09 271.376 354.748 270.868 354.645 270.299Z" fill="#3F3D56"/>
<path d="M354.878 261.537L351.629 243.466C351.534 242.933 351.671 242.387 352.011 241.947C352.35 241.508 352.865 241.211 353.441 241.122L373.166 238.088C373.742 238 374.332 238.127 374.808 238.441C375.283 238.755 375.604 239.231 375.7 239.763L380.197 264.777C380.292 265.31 380.155 265.856 379.815 266.296C379.476 266.735 378.962 267.032 378.386 267.121L366.166 269.001C363.6 269.393 360.97 268.827 358.854 267.428C356.737 266.029 355.308 263.91 354.878 261.537Z" fill="white"/>
<path d="M355.73 248.017C355.637 247.496 355.771 246.962 356.103 246.533C356.435 246.104 356.937 245.813 357.5 245.726L371.184 243.622C371.462 243.579 371.748 243.587 372.023 243.646C372.298 243.705 372.558 243.814 372.788 243.966C373.018 244.118 373.214 244.31 373.363 244.532C373.513 244.754 373.614 245.001 373.66 245.259C373.706 245.517 373.697 245.781 373.633 246.035C373.57 246.29 373.452 246.531 373.288 246.743C373.123 246.956 372.915 247.137 372.675 247.275C372.436 247.413 372.169 247.507 371.89 247.55L358.206 249.654C357.643 249.74 357.066 249.616 356.602 249.309C356.138 249.002 355.824 248.537 355.73 248.017Z" fill="#1684AC"/>
<path d="M356.829 254.127C356.736 253.606 356.87 253.073 357.202 252.643C357.534 252.214 358.036 251.924 358.599 251.837L372.282 249.732C372.845 249.645 373.423 249.769 373.887 250.076C374.351 250.383 374.665 250.849 374.759 251.369C374.852 251.89 374.718 252.424 374.386 252.854C374.054 253.283 373.551 253.573 372.988 253.66L359.305 255.764C358.742 255.85 358.165 255.726 357.701 255.419C357.236 255.112 356.923 254.648 356.829 254.127Z" fill="#1684AC"/>
<path d="M357.927 260.236C357.834 259.716 357.968 259.182 358.3 258.753C358.632 258.323 359.135 258.033 359.697 257.946L373.381 255.841C373.66 255.799 373.945 255.807 374.22 255.866C374.496 255.925 374.756 256.034 374.986 256.186C375.216 256.338 375.411 256.53 375.56 256.752C375.71 256.974 375.811 257.221 375.857 257.479C375.904 257.737 375.895 258 375.831 258.255C375.767 258.51 375.649 258.75 375.485 258.963C375.321 259.176 375.113 259.356 374.873 259.495C374.633 259.633 374.366 259.726 374.087 259.769L360.404 261.874C359.841 261.96 359.264 261.836 358.799 261.529C358.335 261.222 358.021 260.757 357.927 260.236Z" fill="#1684AC"/>
<path d="M474.564 556.179L474.927 548.614C478.72 546.739 482.95 545.748 487.25 545.729C481.331 550.204 482.071 558.831 478.059 564.849C476.792 566.717 475.086 568.298 473.069 569.474C471.052 570.649 468.775 571.39 466.406 571.641L461.453 574.446C460.774 570.942 460.924 567.343 461.893 563.898C462.862 560.452 464.626 557.242 467.066 554.488C468.451 552.956 470.039 551.591 471.793 550.426C472.979 553.319 474.564 556.179 474.564 556.179Z" fill="#F2F2F2"/>
<path d="M324.885 375.69C321.07 375.62 300.582 375.076 297.223 375.21C297.033 374.594 290.664 382.144 290.509 382.19C290.406 382.291 290.33 382.414 290.289 382.547C290.248 382.681 290.243 382.821 290.273 382.957C290.304 383.093 290.37 383.22 290.465 383.328C290.56 383.435 290.682 383.519 290.82 383.574C291.194 383.784 324.224 383.219 324.624 383.293C324.797 383.29 324.966 383.243 325.111 383.155C325.256 383.068 325.371 382.944 325.444 382.799L325.664 382.341C325.687 381.559 325.964 377.56 325.716 376.877C325.777 376.748 325.802 376.608 325.79 376.468C325.778 376.328 325.729 376.194 325.646 376.076C325.564 375.958 325.451 375.861 325.318 375.794C325.185 375.727 325.036 375.691 324.885 375.69Z" fill="#3F3D56"/>
<path opacity="0.17" d="M325.664 382.342C325.47 382.773 325.222 383.314 324.623 383.294L291.168 383.641C291.01 383.64 290.855 383.6 290.718 383.527C290.581 383.454 290.466 383.35 290.385 383.224C290.305 383.098 290.26 382.955 290.256 382.809C290.252 382.663 290.289 382.518 290.363 382.388L325.664 382.342Z" fill="black"/>
<path d="M297.379 375.117C297.019 374.541 288.075 333.607 287.328 333.264L281.222 326.355L280.676 325.975C279.917 325.589 278.096 325.85 278.26 326.922C279.695 333.284 288.923 369.518 289.125 375.167L290.236 382.363C290.255 382.486 290.303 382.603 290.374 382.708C290.446 382.812 290.541 382.902 290.652 382.97C290.764 383.039 290.89 383.085 291.022 383.106C291.154 383.127 291.289 383.122 291.419 383.091C291.737 383.06 292.041 382.952 292.3 382.778C292.56 382.605 292.766 382.372 292.899 382.102C292.982 381.848 297.797 375.264 297.379 375.117Z" fill="#3F3D56"/>
<path opacity="0.17" d="M281.219 326.355L292.899 382.104C292.508 383.018 290.681 383.659 290.255 382.459C290.247 382.457 278.273 326.957 278.261 326.924C278.133 325.588 280.519 325.545 281.219 326.355Z" fill="black"/>
<path d="M281.572 328.635L287.504 336.282L294.162 365.529L291.067 368.026L281.572 328.635Z" fill="#1684AC"/>
<path d="M321.056 379.634L322.697 379.696C322.722 379.251 322.802 378.811 322.933 378.383C323.18 377.298 323.402 376.008 322.378 376.013C321.683 375.951 321.447 376.765 321.323 377.65C321.291 378.317 321.202 378.98 321.056 379.634Z" fill="#2F2E41"/>
<path d="M311.641 377.593L312.747 377.631L313.282 377.65C313.271 377.107 313.544 375.989 312.88 375.713C312.775 375.671 312.661 375.65 312.546 375.651C311.924 375.618 311.738 376.056 311.682 376.56C311.646 376.865 311.661 377.188 311.651 377.44C311.651 377.493 311.646 377.545 311.641 377.593Z" fill="#2F2E41"/>
<path d="M308.364 377.468L309.475 377.511L310.005 377.53C309.995 376.907 310.35 375.546 309.27 375.527C308.272 375.475 308.4 376.65 308.375 377.316C308.375 377.369 308.369 377.421 308.364 377.468Z" fill="#2F2E41"/>
<path d="M305.088 377.35L306.194 377.388L306.729 377.407C306.719 376.788 307.074 375.427 305.993 375.408C304.995 375.351 305.124 376.526 305.098 377.197C305.098 377.25 305.093 377.302 305.088 377.35Z" fill="#2F2E41"/>
<path d="M301.811 377.226L302.922 377.269L303.452 377.288C303.441 376.665 303.796 375.309 302.716 375.285C301.718 375.233 301.847 376.408 301.821 377.074C301.821 377.126 301.816 377.179 301.811 377.226Z" fill="#2F2E41"/>
<path d="M298.533 377.107L299.639 377.145L300.174 377.164C300.164 376.593 300.462 375.399 299.67 375.194H299.665C299.592 375.174 299.515 375.165 299.439 375.166C299.345 375.158 299.251 375.166 299.161 375.19H299.156C298.466 375.356 298.564 376.355 298.543 376.955C298.543 377.007 298.538 377.06 298.533 377.107Z" fill="#2F2E41"/>
<path d="M317.748 376.784L319.389 376.846C319.389 376.789 319.389 376.727 319.394 376.656C319.435 376.294 319.442 375.929 319.415 375.566C319.358 375.166 319.173 374.852 318.653 374.843C318.124 374.814 317.913 375.128 317.83 375.533C317.811 375.601 317.797 375.671 317.789 375.742V375.747C317.748 376.118 317.774 376.518 317.748 376.784Z" fill="#2F2E41"/>
<path d="M314.471 376.66L316.112 376.721C316.147 376.313 316.157 375.903 316.143 375.494C316.096 375.075 315.916 374.732 315.376 374.723C314.831 374.69 314.62 375.032 314.538 375.456C314.46 375.865 314.502 376.355 314.471 376.66Z" fill="#2F2E41"/>
<path d="M311.193 376.541L311.682 376.56L312.834 376.602C312.829 376.374 312.876 376.041 312.881 375.713C312.885 375.614 312.882 375.516 312.87 375.418C312.829 374.975 312.66 374.609 312.099 374.599C311.528 374.571 311.327 374.937 311.255 375.384C311.183 375.784 311.224 376.246 311.193 376.541Z" fill="#2F2E41"/>
<path d="M317.778 379.515L319.419 379.572C319.414 378.953 319.764 377.592 318.684 377.573C317.603 377.511 317.84 378.891 317.778 379.515Z" fill="#2F2E41"/>
<path d="M314.502 379.391L316.143 379.453C316.138 378.83 316.488 377.469 315.407 377.45C314.327 377.393 314.564 378.773 314.502 379.391Z" fill="#2F2E41"/>
<path d="M311.225 379.272L312.866 379.329C312.861 378.887 313.041 378.068 312.747 377.631C312.683 377.534 312.592 377.455 312.483 377.402C312.375 377.349 312.253 377.325 312.13 377.331C311.962 377.314 311.792 377.353 311.652 377.44C311.127 377.759 311.276 378.768 311.225 379.272Z" fill="#2F2E41"/>
<path d="M307.947 379.148L309.588 379.21C309.583 378.768 309.758 377.954 309.475 377.512C309.411 377.413 309.32 377.333 309.21 377.279C309.1 377.225 308.977 377.201 308.853 377.207C308.684 377.19 308.515 377.229 308.374 377.317C307.85 377.645 307.999 378.649 307.947 379.148Z" fill="#2F2E41"/>
<path d="M304.67 379.029L306.311 379.086C306.306 378.644 306.486 377.825 306.193 377.387C306.129 377.291 306.038 377.211 305.929 377.159C305.82 377.106 305.698 377.081 305.575 377.088C305.407 377.071 305.238 377.11 305.097 377.197C304.572 377.516 304.721 378.525 304.67 379.029Z" fill="#2F2E41"/>
<path d="M301.394 378.905L303.035 378.967C303.029 378.525 303.204 377.711 302.921 377.268C302.858 377.17 302.766 377.089 302.657 377.035C302.547 376.981 302.423 376.957 302.299 376.964C302.131 376.947 301.961 376.986 301.821 377.073C301.296 377.402 301.445 378.406 301.394 378.905Z" fill="#2F2E41"/>
<path d="M298.117 378.787L299.758 378.844C299.753 378.401 299.928 377.588 299.64 377.145C299.576 377.048 299.485 376.969 299.377 376.916C299.268 376.863 299.145 376.839 299.023 376.846C298.854 376.829 298.685 376.868 298.544 376.955C298.019 377.278 298.169 378.282 298.117 378.787Z" fill="#2F2E41"/>
<path d="M540.228 575.261C540.229 575.358 540.208 575.454 540.168 575.544C540.128 575.634 540.069 575.715 539.995 575.784C539.921 575.852 539.833 575.907 539.736 575.944C539.638 575.981 539.534 576 539.429 576H324.366C324.155 576 323.951 575.922 323.801 575.783C323.652 575.645 323.567 575.457 323.567 575.261C323.567 575.065 323.652 574.877 323.801 574.738C323.951 574.599 324.155 574.521 324.366 574.521H539.429C539.534 574.521 539.638 574.54 539.736 574.577C539.833 574.614 539.921 574.669 539.995 574.737C540.069 574.806 540.128 574.888 540.168 574.977C540.208 575.067 540.229 575.163 540.228 575.261Z" fill="#CCCCCC"/>
</svg>
