<svg width="810" height="749" viewBox="0 0 810 749" fill="none" xmlns="http://www.w3.org/2000/svg">
<ellipse cx="404.58" cy="374.056" rx="290.718" ry="335.918" transform="rotate(106.477 404.58 374.056)" fill="#FDECC0"/>
<path d="M283.22 350.958C283.22 402.69 256.532 420.752 223.61 420.752C190.688 420.752 163.999 402.69 163.999 350.958C163.999 299.227 223.61 233.416 223.61 233.416C223.61 233.416 283.22 299.227 283.22 350.958Z" fill="#F2F2F2"/>
<path d="M221.438 412.839L222.049 369.545L247.456 315.983L222.144 362.753L222.419 343.286L239.93 304.534L222.492 338.134L222.985 303.122L241.736 272.271L223.063 297.616L223.371 233.416L221.433 318.406L221.592 314.9L202.528 281.274L221.286 321.63L219.51 360.733L219.457 359.695L197.479 324.309L219.391 363.361L219.168 368.252L219.129 368.325L219.147 368.727L214.64 467.934H220.662L221.384 416.691L243.241 377.734L221.438 412.839Z" fill="#3F3D56"/>
<path d="M550.999 474.391C550.999 492.288 471.105 523.998 372.55 523.998C273.996 523.998 194.102 492.288 194.102 474.391C194.102 456.495 273.996 459.189 372.55 459.189C471.105 459.189 550.999 456.495 550.999 474.391Z" fill="#3F3D56"/>
<path opacity="0.1" d="M550.999 474.391C550.999 492.288 471.105 523.998 372.55 523.998C273.996 523.998 194.102 492.288 194.102 474.391C194.102 456.495 273.996 459.189 372.55 459.189C471.105 459.189 550.999 456.495 550.999 474.391Z" fill="black"/>
<path d="M372.55 506.796C471.105 506.796 550.999 492.288 550.999 474.392C550.999 456.495 471.105 441.987 372.55 441.987C273.996 441.987 194.102 456.495 194.102 474.392C194.102 492.288 273.996 506.796 372.55 506.796Z" fill="#3F3D56"/>
<path opacity="0.1" d="M379.041 489.194C402.433 489.194 421.397 484.627 421.397 478.992C421.397 473.358 402.433 468.791 379.041 468.791C355.649 468.791 336.686 473.358 336.686 478.992C336.686 484.627 355.649 489.194 379.041 489.194Z" fill="black"/>
<path d="M330.782 274.854C340.092 274.854 347.639 266.157 347.639 255.429C347.639 244.702 340.092 236.005 330.782 236.005C321.472 236.005 313.925 244.702 313.925 255.429C313.925 266.157 321.472 274.854 330.782 274.854Z" fill="#2F2E41"/>
<path opacity="0.3" d="M298.204 256.408C301.175 256.408 303.584 253.633 303.584 250.209C303.584 246.785 301.175 244.01 298.204 244.01C295.233 244.01 292.824 246.785 292.824 250.209C292.824 253.633 295.233 256.408 298.204 256.408Z" fill="#2F2E41"/>
<path opacity="0.5" d="M305.84 242.903C308.811 242.903 311.22 240.127 311.22 236.703C311.22 233.279 308.811 230.504 305.84 230.504C302.869 230.504 300.46 233.279 300.46 236.703C300.46 240.127 302.869 242.903 305.84 242.903Z" fill="#2F2E41"/>
<path d="M313.476 229.399C316.447 229.399 318.856 226.623 318.856 223.199C318.856 219.776 316.447 217 313.476 217C310.504 217 308.096 219.776 308.096 223.199C308.096 226.623 310.504 229.399 313.476 229.399Z" fill="#2F2E41"/>
<path opacity="0.3" d="M313.476 229.399C316.447 229.399 318.856 226.623 318.856 223.199C318.856 219.776 316.447 217 313.476 217C310.504 217 308.096 219.776 308.096 223.199C308.096 226.623 310.504 229.399 313.476 229.399Z" fill="white"/>
<path d="M330.376 368.258C339.686 368.258 347.233 359.562 347.233 348.834C347.233 338.106 339.686 329.409 330.376 329.409C321.066 329.409 313.519 338.106 313.519 348.834C313.519 359.562 321.066 368.258 330.376 368.258Z" fill="#1684AC"/>
<path opacity="0.3" d="M317.874 390.09C320.845 390.09 323.254 387.315 323.254 383.891C323.254 380.467 320.845 377.691 317.874 377.691C314.903 377.691 312.494 380.467 312.494 383.891C312.494 387.315 314.903 390.09 317.874 390.09Z" fill="#1684AC"/>
<path opacity="0.5" d="M308.425 378.205C311.396 378.205 313.805 375.43 313.805 372.006C313.805 368.582 311.396 365.807 308.425 365.807C305.454 365.807 303.045 368.582 303.045 372.006C303.045 375.43 305.454 378.205 308.425 378.205Z" fill="#1684AC"/>
<path d="M298.977 366.321C301.948 366.321 304.357 363.545 304.357 360.121C304.357 356.697 301.948 353.922 298.977 353.922C296.005 353.922 293.597 356.697 293.597 360.121C293.597 363.545 296.005 366.321 298.977 366.321Z" fill="#1684AC"/>
<path d="M357.546 455.125C357.546 455.125 357.443 462.058 356.929 463.895C356.415 465.732 356.929 468.044 356.929 468.044L354.975 473.969H361.917C361.917 473.969 363.563 465.318 363.563 464.547C363.563 463.777 362.586 457.258 362.586 457.258L357.546 455.125Z" fill="#A0616A"/>
<path d="M362.894 473.494C362.894 473.494 361.146 467.983 353.74 473.494C353.74 473.494 350.809 478.472 352.455 480.013C354.1 481.554 356.929 483.628 359.294 482.442C361.66 481.257 362.586 479.954 362.894 477.524C363.088 476.19 363.088 474.828 362.894 473.494Z" fill="#2F2E41"/>
<path d="M394.984 455.125C394.984 455.125 395.087 462.058 395.601 463.895C396.115 465.732 395.601 468.044 395.601 468.044L397.555 473.969H390.612C390.612 473.969 388.967 465.318 388.967 464.547C388.967 463.777 389.944 457.258 389.944 457.258L394.984 455.125Z" fill="#A0616A"/>
<path d="M389.635 473.494C389.635 473.494 391.384 467.983 398.789 473.494C398.789 473.494 401.721 478.472 400.075 480.013C398.429 481.554 395.601 483.628 393.235 482.442C390.87 481.257 389.944 479.954 389.635 477.524C389.442 476.19 389.442 474.828 389.635 473.494Z" fill="#2F2E41"/>
<path d="M355.797 324.517C355.797 324.517 360.837 332.517 361.454 335.065C362.071 337.614 365.928 337.377 365.671 335.065C365.414 332.754 358.677 320.369 358.677 320.369L355.797 324.517Z" fill="#A0616A"/>
<path d="M396.527 321.91C396.527 321.91 389.43 335.777 391.23 337.318C393.03 338.858 399.87 325.229 399.87 325.229L396.527 321.91Z" fill="#A0616A"/>
<path d="M389.893 332.754H378.167C376.007 332.754 368.911 333.406 367.779 332.754C366.648 332.102 362.431 332.162 362.431 332.162C362.431 332.162 353.843 354.799 356.157 372.873C358.471 390.947 351.271 453.465 354.666 455.362C358.06 457.258 361.094 459.628 364.025 459.747C366.956 459.865 372.408 458.384 373.025 457.376C373.642 456.369 376.676 368.547 376.676 368.547C376.676 368.547 377.756 455.184 379.762 457.139C381.767 459.095 387.527 460.399 391.127 459.747C394.727 459.095 398.429 456.784 399.149 455.243C399.869 453.702 396.629 410.206 396.629 410.206C396.629 410.206 401.618 343.421 393.39 335.065L389.893 332.754Z" fill="#2F2E41"/>
<path d="M372.665 263.954C372.665 263.954 375.236 273.673 370.145 276.458C365.054 279.243 374.516 301.939 374.516 301.939C374.516 301.939 387.733 282.443 387.733 278.176L385.522 275.628C385.522 275.628 381.202 267.273 382.539 264.665C383.876 262.058 372.665 263.954 372.665 263.954Z" fill="#A0616A"/>
<path d="M376.419 297.08C376.419 297.08 373.334 287.776 373.694 284.28C374.054 280.784 373.198 275.067 371.877 274.903C370.557 274.739 356.98 279.836 355.591 280.902C354.203 281.969 352.969 303.658 352.969 303.658L359.037 319.776C359.037 319.776 359.551 332.991 362.431 333.584C365.311 334.176 392.516 335.836 393.39 334.71C394.264 333.584 403.212 302.828 403.212 302.828L405.218 284.813C405.218 284.813 402.698 281.199 400.024 280.369C397.35 279.539 388.71 275.984 387.733 275.865C386.756 275.747 383.67 276.399 383.413 277.465C383.156 278.532 376.419 297.08 376.419 297.08Z" fill="#D0CDE1"/>
<path d="M378.193 270.147C384.015 270.147 388.735 264.708 388.735 257.999C388.735 251.289 384.015 245.851 378.193 245.851C372.37 245.851 367.65 251.289 367.65 257.999C367.65 264.708 372.37 270.147 378.193 270.147Z" fill="#A0616A"/>
<path d="M381.824 235.541C379.851 232.797 375.817 232.501 373.557 234.933C372.947 235.589 372.467 236.395 371.831 237.016C371.212 237.578 370.526 238.033 369.794 238.367C367.384 239.583 364.824 240.447 362.576 242.023C360.327 243.598 358.357 246.091 358.078 249.106C357.931 250.701 358.265 252.331 358.011 253.908C357.615 256.379 355.891 258.224 354.449 260.109C353.078 261.9 351.845 264.453 352.825 266.557C353.659 268.347 355.703 268.878 356.851 270.419C358.177 272.198 358.008 274.891 357.351 277.11C356.694 279.33 355.627 281.415 355.357 283.74C354.912 287.565 356.737 291.315 359.112 294.036C360.199 295.281 361.45 296.404 362.917 296.914C364.024 297.27 365.193 297.286 366.307 296.961C367.421 296.636 368.443 295.982 369.27 295.062C370.079 294.123 370.685 292.976 371.037 291.716C371.389 290.455 371.478 289.117 371.296 287.81C371.096 286.373 370.583 284.963 370.717 283.516C370.99 280.543 373.804 278.668 374.47 275.78C375.153 272.824 373.431 269.946 372.417 267.119C371.139 263.554 370.959 259.606 370.929 255.749C370.912 253.542 371.109 250.958 372.723 249.77C373.778 248.994 375.12 249.079 376.368 248.973C377.823 248.849 379.271 248.429 380.724 248.584C382.177 248.738 383.712 249.665 384.107 251.284C384.549 253.096 383.432 254.937 383.442 256.819C383.448 257.743 383.726 258.642 383.731 259.565C383.745 262.246 381.589 264.162 380.38 266.453C379.553 268.089 379.177 269.976 379.301 271.864C379.425 273.752 380.043 275.552 381.075 277.025C382.306 278.719 384.163 280.104 384.376 282.3C384.496 283.532 384.046 284.728 383.775 285.928C383.505 287.127 383.461 288.56 384.217 289.441C384.73 290.039 385.493 290.235 386.216 290.346C388.078 290.63 389.97 290.525 391.8 290.034C392.272 289.948 392.715 289.718 393.083 289.366C393.992 288.352 393.423 286.553 393.843 285.178C394.253 283.834 395.529 283.132 396.725 282.773C397.922 282.413 399.215 282.224 400.191 281.348C401.275 280.376 401.751 278.697 401.69 277.115C401.628 275.533 401.099 274.025 400.482 272.611C400.337 272.352 400.267 272.048 400.281 271.741C400.401 270.925 401.411 270.996 402.129 270.986C404.023 270.959 405.476 268.723 405.528 266.542C405.581 264.36 404.572 262.324 403.368 260.639C402.164 258.955 400.731 257.482 399.675 255.67C397.87 252.572 397.242 248.619 395.049 245.874C393.981 244.56 392.614 243.618 391.104 243.156C389.941 242.791 388.195 243.248 387.288 242.293C386.934 241.92 386.783 241.319 386.437 240.923C385.873 240.278 385.103 240.089 384.471 239.568C383.256 238.567 382.752 236.831 381.824 235.541Z" fill="#2F2E41"/>
<path d="M357.546 281.376L355.592 280.902C355.592 280.902 331.319 303.006 330.136 305.85C328.953 308.695 325.764 311.243 332.501 315.865C339.238 320.488 355.849 327.954 355.849 327.954L359.706 320.073L340.832 308.873C340.832 308.873 345.204 301.762 354.306 303.362L357.546 281.376Z" fill="#D0CDE1"/>
<path d="M403.521 283.925L405.218 284.814C405.218 284.814 430.777 306.088 427.742 311.421C424.708 316.754 400.024 329.436 400.024 329.436L395.652 321.495C395.652 321.495 395.991 321.31 396.574 320.99C400.257 318.962 413.679 311.502 412.88 310.888C411.954 310.177 404.189 302.236 402.029 301.94C399.869 301.643 403.521 283.925 403.521 283.925Z" fill="#D0CDE1"/>
<path d="M427.672 373.297C436.981 373.297 444.529 364.601 444.529 353.873C444.529 343.145 436.981 334.448 427.672 334.448C418.362 334.448 410.814 343.145 410.814 353.873C410.814 364.601 418.362 373.297 427.672 373.297Z" fill="#6AA421"/>
<path d="M440.16 395.135C443.131 395.135 445.54 392.359 445.54 388.936C445.54 385.512 443.131 382.736 440.16 382.736C437.189 382.736 434.78 385.512 434.78 388.936C434.78 392.359 437.189 395.135 440.16 395.135Z" fill="#6AA421"/>
<path opacity="0.5" d="M449.613 383.254C452.585 383.254 454.993 380.479 454.993 377.055C454.993 373.631 452.585 370.855 449.613 370.855C446.642 370.855 444.233 373.631 444.233 377.055C444.233 380.479 446.642 383.254 449.613 383.254Z" fill="#237A0E"/>
<path opacity="0.3" d="M459.066 371.374C462.038 371.374 464.446 368.599 464.446 365.175C464.446 361.751 462.038 358.976 459.066 358.976C456.095 358.976 453.687 361.751 453.687 365.175C453.687 368.599 456.095 371.374 459.066 371.374Z" fill="#237A0E"/>
<path d="M529.715 439.782C529.715 463.708 517.374 472.059 502.146 472.059C501.794 472.059 501.442 472.054 501.094 472.046C500.386 472.029 499.689 471.99 498.997 471.931C485.254 470.816 474.58 462.034 474.58 439.782C474.58 416.748 500.138 387.674 502.035 385.548L502.038 385.543C502.109 385.462 502.146 385.424 502.146 385.424C502.146 385.424 529.715 415.86 529.715 439.782Z" fill="#6AA421"/>
<path d="M501.143 468.4L511.228 452.167L501.12 470.18L501.094 472.046C500.387 472.029 499.69 471.99 498.997 471.931L500.083 448L500.076 447.813L500.094 447.778L500.198 445.52L490.064 427.46L500.227 443.825L500.253 444.303L501.072 426.218L492.399 407.556L501.18 423.042L502.036 385.548L502.039 385.424V385.543L501.895 415.113L510.531 403.394L501.858 417.662L501.632 433.852L509.694 418.315L501.598 436.234L501.472 445.238L513.177 423.609L501.428 448.376L501.143 468.4Z" fill="#3F3D56"/>
<path d="M242.948 472.087C242.948 483.659 236.979 487.698 229.614 487.698C229.443 487.698 229.273 487.696 229.105 487.691C228.763 487.683 228.426 487.665 228.091 487.636C221.444 487.097 216.281 482.849 216.281 472.087C216.281 460.946 228.642 446.884 229.56 445.856L229.562 445.854C229.596 445.814 229.614 445.796 229.614 445.796C229.614 445.796 242.948 460.517 242.948 472.087Z" fill="#6C6168" fill-opacity="0.290196"/>
<path d="M229.128 485.928L234.005 478.077L229.117 486.789L229.104 487.691C228.762 487.683 228.425 487.665 228.09 487.636L228.615 476.062L228.611 475.971L228.62 475.954L228.671 474.862L223.77 466.127L228.685 474.042L228.698 474.273L229.094 465.526L224.898 456.501L229.146 463.99L229.559 445.856L229.561 445.796V445.854L229.491 460.155L233.669 454.487L229.473 461.388L229.364 469.219L233.264 461.704L229.348 470.371L229.287 474.726L234.948 464.265L229.266 476.243L229.128 485.928Z" fill="#3F3D56"/>
<path d="M474.514 479.687C474.514 491.259 468.545 495.298 461.18 495.298C461.01 495.298 460.84 495.296 460.671 495.292C460.329 495.284 459.992 495.265 459.657 495.236C453.01 494.697 447.848 490.45 447.848 479.687C447.848 468.547 460.209 454.485 461.126 453.456L461.128 453.454C461.162 453.415 461.18 453.396 461.18 453.396C461.18 453.396 474.514 468.117 474.514 479.687Z" fill="#1684AC"/>
<path d="M460.695 493.529L465.573 485.678L460.684 494.39L460.672 495.292C460.329 495.284 459.993 495.265 459.657 495.236L460.182 483.662L460.179 483.571L460.188 483.555L460.238 482.463L455.337 473.728L460.252 481.643L460.265 481.874L460.661 473.127L456.466 464.101L460.713 471.591L461.127 453.456L461.129 453.396V453.454L461.059 467.756L465.236 462.088L461.041 468.989L460.932 476.819L464.831 469.305L460.915 477.971L460.854 482.326L466.515 471.865L460.833 483.844L460.695 493.529Z" fill="#3F3D56"/>
</svg>
