<svg width="537" height="527" viewBox="0 0 537 527" fill="none" xmlns="http://www.w3.org/2000/svg">
<g filter="url(#filter0_d_1382_1157)">
<path d="M4 17.8335L514.689 -0.000146189L532.173 500.695L21.4846 518.528L4 17.8335Z" fill="#F5F5F5"/>
</g>
<g filter="url(#filter1_d_1382_1157)">
<path d="M13.9062 18.499L161.816 13.3339L179.266 513.029L31.356 518.194L13.9062 18.499Z" fill="#F5F5F5"/>
</g>
<path d="M55.2957 102.76C58.8834 102.635 61.698 99.849 61.5823 96.5373C61.4667 93.2256 58.4646 90.6425 54.8769 90.7678C51.2892 90.8931 48.4746 93.6793 48.5903 96.991C48.7059 100.303 51.708 102.886 55.2957 102.76Z" fill="#1684AC"/>
<path d="M79.2957 102.76C82.8834 102.635 85.698 99.849 85.5823 96.5373C85.4667 93.2256 82.4646 90.6425 78.8769 90.7678C75.2892 90.8931 72.4746 93.6793 72.5903 96.991C72.7059 100.303 75.708 102.886 79.2957 102.76Z" fill="#1684AC" fill-opacity="0.7"/>
<path d="M104.296 102.76C107.883 102.635 110.698 99.849 110.582 96.5373C110.467 93.2256 107.465 90.6425 103.877 90.7678C100.289 90.8931 97.4746 93.6793 97.5903 96.991C97.7059 100.303 100.708 102.886 104.296 102.76Z" fill="#1684AC" fill-opacity="0.5"/>
<rect x="48.3926" y="146.653" width="108" height="13" rx="6.5" transform="rotate(-2 48.3926 146.653)" fill="#C0CCD2"/>
<rect x="50.4707" y="170.145" width="79" height="8" rx="4" transform="rotate(-2 50.4707 170.145)" fill="#C0CCD2" fill-opacity="0.6"/>
<rect x="50.4707" y="198.145" width="79" height="8" rx="4" transform="rotate(-2 50.4707 198.145)" fill="#C0CCD2" fill-opacity="0.6"/>
<rect x="50.4707" y="184.145" width="79" height="8" rx="4" transform="rotate(-2 50.4707 184.145)" fill="#C0CCD2" fill-opacity="0.6"/>
<rect x="48.3926" y="239.653" width="108" height="13" rx="6.5" transform="rotate(-2 48.3926 239.653)" fill="#C0CCD2"/>
<rect x="50.4707" y="263.145" width="79" height="8" rx="4" transform="rotate(-2 50.4707 263.145)" fill="#C0CCD2" fill-opacity="0.6"/>
<rect x="50.4707" y="291.145" width="79" height="8" rx="4" transform="rotate(-2 50.4707 291.145)" fill="#C0CCD2" fill-opacity="0.6"/>
<rect x="50.4707" y="277.145" width="79" height="8" rx="4" transform="rotate(-2 50.4707 277.145)" fill="#C0CCD2" fill-opacity="0.6"/>
<path d="M359.684 95.234L234.109 99.6191L234.133 100.309L359.709 95.9241L359.684 95.234Z" fill="#CCCCCC"/>
<path d="M430.203 92.7716L390.607 94.1543L390.632 94.8444L430.227 93.4617L430.203 92.7716Z" fill="#CCCCCC"/>
<path d="M234.615 114.11C243.154 113.812 249.855 107.237 249.582 99.424C249.309 91.6114 242.166 85.5198 233.627 85.818C225.088 86.1162 218.387 92.6912 218.66 100.504C218.933 108.316 226.076 114.408 234.615 114.11Z" fill="#1684AC"/>
<path d="M375.661 109.531C372.528 109.64 369.437 108.897 366.776 107.396C364.116 105.895 362.007 103.702 360.716 101.096C359.425 98.4901 359.009 95.5874 359.522 92.755C360.035 89.9227 361.453 87.2879 363.598 85.1839C365.742 83.08 368.516 81.6013 371.569 80.9348C374.622 80.2684 377.816 80.4442 380.749 81.4399C383.681 82.4356 386.219 84.2066 388.043 86.5289C389.867 88.8512 390.893 91.6205 390.993 94.4866C391.128 98.3298 389.588 102.074 386.712 104.895C383.837 107.717 379.862 109.384 375.661 109.531ZM374.673 81.2386C371.69 81.3428 368.802 82.2541 366.374 83.8572C363.946 85.4603 362.088 87.6832 361.035 90.2449C359.981 92.8066 359.779 95.5919 360.455 98.2487C361.13 100.906 362.653 103.314 364.83 105.171C367.007 107.027 369.74 108.248 372.685 108.678C375.63 109.109 378.653 108.729 381.373 107.589C384.092 106.448 386.386 104.597 387.965 102.269C389.543 99.9417 390.334 97.2425 390.239 94.5129C390.111 90.8526 388.399 87.3978 385.48 84.9084C382.561 82.419 378.674 81.0989 374.673 81.2386Z" fill="#CCCCCC"/>
<path d="M446.181 107.068C443.048 107.177 439.956 106.434 437.296 104.933C434.636 103.432 432.527 101.239 431.235 98.6333C429.944 96.0272 429.529 93.1245 430.042 90.2921C430.555 87.4598 431.973 84.825 434.117 82.721C436.262 80.6171 439.035 79.1384 442.088 78.4719C445.141 77.8055 448.336 77.9813 451.268 78.977C454.2 79.9727 456.739 81.7437 458.563 84.066C460.386 86.3883 461.413 89.1576 461.513 92.0237C461.647 95.867 460.107 99.6111 457.232 102.432C454.356 105.254 450.381 106.921 446.181 107.068ZM445.193 78.7757C442.209 78.8799 439.321 79.7912 436.894 81.3943C434.466 82.9974 432.608 85.2203 431.554 87.782C430.501 90.3437 430.299 93.129 430.974 95.7858C431.65 98.4426 433.172 100.852 435.349 102.708C437.526 104.564 440.26 105.785 443.204 106.215C446.149 106.646 449.172 106.266 451.892 105.126C454.612 103.985 456.906 102.134 458.484 99.8062C460.062 97.4788 460.854 94.7796 460.759 92.05C460.695 90.2376 460.242 88.4566 459.426 86.8087C458.609 85.1607 457.445 83.6781 456 82.4455C454.554 81.2129 452.856 80.2544 451.002 79.6247C449.147 78.995 447.173 78.7066 445.193 78.7757Z" fill="#CCCCCC"/>
<path d="M233.079 104.223C232.807 104.233 232.54 104.162 232.318 104.02L232.304 104.011L229.397 102.125C229.125 101.948 228.942 101.679 228.887 101.377C228.833 101.075 228.912 100.765 229.107 100.515C229.302 100.265 229.597 100.096 229.927 100.044C230.257 99.9925 230.596 100.063 230.868 100.24L232.75 101.465L236.912 96.1292C237.107 95.8794 237.402 95.7101 237.732 95.6585C238.062 95.6068 238.4 95.6771 238.672 95.8539L238.647 95.8889L238.673 95.8539C238.945 96.031 239.128 96.2999 239.182 96.6016C239.236 96.9033 239.157 97.2131 238.963 97.463L234.067 103.736C233.953 103.881 233.805 104 233.634 104.084C233.462 104.168 233.272 104.215 233.078 104.221L233.079 104.223Z" fill="white"/>
<path d="M305.133 111.647C313.671 111.349 320.372 104.774 320.1 96.9616C319.827 89.149 312.684 83.0574 304.145 83.3556C295.606 83.6538 288.905 90.2288 289.178 98.0414C289.45 105.854 296.594 111.946 305.133 111.647Z" fill="#1684AC" fill-opacity="0.6"/>
<path d="M266.779 274.761C269.539 274.665 271.69 272.126 271.584 269.09C271.478 266.054 269.155 263.671 266.395 263.768C263.636 263.864 261.484 266.403 261.59 269.439C261.696 272.475 264.02 274.857 266.779 274.761Z" fill="#CCCCCC"/>
<path d="M399.715 336.754C396.454 336.867 393.229 335.924 390.448 334.042C387.667 332.16 385.455 329.424 384.093 326.181C382.73 322.937 382.277 319.332 382.791 315.82C383.306 312.308 384.764 309.048 386.983 306.452C389.201 303.855 392.079 302.039 395.254 301.233C398.428 300.428 401.756 300.668 404.817 301.924C407.878 303.181 410.534 305.397 412.449 308.292C414.364 311.187 415.453 314.631 415.577 318.189C415.738 322.958 414.159 327.591 411.186 331.072C408.212 334.552 404.087 336.596 399.715 336.754ZM398.507 302.17C395.499 302.275 392.592 303.351 390.154 305.262C387.716 307.172 385.857 309.832 384.811 312.905C383.766 315.977 383.581 319.324 384.28 322.523C384.98 325.722 386.532 328.628 388.74 330.874C390.949 333.121 393.714 334.607 396.688 335.144C399.661 335.681 402.708 335.246 405.444 333.893C408.179 332.54 410.481 330.33 412.057 327.542C413.633 324.755 414.413 321.515 414.299 318.233C414.141 313.834 412.389 309.672 409.429 306.66C406.468 303.649 402.541 302.034 398.507 302.17Z" fill="#1684AC"/>
<path d="M397.293 325.813C396.93 325.827 396.573 325.715 396.274 325.494L396.256 325.481L392.357 322.542C391.992 322.266 391.745 321.849 391.67 321.382C391.595 320.915 391.698 320.437 391.957 320.051C392.216 319.666 392.609 319.407 393.05 319.329C393.491 319.252 393.943 319.363 394.308 319.639L396.834 321.547L402.357 313.328C402.486 313.137 402.648 312.975 402.835 312.851C403.023 312.728 403.232 312.644 403.45 312.606C403.668 312.567 403.891 312.575 404.107 312.628C404.323 312.681 404.527 312.779 404.707 312.915L404.674 312.97L404.709 312.915C405.073 313.191 405.32 313.608 405.394 314.075C405.469 314.542 405.366 315.02 405.108 315.405L398.611 325.069C398.46 325.291 398.263 325.474 398.035 325.603C397.807 325.732 397.554 325.803 397.295 325.811L397.293 325.813Z" fill="#1684AC"/>
<path d="M396.923 267.78L283.284 271.748C283.113 271.754 282.947 271.707 282.822 271.618C282.698 271.528 282.626 271.403 282.621 271.271C282.616 271.138 282.68 271.009 282.798 270.911C282.916 270.813 283.078 270.755 283.249 270.749L396.888 266.78C397.059 266.774 397.225 266.821 397.349 266.911C397.474 267 397.546 267.125 397.551 267.257C397.556 267.39 397.492 267.519 397.374 267.617C397.256 267.715 397.094 267.774 396.923 267.78Z" fill="#3F3D56"/>
<path d="M396.923 280.78L283.284 284.748C283.113 284.754 282.947 284.707 282.822 284.618C282.698 284.528 282.626 284.403 282.621 284.271C282.616 284.138 282.68 284.009 282.798 283.911C282.916 283.813 283.078 283.755 283.249 283.749L396.888 279.78C397.059 279.774 397.225 279.821 397.349 279.911C397.474 280 397.546 280.125 397.551 280.257C397.556 280.39 397.492 280.519 397.374 280.617C397.256 280.715 397.094 280.774 396.923 280.78Z" fill="#3F3D56"/>
<path d="M396.923 293.78L283.284 297.748C283.113 297.754 282.947 297.707 282.822 297.618C282.698 297.528 282.626 297.403 282.621 297.271C282.616 297.138 282.68 297.009 282.798 296.911C282.916 296.813 283.078 296.755 283.249 296.749L396.888 292.78C397.059 292.774 397.225 292.821 397.349 292.911C397.474 293 397.546 293.125 397.551 293.257C397.556 293.39 397.492 293.519 397.374 293.617C397.256 293.715 397.094 293.774 396.923 293.78Z" fill="#3F3D56"/>
<path d="M370.949 308.233L283.292 311.294C283.122 311.3 282.954 311.201 282.826 311.018C282.699 310.834 282.622 310.583 282.613 310.318C282.604 310.052 282.663 309.796 282.777 309.604C282.891 309.413 283.052 309.302 283.223 309.296L370.879 306.235C371.05 306.229 371.218 306.328 371.345 306.511C371.473 306.695 371.55 306.946 371.559 307.211C371.568 307.477 371.509 307.733 371.395 307.925C371.28 308.116 371.12 308.227 370.949 308.233Z" fill="#3F3D56"/>
<path d="M370.927 321.234L283.28 324.294C283.108 324.3 282.941 324.253 282.816 324.164C282.691 324.075 282.618 323.95 282.613 323.817C282.609 323.685 282.672 323.555 282.791 323.457C282.909 323.359 283.073 323.301 283.245 323.295L370.892 320.234C371.064 320.228 371.231 320.275 371.356 320.365C371.481 320.454 371.554 320.579 371.559 320.711C371.564 320.844 371.5 320.973 371.381 321.071C371.263 321.169 371.099 321.228 370.927 321.234Z" fill="#3F3D56"/>
<path d="M266.779 174.761C269.539 174.664 271.69 172.125 271.584 169.09C271.478 166.054 269.155 163.671 266.395 163.767C263.636 163.864 261.484 166.403 261.59 169.439C261.696 172.474 264.02 174.857 266.779 174.761Z" fill="#CCCCCC"/>
<path d="M399.715 236.753C396.454 236.867 393.229 235.923 390.448 234.042C387.667 232.16 385.455 229.424 384.093 226.18C382.73 222.937 382.277 219.331 382.791 215.82C383.306 212.308 384.764 209.048 386.983 206.451C389.201 203.855 392.079 202.039 395.254 201.233C398.428 200.427 401.756 200.668 404.817 201.924C407.878 203.181 410.534 205.396 412.449 208.291C414.364 211.186 415.453 214.631 415.577 218.188C415.738 222.958 414.159 227.591 411.186 231.072C408.212 234.552 404.087 236.595 399.715 236.753ZM398.507 202.17C395.499 202.275 392.592 203.351 390.154 205.261C387.716 207.172 385.857 209.832 384.811 212.905C383.766 215.977 383.581 219.324 384.28 222.523C384.98 225.721 386.532 228.628 388.74 230.874C390.949 233.121 393.714 234.606 396.688 235.144C399.661 235.681 402.708 235.246 405.444 233.892C408.179 232.539 410.481 230.329 412.057 227.542C413.633 224.755 414.413 221.515 414.299 218.233C414.141 213.834 412.389 209.672 409.429 206.66C406.468 203.649 402.541 202.034 398.507 202.17Z" fill="#1684AC"/>
<path d="M397.293 225.813C396.93 225.826 396.573 225.714 396.274 225.494L396.256 225.48L392.357 222.542C391.992 222.266 391.745 221.849 391.67 221.382C391.595 220.915 391.698 220.436 391.957 220.051C392.216 219.666 392.609 219.406 393.05 219.329C393.491 219.252 393.943 219.363 394.308 219.638L396.834 221.547L402.357 213.327C402.486 213.137 402.648 212.975 402.835 212.851C403.023 212.727 403.232 212.644 403.45 212.606C403.668 212.567 403.891 212.575 404.107 212.628C404.323 212.681 404.527 212.778 404.707 212.915L404.674 212.969L404.709 212.915C405.073 213.191 405.32 213.608 405.394 214.075C405.469 214.542 405.366 215.02 405.108 215.405L398.611 225.068C398.46 225.291 398.263 225.474 398.035 225.603C397.807 225.731 397.554 225.803 397.295 225.811L397.293 225.813Z" fill="#1684AC"/>
<path d="M396.923 167.779L283.284 171.748C283.113 171.754 282.947 171.707 282.822 171.617C282.698 171.528 282.626 171.403 282.621 171.271C282.616 171.138 282.68 171.009 282.798 170.911C282.916 170.813 283.078 170.754 283.249 170.748L396.888 166.78C397.059 166.774 397.225 166.821 397.349 166.911C397.474 167 397.546 167.125 397.551 167.257C397.556 167.39 397.492 167.519 397.374 167.617C397.256 167.715 397.094 167.774 396.923 167.779Z" fill="#3F3D56"/>
<path d="M396.94 181.779L283.301 185.748C283.13 185.754 282.962 185.654 282.835 185.471C282.707 185.288 282.63 185.036 282.621 184.771C282.612 184.506 282.671 184.249 282.785 184.058C282.9 183.866 283.06 183.755 283.232 183.749L396.87 179.781C397.041 179.775 397.209 179.874 397.337 180.057C397.465 180.241 397.542 180.492 397.551 180.757C397.56 181.022 397.501 181.279 397.386 181.471C397.272 181.662 397.111 181.773 396.94 181.779Z" fill="#3F3D56"/>
<path d="M396.94 194.779L283.301 198.748C283.13 198.754 282.962 198.654 282.835 198.471C282.707 198.288 282.63 198.036 282.621 197.771C282.612 197.506 282.671 197.249 282.785 197.058C282.9 196.866 283.06 196.755 283.232 196.749L396.87 192.781C397.041 192.775 397.209 192.874 397.337 193.057C397.465 193.241 397.542 193.492 397.551 193.757C397.56 194.022 397.501 194.279 397.386 194.471C397.272 194.662 397.111 194.773 396.94 194.779Z" fill="#3F3D56"/>
<path d="M370.932 208.233L283.275 211.294C283.104 211.3 282.938 211.253 282.814 211.164C282.69 211.074 282.618 210.95 282.613 210.817C282.609 210.685 282.672 210.555 282.79 210.457C282.907 210.359 283.069 210.301 283.24 210.295L370.897 207.234C371.068 207.228 371.234 207.275 371.358 207.364C371.482 207.454 371.554 207.578 371.559 207.711C371.564 207.844 371.5 207.973 371.382 208.071C371.265 208.169 371.103 208.227 370.932 208.233Z" fill="#3F3D56"/>
<path d="M370.927 221.233L283.28 224.294C283.108 224.3 282.941 224.253 282.816 224.164C282.691 224.074 282.618 223.95 282.613 223.817C282.609 223.685 282.672 223.555 282.791 223.457C282.909 223.359 283.073 223.301 283.245 223.295L370.892 220.234C371.064 220.228 371.231 220.275 371.356 220.364C371.481 220.454 371.554 220.578 371.559 220.711C371.564 220.844 371.5 220.973 371.381 221.071C371.263 221.169 371.099 221.227 370.927 221.233Z" fill="#3F3D56"/>
<path d="M266.779 373.761C269.539 373.665 271.69 371.126 271.584 368.09C271.478 365.054 269.155 362.671 266.395 362.768C263.636 362.864 261.484 365.403 261.59 368.439C261.696 371.475 264.02 373.857 266.779 373.761Z" fill="#CCCCCC"/>
<path d="M399.715 435.754C396.454 435.867 393.229 434.924 390.448 433.042C387.667 431.16 385.455 428.424 384.093 425.181C382.73 421.937 382.277 418.332 382.791 414.82C383.306 411.308 384.764 408.048 386.983 405.452C389.201 402.855 392.079 401.039 395.254 400.233C398.428 399.428 401.756 399.668 404.817 400.924C407.878 402.181 410.534 404.397 412.449 407.292C414.364 410.187 415.453 413.631 415.577 417.189C415.738 421.958 414.159 426.591 411.186 430.072C408.212 433.552 404.087 435.596 399.715 435.754ZM398.507 401.17C395.499 401.275 392.592 402.351 390.154 404.262C387.716 406.172 385.857 408.832 384.811 411.905C383.766 414.977 383.581 418.324 384.28 421.523C384.98 424.722 386.532 427.628 388.74 429.874C390.949 432.121 393.714 433.607 396.688 434.144C399.661 434.681 402.708 434.246 405.444 432.893C408.179 431.54 410.481 429.33 412.057 426.542C413.633 423.755 414.413 420.515 414.299 417.233C414.141 412.834 412.389 408.672 409.429 405.66C406.468 402.649 402.541 401.034 398.507 401.17Z" fill="#1684AC" fill-opacity="0.1"/>
<path d="M397.312 424.813C396.95 424.827 396.592 424.705 396.292 424.467L396.274 424.452L392.367 421.277C392.186 421.13 392.032 420.944 391.913 420.729C391.795 420.514 391.715 420.276 391.677 420.027C391.639 419.777 391.645 419.523 391.694 419.277C391.742 419.031 391.833 418.799 391.961 418.594C392.088 418.389 392.25 418.216 392.437 418.083C392.625 417.95 392.833 417.86 393.052 417.82C393.27 417.779 393.493 417.788 393.709 417.845C393.925 417.903 394.13 418.009 394.311 418.156L396.842 420.218L402.344 411.382C402.471 411.177 402.633 411.003 402.82 410.87C403.007 410.737 403.216 410.648 403.434 410.607C403.652 410.567 403.876 410.576 404.092 410.633C404.308 410.691 404.512 410.796 404.693 410.944L404.659 411.002L404.694 410.944C405.059 411.242 405.307 411.692 405.383 412.195C405.459 412.698 405.357 413.213 405.1 413.626L398.628 424.015C398.478 424.254 398.282 424.45 398.054 424.589C397.826 424.727 397.573 424.803 397.314 424.811L397.312 424.813Z" fill="#1684AC" fill-opacity="0.1"/>
<path d="M396.923 366.78L283.284 370.748C283.113 370.754 282.947 370.707 282.822 370.618C282.698 370.528 282.626 370.403 282.621 370.271C282.616 370.138 282.68 370.009 282.798 369.911C282.916 369.813 283.078 369.755 283.249 369.749L396.888 365.78C397.059 365.774 397.225 365.821 397.349 365.911C397.474 366 397.546 366.125 397.551 366.257C397.556 366.39 397.492 366.519 397.374 366.617C397.256 366.715 397.094 366.774 396.923 366.78Z" fill="#3F3D56"/>
<path d="M396.923 379.78L283.284 383.748C283.113 383.754 282.947 383.707 282.822 383.618C282.698 383.528 282.626 383.403 282.621 383.271C282.616 383.138 282.68 383.009 282.798 382.911C282.916 382.813 283.078 382.755 283.249 382.749L396.888 378.78C397.059 378.774 397.225 378.821 397.349 378.911C397.474 379 397.546 379.125 397.551 379.257C397.556 379.39 397.492 379.519 397.374 379.617C397.256 379.715 397.094 379.774 396.923 379.78Z" fill="#3F3D56"/>
<path d="M396.923 392.78L283.284 396.748C283.113 396.754 282.947 396.707 282.822 396.618C282.698 396.528 282.626 396.403 282.621 396.271C282.616 396.138 282.68 396.009 282.798 395.911C282.916 395.813 283.078 395.755 283.249 395.749L396.888 391.78C397.059 391.774 397.225 391.821 397.349 391.911C397.474 392 397.546 392.125 397.551 392.257C397.556 392.39 397.492 392.519 397.374 392.617C397.256 392.715 397.094 392.774 396.923 392.78Z" fill="#3F3D56"/>
<path d="M370.949 407.233L283.292 410.294C283.122 410.3 282.954 410.201 282.826 410.018C282.699 409.834 282.622 409.583 282.613 409.318C282.604 409.052 282.663 408.796 282.777 408.604C282.891 408.413 283.052 408.302 283.223 408.296L370.879 405.235C371.05 405.229 371.218 405.328 371.345 405.511C371.473 405.695 371.55 405.946 371.559 406.211C371.568 406.477 371.509 406.733 371.395 406.925C371.28 407.116 371.12 407.227 370.949 407.233Z" fill="#3F3D56"/>
<path d="M370.944 420.234L283.297 423.294C283.125 423.3 282.956 423.201 282.828 423.018C282.7 422.834 282.622 422.583 282.613 422.318C282.604 422.052 282.663 421.796 282.778 421.604C282.894 421.413 283.055 421.301 283.227 421.295L370.875 418.235C371.047 418.229 371.216 418.328 371.344 418.511C371.472 418.695 371.55 418.946 371.559 419.211C371.568 419.477 371.509 419.733 371.393 419.925C371.278 420.116 371.117 420.228 370.944 420.234Z" fill="#3F3D56"/>
<defs>
<filter id="filter0_d_1382_1157" x="0" y="0" width="536.174" height="526.528" filterUnits="userSpaceOnUse" color-interpolation-filters="sRGB">
<feFlood flood-opacity="0" result="BackgroundImageFix"/>
<feColorMatrix in="SourceAlpha" type="matrix" values="0 0 0 0 0 0 0 0 0 0 0 0 0 0 0 0 0 0 127 0" result="hardAlpha"/>
<feOffset dy="4"/>
<feGaussianBlur stdDeviation="2"/>
<feComposite in2="hardAlpha" operator="out"/>
<feColorMatrix type="matrix" values="0 0 0 0 0 0 0 0 0 0 0 0 0 0 0 0 0 0 0.25 0"/>
<feBlend mode="normal" in2="BackgroundImageFix" result="effect1_dropShadow_1382_1157"/>
<feBlend mode="normal" in="SourceGraphic" in2="effect1_dropShadow_1382_1157" result="shape"/>
</filter>
<filter id="filter1_d_1382_1157" x="9.90625" y="13.334" width="173.359" height="512.86" filterUnits="userSpaceOnUse" color-interpolation-filters="sRGB">
<feFlood flood-opacity="0" result="BackgroundImageFix"/>
<feColorMatrix in="SourceAlpha" type="matrix" values="0 0 0 0 0 0 0 0 0 0 0 0 0 0 0 0 0 0 127 0" result="hardAlpha"/>
<feOffset dy="4"/>
<feGaussianBlur stdDeviation="2"/>
<feComposite in2="hardAlpha" operator="out"/>
<feColorMatrix type="matrix" values="0 0 0 0 0 0 0 0 0 0 0 0 0 0 0 0 0 0 0.25 0"/>
<feBlend mode="normal" in2="BackgroundImageFix" result="effect1_dropShadow_1382_1157"/>
<feBlend mode="normal" in="SourceGraphic" in2="effect1_dropShadow_1382_1157" result="shape"/>
</filter>
</defs>
</svg>
