<svg width="537" height="527" viewBox="0 0 537 527" fill="none" xmlns="http://www.w3.org/2000/svg">
<g filter="url(#filter0_d_1382_1212)">
<path d="M21.4844 0L532.173 17.8336L514.688 518.528L3.99973 500.695L21.4844 0Z" fill="#F5F5F5"/>
</g>
<g filter="url(#filter1_d_1382_1212)">
<path d="M30.3574 13.334L178.267 18.4991L160.818 518.195L12.9077 513.029L30.3574 13.334Z" fill="#F5F5F5"/>
</g>
<path d="M53.878 102.761C57.4657 102.886 60.4678 100.303 60.5835 96.9911C60.6991 93.6794 57.8845 90.8931 54.2968 90.7679C50.7092 90.6426 47.707 93.2257 47.5914 96.5374C47.4757 99.8491 50.2904 102.635 53.878 102.761Z" fill="#1684AC"/>
<path d="M77.878 102.761C81.4657 102.886 84.4678 100.303 84.5835 96.9911C84.6991 93.6794 81.8845 90.8931 78.2968 90.7679C74.7092 90.6426 71.707 93.2257 71.5914 96.5374C71.4757 99.8491 74.2904 102.635 77.878 102.761Z" fill="#1684AC" fill-opacity="0.7"/>
<path d="M102.878 102.761C106.466 102.886 109.468 100.303 109.583 96.9911C109.699 93.6794 106.884 90.8931 103.297 90.7679C99.7092 90.6426 96.707 93.2257 96.5914 96.5374C96.4757 99.8491 99.2904 102.635 102.878 102.761Z" fill="#1684AC" fill-opacity="0.5"/>
<rect x="47.8457" y="142.884" width="108" height="13" rx="6.5" transform="rotate(2 47.8457 142.884)" fill="#C0CCD2"/>
<rect x="49.75" y="167.388" width="79" height="8" rx="4" transform="rotate(2 49.75 167.388)" fill="#C0CCD2" fill-opacity="0.6"/>
<rect x="49.75" y="195.388" width="79" height="8" rx="4" transform="rotate(2 49.75 195.388)" fill="#C0CCD2" fill-opacity="0.6"/>
<rect x="49.75" y="181.388" width="79" height="8" rx="4" transform="rotate(2 49.75 181.388)" fill="#C0CCD2" fill-opacity="0.6"/>
<rect x="47.8457" y="235.884" width="108" height="13" rx="6.5" transform="rotate(2 47.8457 235.884)" fill="#C0CCD2"/>
<rect x="49.75" y="260.388" width="79" height="8" rx="4" transform="rotate(2 49.75 260.388)" fill="#C0CCD2" fill-opacity="0.6"/>
<rect x="49.75" y="288.388" width="79" height="8" rx="4" transform="rotate(2 49.75 288.388)" fill="#C0CCD2" fill-opacity="0.6"/>
<rect x="49.75" y="274.388" width="79" height="8" rx="4" transform="rotate(2 49.75 274.388)" fill="#C0CCD2" fill-opacity="0.6"/>
<path d="M307.384 418.45C302.66 413.435 295.666 410.41 288.196 410.149L287.908 410.14C282.988 409.97 278.199 408.548 274.032 406.021L273.598 405.758L273.967 405.418C275.962 403.57 277.649 401.438 278.968 399.096C278.063 399.851 276.995 400.405 275.841 400.719C274.687 401.033 273.474 401.1 272.289 400.914C271.037 400.726 269.845 400.269 268.802 399.577C267.759 398.884 266.892 397.974 266.267 396.915C263.798 392.758 260.887 386.88 261.041 382.484C261.174 378.769 262.113 375.124 263.797 371.781C265.481 368.438 267.872 365.47 270.82 363.066C272.685 361.563 274.199 359.697 275.261 357.592C276.323 355.487 276.911 353.189 276.985 350.849L276.995 350.515C277.102 347.434 277.602 344.378 278.483 341.416L278.572 341.117L278.895 341.139C280.979 341.28 283.073 341.185 285.133 340.856C283.222 340.563 281.361 340.018 279.604 339.237L279.261 339.089L279.391 338.751C287.704 334.195 306 337.344 317.488 314.283C326.804 295.584 356.079 332.519 355.355 353.252C355.281 355.367 353.002 358.087 354.586 359.542C371.709 375.274 359.192 384.555 355.011 394.188C354.019 396.473 355.905 399.086 355.818 401.593C355.803 402.019 355.776 402.457 355.739 402.897L355.681 403.573L355.105 403.177C353.967 402.404 352.917 401.517 351.975 400.53C352.909 402.801 353.301 405.243 353.123 407.676C352.945 410.109 352.2 412.472 350.944 414.589C348.978 417.876 347.104 420.212 345.376 421.534C339.842 425.765 332.826 427.803 325.764 427.23C318.702 426.657 312.127 423.516 307.384 418.45Z" fill="#E6E6E6"/>
<path d="M337.337 469.135C337.459 469.139 337.579 469.102 337.674 469.03C337.769 468.957 337.833 468.855 337.854 468.742C337.881 468.6 340.498 454.33 339.263 435.2C338.122 417.533 333.371 391.978 317.212 370.561C317.173 370.51 317.124 370.466 317.067 370.433C317.01 370.399 316.947 370.376 316.881 370.365C316.816 370.355 316.748 370.356 316.683 370.37C316.618 370.384 316.556 370.409 316.502 370.446C316.447 370.482 316.401 370.528 316.365 370.581C316.33 370.634 316.306 370.693 316.295 370.755C316.284 370.817 316.286 370.881 316.301 370.942C316.316 371.003 316.343 371.061 316.382 371.113C332.402 392.344 337.115 417.712 338.247 435.254C339.475 454.273 336.878 468.431 336.852 468.572C336.839 468.64 336.842 468.709 336.861 468.775C336.879 468.842 336.912 468.904 336.958 468.957C337.004 469.01 337.062 469.054 337.127 469.085C337.193 469.115 337.264 469.132 337.337 469.135Z" fill="#3F3D56"/>
<path d="M325.862 400.616C325.967 400.619 326.071 400.591 326.159 400.534C326.246 400.477 326.312 400.395 326.348 400.3C326.384 400.204 326.388 400.1 326.359 400.002C326.33 399.904 326.269 399.817 326.186 399.754C321.572 396.504 316.559 393.819 311.263 391.761C302.989 388.507 290.343 385.378 277.088 388.95C277.025 388.967 276.966 388.996 276.914 389.035C276.862 389.074 276.819 389.122 276.787 389.177C276.755 389.233 276.734 389.293 276.726 389.356C276.719 389.419 276.724 389.483 276.742 389.544C276.759 389.605 276.789 389.662 276.83 389.712C276.871 389.762 276.921 389.804 276.979 389.835C277.036 389.866 277.099 389.886 277.164 389.893C277.229 389.901 277.295 389.896 277.359 389.879C290.342 386.38 302.758 389.457 310.888 392.654C316.1 394.677 321.032 397.317 325.572 400.513C325.655 400.576 325.757 400.612 325.862 400.616Z" fill="#3F3D56"/>
<path d="M349.367 346.541C349.378 346.443 349.355 346.344 349.303 346.258C349.25 346.172 349.171 346.104 349.075 346.064C348.979 346.023 348.872 346.012 348.769 346.032C348.666 346.052 348.573 346.102 348.503 346.175C344.843 350.24 341.737 354.719 339.258 359.508C335.345 366.987 331.26 378.551 334.029 391.173C334.042 391.234 334.068 391.291 334.105 391.342C334.141 391.393 334.188 391.436 334.243 391.47C334.297 391.504 334.359 391.528 334.423 391.54C334.487 391.552 334.553 391.552 334.617 391.539C334.681 391.527 334.742 391.503 334.796 391.469C334.85 391.435 334.896 391.391 334.932 391.34C334.968 391.289 334.993 391.232 335.005 391.171C335.017 391.111 335.017 391.049 335.003 390.989C332.291 378.625 336.306 367.271 340.151 359.923C342.589 355.211 345.642 350.804 349.242 346.803C349.312 346.731 349.356 346.639 349.367 346.541Z" fill="#3F3D56"/>
<path d="M443.977 468.594L404.918 467.23L404.76 466.931C404.291 466.043 403.841 465.104 403.424 464.141C399.69 455.722 398.32 446.195 397.111 437.79L396.201 431.454C396.091 430.687 396.221 429.906 396.575 429.212C396.93 428.518 397.492 427.941 398.19 427.557C398.888 427.172 399.691 426.997 400.494 427.053C401.298 427.11 402.066 427.395 402.701 427.874C408.492 432.232 414.286 436.586 420.082 440.937C422.276 442.588 424.781 444.498 427.173 446.552C427.449 445.452 427.736 444.349 428.022 443.262C428.22 442.512 428.646 441.836 429.247 441.32C429.847 440.805 430.595 440.474 431.393 440.37C432.192 440.266 433.005 440.393 433.729 440.735C434.453 441.078 435.055 441.62 435.458 442.292L439.781 449.508C442.934 454.777 445.699 459.958 444.908 465.413C444.909 465.48 444.901 465.547 444.886 465.612C444.734 466.507 444.481 467.383 444.131 468.225L443.977 468.594Z" fill="#F0F0F0"/>
<path d="M427.041 318.401L420.089 291.08C419.791 289.924 419.014 288.919 417.926 288.284C416.838 287.649 415.526 287.434 414.273 287.686C413.625 287.816 413.013 288.067 412.475 288.423C411.936 288.78 411.482 289.235 411.141 289.76C410.8 290.285 410.578 290.87 410.489 291.478C410.4 292.087 410.446 292.706 410.624 293.299L418.784 321.479L422.964 338.792C422.251 339.259 421.712 339.919 421.42 340.682C421.128 341.445 421.097 342.274 421.332 343.056C421.567 343.839 422.056 344.536 422.733 345.055C423.409 345.573 424.241 345.887 425.114 345.954C425.988 346.02 426.861 345.837 427.615 345.427C428.369 345.018 428.967 344.404 429.329 343.667C429.69 342.93 429.797 342.107 429.635 341.309C429.473 340.511 429.05 339.778 428.423 339.208L427.041 318.401Z" fill="#A0616A"/>
<path d="M361.978 312.317L386.09 295.836C387.11 295.134 387.799 294.077 388.009 292.892C388.219 291.707 387.933 290.489 387.213 289.501C386.84 288.989 386.363 288.556 385.81 288.226C385.258 287.897 384.641 287.678 383.997 287.584C383.354 287.489 382.698 287.521 382.069 287.677C381.44 287.833 380.851 288.11 380.338 288.492L355.842 306.348L340.478 316.597C339.751 316.158 338.9 315.944 338.043 315.984C337.186 316.023 336.363 316.314 335.686 316.817C335.009 317.32 334.511 318.011 334.26 318.795C334.009 319.58 334.016 320.42 334.281 321.201C334.546 321.983 335.056 322.668 335.742 323.164C336.428 323.66 337.256 323.943 338.114 323.974C338.972 324.004 339.818 323.782 340.537 323.336C341.257 322.89 341.815 322.243 342.135 321.482L361.978 312.317Z" fill="#A0616A"/>
<path d="M381.974 315.458L380.195 337.199L412.408 331.662C409.992 322.817 408.193 321.26 410.451 315.241L381.974 315.458Z" fill="#A0616A"/>
<path d="M401.892 275.918L390.909 275.535L385.927 282.972L383.684 282.777C382.587 282.681 381.481 282.797 380.435 283.118C379.389 283.439 378.424 283.958 377.6 284.642C376.776 285.327 376.109 286.164 375.64 287.101C375.172 288.038 374.911 289.056 374.875 290.093L377.503 294.233C377.503 294.233 372.267 302.189 379.261 306.437C379.261 306.437 377.725 313.928 379 313.892C380.276 313.855 383.26 312.424 380.276 313.855C377.291 315.286 377.503 315.5 377.87 315.87L378.236 316.24L408.882 322.19C408.882 322.19 409.98 316.595 410.112 315.595C410.244 314.594 409.507 317.025 410.244 314.594C410.981 312.163 411.926 313.118 410.981 312.163C410.036 311.209 417.741 300.065 414.893 295.538L419.861 291.285C420.009 287.043 412.897 283.352 408.394 283.195L407.817 283.175L401.892 275.918Z" fill="#E6E6E6"/>
<path d="M374.305 459.864L370.242 459.722L368.867 443.665L374.864 443.874L374.305 459.864Z" fill="#A0616A"/>
<path d="M361.49 465.781C361.476 466.231 361.667 466.669 362.021 467.001C362.374 467.332 362.862 467.53 363.378 467.551L372.057 467.854L372.342 467.377L373.647 465.212L374.045 467.437L374.134 467.926L377.407 468.041L377.377 467.55L376.823 458.395L375.683 458.294L370.759 457.867L369.549 457.76L369.454 460.484C368.505 461.305 361.175 464.277 361.49 465.781Z" fill="#2F2E41"/>
<path d="M439.384 449.718L435.768 451.88L425.753 438.898L431.09 435.707L439.384 449.718Z" fill="#A0616A"/>
<path d="M431.579 460.72C431.832 461.119 432.242 461.407 432.718 461.523C433.194 461.639 433.698 461.572 434.121 461.338L441.203 457.359L441.151 456.804L440.917 454.28L442.54 456.023L442.898 456.406L445.569 454.905L445.258 454.492L439.441 446.789L438.475 447.259L434.306 449.295L433.281 449.793L434.805 452.213C434.532 453.391 430.446 459.564 431.579 460.72Z" fill="#2F2E41"/>
<path d="M460.013 470.891L325.101 466.408C324.966 466.402 324.841 466.304 324.752 466.135C324.662 465.966 324.617 465.739 324.625 465.505C324.633 465.271 324.694 465.049 324.795 464.886C324.896 464.724 325.028 464.634 325.163 464.638L460.074 469.12C460.209 469.126 460.335 469.224 460.424 469.394C460.513 469.563 460.558 469.789 460.55 470.023C460.542 470.257 460.481 470.48 460.38 470.642C460.279 470.805 460.147 470.894 460.013 470.891Z" fill="#CACACA"/>
<path d="M413.907 330.21C413.907 330.21 392.743 339.837 381.987 332.389C381.987 332.389 379.198 343.273 378.201 344.147C377.205 345.021 375.655 345.363 376.709 346.413C377.764 347.464 378.323 348.852 376.191 350.516C374.058 352.18 372.012 351.557 373.947 353.415C375.882 355.273 366.313 398.856 366.313 398.856C366.313 398.856 366.174 439.692 364.845 440.881C363.516 442.07 361.788 442.286 363.397 443.87C365.007 445.454 365.049 444.27 364.975 446.375L364.902 448.479L365.59 450.597L376.028 450.961C376.028 450.961 378.643 448.296 376.208 445.816C373.772 443.337 377.081 442.797 377.927 440.58C378.774 438.363 379.975 440.828 378.774 438.363C377.573 435.898 376.939 436.336 376.982 434.744C377.025 433.153 398.169 371.498 398.169 371.498L399.262 406.07L425.576 444.809L433.911 439.353C433.911 439.353 428.263 431.302 429.685 430.271C431.108 429.241 425.688 427.698 427.455 426.542C429.221 425.385 425.114 424.015 426.734 422.457C428.355 420.899 424.778 416.704 422.623 416.629C420.469 416.554 417.681 409.673 417.681 409.673L424.065 356.309L413.907 330.21Z" fill="#2F2E41"/>
<path d="M389.981 253.971C389.831 254.147 388.69 254.01 387.32 253.769C384.613 253.292 384.226 253.733 382.13 255.439C379.093 257.911 380.22 273.672 378.653 277.024L378.174 277.338C379.108 277.201 380.028 276.987 380.924 276.701C381.477 275.204 382.031 273.701 382.589 272.205C383.024 273.399 383.28 274.647 383.35 275.91C384.06 275.669 384.779 275.045 387.736 274.277C389.243 273.368 399.939 272.775 401.324 272.4C405.2 261.153 399.754 256.359 389.981 253.971Z" fill="#2F2E41"/>
<path d="M393.237 271.758C398.757 271.951 403.387 267.633 403.58 262.113C403.773 256.594 399.455 251.963 393.935 251.77C388.416 251.578 383.785 255.896 383.592 261.415C383.4 266.935 387.718 271.565 393.237 271.758Z" fill="#A0616A"/>
<path d="M400.118 252.699C399.51 252.595 398.928 252.387 398.404 252.085C398.144 251.93 397.937 251.712 397.807 251.456C397.676 251.199 397.626 250.915 397.664 250.636C397.822 249.938 398.708 249.549 399.488 249.619C400.262 249.749 400.991 250.047 401.613 250.488C401.566 249.807 401.27 249.159 400.772 248.647C400.274 248.135 399.603 247.789 398.866 247.665C399.894 247.65 400.963 247.643 401.901 248.036C402.838 248.429 403.598 249.348 403.394 250.266C404.997 250.134 406.536 251.203 407.149 252.564C407.761 253.925 407.576 255.492 407.001 256.859C406.941 257.07 406.833 257.266 406.683 257.434C406.533 257.602 406.345 257.739 406.131 257.835C405.587 258.002 405.02 257.67 404.565 257.347C402.189 255.658 400.041 253.718 398.165 251.569" fill="#2F2E41"/>
<path d="M404.165 272.41C403.722 272.591 403.924 273.328 403.574 273.643C403.422 273.777 403.241 273.876 403.044 273.934C403.014 273.323 402.886 272.72 402.665 272.145C402.625 272.041 402.556 271.923 402.442 271.928C402.308 271.939 402.267 272.104 402.26 272.228C402.212 272.843 402.048 273.443 401.776 274.002C401.773 274.008 401.77 274.017 401.766 274.023C401.668 274.016 401.567 274.01 401.472 274.003C400.739 273.951 399.174 272.09 398.792 272.689C400.14 270.575 401.805 267.385 402.128 264.926C402.229 264.413 402.207 263.884 402.065 263.379C401.99 263.127 401.842 262.901 401.637 262.728C401.433 262.554 401.18 262.44 400.911 262.399C400.777 262.389 400.643 262.406 400.518 262.451C400.392 262.496 400.279 262.567 400.186 262.659C400.093 262.751 400.022 262.861 399.979 262.982C399.935 263.103 399.921 263.232 399.936 263.359L399.753 263.328C398.096 261.943 399.645 259.691 397.695 258.711C397.035 258.379 392.889 259.268 392.171 259.061C392.181 258.33 392.05 257.603 391.786 256.917C391.745 256.813 391.676 256.695 391.562 256.7C391.429 256.711 391.388 256.876 391.38 257C391.332 257.614 391.168 258.215 390.897 258.774C389.897 258.603 388.873 258.618 387.881 258.82C387.006 259.008 386.169 259.354 385.292 259.523C384.857 259.635 384.403 259.66 383.957 259.597C383.511 259.535 383.083 259.386 382.699 259.16C381.619 258.413 381.48 256.839 382.072 255.702C382.496 254.974 383.058 254.328 383.729 253.796C384.243 253.354 384.774 252.93 385.306 252.506C385.782 252.126 386.258 251.745 386.734 251.365C387.334 250.862 387.971 250.4 388.64 249.983C389.706 249.366 390.893 248.964 392.129 248.801C393.365 248.639 394.623 248.721 395.827 249.04C397.271 249.424 399.235 249.023 400.545 249.72C401.23 250.086 402.726 251.451 403.32 251.938C404.843 253.182 403.818 252.176 405.505 252.923C409.526 254.706 407.145 271.192 404.165 272.41Z" fill="#2F2E41"/>
<path d="M287.423 344.726C322.747 345.96 352.352 319.219 353.547 284.998C354.742 250.777 327.075 222.035 291.75 220.802C256.425 219.568 226.82 246.31 225.625 280.531C224.43 314.751 252.098 343.493 287.423 344.726Z" fill="white"/>
<path d="M287.405 345.726C251.585 344.476 223.423 315.438 224.625 280.996C225.828 246.555 255.948 219.552 291.767 220.803C327.586 222.053 355.749 251.091 354.546 285.533C353.344 319.975 323.224 346.977 287.405 345.726ZM291.724 222.037C256.613 220.811 227.088 247.28 225.909 281.041C224.731 314.802 252.337 343.266 287.448 344.492C322.559 345.718 352.083 319.249 353.262 285.488C354.441 251.727 326.835 223.263 291.724 222.037Z" fill="#1684AC"/>
<path d="M280.196 314.438C279.085 314.4 277.998 314.114 277.021 313.605C276.044 313.096 275.204 312.376 274.568 311.504L257.798 288.538C257.259 287.8 256.878 286.969 256.675 286.091C256.472 285.213 256.452 284.307 256.616 283.423C256.78 282.539 257.125 281.695 257.63 280.939C258.136 280.184 258.793 279.531 259.564 279.019C260.334 278.506 261.203 278.144 262.122 277.954C263.04 277.763 263.989 277.746 264.914 277.906C265.84 278.065 266.725 278.397 267.517 278.883C268.31 279.368 268.995 279.998 269.534 280.736L280.505 295.76L311.47 254.536C312.576 253.065 314.249 252.076 316.122 251.787C317.995 251.497 319.914 251.929 321.457 252.99C323.001 254.05 324.042 255.651 324.353 257.441C324.663 259.231 324.217 261.063 323.113 262.535L286.257 311.602C285.59 312.49 284.71 313.211 283.69 313.705C282.67 314.199 281.54 314.453 280.395 314.443C280.329 314.442 280.262 314.441 280.196 314.438Z" fill="#1684AC"/>
<path d="M352.835 227.998C354.026 228.039 355.025 226.627 355.066 224.843C355.106 223.06 354.174 221.58 352.983 221.538C351.792 221.497 350.793 222.909 350.752 224.693C350.712 226.476 351.644 227.956 352.835 227.998Z" fill="#E6E6E6"/>
<path d="M373.874 226.03C375.065 226.071 376.064 224.659 376.105 222.875C376.145 221.092 375.213 219.612 374.022 219.57C372.831 219.529 371.832 220.941 371.791 222.725C371.751 224.509 372.683 225.988 373.874 226.03Z" fill="#3F3D56"/>
<path d="M347.074 211.671C348.265 211.713 349.263 210.301 349.304 208.517C349.345 206.733 348.412 205.254 347.221 205.212C346.03 205.17 345.031 206.583 344.991 208.366C344.95 210.15 345.882 211.63 347.074 211.671Z" fill="#1684AC" fill-opacity="0.5"/>
<path d="M339.735 203.61C340.816 203.648 341.714 203.043 341.741 202.258C341.768 201.473 340.914 200.807 339.833 200.769C338.751 200.731 337.853 201.337 337.826 202.121C337.799 202.906 338.654 203.573 339.735 203.61Z" fill="#E6E6E6"/>
<path d="M336.634 191.154C337.715 191.192 338.613 190.586 338.64 189.802C338.667 189.017 337.812 188.35 336.731 188.312C335.65 188.275 334.752 188.88 334.725 189.665C334.698 190.449 335.552 191.116 336.634 191.154Z" fill="#3F3D56"/>
<path d="M360.743 213.076C361.824 213.114 362.722 212.509 362.749 211.724C362.776 210.939 361.921 210.273 360.84 210.235C359.759 210.197 358.861 210.803 358.834 211.587C358.807 212.372 359.662 213.038 360.743 213.076Z" fill="#E6E6E6"/>
<path d="M350.575 217.942C351.656 217.98 352.554 217.374 352.581 216.59C352.608 215.805 351.753 215.138 350.672 215.101C349.591 215.063 348.693 215.668 348.666 216.453C348.639 217.238 349.494 217.904 350.575 217.942Z" fill="#1684AC" fill-opacity="0.5"/>
<path d="M364.729 226.935C365.81 226.973 366.709 226.367 366.735 225.583C366.762 224.798 365.908 224.132 364.827 224.094C363.746 224.056 362.847 224.661 362.82 225.446C362.794 226.231 363.648 226.897 364.729 226.935Z" fill="#3F3D56"/>
<path d="M232.175 374.004C233.366 374.046 234.365 372.633 234.406 370.85C234.446 369.066 233.514 367.586 232.323 367.545C231.132 367.503 230.133 368.915 230.092 370.699C230.052 372.483 230.984 373.962 232.175 374.004Z" fill="#E6E6E6"/>
<path d="M253.214 372.036C254.405 372.078 255.404 370.666 255.445 368.882C255.485 367.098 254.553 365.618 253.362 365.577C252.171 365.535 251.172 366.947 251.131 368.731C251.091 370.515 252.023 371.995 253.214 372.036Z" fill="#3F3D56"/>
<path d="M226.413 357.677C227.604 357.719 228.603 356.307 228.644 354.523C228.685 352.739 227.752 351.259 226.561 351.218C225.37 351.176 224.371 352.589 224.331 354.372C224.29 356.156 225.222 357.636 226.413 357.677Z" fill="#1684AC" fill-opacity="0.5"/>
<path d="M219.075 349.617C220.156 349.655 221.054 349.049 221.081 348.264C221.108 347.48 220.253 346.813 219.172 346.775C218.091 346.738 217.193 347.343 217.166 348.128C217.139 348.912 217.994 349.579 219.075 349.617Z" fill="#E6E6E6"/>
<path d="M215.975 337.16C217.056 337.198 217.955 336.592 217.982 335.808C218.008 335.023 217.154 334.357 216.073 334.319C214.992 334.281 214.093 334.887 214.067 335.671C214.04 336.456 214.894 337.122 215.975 337.16Z" fill="#3F3D56"/>
<path d="M240.083 359.083C241.164 359.12 242.062 358.515 242.089 357.73C242.116 356.946 241.261 356.279 240.18 356.241C239.099 356.203 238.201 356.809 238.174 357.594C238.147 358.378 239.002 359.045 240.083 359.083Z" fill="#E6E6E6"/>
<path d="M229.917 363.948C230.998 363.986 231.896 363.381 231.923 362.596C231.95 361.811 231.095 361.145 230.014 361.107C228.933 361.069 228.035 361.675 228.008 362.459C227.981 363.244 228.836 363.911 229.917 363.948Z" fill="#1684AC" fill-opacity="0.5"/>
<path d="M244.069 372.941C245.15 372.979 246.048 372.374 246.075 371.589C246.102 370.804 245.248 370.138 244.167 370.1C243.085 370.062 242.187 370.668 242.16 371.452C242.133 372.237 242.988 372.904 244.069 372.941Z" fill="#3F3D56"/>
<rect x="200.859" y="88.1509" width="150" height="13" rx="6.5" transform="rotate(2 200.859 88.1509)" fill="#C0CCD2"/>
<rect x="200.754" y="114.179" width="91" height="8" rx="4" transform="rotate(2 200.754 114.179)" fill="#C0CCD2" fill-opacity="0.6"/>
<rect x="301.738" y="115.139" width="36" height="8" rx="4" transform="rotate(2 301.738 115.139)" fill="#C0CCD2" fill-opacity="0.6"/>
<defs>
<filter id="filter0_d_1382_1212" x="0" y="0" width="536.174" height="526.529" filterUnits="userSpaceOnUse" color-interpolation-filters="sRGB">
<feFlood flood-opacity="0" result="BackgroundImageFix"/>
<feColorMatrix in="SourceAlpha" type="matrix" values="0 0 0 0 0 0 0 0 0 0 0 0 0 0 0 0 0 0 127 0" result="hardAlpha"/>
<feOffset dy="4"/>
<feGaussianBlur stdDeviation="2"/>
<feComposite in2="hardAlpha" operator="out"/>
<feColorMatrix type="matrix" values="0 0 0 0 0 0 0 0 0 0 0 0 0 0 0 0 0 0 0.25 0"/>
<feBlend mode="normal" in2="BackgroundImageFix" result="effect1_dropShadow_1382_1212"/>
<feBlend mode="normal" in="SourceGraphic" in2="effect1_dropShadow_1382_1212" result="shape"/>
</filter>
<filter id="filter1_d_1382_1212" x="8.9082" y="13.334" width="173.359" height="512.861" filterUnits="userSpaceOnUse" color-interpolation-filters="sRGB">
<feFlood flood-opacity="0" result="BackgroundImageFix"/>
<feColorMatrix in="SourceAlpha" type="matrix" values="0 0 0 0 0 0 0 0 0 0 0 0 0 0 0 0 0 0 127 0" result="hardAlpha"/>
<feOffset dy="4"/>
<feGaussianBlur stdDeviation="2"/>
<feComposite in2="hardAlpha" operator="out"/>
<feColorMatrix type="matrix" values="0 0 0 0 0 0 0 0 0 0 0 0 0 0 0 0 0 0 0.25 0"/>
<feBlend mode="normal" in2="BackgroundImageFix" result="effect1_dropShadow_1382_1212"/>
<feBlend mode="normal" in="SourceGraphic" in2="effect1_dropShadow_1382_1212" result="shape"/>
</filter>
</defs>
</svg>
