<svg width="196" height="81" viewBox="0 0 196 81" fill="none" xmlns="http://www.w3.org/2000/svg">
<g clip-path="url(#clip0_1514_82)">
<path d="M192.363 73C190.354 73 188.726 74.6284 188.726 76.6371C188.726 78.6458 190.354 80.2742 192.363 80.2742C194.372 80.2742 196 78.6458 196 76.6371C196 74.6284 194.372 73 192.363 73Z" fill="#FDECC0"/>
<path d="M173.571 73C171.562 73 169.934 74.6284 169.934 76.6371C169.934 78.6458 171.562 80.2742 173.571 80.2742C175.58 80.2742 177.208 78.6458 177.208 76.6371C177.208 74.6284 175.58 73 173.571 73Z" fill="#FDECC0"/>
<path d="M154.578 73C152.569 73 150.941 74.6284 150.941 76.6371C150.941 78.6458 152.569 80.2742 154.578 80.2742C156.586 80.2742 158.215 78.6458 158.215 76.6371C158.215 74.6284 156.586 73 154.578 73Z" fill="#FDECC0"/>
<path d="M135.786 73C133.777 73 132.149 74.6284 132.149 76.6371C132.149 78.6458 133.777 80.2742 135.786 80.2742C137.794 80.2742 139.423 78.6458 139.423 76.6371C139.423 74.6284 137.794 73 135.786 73Z" fill="#FDECC0"/>
<path d="M116.792 73C114.783 73 113.154 74.6284 113.154 76.6371C113.154 78.6458 114.783 80.2742 116.792 80.2742C118.8 80.2742 120.429 78.6458 120.429 76.6371C120.429 74.6284 118.8 73 116.792 73Z" fill="#FDECC0"/>
<path d="M97.9996 73C95.9909 73 94.3625 74.6284 94.3625 76.6371C94.3625 78.6458 95.9909 80.2742 97.9996 80.2742C100.008 80.2742 101.637 78.6458 101.637 76.6371C101.637 74.6284 100.008 73 97.9996 73Z" fill="#FDECC0"/>
<path d="M79.2086 73C77.1999 73 75.5715 74.6284 75.5715 76.6371C75.5715 78.6458 77.1999 80.2742 79.2086 80.2742C81.2173 80.2742 82.8457 78.6458 82.8457 76.6371C82.8457 74.6284 81.2173 73 79.2086 73Z" fill="#FDECC0"/>
<path d="M60.2145 73C58.2057 73 56.5773 74.6284 56.5773 76.6371C56.5773 78.6458 58.2057 80.2742 60.2145 80.2742C62.2232 80.2742 63.8516 78.6458 63.8516 76.6371C63.8516 74.6284 62.2232 73 60.2145 73Z" fill="#FDECC0"/>
<path d="M41.4225 73C39.4137 73 37.7853 74.6284 37.7853 76.6371C37.7853 78.6458 39.4137 80.2742 41.4225 80.2742C43.4312 80.2742 45.0596 78.6458 45.0596 76.6371C45.0596 74.6284 43.4312 73 41.4225 73Z" fill="#FDECC0"/>
<path d="M22.4293 73C20.4206 73 18.7922 74.6284 18.7922 76.6371C18.7922 78.6458 20.4206 80.2742 22.4293 80.2742C24.438 80.2742 26.0664 78.6458 26.0664 76.6371C26.0664 74.6284 24.438 73 22.4293 73Z" fill="#FDECC0"/>
<path d="M3.63731 73C1.62859 73 0.000190735 74.6284 0.000190735 76.6371C0.000190735 78.6458 1.62859 80.2742 3.63731 80.2742C5.64603 80.2742 7.27441 78.6458 7.27441 76.6371C7.27441 74.6284 5.64603 73 3.63731 73Z" fill="#FDECC0"/>
<path d="M192.363 55.6227C190.354 55.6227 188.726 57.2511 188.726 59.2598C188.726 61.2685 190.354 62.8969 192.363 62.8969C194.372 62.8969 196 61.2685 196 59.2598C196 57.2511 194.372 55.6227 192.363 55.6227Z" fill="#FDECC0"/>
<path d="M173.571 55.6227C171.562 55.6227 169.934 57.2511 169.934 59.2598C169.934 61.2685 171.562 62.8969 173.571 62.8969C175.58 62.8969 177.208 61.2685 177.208 59.2598C177.208 57.2511 175.58 55.6227 173.571 55.6227Z" fill="#FDECC0"/>
<path d="M154.578 55.6227C152.569 55.6227 150.941 57.2511 150.941 59.2598C150.941 61.2685 152.569 62.8969 154.578 62.8969C156.586 62.8969 158.215 61.2685 158.215 59.2598C158.215 57.2511 156.586 55.6227 154.578 55.6227Z" fill="#FDECC0"/>
<path d="M135.786 55.6227C133.777 55.6227 132.149 57.2511 132.149 59.2598C132.149 61.2685 133.777 62.8969 135.786 62.8969C137.794 62.8969 139.423 61.2685 139.423 59.2598C139.423 57.2511 137.794 55.6227 135.786 55.6227Z" fill="#FDECC0"/>
<path d="M116.792 55.6227C114.783 55.6227 113.154 57.2511 113.154 59.2598C113.154 61.2685 114.783 62.8969 116.792 62.8969C118.8 62.8969 120.429 61.2685 120.429 59.2598C120.429 57.2511 118.8 55.6227 116.792 55.6227Z" fill="#FDECC0"/>
<path d="M97.9996 55.6227C95.9909 55.6227 94.3625 57.2511 94.3625 59.2598C94.3625 61.2685 95.9909 62.8969 97.9996 62.8969C100.008 62.8969 101.637 61.2685 101.637 59.2598C101.637 57.2511 100.008 55.6227 97.9996 55.6227Z" fill="#FDECC0"/>
<path d="M79.2086 55.6227C77.1999 55.6227 75.5715 57.2511 75.5715 59.2598C75.5715 61.2685 77.1999 62.8969 79.2086 62.8969C81.2173 62.8969 82.8457 61.2685 82.8457 59.2598C82.8457 57.2511 81.2173 55.6227 79.2086 55.6227Z" fill="#FDECC0"/>
<path d="M60.2145 55.6227C58.2057 55.6227 56.5773 57.2511 56.5773 59.2598C56.5773 61.2685 58.2057 62.8969 60.2145 62.8969C62.2232 62.8969 63.8516 61.2685 63.8516 59.2598C63.8516 57.2511 62.2232 55.6227 60.2145 55.6227Z" fill="#FDECC0"/>
<path d="M192.363 38.2454C190.354 38.2454 188.726 39.8738 188.726 41.8825C188.726 43.8912 190.354 45.5196 192.363 45.5196C194.372 45.5196 196 43.8912 196 41.8825C196 39.8738 194.372 38.2454 192.363 38.2454Z" fill="#FDECC0"/>
<path d="M173.571 38.2454C171.562 38.2454 169.934 39.8738 169.934 41.8825C169.934 43.8912 171.562 45.5196 173.571 45.5196C175.58 45.5196 177.208 43.8912 177.208 41.8825C177.208 39.8738 175.58 38.2454 173.571 38.2454Z" fill="#FDECC0"/>
<path d="M154.578 38.2454C152.569 38.2454 150.941 39.8738 150.941 41.8825C150.941 43.8912 152.569 45.5196 154.578 45.5196C156.586 45.5196 158.215 43.8912 158.215 41.8825C158.215 39.8738 156.586 38.2454 154.578 38.2454Z" fill="#FDECC0"/>
<path d="M135.786 38.2454C133.777 38.2454 132.149 39.8738 132.149 41.8825C132.149 43.8912 133.777 45.5196 135.786 45.5196C137.794 45.5196 139.423 43.8912 139.423 41.8825C139.423 39.8738 137.794 38.2454 135.786 38.2454Z" fill="#FDECC0"/>
<path d="M116.792 38.2454C114.783 38.2454 113.154 39.8738 113.154 41.8825C113.154 43.8912 114.783 45.5196 116.792 45.5196C118.8 45.5196 120.429 43.8912 120.429 41.8825C120.429 39.8738 118.8 38.2454 116.792 38.2454Z" fill="#FDECC0"/>
<path d="M192.363 20.666C190.354 20.666 188.726 22.2944 188.726 24.3031C188.726 26.3118 190.354 27.9402 192.363 27.9402C194.372 27.9402 196 26.3118 196 24.3031C196 22.2944 194.372 20.666 192.363 20.666Z" fill="#FDECC0"/>
<path d="M173.571 20.666C171.562 20.666 169.934 22.2944 169.934 24.3031C169.934 26.3118 171.562 27.9402 173.571 27.9402C175.58 27.9402 177.208 26.3118 177.208 24.3031C177.208 22.2944 175.58 20.666 173.571 20.666Z" fill="#FDECC0"/>
<path d="M154.578 20.666C152.569 20.666 150.941 22.2944 150.941 24.3031C150.941 26.3118 152.569 27.9402 154.578 27.9402C156.586 27.9402 158.215 26.3118 158.215 24.3031C158.215 22.2944 156.586 20.666 154.578 20.666Z" fill="#FDECC0"/>
</g>
<path d="M192.363 2.86102e-06C190.354 2.86102e-06 188.726 1.62839 188.726 3.63712C188.726 5.64584 190.354 7.27423 192.363 7.27423C194.372 7.27423 196 5.64584 196 3.63712C196 1.62839 194.372 2.86102e-06 192.363 2.86102e-06Z" fill="#FDECC0"/>
<defs>
<clipPath id="clip0_1514_82">
<rect width="196" height="60.6186" fill="white" transform="matrix(-1 0 0 -1 196 80.2742)"/>
</clipPath>
</defs>
</svg>
