<svg width="118" height="103" viewBox="0 0 118 103" fill="none" xmlns="http://www.w3.org/2000/svg">
<path d="M116.965 39.3893C116.923 39.3893 116.881 39.3767 116.847 39.3532L59.5942 0.582176C59.42 0.464738 59.2129 0.401976 59.0009 0.402328C58.7889 0.40268 58.5821 0.466126 58.4083 0.584142L1.56814 39.3528C1.52319 39.3835 1.46754 39.3955 1.41346 39.3863C1.35937 39.3771 1.31126 39.3473 1.27973 39.3036C1.2482 39.2599 1.23581 39.2058 1.24531 39.1532C1.2548 39.1006 1.28539 39.0538 1.33035 39.0231L58.1705 0.254474C58.4139 0.0892773 58.7034 0.000476199 59.0002 1.90985e-06C59.2971 -0.000472379 59.5869 0.0874022 59.8308 0.25182L117.083 39.0227C117.12 39.0473 117.147 39.0824 117.161 39.1229C117.175 39.1635 117.176 39.2074 117.163 39.2483C117.149 39.2892 117.123 39.3249 117.087 39.3503C117.052 39.3756 117.009 39.3893 116.965 39.3893Z" fill="#3F3D56"/>
<path d="M4.81641 40.7635L59.0575 1.67456L113.71 43.5449L61.8522 73.4379L33.6978 67.1976L4.81641 40.7635Z" fill="#E6E6E6"/>
<path d="M36.0743 91.9016H9.27794C9.1134 91.9018 8.95043 91.8705 8.79835 91.8094C8.64628 91.7483 8.50808 91.6586 8.39166 91.5456C8.27524 91.4325 8.18288 91.2983 8.11987 91.1505C8.05685 91.0027 8.02441 90.8442 8.02441 90.6843C8.02441 90.5243 8.05685 90.3658 8.11987 90.218C8.18288 90.0702 8.27524 89.936 8.39166 89.8229C8.50808 89.7099 8.64628 89.6202 8.79835 89.5591C8.95043 89.498 9.1134 89.4667 9.27794 89.4669H36.0743C36.2389 89.4667 36.4019 89.498 36.5539 89.5591C36.706 89.6202 36.8442 89.7099 36.9606 89.8229C37.077 89.936 37.1694 90.0702 37.2324 90.218C37.2954 90.3658 37.3279 90.5243 37.3279 90.6843C37.3279 90.8442 37.2954 91.0027 37.2324 91.1505C37.1694 91.2983 37.077 91.4325 36.9606 91.5456C36.8442 91.6586 36.706 91.7483 36.5539 91.8094C36.4019 91.8705 36.2389 91.9018 36.0743 91.9016Z" fill="#1684AC"/>
<path d="M18.8919 86.6678H9.27794C9.1134 86.668 8.95043 86.6367 8.79835 86.5756C8.64628 86.5145 8.50808 86.4249 8.39166 86.3118C8.27524 86.1988 8.18288 86.0645 8.11987 85.9167C8.05685 85.7689 8.02441 85.6105 8.02441 85.4505C8.02441 85.2905 8.05685 85.1321 8.11987 84.9843C8.18288 84.8365 8.27524 84.7022 8.39166 84.5892C8.50808 84.4761 8.64628 84.3864 8.79835 84.3254C8.95043 84.2643 9.1134 84.2329 9.27794 84.2332H18.8919C19.0564 84.2329 19.2194 84.2643 19.3715 84.3254C19.5235 84.3864 19.6617 84.4761 19.7782 84.5892C19.8946 84.7022 19.987 84.8365 20.05 84.9843C20.113 85.1321 20.1454 85.2905 20.1454 85.4505C20.1454 85.6105 20.113 85.7689 20.05 85.9167C19.987 86.0645 19.8946 86.1988 19.7782 86.3118C19.6617 86.4249 19.5235 86.5145 19.3715 86.5756C19.2194 86.6367 19.0564 86.668 18.8919 86.6678Z" fill="#1684AC"/>
<path d="M59.8195 62.5356C59.6159 62.5359 59.4141 62.4974 59.2256 62.4225L25.7734 48.9256V6.67802C25.7739 6.30444 25.9267 5.94628 26.1984 5.68212C26.47 5.41795 26.8384 5.26936 27.2226 5.26892H91.398C91.7822 5.26936 92.1505 5.41795 92.4222 5.68212C92.6939 5.94628 92.8467 6.30444 92.8471 6.67802V48.9551L92.7842 48.9812L60.4315 62.4159C60.2377 62.4951 60.0297 62.5358 59.8195 62.5356Z" fill="white"/>
<path d="M59.8195 62.6363C59.6023 62.6365 59.3872 62.5956 59.1861 62.5158L25.6699 48.9929V6.67808C25.6704 6.27781 25.8341 5.89407 26.1252 5.61103C26.4163 5.328 26.8109 5.16879 27.2226 5.16833H91.398C91.8096 5.16879 92.2043 5.328 92.4954 5.61103C92.7864 5.89407 92.9502 6.27781 92.9506 6.67808V49.0216L60.4721 62.5085C60.2655 62.593 60.0436 62.6364 59.8195 62.6363ZM26.0839 48.724L59.344 62.1435C59.6542 62.2659 60.0017 62.2639 60.3104 62.1379L92.5366 48.7558V6.67808C92.5362 6.38456 92.4162 6.10315 92.2027 5.8956C91.9893 5.68804 91.6999 5.57128 91.398 5.57093H27.2226C26.9207 5.57128 26.6313 5.68804 26.4178 5.8956C26.2044 6.10315 26.0843 6.38456 26.084 6.67808L26.0839 48.724Z" fill="#3F3D56"/>
<path d="M116.551 38.9867H116.509L92.7439 48.8544L60.2276 62.3556C60.1006 62.4076 59.9643 62.4347 59.8264 62.4353C59.6886 62.436 59.5519 62.4103 59.4243 62.3596L25.8772 48.8262L1.52777 39.0028L1.49057 38.9867H1.44912C1.06492 38.9871 0.696579 39.1357 0.424908 39.3999C0.153237 39.664 0.000426301 40.0222 0 40.3958V101.591C0.000426848 101.964 0.153237 102.323 0.424908 102.587C0.696579 102.851 1.06492 103 1.44912 103H116.551C116.935 103 117.303 102.851 117.575 102.587C117.847 102.323 118 101.964 118 101.591V40.3958C118 40.0222 117.847 39.664 117.575 39.3999C117.303 39.1357 116.935 38.9871 116.551 38.9867ZM117.586 101.591C117.586 101.858 117.477 102.114 117.283 102.302C117.089 102.491 116.825 102.597 116.551 102.597H1.44912C1.17463 102.597 0.91142 102.491 0.717328 102.302C0.523235 102.114 0.414145 101.858 0.414035 101.591V40.3958C0.41441 40.1355 0.51824 39.8854 0.703814 39.6979C0.889389 39.5103 1.14234 39.3997 1.4098 39.3893L25.8772 49.261L59.265 62.732C59.6265 62.875 60.0314 62.8728 60.3912 62.726L92.7439 49.2912L116.592 39.3893C116.859 39.4005 117.112 39.5114 117.297 39.6988C117.482 39.8863 117.585 40.1359 117.586 40.3958V101.591Z" fill="#3F3D56"/>
<path d="M59.4859 50.5559C58.2509 50.5581 57.0487 50.1698 56.0606 49.4495L55.9993 49.4048L43.0999 39.8013C42.5025 39.3562 42.0011 38.801 41.6243 38.1675C41.2476 37.534 41.0028 36.8346 40.9041 36.1091C40.8053 35.3836 40.8545 34.6463 41.0487 33.9393C41.243 33.2323 41.5786 32.5694 42.0363 31.9885C42.494 31.4076 43.0649 30.9201 43.7165 30.5537C44.368 30.1874 45.0873 29.9494 45.8334 29.8533C46.5795 29.7573 47.3377 29.8051 48.0648 29.994C48.7919 30.1829 49.4736 30.5092 50.071 30.9543L58.4263 37.1841L78.1712 12.1451C78.6291 11.5643 79.2002 11.077 79.8519 10.7108C80.5035 10.3447 81.2229 10.107 81.969 10.0112C82.7152 9.91541 83.4734 9.96348 84.2004 10.1527C84.9274 10.3418 85.609 10.6684 86.2062 11.1137L86.0835 11.2758L86.2094 11.1161C87.4141 12.0164 88.2024 13.3446 88.4012 14.8094C88.6001 16.2741 88.1933 17.7558 87.2701 18.9292L64.0453 48.3811C63.5082 49.0598 62.8175 49.609 62.0268 49.9861C61.236 50.3633 60.3666 50.5583 59.4859 50.5559Z" fill="#1684AC"/>
</svg>
