<svg width="85" height="110" viewBox="0 0 85 110" fill="none" xmlns="http://www.w3.org/2000/svg">
<path d="M74.0513 55.3188C74.0513 63.4379 70.8134 70.3698 64.6518 75.5283C60.2794 79.1907 53.5446 84.324 53.5446 89.7515V94.2418H33.0379V89.7515C33.0379 84.2673 26.2767 79.1235 21.9307 75.5283C15.9083 70.5505 12.5312 63.1479 12.5312 55.3188V55.1528C12.5577 48.0064 15.8232 41.1619 21.6094 36.1247C27.3956 31.0874 35.2288 28.27 43.386 28.292C51.5432 28.314 59.3564 31.1737 65.1071 36.2421C70.8578 41.3104 74.075 48.1724 74.0513 55.3188Z" fill="#FDECC0"/>
<path d="M53.5444 94.8723C53.3536 94.8723 53.1706 94.8059 53.0357 94.6877C52.9007 94.5695 52.8249 94.4091 52.8249 94.242V89.7508C52.8249 84.4715 58.768 79.5431 63.1077 75.9445C63.4675 75.6457 63.8179 75.3562 64.1542 75.0736C70.1573 70.0458 73.3304 63.2149 73.3304 55.3191C73.3304 40.5625 60.1358 29.0028 43.2918 29.0028H43.2069C35.2799 29.0106 27.679 31.7677 22.0659 36.6714C16.4528 41.5751 13.2842 48.2264 13.253 55.171V55.3181C13.253 63.0506 16.5962 70.25 22.4259 75.071C22.7211 75.3154 23.0279 75.5669 23.3428 75.8252C27.7384 79.4307 33.7585 84.3683 33.7585 89.751V94.242C33.7585 94.4091 33.6827 94.5695 33.5478 94.6877C33.4128 94.8059 33.2298 94.8723 33.039 94.8723C32.8481 94.8723 32.6651 94.8059 32.5302 94.6877C32.3952 94.5695 32.3194 94.4091 32.3194 94.242V89.7508C32.3194 84.9148 26.5632 80.1932 22.3592 76.7442C22.0428 76.485 21.7358 76.2325 21.4379 75.9867C15.3219 70.9287 11.814 63.3954 11.814 55.3183V55.167C11.8619 40.0287 25.9372 27.7412 43.2048 27.7412H43.2937C51.5984 27.7034 59.5802 30.5573 65.483 35.6752C71.3858 40.793 74.7263 47.7556 74.7695 55.0311C74.77 55.1271 74.77 55.2231 74.7694 55.3191C74.7694 63.5675 71.4426 70.7135 65.1488 75.9849C64.8109 76.2679 64.459 76.5597 64.0969 76.86C59.9476 80.3012 54.2633 85.014 54.2633 89.7508V94.242C54.2633 94.4091 54.1874 94.5695 54.0525 94.6877C53.9176 94.8059 53.7346 94.8723 53.5437 94.8723H53.5444Z" fill="#3F3D56"/>
<path d="M50.1277 102.961H36.4565C36.1385 102.961 35.8335 102.85 35.6086 102.653C35.3837 102.456 35.2573 102.189 35.2573 101.91C35.2573 101.632 35.3837 101.364 35.6086 101.167C35.8335 100.97 36.1385 100.86 36.4565 100.86H50.1277C50.4457 100.86 50.7507 100.97 50.9756 101.167C51.2005 101.364 51.3269 101.632 51.3269 101.91C51.3269 102.189 51.2005 102.456 50.9756 102.653C50.7507 102.85 50.4457 102.961 50.1277 102.961Z" fill="#1684AC"/>
<path d="M44.7612 110H41.819C40.7971 110.001 39.7942 109.757 38.9183 109.296C38.7885 109.23 38.6879 109.127 38.6327 109.004C38.5775 108.882 38.571 108.747 38.6141 108.621C38.6536 108.491 38.7409 108.377 38.8625 108.295C38.9841 108.214 39.133 108.17 39.2861 108.17H47.2942C47.4472 108.17 47.5962 108.214 47.7178 108.295C47.8394 108.377 47.9267 108.491 47.9662 108.621C48.0093 108.747 48.0028 108.882 47.9476 109.004C47.8924 109.127 47.7918 109.23 47.6619 109.296C46.786 109.757 45.7832 110.001 44.7612 110Z" fill="#3F3D56"/>
<path d="M50.1293 106.28L36.3771 106.278L36.3345 106.198C36.2939 106.051 36.2922 105.898 36.3296 105.75C36.367 105.602 36.4425 105.464 36.5503 105.345C36.6595 105.224 36.7988 105.126 36.9577 105.059C37.1165 104.991 37.2907 104.957 37.4672 104.957H49.1134C49.2899 104.957 49.4641 104.992 49.623 105.059C49.7819 105.126 49.9212 105.224 50.0304 105.346C50.1373 105.462 50.2125 105.599 50.2503 105.745C50.2882 105.89 50.2877 106.042 50.2489 106.188L50.2273 106.269L50.1293 106.28Z" fill="#3F3D56"/>
<path d="M11.4883 30.5541C11.1984 30.5544 10.9183 30.4623 10.7002 30.295L0.401525 22.4194C0.165602 22.2353 0.0221529 21.977 0.00235774 21.7008C-0.0174374 21.4245 0.0880226 21.1526 0.29581 20.944C0.503597 20.7355 0.796921 20.6073 1.11205 20.5871C1.42717 20.567 1.73863 20.6567 1.97874 20.8366L12.2774 28.7122C12.4614 28.8528 12.5919 29.0393 12.6516 29.2467C12.7114 29.4541 12.6974 29.6726 12.6116 29.8728C12.5258 30.0731 12.3723 30.2457 12.1716 30.3674C11.9708 30.4892 11.7325 30.5544 11.4883 30.5543V30.5541Z" fill="#E4E4E4"/>
<path d="M73.3863 30.5541C73.1421 30.5542 72.9037 30.489 72.703 30.3672C72.5023 30.2454 72.3488 30.0729 72.263 29.8726C72.1772 29.6723 72.1632 29.4539 72.223 29.2465C72.2827 29.0391 72.4132 28.8526 72.5972 28.712L82.8956 20.8357C83.1357 20.6558 83.4471 20.5662 83.7623 20.5863C84.0774 20.6064 84.3707 20.7347 84.5785 20.9432C84.7863 21.1517 84.8918 21.4237 84.872 21.6999C84.8522 21.9762 84.7087 22.2345 84.4728 22.4186L74.1741 30.2942C73.9562 30.4617 73.6762 30.5541 73.3863 30.5541Z" fill="#E4E4E4"/>
<path d="M53.5438 99.2323H33.0371C32.7191 99.2323 32.414 99.1216 32.1891 98.9246C31.9642 98.7276 31.8379 98.4604 31.8379 98.1817C31.8379 97.9031 31.9642 97.6359 32.1891 97.4388C32.414 97.2418 32.7191 97.1311 33.0371 97.1311H53.5438C53.8618 97.1311 54.1669 97.2418 54.3918 97.4388C54.6167 97.6359 54.743 97.9031 54.743 98.1817C54.743 98.4604 54.6167 98.7276 54.3918 98.9246C54.1669 99.1216 53.8618 99.2323 53.5438 99.2323Z" fill="#1684AC"/>
<path d="M42.7877 71.7861L38.5233 94.2419H36.0889L40.4205 71.4415C40.4726 71.1665 40.6473 70.9209 40.9062 70.7587C41.165 70.5966 41.4868 70.5311 41.8008 70.5768C42.1147 70.6225 42.395 70.7756 42.5801 71.0024C42.7652 71.2292 42.8399 71.5111 42.7877 71.7861Z" fill="#E6E6E6"/>
<path d="M50.9827 94.2419H48.5482L44.2838 71.7861C44.2317 71.5111 44.3063 71.2292 44.4914 71.0024C44.6765 70.7756 44.9568 70.6225 45.2708 70.5768C45.5847 70.5311 45.9065 70.5966 46.1653 70.7587C46.4242 70.9209 46.5989 71.1665 46.6511 71.4415L50.9827 94.2419Z" fill="#E6E6E6"/>
<path d="M35.4971 71.036C35.4971 70.7573 35.6234 70.4901 35.8483 70.2931C36.0732 70.096 36.3782 69.9854 36.6963 69.9854H49.886C50.2041 69.9854 50.5091 70.096 50.734 70.2931C50.9589 70.4901 51.0853 70.7573 51.0853 71.036C51.0853 71.3146 50.9589 71.5818 50.734 71.7789C50.5091 71.9759 50.2041 72.0866 49.886 72.0866H36.6963C36.3782 72.0866 36.0732 71.9759 35.8483 71.7789C35.6234 71.5818 35.4971 71.3146 35.4971 71.036Z" fill="#E6E6E6"/>
<path d="M43.2915 20.0667C42.9735 20.0667 42.6684 19.956 42.4435 19.759C42.2186 19.5619 42.0923 19.2947 42.0923 19.0161V1.05061C42.0923 0.771972 42.2186 0.504745 42.4435 0.307717C42.6684 0.110689 42.9735 0 43.2915 0C43.6096 0 43.9146 0.110689 44.1395 0.307717C44.3644 0.504745 44.4907 0.771972 44.4907 1.05061V19.0161C44.4907 19.2947 44.3644 19.5619 44.1395 19.759C43.9146 19.956 43.6096 20.0667 43.2915 20.0667Z" fill="#E4E4E4"/>
</svg>
