<svg width="111" height="110" viewBox="0 0 111 110" fill="none" xmlns="http://www.w3.org/2000/svg">
<g clip-path="url(#clip0_1278_6215)">
<path d="M77.7903 48.1668C84.461 48.1668 89.8687 43.2096 89.8687 37.0945C89.8687 30.9794 84.461 26.0222 77.7903 26.0222C71.1196 26.0222 65.7119 30.9794 65.7119 37.0945C65.7119 43.2096 71.1196 48.1668 77.7903 48.1668Z" fill="#FDECC0"/>
<path d="M110.922 45.3498C110.949 45.3454 110.969 45.3283 111 45.3327C110.986 45.2848 110.969 45.2379 110.947 45.1925C110.909 45.2405 110.869 45.2896 110.835 45.3325L110.922 45.3498Z" fill="white"/>
<path d="M29.9106 63.3005C29.9811 65.7162 30.4225 68.1107 31.2218 70.4135C31.2401 70.4669 31.2592 70.5196 31.2783 70.573H36.1716C36.1664 70.5252 36.1612 70.4717 36.156 70.4135C35.8297 66.975 33.9486 46.0476 36.1978 42.4688C36.0011 42.7591 29.5312 52.375 29.9106 63.3005Z" fill="#E6E6E6"/>
<path d="M30.2778 70.4135C30.3187 70.467 30.3613 70.5204 30.4048 70.573H34.0757C34.0478 70.5276 34.0156 70.4741 33.9782 70.4135C33.3718 69.4101 31.5768 66.4104 29.9106 63.3005C28.12 59.9586 26.4773 56.4898 26.6156 55.2344C26.573 55.5175 25.334 64.1492 30.2778 70.4135Z" fill="#E6E6E6"/>
<path d="M68.4227 70.9887C68.3612 73.0947 67.9763 75.1823 67.2795 77.1899C67.2636 77.2365 67.2469 77.2824 67.2302 77.329H62.9642C62.9687 77.2873 62.9733 77.2407 62.9778 77.1899C63.2623 74.1922 64.9022 55.9474 62.9414 52.8273C63.1128 53.0804 68.7534 61.4636 68.4227 70.9887Z" fill="#E6E6E6"/>
<path d="M68.1031 77.1899C68.0674 77.2365 68.0302 77.2831 67.9923 77.329H64.792C64.8163 77.2894 64.8443 77.2428 64.8769 77.1899C65.4057 76.3152 66.9705 73.6999 68.4232 70.9887C69.9842 68.0752 71.4164 65.051 71.2958 63.9565C71.3329 64.2034 72.4131 71.7286 68.1031 77.1899Z" fill="#E6E6E6"/>
<path d="M19.6457 8.98724L21.6351 7.52861C20.0896 7.3723 19.4546 8.14498 19.1947 8.75656C17.9873 8.29695 16.6729 8.89928 16.6729 8.89928L20.6534 10.224C20.4525 9.73229 20.103 9.30328 19.6457 8.98724Z" fill="#3F3D56"/>
<path d="M79.5666 1.47906L81.556 0.0204275C80.0105 -0.135881 79.3755 0.636796 79.1156 1.24838C77.9082 0.788775 76.5938 1.3911 76.5938 1.3911L80.5743 2.7158C80.3734 2.22411 80.0239 1.7951 79.5666 1.47906Z" fill="#3F3D56"/>
<path d="M108.838 59.1611C108.838 60.3697 108.792 61.5684 108.7 62.7573C107.991 72.1366 104.443 81.149 98.4553 88.7818C97.6727 89.783 96.851 90.7561 95.9902 91.7011C93.7598 94.1533 91.2834 96.4084 88.5935 98.4365L76.8026 92.0941L69.7529 77.0109C69.7529 77.0109 80.2713 57.4878 108.819 57.8418C108.831 58.28 108.837 58.7198 108.838 59.1611Z" fill="#3F3D56"/>
<path d="M108.7 62.7572C108.157 69.7661 106.036 76.5958 102.47 82.8154C98.9032 89.035 93.9693 94.5095 87.9792 98.8934L77.0253 93.0017L70.7734 79.6245C70.7734 79.6245 80.904 60.8219 108.7 62.7572Z" fill="#1684AC"/>
<path d="M98.455 89.7817C97.6725 90.7829 96.8508 91.756 95.99 92.7011C90.2221 99.0539 82.8519 104.022 74.5177 107.176C72.8301 107.814 71.1029 108.376 69.3359 108.864C56.5772 111.974 43.0602 111.187 30.8331 106.623C18.7406 101.675 8.96857 92.9369 3.27227 81.9781C2.50674 80.5029 1.81832 78.9902 1.20703 77.4401C11.8683 70.2805 32.8762 60.0285 55.7724 69.9904C62.1059 72.746 67.7612 75.2578 72.7383 77.5258C85.3679 83.2647 93.7734 87.402 98.455 89.7817Z" fill="#3F3D56"/>
<path d="M95.9892 92.7011C90.0268 99.2516 82.3631 104.322 73.7031 107.447C65.0432 110.571 55.6651 111.649 46.4317 110.582C37.1983 109.514 28.4061 106.334 20.8641 101.336C13.322 96.3377 7.2723 89.6809 3.27148 81.9781C12.1755 75.5234 32.7121 63.924 55.2494 73.7285C61.0453 76.2501 66.2197 78.5488 70.7726 80.6245C84.0452 86.655 92.2211 90.7533 95.9892 92.7011Z" fill="#1684AC"/>
<path d="M80.2741 104.633C78.4096 105.58 76.4875 106.429 74.5173 107.176C67.8127 109.709 60.6301 111.008 53.3785 111C44.7977 110.997 36.3344 109.17 28.6535 105.663C20.9726 102.157 14.2831 97.0653 9.11035 90.7891C22.3557 89.5088 58.9685 87.7825 80.2741 104.633Z" fill="#3F3D56"/>
<path d="M74.5175 107.176C64.1211 111.095 52.6719 112.028 41.6842 109.853C30.6966 107.678 20.6881 102.496 12.9824 94.9935C17.8002 94.3448 55.6242 89.8894 74.5175 107.176Z" fill="#1684AC"/>
<path d="M99.5349 30.9688V30.9703C59.9348 4.13018 14.5643 23.0217 14.2139 23.1667V23.1652C19.3564 18.4516 25.4627 14.7142 32.1832 12.1672C38.9037 9.62022 46.1063 8.31355 53.3784 8.32206C72.6307 8.32206 89.5915 17.3156 99.5349 30.9688Z" fill="#E6E6E6"/>
<path d="M17.3902 60.1466C24.0892 59.0393 27.522 47.984 25.0576 35.4539C22.5932 22.9237 15.1647 13.6635 8.46564 14.7707C1.76659 15.8779 -1.66624 26.9332 0.798206 39.4634C3.26265 51.9936 10.6911 61.2538 17.3902 60.1466Z" fill="#6AA421"/>
<path d="M19.1114 74.7803C18.7143 47.2578 8.66887 21.4296 8.56749 21.1721L7.65137 21.475C7.75226 21.7313 17.7425 47.4241 18.1376 74.7924L19.1114 74.7803Z" fill="#1684AC"/>
<path d="M1.28899 34.3451L0.989258 35.1947L13.0156 38.76L13.3153 37.9104L1.28899 34.3451Z" fill="#1684AC"/>
<path d="M23.9118 33.388L14.0029 40.5819L14.6077 41.2819L24.5166 34.088L23.9118 33.388Z" fill="#1684AC"/>
<path d="M49.6017 56.1788C56.9676 56.1788 62.9388 45.01 62.9388 31.2325C62.9388 17.4551 56.9676 6.28625 49.6017 6.28625C42.2359 6.28625 36.2646 17.4551 36.2646 31.2325C36.2646 45.01 42.2359 56.1788 49.6017 56.1788Z" fill="#6AA421"/>
<path d="M48.3706 72.0655C53.7123 42.6862 48.4244 13.4131 48.3704 13.1211L47.3313 13.2824C47.3851 13.573 52.6426 42.6924 47.3311 71.907L48.3706 72.0655Z" fill="#1684AC"/>
<path d="M37.8594 25.8683L37.3623 26.7203L49.4226 32.6339L49.9198 31.7819L37.8594 25.8683Z" fill="#1684AC"/>
<path d="M62.1517 28.8305L50.0928 34.7474L50.5902 35.5993L62.6491 29.6824L62.1517 28.8305Z" fill="#1684AC"/>
<path d="M107.534 48.1543C102.641 45.6358 97.5284 43.493 92.2492 41.7479C63.0587 32.0652 34.1131 35.797 22.7832 49.6545C31.6004 32.678 63.0621 27.3399 94.8112 37.8711C98.5064 39.0957 102.123 40.5119 105.643 42.1129C106.409 44.0887 107.041 46.1064 107.534 48.1543Z" fill="#E6E6E6"/>
<path d="M68.1105 20.8359L70.0999 19.3772C68.5544 19.2209 67.9194 19.9936 67.6595 20.6052C66.4521 20.1456 65.1377 20.7479 65.1377 20.7479L69.1182 22.0726C68.9174 21.5809 68.5678 21.1519 68.1105 20.8359Z" fill="#3F3D56"/>
</g>
<defs>
<clipPath id="clip0_1278_6215">
<rect width="111" height="110" fill="white"/>
</clipPath>
</defs>
</svg>
