<svg width="196" height="81" viewBox="0 0 196 81" fill="none" xmlns="http://www.w3.org/2000/svg">
<g clip-path="url(#clip0_1493_51)">
<path d="M3.63711 7.27423C5.64584 7.27423 7.27423 5.64584 7.27423 3.63711C7.27423 1.62839 5.64584 0 3.63711 0C1.62839 0 0 1.62839 0 3.63711C0 5.64584 1.62839 7.27423 3.63711 7.27423Z" fill="#FDECC0"/>
<path d="M22.4291 7.27423C24.4378 7.27423 26.0662 5.64584 26.0662 3.63711C26.0662 1.62839 24.4378 0 22.4291 0C20.4204 0 18.792 1.62839 18.792 3.63711C18.792 5.64584 20.4204 7.27423 22.4291 7.27423Z" fill="#FDECC0"/>
<path d="M41.4223 7.27423C43.431 7.27423 45.0594 5.64584 45.0594 3.63711C45.0594 1.62839 43.431 0 41.4223 0C39.4135 0 37.7852 1.62839 37.7852 3.63711C37.7852 5.64584 39.4135 7.27423 41.4223 7.27423Z" fill="#FDECC0"/>
<path d="M60.2143 7.27423C62.223 7.27423 63.8514 5.64584 63.8514 3.63711C63.8514 1.62839 62.223 0 60.2143 0C58.2055 0 56.5771 1.62839 56.5771 3.63711C56.5771 5.64584 58.2055 7.27423 60.2143 7.27423Z" fill="#FDECC0"/>
<path d="M79.2084 7.27423C81.2171 7.27423 82.8455 5.64584 82.8455 3.63711C82.8455 1.62839 81.2171 0 79.2084 0C77.1997 0 75.5713 1.62839 75.5713 3.63711C75.5713 5.64584 77.1997 7.27423 79.2084 7.27423Z" fill="#FDECC0"/>
<path d="M98.0004 7.27423C100.009 7.27423 101.638 5.64584 101.638 3.63711C101.638 1.62839 100.009 0 98.0004 0C95.9917 0 94.3633 1.62839 94.3633 3.63711C94.3633 5.64584 95.9917 7.27423 98.0004 7.27423Z" fill="#FDECC0"/>
<path d="M116.791 7.27423C118.8 7.27423 120.429 5.64584 120.429 3.63711C120.429 1.62839 118.8 0 116.791 0C114.783 0 113.154 1.62839 113.154 3.63711C113.154 5.64584 114.783 7.27423 116.791 7.27423Z" fill="#FDECC0"/>
<path d="M135.786 7.27423C137.794 7.27423 139.423 5.64584 139.423 3.63711C139.423 1.62839 137.794 0 135.786 0C133.777 0 132.148 1.62839 132.148 3.63711C132.148 5.64584 133.777 7.27423 135.786 7.27423Z" fill="#FDECC0"/>
<path d="M154.578 7.27423C156.586 7.27423 158.215 5.64584 158.215 3.63711C158.215 1.62839 156.586 0 154.578 0C152.569 0 150.94 1.62839 150.94 3.63711C150.94 5.64584 152.569 7.27423 154.578 7.27423Z" fill="#FDECC0"/>
<path d="M173.571 7.27423C175.579 7.27423 177.208 5.64584 177.208 3.63711C177.208 1.62839 175.579 0 173.571 0C171.562 0 169.934 1.62839 169.934 3.63711C169.934 5.64584 171.562 7.27423 173.571 7.27423Z" fill="#FDECC0"/>
<path d="M192.363 7.27423C194.371 7.27423 196 5.64584 196 3.63711C196 1.62839 194.371 0 192.363 0C190.354 0 188.726 1.62839 188.726 3.63711C188.726 5.64584 190.354 7.27423 192.363 7.27423Z" fill="#FDECC0"/>
<path d="M3.63711 24.6515C5.64584 24.6515 7.27423 23.0232 7.27423 21.0144C7.27423 19.0057 5.64584 17.3773 3.63711 17.3773C1.62839 17.3773 0 19.0057 0 21.0144C0 23.0232 1.62839 24.6515 3.63711 24.6515Z" fill="#FDECC0"/>
<path d="M22.4291 24.6515C24.4378 24.6515 26.0662 23.0232 26.0662 21.0144C26.0662 19.0057 24.4378 17.3773 22.4291 17.3773C20.4204 17.3773 18.792 19.0057 18.792 21.0144C18.792 23.0232 20.4204 24.6515 22.4291 24.6515Z" fill="#FDECC0"/>
<path d="M41.4223 24.6515C43.431 24.6515 45.0594 23.0232 45.0594 21.0144C45.0594 19.0057 43.431 17.3773 41.4223 17.3773C39.4135 17.3773 37.7852 19.0057 37.7852 21.0144C37.7852 23.0232 39.4135 24.6515 41.4223 24.6515Z" fill="#FDECC0"/>
<path d="M60.2143 24.6515C62.223 24.6515 63.8514 23.0232 63.8514 21.0144C63.8514 19.0057 62.223 17.3773 60.2143 17.3773C58.2055 17.3773 56.5771 19.0057 56.5771 21.0144C56.5771 23.0232 58.2055 24.6515 60.2143 24.6515Z" fill="#FDECC0"/>
<path d="M79.2084 24.6515C81.2171 24.6515 82.8455 23.0232 82.8455 21.0144C82.8455 19.0057 81.2171 17.3773 79.2084 17.3773C77.1997 17.3773 75.5713 19.0057 75.5713 21.0144C75.5713 23.0232 77.1997 24.6515 79.2084 24.6515Z" fill="#FDECC0"/>
<path d="M98.0004 24.6515C100.009 24.6515 101.638 23.0232 101.638 21.0144C101.638 19.0057 100.009 17.3773 98.0004 17.3773C95.9917 17.3773 94.3633 19.0057 94.3633 21.0144C94.3633 23.0232 95.9917 24.6515 98.0004 24.6515Z" fill="#FDECC0"/>
<path d="M116.791 24.6515C118.8 24.6515 120.429 23.0232 120.429 21.0144C120.429 19.0057 118.8 17.3773 116.791 17.3773C114.783 17.3773 113.154 19.0057 113.154 21.0144C113.154 23.0232 114.783 24.6515 116.791 24.6515Z" fill="#FDECC0"/>
<path d="M135.786 24.6515C137.794 24.6515 139.423 23.0232 139.423 21.0144C139.423 19.0057 137.794 17.3773 135.786 17.3773C133.777 17.3773 132.148 19.0057 132.148 21.0144C132.148 23.0232 133.777 24.6515 135.786 24.6515Z" fill="#FDECC0"/>
<path d="M3.63711 42.0289C5.64584 42.0289 7.27423 40.4005 7.27423 38.3918C7.27423 36.383 5.64584 34.7546 3.63711 34.7546C1.62839 34.7546 0 36.383 0 38.3918C0 40.4005 1.62839 42.0289 3.63711 42.0289Z" fill="#FDECC0"/>
<path d="M22.4291 42.0289C24.4378 42.0289 26.0662 40.4005 26.0662 38.3918C26.0662 36.383 24.4378 34.7546 22.4291 34.7546C20.4204 34.7546 18.792 36.383 18.792 38.3918C18.792 40.4005 20.4204 42.0289 22.4291 42.0289Z" fill="#FDECC0"/>
<path d="M41.4223 42.0289C43.431 42.0289 45.0594 40.4005 45.0594 38.3918C45.0594 36.383 43.431 34.7546 41.4223 34.7546C39.4135 34.7546 37.7852 36.383 37.7852 38.3918C37.7852 40.4005 39.4135 42.0289 41.4223 42.0289Z" fill="#FDECC0"/>
<path d="M60.2143 42.0289C62.223 42.0289 63.8514 40.4005 63.8514 38.3918C63.8514 36.383 62.223 34.7546 60.2143 34.7546C58.2055 34.7546 56.5771 36.383 56.5771 38.3918C56.5771 40.4005 58.2055 42.0289 60.2143 42.0289Z" fill="#FDECC0"/>
<path d="M79.2084 42.0289C81.2171 42.0289 82.8455 40.4005 82.8455 38.3918C82.8455 36.383 81.2171 34.7546 79.2084 34.7546C77.1997 34.7546 75.5713 36.383 75.5713 38.3918C75.5713 40.4005 77.1997 42.0289 79.2084 42.0289Z" fill="#FDECC0"/>
<path d="M3.63711 59.6082C5.64584 59.6082 7.27423 57.9799 7.27423 55.9711C7.27423 53.9624 5.64584 52.334 3.63711 52.334C1.62839 52.334 0 53.9624 0 55.9711C0 57.9799 1.62839 59.6082 3.63711 59.6082Z" fill="#FDECC0"/>
<path d="M22.4291 59.6082C24.4378 59.6082 26.0662 57.9799 26.0662 55.9711C26.0662 53.9624 24.4378 52.334 22.4291 52.334C20.4204 52.334 18.792 53.9624 18.792 55.9711C18.792 57.9799 20.4204 59.6082 22.4291 59.6082Z" fill="#FDECC0"/>
<path d="M41.4223 59.6082C43.431 59.6082 45.0594 57.9799 45.0594 55.9711C45.0594 53.9624 43.431 52.334 41.4223 52.334C39.4135 52.334 37.7852 53.9624 37.7852 55.9711C37.7852 57.9799 39.4135 59.6082 41.4223 59.6082Z" fill="#FDECC0"/>
</g>
<path d="M3.63711 80.2742C5.64583 80.2742 7.27422 78.6458 7.27422 76.6371C7.27422 74.6284 5.64583 73 3.63711 73C1.62839 73 0 74.6284 0 76.6371C0 78.6458 1.62839 80.2742 3.63711 80.2742Z" fill="#FDECC0"/>
<defs>
<clipPath id="clip0_1493_51">
<rect width="196" height="60.6186" fill="white"/>
</clipPath>
</defs>
</svg>
