<svg width="15" height="17" viewBox="0 0 15 17" fill="none" xmlns="http://www.w3.org/2000/svg">
<path d="M7.00001 17C5.61554 17 4.26215 16.5601 3.11101 15.736C1.95986 14.9119 1.06265 13.7406 0.532841 12.3701C0.00302729 10.9997 -0.135588 9.49169 0.134508 8.03683C0.404605 6.58198 1.07128 5.2456 2.05025 4.1967C3.02922 3.14781 4.2765 2.4335 5.63437 2.14411C6.99224 1.85472 8.3997 2.00325 9.67878 2.57091C10.9579 3.13857 12.0511 4.09986 12.8203 5.33323C13.5895 6.5666 14 8.01666 14 9.50002C13.9979 11.4884 13.2597 13.3948 11.9474 14.8008C10.6351 16.2068 8.85587 16.9977 7.00001 17ZM7.00001 2.78948C5.76127 2.78947 4.55035 3.18304 3.52038 3.9204C2.49041 4.65776 1.68763 5.70581 1.21359 6.93199C0.739545 8.15818 0.615519 9.50745 0.857184 10.8092C1.09885 12.1109 1.69536 13.3066 2.57127 14.2451C3.44719 15.1835 4.56318 15.8227 5.77811 16.0816C6.99305 16.3405 8.25235 16.2076 9.3968 15.6997C10.5412 15.1918 11.5194 14.3317 12.2076 13.2282C12.8958 12.1246 13.2632 10.8272 13.2632 9.50002C13.2632 8.61878 13.1012 7.74615 12.7864 6.93199C12.4716 6.11783 12.0103 5.37808 11.4287 4.75494C10.8471 4.13181 10.1567 3.63752 9.39681 3.30028C8.63692 2.96305 7.8225 2.78948 7.00001 2.78948Z" fill="#3F3D56"/>
<path d="M6.72445 12C6.6081 12 6.4929 11.9777 6.38544 11.9345C6.27799 11.8913 6.18038 11.828 6.09823 11.7482L3.25971 8.99923C3.17736 8.91955 3.11204 8.82494 3.06748 8.72079C3.02292 8.61665 2.99998 8.50502 3 8.39229C3.00002 8.27955 3.02297 8.16791 3.06757 8.06378C3.11216 7.95964 3.1775 7.86504 3.25987 7.78538L3.40669 7.64289C3.57316 7.48231 3.79856 7.39216 4.03352 7.39216C4.26849 7.39216 4.49388 7.48231 4.66035 7.64289L6.13181 9.06766C6.18667 9.12075 6.25286 9.16157 6.32572 9.18728C6.39859 9.213 6.47638 9.22299 6.55365 9.21654C6.63092 9.21009 6.7058 9.18736 6.77305 9.14994C6.84029 9.11252 6.89828 9.06132 6.94294 8.99992L13.218 0.364118C13.3534 0.178068 13.5596 0.0516735 13.7912 0.0126933C14.0227 -0.026287 14.2608 0.0253346 14.4531 0.15622L14.6238 0.272576C14.719 0.337469 14.8001 0.419886 14.8624 0.515116C14.9247 0.610346 14.967 0.716523 14.9869 0.827591C15.0068 0.938659 15.004 1.05244 14.9785 1.16244C14.953 1.27243 14.9054 1.37648 14.8384 1.46866L7.44989 11.6355C7.37559 11.738 7.27898 11.8235 7.16686 11.8859C7.05474 11.9483 6.92984 11.9861 6.80099 11.9967C6.77536 11.999 6.7499 12 6.72445 12Z" fill="#1684AC"/>
</svg>
