<svg width="311" height="280" viewBox="0 0 311 280" fill="none" xmlns="http://www.w3.org/2000/svg">
<g clip-path="url(#clip0_1456_306)">
<path d="M311 145.839C311 183.352 284.276 215.314 246.845 227.476C241.15 229.329 235.273 230.702 229.289 231.575C212.828 233.977 195.95 232.613 180.245 227.612C142.576 215.551 115.657 183.481 115.675 145.821C115.675 97.8525 159.401 58.9498 213.338 58.9498C233.722 58.9234 253.6 64.5972 270.162 75.1691C294.889 90.9303 311 116.71 311 145.839Z" fill="#F2F2F2"/>
<path d="M246.845 227.476C241.15 229.33 235.273 230.703 229.289 231.576C212.828 233.978 195.95 232.614 180.245 227.613L184.755 211.512L185.027 210.545L194.231 210.577L240.47 210.724L241.062 212.281L246.845 227.476Z" fill="#2F2E41"/>
<path d="M84.8337 47.2715H0V132.674H84.8337V47.2715Z" fill="#E6E6E6"/>
<path d="M83.1729 49.0786H1.5127V130.868H83.1729V49.0786Z" fill="white"/>
<path d="M42.4168 127.96C44.9448 127.96 46.9942 126.137 46.9942 123.888C46.9942 121.638 44.9448 119.815 42.4168 119.815C39.8887 119.815 37.8394 121.638 37.8394 123.888C37.8394 126.137 39.8887 127.96 42.4168 127.96Z" fill="#E6E6E6"/>
<path d="M41.6436 78.0303H15.3525V80.4232H41.6436V78.0303Z" fill="#E6E6E6"/>
<path d="M55.0329 85.2007H15.3525V87.5936H55.0329V85.2007Z" fill="#1684AC"/>
<path d="M51.1379 92.416H15.3525V94.809H51.1379V92.416Z" fill="#E6E6E6"/>
<path d="M70.6128 99.4409H15.3525V101.834H70.6128V99.4409Z" fill="#1684AC"/>
<path d="M60.9626 106.131H15.9268V108.524H60.9626V106.131Z" fill="#E6E6E6"/>
<path d="M120.631 186.24C120.953 186.534 121.249 186.851 121.516 187.188L162.981 186.285L167.818 178.42L182.113 183.364L175.069 198.027C174.5 199.212 173.515 200.2 172.261 200.844C171.006 201.488 169.552 201.752 168.114 201.598L121.266 196.563C120.161 197.807 118.656 198.723 116.951 199.188C115.247 199.654 113.424 199.646 111.724 199.167C110.025 198.688 108.529 197.76 107.437 196.506C106.345 195.252 105.708 193.732 105.61 192.149C105.513 190.565 105.959 188.992 106.891 187.64C107.822 186.287 109.195 185.219 110.825 184.577C112.456 183.936 114.267 183.751 116.018 184.048C117.77 184.344 119.378 185.108 120.629 186.238L120.631 186.24Z" fill="#9F616A"/>
<path d="M176.441 141.334L195.846 135.676L201.545 128.722L229.28 130.182L233.352 138.297L248.141 144.514L245.868 182.067L241.98 217.212C221.987 208.001 184.673 215.023 184.347 215.137L176.441 141.334Z" fill="#1684AC"/>
<path d="M180.589 192.164L160.851 185.138L160.935 184.825C161.02 184.509 169.421 153.278 170.536 148.259C171.698 143.03 175.943 141.584 176.123 141.525L176.255 141.482L184.066 143.597L187.497 167.579L180.589 192.164Z" fill="#1684AC"/>
<path d="M223.207 215.667C223.669 215.657 224.132 215.68 224.591 215.735L252.039 188.069L248.846 179.568L262.64 173.604L269.937 188.168C270.526 189.345 270.671 190.659 270.349 191.915C270.027 193.171 269.255 194.3 268.151 195.133L232.149 222.272C232.423 223.839 232.155 225.444 231.379 226.872C230.603 228.3 229.358 229.484 227.807 230.267C226.257 231.05 224.475 231.394 222.699 231.254C220.923 231.114 219.238 230.497 217.866 229.483C216.494 228.47 215.502 227.11 215.021 225.582C214.539 224.055 214.592 222.434 215.172 220.934C215.752 219.434 216.831 218.127 218.266 217.186C219.702 216.245 221.425 215.715 223.207 215.667Z" fill="#9F616A"/>
<path d="M249.848 190.762L238.398 166.8L242.864 150.109L247.676 144.701C248.029 144.567 248.408 144.499 248.792 144.503C249.175 144.506 249.553 144.58 249.903 144.719C251.678 145.355 253.188 147.302 254.394 150.508L265.125 177.701L249.848 190.762Z" fill="#1684AC"/>
<path d="M190.443 119.842V101.777C190.431 98.5984 191.123 95.4485 192.48 92.5075C193.836 89.5665 195.83 86.892 198.349 84.6367C200.867 82.3814 203.86 80.5895 207.156 79.3632C210.453 78.137 213.988 77.5004 217.562 77.4899C221.135 77.4793 224.675 78.0951 227.981 79.3019C231.286 80.5087 234.292 82.2829 236.827 84.5233C239.362 86.7637 241.376 89.4264 242.755 92.3593C244.133 95.2922 244.849 98.438 244.86 101.617C244.861 101.67 244.861 101.724 244.86 101.777V119.842C244.859 120.704 244.474 121.531 243.789 122.141C243.103 122.75 242.174 123.093 241.205 123.094H194.098C193.129 123.093 192.2 122.75 191.515 122.141C190.83 121.531 190.444 120.704 190.443 119.842Z" fill="#2F2E41"/>
<path d="M212.061 122.673C223.078 122.673 232.009 114.727 232.009 104.926C232.009 95.1237 223.078 87.1777 212.061 87.1777C201.043 87.1777 192.112 95.1237 192.112 104.926C192.112 114.727 201.043 122.673 212.061 122.673Z" fill="#9F616A"/>
<path d="M184.006 103.223C184.013 98.1458 186.282 93.2783 190.317 89.6883C194.353 86.0983 199.823 84.079 205.53 84.0732H209.591C215.297 84.079 220.768 86.0983 224.803 89.6884C228.838 93.2784 231.108 98.1458 231.114 103.223V103.584H222.532L219.604 96.2905L219.019 103.584H214.584L213.107 99.9046L212.811 103.584H184.006V103.223Z" fill="#2F2E41"/>
<path d="M210.098 125.126C209.695 124.64 209.454 124.064 209.404 123.462C209.353 122.86 209.494 122.258 209.812 121.725C214.115 114.442 220.14 100.986 212.143 92.6869L211.569 92.0913H234.788V123.106L213.696 126.417C213.482 126.45 213.266 126.467 213.049 126.467C212.473 126.467 211.906 126.346 211.393 126.113C210.88 125.88 210.437 125.542 210.099 125.127L210.098 125.126Z" fill="#2F2E41"/>
<path d="M42.3434 53.9233C40.4182 53.9233 38.5362 54.4311 36.9354 55.3826C35.3346 56.3342 34.0869 57.6867 33.35 59.2692C32.6132 60.8516 32.4203 62.5929 32.7958 64.2729C33.1713 65.9529 34.0983 67.4961 35.4596 68.7073C36.8208 69.9186 38.5552 70.7435 40.4434 71.0777C42.3316 71.412 44.2887 71.2406 46.0674 70.5852C47.8461 69.9297 49.3664 68.8198 50.4361 67.3956C51.5058 65.9715 52.0768 64.2971 52.0769 62.5842V62.5838C52.0769 61.4465 51.8251 60.3203 51.3359 59.2696C50.8467 58.2188 50.1297 57.2641 49.2258 56.4599C48.322 55.6557 47.2489 55.0178 46.0679 54.5826C44.8869 54.1473 43.6212 53.9233 42.3429 53.9233H42.3434ZM42.3434 56.5212C42.9209 56.5212 43.4854 56.6736 43.9656 56.9591C44.4458 57.2445 44.82 57.6503 45.041 58.125C45.2621 58.5997 45.3199 59.122 45.2072 59.626C45.0946 60.1299 44.8165 60.5928 44.4081 60.9561C43.9997 61.3194 43.4795 61.5669 42.913 61.6671C42.3466 61.7674 41.7595 61.7159 41.226 61.5193C40.6924 61.3227 40.2364 60.9897 39.9156 60.5625C39.5947 60.1352 39.4234 59.633 39.4234 59.1192C39.4234 58.4301 39.7311 57.7694 40.2787 57.2822C40.8263 56.795 41.569 56.5212 42.3434 56.5212ZM42.3434 69.0287C41.1898 69.024 40.0549 68.769 39.0371 68.2857C38.0194 67.8025 37.1495 67.1056 36.503 66.2556C36.5499 64.5235 40.3966 63.5701 42.3434 63.5701C44.2902 63.5701 48.1369 64.5235 48.1838 66.2556C47.5365 67.105 46.6665 67.8014 45.6489 68.2846C44.6313 68.7677 43.4968 69.0231 42.3434 69.0287Z" fill="#1684AC"/>
<path d="M42.4565 125.448C46.4666 118.91 56.0731 114.77 63.9314 118.502C67.4685 120.182 70.2803 123.153 71.1729 126.664C72.2087 130.744 70.0261 134.633 67.7731 138.061C66.5502 139.921 65.2102 141.743 64.198 143.705C63.1501 145.737 62.401 148.085 63.19 150.296C63.9003 152.287 65.6813 153.736 67.6316 154.8C69.7841 155.931 72.0737 156.84 74.4564 157.512C79.3613 158.963 84.5348 159.559 89.6933 159.266C92.2571 159.111 94.7992 158.745 97.2873 158.174C99.934 157.574 102.531 156.813 105.182 156.225C109.609 155.247 114.655 154.761 118.852 156.726C122.93 158.635 124.755 162.629 125.319 166.514C126.362 173.688 123.164 181.132 117.392 186.156C114.622 188.566 111.137 190.557 107.342 191.372C104.03 192.083 99.7768 192.037 97.1411 189.835C94.2 187.376 94.8919 183.434 97.2278 180.84C100.21 177.531 105.261 176.736 109.768 176.655C114.896 176.564 120.019 177.243 125.143 176.821C127.645 176.648 130.099 176.121 132.414 175.26C134.449 174.464 136.306 173.346 137.894 171.962C141.057 169.227 143.191 165.584 144.252 161.796C145.53 157.241 145.251 152.454 144.26 147.878C143.731 145.519 143.05 143.189 142.221 140.899C141.879 139.933 140.164 140.346 140.509 141.319C143.563 149.935 145.266 159.898 139.365 167.898C136.923 171.291 133.119 173.727 128.728 174.71C123.62 175.84 118.261 175.282 113.069 175.114C108.132 174.954 102.711 175.126 98.4791 177.684C95.0073 179.783 92.5791 183.774 93.6285 187.542C94.6404 191.175 98.5652 193.018 102.491 193.302C106.609 193.601 110.662 192.371 114.121 190.448C121.317 186.447 126.101 179.412 127.102 171.953C127.624 168.066 127.093 163.88 125.112 160.352C124.068 158.442 122.443 156.831 120.422 155.702C118.407 154.603 116.079 154.062 113.741 153.87C108.429 153.435 103.326 155.057 98.287 156.299C95.713 156.963 93.0746 157.411 90.4065 157.637C87.817 157.828 85.2126 157.79 82.6314 157.524C80.0702 157.255 77.546 156.757 75.0975 156.037C72.698 155.377 70.4007 154.453 68.2587 153.286C66.3691 152.211 64.7349 150.671 64.6419 148.573C64.541 146.298 65.8305 144.169 67.0569 142.251C69.4798 138.462 72.4727 134.756 73.1046 130.32C73.658 126.44 71.903 122.615 68.8725 119.848C67.3537 118.443 65.5252 117.332 63.5016 116.586C61.478 115.839 59.3029 115.472 57.1124 115.507C52.6161 115.622 48.311 117.361 45.0037 120.033C43.3635 121.359 41.9832 122.919 40.9197 124.649C40.3719 125.542 41.9046 126.34 42.453 125.446L42.4565 125.448Z" fill="#3F3D56"/>
</g>
<defs>
<clipPath id="clip0_1456_306">
<rect width="311" height="280" fill="white"/>
</clipPath>
</defs>
</svg>
