<svg width="350" height="280" viewBox="0 0 350 280" fill="none" xmlns="http://www.w3.org/2000/svg">
<path d="M56.878 197.709C55.5194 197.711 54.2168 198.416 53.256 199.67C52.2953 200.923 51.7549 202.623 51.7534 204.396V220.039C51.7549 221.812 52.2953 223.511 53.256 224.765C54.2168 226.018 55.5194 226.724 56.878 226.726H63.3781C64.7367 226.724 66.0393 226.018 67.0001 224.765C67.9608 223.511 68.5012 221.812 68.5027 220.039V204.396C68.5012 202.623 67.9608 200.923 67.0001 199.67C66.0393 198.416 64.7367 197.711 63.3781 197.709H56.878Z" fill="#3F3D56"/>
<path d="M177.033 227.246H170.533C169.069 227.244 167.665 226.484 166.629 225.132C165.594 223.781 165.011 221.949 165.01 220.039V204.395C165.011 202.485 165.594 200.653 166.629 199.302C167.665 197.951 169.069 197.191 170.533 197.188H177.033C178.498 197.191 179.902 197.951 180.937 199.302C181.972 200.653 182.555 202.485 182.557 204.395V220.039C182.555 221.949 181.972 223.781 180.937 225.132C179.902 226.484 178.498 227.244 177.033 227.246Z" fill="#3F3D56"/>
<path d="M172.721 214.72H60.7918C55.6979 214.72 51.5537 210.802 51.5537 205.986V177.903L57.1093 170.269H177.484L181.959 177.919V205.986C181.959 210.802 177.815 214.72 172.721 214.72Z" fill="#CCCCCC"/>
<path d="M176.961 184.318H57.7476L56.5361 160.08L57.307 157.6L61.7882 143.211H172.114L178.173 159.55L176.961 184.318Z" fill="#CCCCCC"/>
<path d="M177.971 159.602L177.082 177.813H150.853V164.285L177.225 157.593L177.971 159.602Z" fill="white"/>
<path d="M83.4573 164.285V177.814H57.6232L56.7378 160.122L57.4917 157.698L83.4573 164.285Z" fill="white"/>
<path d="M171.449 147.374H62.4517L74.077 96.8124C74.5511 94.7242 75.5276 92.8904 76.862 91.5821C78.1964 90.2737 79.818 89.5602 81.4872 89.547L153.672 88.6499C155.416 88.6278 157.116 89.368 158.5 90.7524C159.885 92.1369 160.874 94.086 161.311 96.2893L171.449 147.374Z" fill="#CCCCCC"/>
<path d="M163.058 142.593L70.8248 141.166C70.7082 141.164 70.5936 141.127 70.4901 141.056C70.3866 140.986 70.2972 140.885 70.229 140.762C70.1608 140.638 70.1158 140.496 70.0976 140.346C70.0793 140.195 70.0884 140.042 70.1239 139.897L78.9659 103.902C79.0141 103.705 79.1088 103.534 79.2364 103.413C79.364 103.292 79.5178 103.226 79.6757 103.226H153.861C154.019 103.226 154.172 103.291 154.3 103.413C154.427 103.534 154.522 103.705 154.57 103.901L163.777 141.323C163.813 141.47 163.821 141.626 163.802 141.778C163.783 141.93 163.737 142.074 163.666 142.198C163.596 142.322 163.505 142.423 163.399 142.491C163.293 142.56 163.176 142.595 163.058 142.593Z" fill="white"/>
<path d="M62.5199 146.333H46.1694V141.644C46.1707 140.128 46.6328 138.675 47.4543 137.603C48.2759 136.531 49.3897 135.928 50.5515 135.927H62.5199V146.333Z" fill="#CCCCCC"/>
<path d="M187.741 146.333H171.391V135.927H183.359C184.521 135.928 185.635 136.531 186.456 137.603C187.278 138.675 187.74 140.128 187.741 141.644V146.333Z" fill="#CCCCCC"/>
<path d="M44.7467 221.209L0.466309 241.964L-9.58391e-05 240.27L44.2803 219.515L44.7467 221.209Z" fill="#3F3D56"/>
<path d="M188.609 221.4L188.988 220.023L231.107 239.76L230.728 241.136L188.609 221.4Z" fill="#3F3D56"/>
<path d="M121.397 246.599H116.613V238.536H121.397V246.599ZM121.397 230.472H116.613V222.409H121.397V230.472Z" fill="#E6E6E6"/>
<path d="M121.397 280H116.613V271.937H121.397V280ZM121.397 263.873H116.613V255.81H121.397V263.873Z" fill="#E6E6E6"/>
<path d="M262.28 239.76H257.368L255.031 215.643H262.28V239.76Z" fill="#FFB8B8"/>
<path d="M263.73 246.012H247.781V245.759C247.783 243.695 248.438 241.716 249.602 240.256C250.765 238.797 252.343 237.975 253.989 237.973H263.73L263.73 246.012Z" fill="#2F2E41"/>
<path d="M326.076 227.577L321.872 230.827L310.127 211.507L316.333 206.71L326.076 227.577Z" fill="#FFB8B8"/>
<path d="M315.503 243.332L315.395 243.107C314.516 241.267 314.255 239.065 314.669 236.984C315.082 234.903 316.137 233.112 317.601 232.006L326.273 225.468L329.701 232.628L315.503 243.332Z" fill="#2F2E41"/>
<path d="M263.904 235.293L263.819 235.293C261.429 235.283 259.04 235.104 256.665 234.755C255.759 234.638 254.777 234.512 253.593 234.385L253.553 234.375C252.745 234.062 252.723 224.172 253.065 190.322C253.241 172.984 253.439 153.333 253.203 140.818L253.2 140.695L253.271 140.614C262.038 130.657 273.296 126.925 284.972 130.105L285.058 130.128L285.103 130.228C289.933 140.899 297.226 156.271 304.278 171.138C320.467 205.264 325.097 215.3 324.59 216.057L324.528 216.119C323.423 216.841 322.593 217.396 321.887 217.869C319.524 219.451 318.546 220.106 313.291 222.932L313.162 223.002L313.067 222.866C296.641 199.361 282.971 173.104 274.516 148.831C273.528 157.117 272.328 167.938 271.061 179.371C267.418 212.248 264.955 233.896 263.964 235.214L263.904 235.293Z" fill="#2F2E41"/>
<path d="M289.458 36.1028C291.139 27.3189 292.563 17.4117 289.393 9.32174C287.193 3.7085 279.056 1.81821 274.392 3.84043C269.728 5.86266 266.355 11.3491 264.872 17.3311C263.389 23.3131 263.561 29.7591 264.208 35.9777C272.786 35.7692 281.365 35.5606 289.458 36.1028Z" fill="#2F2E41"/>
<path d="M274.968 36.1027C280.373 36.1027 284.754 30.504 284.754 23.5975C284.754 16.6911 280.373 11.0923 274.968 11.0923C269.562 11.0923 265.181 16.6911 265.181 23.5975C265.181 30.504 269.562 36.1027 274.968 36.1027Z" fill="#FFB8B8"/>
<path d="M286.927 21.3734C286.958 19.1991 286.657 17.0386 286.041 15.0204C285.426 13.0023 284.508 11.1676 283.344 9.62543C282.179 8.08326 280.791 6.86505 279.262 6.04319C277.733 5.22133 276.094 4.81259 274.442 4.84125C272.79 4.86992 271.16 5.33541 269.648 6.21007C268.136 7.08472 266.772 8.35069 265.639 9.93275C264.506 11.5148 263.626 13.3807 263.051 15.4195C262.476 17.4583 262.218 19.6285 262.293 21.801C270.691 21.8245 279.09 21.848 286.927 21.3734Z" fill="#2F2E41"/>
<path d="M268.305 143.287C278.096 143.23 287.822 145.346 297.065 149.543C297.386 129.388 292.046 109.195 282.389 94.0881L282.317 93.9753L282.354 93.8367C284.933 84.1534 287.599 74.1445 289.981 64.1851L289.945 64.0179C288.275 56.3005 284.689 48.5021 278.983 40.1765C278.364 39.3433 277.524 38.8471 276.634 38.7886C275.744 38.73 274.87 39.1134 274.189 39.861C264.047 51.9417 258.532 70.0424 259.797 87.0999L259.801 87.15L259.79 87.1985C255.322 106.866 253.7 116.968 252.269 125.881C251.225 132.383 250.321 138.013 248.506 146.057C255.011 144.218 261.649 143.289 268.305 143.287Z" fill="#3F3D56"/>
<path opacity="0.1" d="M282.579 80.7642L267.815 122.746L259.381 111.595L282.579 80.7642Z" fill="black"/>
<path d="M255.93 104.042L256.945 106.562C256.954 106.585 256.956 106.612 256.95 106.637C256.943 106.662 256.93 106.683 256.911 106.695L256.863 106.727L262.147 119.853C262.293 120.216 262.32 120.639 262.223 121.028C262.125 121.417 261.911 121.74 261.627 121.927L255.211 126.148C255.07 126.241 254.917 126.297 254.759 126.314C254.602 126.33 254.443 126.307 254.292 126.245C254.142 126.184 254.002 126.085 253.881 125.954C253.761 125.823 253.661 125.663 253.589 125.483L248.49 112.818L248.454 112.841C248.441 112.85 248.427 112.851 248.413 112.846C248.399 112.84 248.387 112.828 248.381 112.811L247.804 111.377C247.8 111.369 247.798 111.36 247.798 111.351C247.797 111.342 247.798 111.333 247.8 111.324C247.802 111.315 247.806 111.307 247.81 111.3C247.815 111.293 247.821 111.287 247.827 111.283L247.863 111.26L247.645 110.72L247.609 110.743C247.596 110.752 247.58 110.754 247.566 110.748C247.551 110.742 247.539 110.729 247.532 110.711L246.963 109.297C246.956 109.28 246.955 109.26 246.959 109.241C246.964 109.223 246.974 109.208 246.988 109.199L247.023 109.175L246.726 108.438L246.69 108.462C246.678 108.47 246.664 108.471 246.652 108.466C246.639 108.461 246.628 108.449 246.622 108.434L246.311 107.662C246.305 107.647 246.304 107.629 246.308 107.612C246.312 107.596 246.321 107.582 246.333 107.574L246.369 107.551L245.74 105.988C245.594 105.624 245.566 105.202 245.664 104.813C245.761 104.424 245.976 104.101 246.26 103.914L252.676 99.6927C252.96 99.5058 253.29 99.4708 253.594 99.5954C253.899 99.72 254.152 99.9939 254.298 100.357L255.777 104.031L255.826 103.999C255.844 103.987 255.866 103.985 255.885 103.993C255.905 104.001 255.921 104.019 255.93 104.042Z" fill="#3F3D56"/>
<path d="M253.803 100.958L261.472 120.731C261.563 120.967 261.58 121.241 261.519 121.493C261.458 121.745 261.324 121.955 261.147 122.076L255.097 126.208C254.92 126.329 254.714 126.352 254.524 126.272C254.334 126.192 254.176 126.015 254.084 125.78L254.083 125.777L246.415 106.004C246.369 105.887 246.342 105.76 246.334 105.629C246.325 105.498 246.337 105.366 246.367 105.241C246.397 105.116 246.446 105.001 246.509 104.901C246.573 104.8 246.651 104.718 246.739 104.658L247.645 104.04L247.705 104.194C247.742 104.29 247.793 104.375 247.855 104.445C247.917 104.515 247.989 104.568 248.067 104.601C248.144 104.634 248.226 104.646 248.307 104.637C248.388 104.628 248.467 104.598 248.54 104.549L251.616 102.448C251.762 102.348 251.873 102.175 251.923 101.967C251.973 101.759 251.959 101.534 251.884 101.34L251.824 101.185L252.789 100.526C252.966 100.405 253.173 100.382 253.363 100.463C253.553 100.544 253.711 100.721 253.803 100.957L253.803 100.958Z" fill="#1684AC"/>
<path d="M250.038 124.517C250.636 124.464 251.217 124.244 251.74 123.873C252.264 123.502 252.718 122.989 253.07 122.369C253.421 121.749 253.663 121.039 253.776 120.287C253.89 119.536 253.873 118.762 253.727 118.019L265.905 107.823L258.96 103.988L248.46 114.259C247.501 114.655 246.688 115.487 246.176 116.597C245.665 117.708 245.489 119.019 245.684 120.284C245.878 121.548 246.429 122.678 247.231 123.458C248.034 124.238 249.033 124.615 250.038 124.517Z" fill="#FFB8B8"/>
<path d="M261.586 117.387L261.434 117.249C258.57 114.542 255.39 111.742 252.316 109.035L252.131 108.872L252.276 108.653C258.839 98.7919 265.409 88.4915 271.764 78.5271C271.759 78.5112 271.755 78.4996 271.752 78.4912L271.811 78.4521L271.837 78.4125L271.85 78.4268L271.889 78.4019L271.715 78.419L269.757 58.6922C267.988 55.5926 267.649 49.4388 269.967 45.143C272.369 40.693 277.449 39.2037 280.84 41.9546C281.728 42.7205 282.471 43.7331 283.014 44.9176C283.556 46.102 283.884 47.428 283.973 48.7972C284.099 50.0171 284.011 51.2577 283.716 52.4284C283.421 53.5991 282.926 54.6704 282.267 55.5641C283.1 66.0039 283.132 75.3354 283.163 84.3616L283.163 84.4517L283.12 84.526C276.345 95.5795 268.904 106.574 261.707 117.207L261.586 117.387Z" fill="#3F3D56"/>
<path d="M116.812 61.9428C129.921 61.9428 140.549 48.0764 140.549 30.9714C140.549 13.8664 129.921 0 116.812 0C103.702 0 93.0747 13.8664 93.0747 30.9714C93.0747 48.0764 103.702 61.9428 116.812 61.9428Z" fill="#1684AC"/>
<path d="M114.549 44.0454L107.445 32.1264L111.576 27.9335L114.94 33.577L126.304 17.9243L130.105 22.6221L114.549 44.0454Z" fill="white"/>
<path d="M349.531 246.905H237.376C237.252 246.905 237.133 246.858 237.045 246.775C236.957 246.691 236.907 246.577 236.907 246.459C236.907 246.34 236.957 246.227 237.045 246.143C237.133 246.059 237.252 246.012 237.376 246.012H349.531C349.655 246.012 349.775 246.059 349.863 246.143C349.951 246.227 350 246.34 350 246.459C350 246.577 349.951 246.691 349.863 246.775C349.775 246.858 349.655 246.905 349.531 246.905Z" fill="#3F3D56"/>
</svg>
