<svg width="350" height="280" viewBox="0 0 350 280" fill="none" xmlns="http://www.w3.org/2000/svg">
<path d="M273.815 209.559C273.306 209.213 272.884 208.767 272.578 208.251C272.272 207.735 272.09 207.162 272.046 206.573C272.001 205.984 272.094 205.393 272.318 204.841C272.543 204.29 272.893 203.791 273.345 203.381L266.915 190.36L274.763 191.463L279.666 203.658C280.349 204.417 280.713 205.385 280.688 206.379C280.662 207.373 280.25 208.324 279.529 209.052C278.808 209.779 277.828 210.232 276.775 210.326C275.722 210.419 274.669 210.147 273.815 209.559Z" fill="#A0616A"/>
<path d="M270.148 270.574L265.173 272.12L256.463 254.819L263.806 252.538L270.148 270.574Z" fill="#FFB8B8"/>
<path d="M261.15 271.888L270.744 268.907L272.74 274.585L257.106 279.443C256.844 278.697 256.74 277.91 256.802 277.127C256.863 276.344 257.088 275.58 257.463 274.878C257.839 274.177 258.358 273.551 258.99 273.038C259.623 272.525 260.357 272.134 261.15 271.888Z" fill="#2F2E41"/>
<path d="M237.33 274.87L232.09 274.869L229.598 255.873L237.331 255.873L237.33 274.87Z" fill="#FFB8B8"/>
<path d="M228.348 273.462H238.452V279.443H221.986C221.986 278.657 222.15 277.88 222.47 277.154C222.79 276.429 223.258 275.769 223.849 275.214C224.44 274.659 225.141 274.218 225.913 273.918C226.685 273.617 227.512 273.462 228.348 273.462Z" fill="#2F2E41"/>
<path d="M232.487 204.352L232.22 205.463C228.61 220.491 227.324 242.358 228.403 257.731L229.235 269.606C229.264 270.013 229.456 270.395 229.773 270.673C230.09 270.952 230.507 271.107 230.941 271.107H237.222C237.641 271.107 238.045 270.963 238.358 270.701C238.671 270.44 238.871 270.079 238.92 269.688L243.795 230.735C243.841 230.37 244.018 230.031 244.298 229.774C244.578 229.517 244.942 229.358 245.332 229.323C245.721 229.289 246.111 229.381 246.437 229.584C246.763 229.787 247.005 230.089 247.123 230.439L259.758 265.639C259.861 265.948 260.062 266.221 260.333 266.42C260.605 266.62 260.934 266.738 261.278 266.759L270.872 267.341C271.149 267.358 271.426 267.311 271.68 267.205C271.933 267.098 272.155 266.935 272.326 266.73C272.498 266.525 272.614 266.284 272.664 266.027C272.714 265.77 272.696 265.506 272.614 265.257L266.838 250.33C262.376 236.933 259.977 216.578 259.715 202.542C259.711 202.321 259.658 202.102 259.56 201.901C259.462 201.7 259.321 201.52 259.145 201.372C258.969 201.224 258.763 201.113 258.539 201.043C258.315 200.974 258.078 200.95 257.844 200.971L233.992 203.106C233.634 203.138 233.295 203.276 233.025 203.499C232.754 203.723 232.566 204.021 232.487 204.352Z" fill="#2F2E41"/>
<path d="M246.453 141.952C252.25 141.952 256.949 137.534 256.949 132.085C256.949 126.636 252.25 122.218 246.453 122.218C240.656 122.218 235.957 126.636 235.957 132.085C235.957 137.534 240.656 141.952 246.453 141.952Z" fill="#A0616A"/>
<path d="M239.563 207.584C237.473 207.58 235.384 207.477 233.305 207.274C232.637 207.206 232.024 206.894 231.597 206.407C231.17 205.919 230.963 205.294 231.019 204.665L234.598 172.163C235.461 162.97 236.794 154.095 243.54 146.579C243.769 146.325 244.052 146.117 244.371 145.97C244.689 145.823 245.037 145.74 245.391 145.725L245.645 145.716C248.306 145.612 249.532 145.703 249.877 146.027L251.733 147.746C263.051 155.615 263.521 205.459 260.733 204.476C260.193 204.287 253.752 204.477 253.304 204.765C249.668 207.094 243.825 207.584 239.563 207.584Z" fill="#1684AC"/>
<path d="M198.382 189.544C198.649 189.009 199.038 188.536 199.52 188.158C200.003 187.78 200.568 187.506 201.175 187.356C201.783 187.205 202.418 187.181 203.036 187.287C203.654 187.392 204.241 187.623 204.753 187.964L217.174 179.612L217.475 187.066L205.634 193.855C204.967 194.627 204.023 195.142 202.979 195.303C201.935 195.464 200.865 195.259 199.971 194.727C199.077 194.196 198.421 193.375 198.128 192.419C197.836 191.464 197.926 190.441 198.382 189.544Z" fill="#A0616A"/>
<path d="M210.717 191.747L206.51 184.786L244.829 158.813C245.694 158.227 246.678 157.815 247.72 157.602C248.762 157.39 249.839 157.382 250.884 157.578C251.93 157.775 252.921 158.172 253.796 158.744C254.67 159.317 255.41 160.054 255.968 160.907C256.527 161.761 256.892 162.714 257.041 163.706C257.19 164.698 257.12 165.709 256.835 166.674C256.549 167.64 256.055 168.54 255.384 169.318C254.712 170.096 253.876 170.736 252.93 171.196L210.717 191.747Z" fill="#1684AC"/>
<path d="M251.169 140.427C251.524 140.756 251.994 140.954 252.492 140.984C252.991 141.014 253.484 140.874 253.881 140.59C256.355 138.866 258.526 136.721 259.812 134.104C261.284 131.105 261.449 127.425 259.673 124.575C258.172 122.165 255.521 120.61 252.88 119.334C251.854 118.79 250.749 118.389 249.6 118.146C248.439 117.905 247.224 118.089 246.202 118.661C245.702 118.956 245.309 119.385 245.072 119.893C244.836 120.401 244.768 120.965 244.877 121.51C243.608 120.149 241.983 119.123 240.163 118.535C239.017 118.113 237.761 118.028 236.562 118.289C234.886 118.736 233.662 120.136 232.993 121.649C232.451 122.799 232.265 124.069 232.453 125.314C232.553 125.934 232.789 126.527 233.148 127.055C233.506 127.584 233.979 128.035 234.535 128.381C235.921 129.187 237.689 129.129 239.28 128.8C240.872 128.471 242.413 127.898 244.035 127.753C245.658 127.608 247.465 127.988 248.452 129.207C249.147 130.066 249.326 131.187 249.482 132.256L250.294 137.815C250.36 138.62 250.579 139.406 250.939 140.138C251.002 140.244 251.079 140.341 251.169 140.427Z" fill="#2F2E41"/>
<path d="M278.115 195.727L270.71 199.682L243.08 163.661C242.456 162.848 242.018 161.923 241.792 160.943C241.565 159.964 241.557 158.951 241.766 157.969C241.975 156.986 242.397 156.054 243.007 155.232C243.616 154.41 244.399 153.715 245.307 153.19C246.215 152.665 247.229 152.321 248.285 152.181C249.34 152.041 250.415 152.107 251.442 152.375C252.47 152.644 253.427 153.108 254.255 153.74C255.082 154.371 255.763 155.156 256.253 156.046L278.115 195.727Z" fill="#1684AC"/>
<path d="M210.664 66.3978H209.031V24.3418C209.031 17.886 206.303 11.6945 201.447 7.12955C196.59 2.56458 190.004 3.19629e-06 183.136 0H88.3474C81.4797 0 74.8932 2.56457 70.037 7.12955C65.1808 11.6945 62.4526 17.886 62.4526 24.3418V255.068C62.4526 261.524 65.1808 267.715 70.037 272.28C74.8932 276.845 81.4797 279.41 88.3474 279.41H183.136C190.004 279.41 196.59 276.845 201.446 272.28C206.302 267.715 209.031 261.524 209.031 255.068V96.334H210.664L210.664 66.3978Z" fill="#E6E6E6"/>
<path d="M184.181 6.33057H171.809C172.378 7.64199 172.595 9.06484 172.441 10.4738C172.288 11.8827 171.768 13.2344 170.927 14.4099C170.087 15.5854 168.951 16.5485 167.622 17.2144C166.292 17.8803 164.808 18.2286 163.302 18.2285H108.998C107.492 18.2285 106.008 17.8801 104.679 17.2141C103.349 16.5482 102.214 15.585 101.374 14.4096C100.533 13.2341 100.013 11.8824 99.8594 10.4736C99.7057 9.06471 99.9229 7.64193 100.492 6.33057H88.9356C83.8069 6.33057 78.8882 8.24577 75.2616 11.6548C71.635 15.0639 69.5977 19.6876 69.5977 24.5088V254.9C69.5977 259.721 71.635 264.345 75.2616 267.754C78.8882 271.163 83.8069 273.078 88.9356 273.078H184.181C189.31 273.078 194.228 271.163 197.855 267.754C201.482 264.345 203.519 259.721 203.519 254.9V24.5084C203.519 19.6873 201.481 15.0637 197.855 11.6547C194.228 8.24571 189.31 6.33056 184.181 6.33057Z" fill="white"/>
<path d="M136.558 142.611C127.684 142.611 119.008 140.137 111.629 135.502C104.25 130.867 98.4984 124.28 95.1022 116.572C91.706 108.865 90.8174 100.384 92.5487 92.2012C94.2801 84.019 98.5538 76.5031 104.829 70.604C111.105 64.7049 119.1 60.6876 127.804 59.06C136.509 57.4325 145.531 58.2678 153.73 61.4603C161.929 64.6529 168.937 70.0593 173.868 76.9959C178.798 83.9325 181.43 92.0877 181.43 100.43C181.417 111.613 176.685 122.335 168.273 130.243C159.86 138.15 148.455 142.598 136.558 142.611ZM136.558 59.053C127.853 59.053 119.342 61.4797 112.104 66.0263C104.865 70.5729 99.2234 77.0352 95.8919 84.5959C92.5603 92.1566 91.6886 100.476 93.387 108.503C95.0854 116.529 99.2777 123.902 105.434 129.689C111.589 135.475 119.433 139.416 127.971 141.013C136.51 142.609 145.36 141.79 153.403 138.658C161.446 135.526 168.321 130.223 173.157 123.418C177.994 116.614 180.575 108.614 180.575 100.43C180.562 89.4602 175.921 78.9429 167.669 71.1858C159.417 63.4287 148.228 59.0654 136.558 59.053Z" fill="#3F3D56"/>
<path d="M153.039 88.1772C156.882 85.1247 159.216 80.3025 158.604 75.6082C157.992 70.9138 154.2 66.5983 149.282 65.6014C144.364 64.6045 138.757 67.364 137.263 71.8802C136.441 63.1731 135.494 54.1012 130.569 46.6863C126.11 39.9722 118.387 35.1681 110.017 34.3086C101.647 33.4492 92.8338 36.6953 87.6136 42.9056C82.3934 49.1159 81.1152 58.1445 84.7713 65.2744C87.4646 70.5268 92.4267 74.4357 97.6257 77.6158C114.212 87.7614 134.788 91.1893 154.366 88.4809L153.039 88.1772Z" fill="#E6E6E6"/>
<path d="M95.8906 36.8747C102.797 42.1628 109.133 48.0771 114.807 54.532C123.686 64.5995 130.872 75.8869 136.113 88.0011C136.496 88.8848 134.97 89.2695 134.59 88.3956C126.015 68.7075 112.326 51.3547 94.7742 37.9241C93.9861 37.3208 95.1089 36.2764 95.8906 36.8747Z" fill="white"/>
<path d="M98.2414 183.988C100.838 183.988 102.942 182.01 102.942 179.569C102.942 177.129 100.838 175.15 98.2414 175.15C95.6452 175.15 93.5405 177.129 93.5405 179.569C93.5405 182.01 95.6452 183.988 98.2414 183.988Z" fill="#3F3D56"/>
<path d="M176.158 182.783H116.328C115.422 182.783 114.552 182.444 113.911 181.842C113.27 181.239 112.91 180.422 112.91 179.569C112.91 178.717 113.27 177.899 113.911 177.297C114.552 176.694 115.422 176.355 116.328 176.355H176.158C177.064 176.355 177.934 176.694 178.575 177.297C179.216 177.899 179.576 178.717 179.576 179.569C179.576 180.422 179.216 181.239 178.575 181.842C177.934 182.444 177.064 182.783 176.158 182.783Z" fill="#CCCCCC"/>
<path d="M157.601 182.822H116.081C115.163 182.822 114.283 182.479 113.635 181.869C112.986 181.259 112.621 180.432 112.621 179.569C112.621 178.707 112.986 177.88 113.635 177.27C114.283 176.66 115.163 176.317 116.081 176.317H157.601C158.519 176.317 159.399 176.66 160.048 177.27C160.697 177.88 161.061 178.707 161.061 179.569C161.061 180.432 160.697 181.259 160.048 181.869C159.399 182.479 158.519 182.822 157.601 182.822Z" fill="#1684AC"/>
<path d="M98.2414 203.271C100.838 203.271 102.942 201.293 102.942 198.852C102.942 196.412 100.838 194.433 98.2414 194.433C95.6452 194.433 93.5405 196.412 93.5405 198.852C93.5405 201.293 95.6452 203.271 98.2414 203.271Z" fill="#3F3D56"/>
<path d="M176.158 202.066H116.328C115.422 202.066 114.552 201.728 113.911 201.125C113.27 200.522 112.91 199.705 112.91 198.852C112.91 198 113.27 197.183 113.911 196.58C114.552 195.977 115.422 195.639 116.328 195.639H176.158C177.064 195.639 177.934 195.977 178.575 196.58C179.216 197.183 179.576 198 179.576 198.852C179.576 199.705 179.216 200.522 178.575 201.125C177.934 201.728 177.064 202.066 176.158 202.066Z" fill="#CCCCCC"/>
<path d="M98.2414 222.554C100.838 222.554 102.942 220.575 102.942 218.135C102.942 215.694 100.838 213.716 98.2414 213.716C95.6452 213.716 93.5405 215.694 93.5405 218.135C93.5405 220.575 95.6452 222.554 98.2414 222.554Z" fill="#3F3D56"/>
<path d="M176.158 221.349H116.328C115.422 221.349 114.552 221.01 113.911 220.408C113.27 219.805 112.91 218.988 112.91 218.135C112.91 217.283 113.27 216.465 113.911 215.863C114.552 215.26 115.422 214.921 116.328 214.921H176.158C177.064 214.921 177.934 215.26 178.575 215.863C179.216 216.465 179.576 217.283 179.576 218.135C179.576 218.988 179.216 219.805 178.575 220.408C177.934 221.01 177.064 221.349 176.158 221.349Z" fill="#CCCCCC"/>
<path d="M143.926 202.105H116.081C115.163 202.105 114.283 201.762 113.635 201.152C112.986 200.542 112.621 199.715 112.621 198.852C112.621 197.99 112.986 197.162 113.635 196.552C114.283 195.942 115.163 195.6 116.081 195.6H143.926C144.844 195.6 145.724 195.942 146.373 196.552C147.022 197.162 147.386 197.99 147.386 198.852C147.386 199.715 147.022 200.542 146.373 201.152C145.724 201.762 144.844 202.105 143.926 202.105Z" fill="#1684AC"/>
<path d="M168.713 221.387H116.081C115.163 221.387 114.283 221.045 113.635 220.435C112.986 219.825 112.621 218.997 112.621 218.135C112.621 217.272 112.986 216.445 113.635 215.835C114.283 215.225 115.163 214.882 116.081 214.882H168.713C169.63 214.882 170.51 215.225 171.159 215.835C171.808 216.445 172.173 217.272 172.173 218.135C172.173 218.997 171.808 219.825 171.159 220.435C170.51 221.045 169.63 221.387 168.713 221.387Z" fill="#1684AC"/>
<path d="M160.316 93.8714H154.443V77.5558C154.443 77.0765 154.646 76.617 155.007 76.2781C155.367 75.9392 155.856 75.7486 156.366 75.748H158.393C158.903 75.7486 159.392 75.9392 159.753 76.2781C160.113 76.617 160.316 77.0765 160.316 77.5558V93.8714Z" fill="#3F3D56"/>
<path d="M163.877 121.635H107.732L107.531 91.8895C107.529 91.43 107.625 90.9747 107.813 90.5508C108.002 90.1268 108.279 89.7428 108.629 89.4215L122.733 76.5077C123.402 75.893 124.298 75.5459 125.234 75.5393L148.84 75.3365C149.375 75.3334 149.905 75.4408 150.391 75.6511C150.877 75.8615 151.308 76.1696 151.654 76.5538L151.656 76.5562L162.868 89.4817C163.52 90.2349 163.876 91.1761 163.877 92.1472L163.877 121.635Z" fill="#3F3D56"/>
<path d="M163.877 121.636H133.705V94.977C133.705 94.1648 134.013 93.3792 134.574 92.7611L147.683 78.3134C148.024 77.9373 148.447 77.6354 148.925 77.4284C149.402 77.2214 149.921 77.1143 150.447 77.1147H150.461C150.988 77.1162 151.51 77.226 151.988 77.4364C152.466 77.6469 152.889 77.9529 153.228 78.3331L163.026 89.2976C163.575 89.913 163.877 90.6906 163.877 91.494V121.636Z" fill="#1684AC"/>
<path d="M151.078 111.396H146.713C146.43 111.396 146.158 111.29 145.958 111.102C145.758 110.914 145.645 110.658 145.645 110.392V106.952C145.645 106.685 145.758 106.43 145.958 106.242C146.158 106.053 146.43 105.948 146.713 105.947H151.078C151.361 105.948 151.633 106.053 151.833 106.242C152.034 106.43 152.146 106.685 152.147 106.952V110.392C152.146 110.658 152.034 110.914 151.833 111.102C151.633 111.29 151.361 111.396 151.078 111.396Z" fill="white"/>
<path d="M151.078 102.58H146.713C146.43 102.58 146.158 102.474 145.958 102.286C145.758 102.097 145.645 101.842 145.645 101.576V98.2152C145.645 97.949 145.758 97.6937 145.958 97.5054C146.158 97.3172 146.43 97.2113 146.713 97.2109H151.078C151.361 97.2113 151.633 97.3172 151.833 97.5054C152.034 97.6937 152.146 97.949 152.147 98.2152V101.576C152.146 101.842 152.034 102.097 151.833 102.286C151.633 102.474 151.361 102.58 151.078 102.58Z" fill="white"/>
<path d="M124.082 110.057H119.717C119.434 110.057 119.162 109.951 118.962 109.763C118.761 109.575 118.649 109.319 118.648 109.053V105.613C118.649 105.346 118.761 105.091 118.962 104.903C119.162 104.715 119.434 104.609 119.717 104.608H124.082C124.365 104.609 124.637 104.715 124.837 104.903C125.037 105.091 125.15 105.346 125.15 105.613V109.053C125.15 109.319 125.037 109.575 124.837 109.763C124.637 109.951 124.365 110.057 124.082 110.057Z" fill="white"/>
<path d="M124.082 101.241H119.717C119.434 101.241 119.162 101.135 118.962 100.946C118.761 100.758 118.649 100.503 118.648 100.237V96.8764C118.649 96.6101 118.761 96.3548 118.962 96.1666C119.162 95.9783 119.434 95.8724 119.717 95.8721H124.082C124.365 95.8724 124.637 95.9783 124.837 96.1666C125.037 96.3548 125.15 96.6101 125.15 96.8764V100.237C125.15 100.503 125.037 100.758 124.837 100.946C124.637 101.135 124.365 101.241 124.082 101.241Z" fill="white"/>
<path d="M174.743 121.984H98.3736C98.2603 121.984 98.1516 121.941 98.0715 121.866C97.9913 121.791 97.9463 121.688 97.9463 121.582C97.9463 121.475 97.9913 121.373 98.0715 121.298C98.1516 121.222 98.2603 121.18 98.3736 121.18H174.743C174.856 121.18 174.965 121.222 175.045 121.298C175.125 121.373 175.17 121.475 175.17 121.582C175.17 121.688 175.125 121.791 175.045 121.866C174.965 121.941 174.856 121.984 174.743 121.984Z" fill="#3F3D56"/>
<path d="M349.573 280H0.42735C0.31401 280 0.205311 279.957 0.125168 279.882C0.045024 279.807 0 279.705 0 279.598C0 279.491 0.045024 279.389 0.125168 279.314C0.205311 279.239 0.31401 279.196 0.42735 279.196H349.573C349.686 279.196 349.795 279.239 349.875 279.314C349.955 279.389 350 279.491 350 279.598C350 279.705 349.955 279.807 349.875 279.882C349.795 279.957 349.686 280 349.573 280Z" fill="#3F3D56"/>
</svg>
