<svg width="449" height="375" viewBox="0 0 449 375" fill="none" xmlns="http://www.w3.org/2000/svg">
<path d="M346.561 362.377L340.179 364.446L329.006 341.275L338.425 338.22L346.561 362.377Z" fill="#FFB8B8"/>
<path d="M335.018 364.136L347.325 360.143L349.887 367.748L329.83 374.254C329.494 373.255 329.361 372.201 329.44 371.152C329.518 370.103 329.807 369.08 330.289 368.14C330.77 367.201 331.436 366.363 332.247 365.676C333.059 364.989 334 364.466 335.018 364.136Z" fill="#2F2E41"/>
<path d="M304.46 368.129L297.739 368.128L294.541 342.687L304.461 342.687L304.46 368.129Z" fill="#FFB8B8"/>
<path d="M292.938 366.244H305.9V374.253H284.776C284.776 373.202 284.987 372.16 285.397 371.188C285.808 370.216 286.409 369.334 287.167 368.59C287.924 367.846 288.824 367.256 289.814 366.854C290.804 366.451 291.866 366.244 292.938 366.244Z" fill="#2F2E41"/>
<path d="M298.247 273.685L297.905 275.174C293.274 295.301 291.624 324.586 293.008 345.175L294.076 361.08C294.113 361.625 294.359 362.136 294.766 362.509C295.172 362.882 295.708 363.09 296.264 363.09H304.322C304.86 363.09 305.378 362.897 305.78 362.546C306.181 362.196 306.437 361.713 306.5 361.19L312.754 309.021C312.813 308.532 313.041 308.077 313.399 307.733C313.758 307.389 314.226 307.176 314.725 307.13C315.225 307.083 315.725 307.206 316.144 307.478C316.562 307.75 316.872 308.155 317.023 308.624L333.232 355.767C333.365 356.181 333.622 356.546 333.97 356.813C334.318 357.081 334.741 357.239 335.182 357.267L347.49 358.046C347.846 358.069 348.201 358.006 348.526 357.863C348.851 357.721 349.136 357.503 349.356 357.228C349.576 356.953 349.724 356.63 349.788 356.286C349.853 355.943 349.831 355.589 349.724 355.255L342.315 335.263C336.59 317.322 333.513 290.06 333.177 271.262C333.172 270.965 333.104 270.673 332.978 270.403C332.852 270.134 332.671 269.892 332.446 269.695C332.22 269.497 331.956 269.347 331.668 269.255C331.381 269.162 331.078 269.129 330.777 269.157L300.178 272.017C299.719 272.06 299.284 272.244 298.937 272.544C298.591 272.844 298.349 273.243 298.247 273.685Z" fill="#2F2E41"/>
<path d="M316.164 190.113C323.601 190.113 329.629 184.197 329.629 176.899C329.629 169.601 323.601 163.685 316.164 163.685C308.728 163.685 302.699 169.601 302.699 176.899C302.699 184.197 308.728 190.113 316.164 190.113Z" fill="#A0616A"/>
<path d="M307.325 278.015C304.644 278.009 301.964 277.871 299.297 277.599C298.44 277.508 297.653 277.091 297.106 276.438C296.558 275.785 296.292 274.947 296.365 274.105L300.956 230.575C302.063 218.263 303.773 206.378 312.427 196.312C312.721 195.971 313.084 195.693 313.493 195.496C313.901 195.299 314.347 195.187 314.802 195.167L315.127 195.155C318.541 195.016 320.114 195.138 320.557 195.573L322.937 197.875C337.457 208.413 338.06 275.168 334.483 273.852C333.791 273.599 325.528 273.853 324.952 274.239C320.288 277.358 312.792 278.014 307.325 278.015Z" fill="#1684AC"/>
<path d="M254.495 253.853C254.838 253.137 255.336 252.504 255.956 251.997C256.575 251.491 257.299 251.124 258.079 250.923C258.858 250.721 259.673 250.689 260.466 250.83C261.259 250.971 262.011 251.281 262.669 251.738L278.603 240.552L278.989 250.535L263.799 259.627C262.944 260.661 261.732 261.351 260.393 261.566C259.053 261.782 257.68 261.507 256.534 260.796C255.387 260.084 254.546 258.984 254.17 257.704C253.794 256.425 253.91 255.055 254.495 253.853Z" fill="#A0616A"/>
<path d="M270.319 256.804L264.923 247.481L314.081 212.696C315.19 211.911 316.452 211.359 317.789 211.074C319.125 210.79 320.507 210.779 321.848 211.042C323.189 211.305 324.461 211.837 325.583 212.604C326.705 213.371 327.654 214.357 328.37 215.501C329.087 216.644 329.555 217.92 329.746 219.249C329.938 220.578 329.847 221.931 329.482 223.224C329.116 224.518 328.482 225.723 327.62 226.765C326.758 227.807 325.686 228.663 324.472 229.281L270.319 256.804Z" fill="#1684AC"/>
<path d="M322.214 188.072C322.67 188.513 323.273 188.778 323.912 188.818C324.551 188.858 325.183 188.671 325.693 188.29C328.866 185.982 331.652 183.108 333.301 179.603C335.19 175.587 335.401 170.658 333.123 166.841C331.198 163.614 327.798 161.532 324.409 159.822C323.093 159.093 321.676 158.557 320.202 158.231C318.712 157.908 317.153 158.155 315.843 158.921C315.201 159.316 314.696 159.891 314.393 160.571C314.09 161.252 314.002 162.006 314.143 162.736C312.515 160.913 310.43 159.54 308.095 158.752C306.624 158.187 305.014 158.073 303.476 158.423C301.325 159.022 299.755 160.897 298.897 162.922C298.202 164.463 297.962 166.164 298.204 167.831C298.332 168.661 298.635 169.456 299.095 170.163C299.555 170.871 300.161 171.476 300.875 171.939C302.653 173.019 304.921 172.941 306.963 172.5C309.005 172.059 310.981 171.292 313.063 171.098C315.144 170.904 317.462 171.413 318.729 173.045C319.621 174.195 319.85 175.697 320.05 177.128L321.091 184.574C321.177 185.651 321.457 186.705 321.919 187.685C321.999 187.826 322.098 187.956 322.214 188.072Z" fill="#2F2E41"/>
<path d="M351.266 280.66C350.613 280.196 350.071 279.598 349.679 278.907C349.287 278.216 349.054 277.45 348.996 276.661C348.938 275.872 349.058 275.08 349.346 274.341C349.634 273.603 350.083 272.935 350.663 272.385L342.414 254.946L352.482 256.423L358.772 272.757C359.649 273.773 360.115 275.07 360.082 276.401C360.05 277.732 359.521 279.006 358.596 279.98C357.671 280.954 356.414 281.561 355.063 281.687C353.712 281.812 352.361 281.446 351.266 280.66Z" fill="#A0616A"/>
<path d="M356.782 262.135L347.282 267.431L311.837 219.189C311.037 218.1 310.474 216.861 310.184 215.549C309.894 214.238 309.883 212.882 310.151 211.565C310.42 210.249 310.961 209.002 311.743 207.9C312.525 206.799 313.53 205.868 314.695 205.165C315.86 204.462 317.16 204.002 318.514 203.815C319.868 203.627 321.247 203.715 322.565 204.074C323.883 204.434 325.111 205.055 326.173 205.901C327.235 206.747 328.107 207.799 328.736 208.991L356.782 262.135Z" fill="#1684AC"/>
<path d="M270.252 88.9256H268.157V32.6006C268.157 23.9544 264.657 15.6623 258.427 9.54851C252.197 3.4347 243.748 4.28075e-06 234.938 0H113.337C104.527 0 96.0774 3.4347 89.8476 9.5485C83.6178 15.6623 80.1179 23.9544 80.1179 32.6006V341.609C80.1179 350.255 83.6178 358.547 89.8476 364.661C96.0774 370.775 104.527 374.21 113.337 374.21H234.938C243.748 374.209 252.197 370.775 258.427 364.661C264.657 358.547 268.156 350.255 268.156 341.609V129.019H270.251L270.252 88.9256Z" fill="#E6E6E6"/>
<path d="M236.278 8.47827H220.406C221.136 10.2346 221.415 12.1402 221.218 14.0272C221.02 15.9141 220.353 17.7245 219.275 19.2988C218.197 20.8731 216.741 22.163 215.035 23.0548C213.329 23.9467 211.426 24.4131 209.493 24.4131H139.829C137.897 24.413 135.994 23.9464 134.288 23.0545C132.582 22.1626 131.126 20.8726 130.048 19.2984C128.97 17.7241 128.303 15.9138 128.105 14.0269C127.908 12.1401 128.187 10.2346 128.917 8.47827H114.092C107.512 8.47827 101.202 11.0433 96.55 15.609C91.8976 20.1747 89.2839 26.3672 89.2839 32.8241V341.384C89.2839 347.841 91.8976 354.033 96.55 358.599C101.202 363.165 107.512 365.73 114.092 365.73H236.278C242.857 365.73 249.167 363.165 253.82 358.599C258.472 354.033 261.086 347.841 261.086 341.384V32.8236C261.086 26.3668 258.472 20.1744 253.82 15.6088C249.167 11.0432 242.857 8.47827 236.278 8.47827Z" fill="white"/>
<path d="M175.185 190.997C163.8 190.997 152.67 187.684 143.204 181.477C133.737 175.269 126.359 166.446 122.002 156.124C117.646 145.801 116.506 134.442 118.727 123.484C120.948 112.526 126.43 102.46 134.481 94.5591C142.531 86.6586 152.788 81.2782 163.955 79.0984C175.121 76.9187 186.695 78.0374 197.214 82.3132C207.732 86.5889 216.722 93.8297 223.048 103.12C229.373 112.41 232.749 123.332 232.749 134.505C232.732 149.483 226.661 163.842 215.87 174.432C205.078 185.023 190.446 190.98 175.185 190.997ZM175.185 79.089C164.016 79.089 153.099 82.3391 143.813 88.4283C134.527 94.5175 127.289 103.172 123.015 113.298C118.742 123.424 117.623 134.567 119.802 145.316C121.981 156.066 127.359 165.94 135.256 173.69C143.153 181.44 153.215 186.718 164.168 188.856C175.122 190.995 186.476 189.897 196.794 185.703C207.112 181.509 215.931 174.406 222.136 165.293C228.341 156.179 231.652 145.465 231.652 134.505C231.635 119.813 225.681 105.727 215.095 95.3383C204.509 84.9494 190.156 79.1056 175.185 79.089Z" fill="#3F3D56"/>
<path d="M196.327 118.094C201.257 114.006 204.252 107.548 203.466 101.261C202.681 94.9737 197.817 89.1939 191.507 87.8588C185.198 86.5237 178.006 90.2195 176.09 96.268C175.035 84.6067 173.82 72.4568 167.502 62.5261C161.782 53.5341 151.874 47.1 141.136 45.9489C130.398 44.7978 119.093 49.1453 112.396 57.4627C105.699 65.78 104.059 77.8718 108.75 87.4209C112.205 94.4554 118.57 99.6905 125.24 103.95C146.518 117.537 172.914 122.128 198.03 118.501L196.327 118.094Z" fill="#E6E6E6"/>
<path d="M123.014 49.3863C131.874 56.4686 140.003 64.3895 147.281 73.0346C158.672 86.5177 167.89 101.635 174.614 117.859C175.106 119.043 173.147 119.558 172.661 118.388C161.66 92.0196 144.099 68.7791 121.582 50.7918C120.571 49.9838 122.012 48.585 123.014 49.3863Z" fill="white"/>
<path d="M126.029 246.413C129.36 246.413 132.06 243.763 132.06 240.495C132.06 237.226 129.36 234.577 126.029 234.577C122.699 234.577 119.999 237.226 119.999 240.495C119.999 243.763 122.699 246.413 126.029 246.413Z" fill="#3F3D56"/>
<path d="M225.985 244.799H149.233C148.07 244.799 146.954 244.346 146.132 243.539C145.309 242.731 144.847 241.637 144.847 240.495C144.847 239.354 145.309 238.259 146.132 237.452C146.954 236.644 148.07 236.191 149.233 236.191H225.985C227.148 236.191 228.264 236.644 229.086 237.452C229.909 238.259 230.371 239.354 230.371 240.495C230.371 241.637 229.909 242.731 229.086 243.539C228.264 244.346 227.148 244.799 225.985 244.799Z" fill="#CCCCCC"/>
<path d="M202.18 244.851H148.916C147.739 244.851 146.61 244.392 145.777 243.575C144.945 242.758 144.477 241.65 144.477 240.495C144.477 239.34 144.945 238.232 145.777 237.415C146.61 236.598 147.739 236.139 148.916 236.139H202.18C203.358 236.139 204.487 236.598 205.319 237.415C206.151 238.232 206.619 239.34 206.619 240.495C206.619 241.65 206.151 242.758 205.319 243.575C204.487 244.392 203.358 244.851 202.18 244.851Z" fill="#1684AC"/>
<path d="M126.029 272.238C129.36 272.238 132.06 269.589 132.06 266.32C132.06 263.052 129.36 260.402 126.029 260.402C122.699 260.402 119.999 263.052 119.999 266.32C119.999 269.589 122.699 272.238 126.029 272.238Z" fill="#3F3D56"/>
<path d="M225.985 270.624H149.233C148.07 270.624 146.954 270.171 146.132 269.364C145.309 268.556 144.847 267.462 144.847 266.32C144.847 265.178 145.309 264.084 146.132 263.277C146.954 262.469 148.07 262.016 149.233 262.016H225.985C227.148 262.016 228.264 262.469 229.086 263.277C229.909 264.084 230.371 265.178 230.371 266.32C230.371 267.462 229.909 268.556 229.086 269.364C228.264 270.171 227.148 270.624 225.985 270.624Z" fill="#CCCCCC"/>
<path d="M126.029 298.063C129.36 298.063 132.06 295.413 132.06 292.145C132.06 288.876 129.36 286.227 126.029 286.227C122.699 286.227 119.999 288.876 119.999 292.145C119.999 295.413 122.699 298.063 126.029 298.063Z" fill="#3F3D56"/>
<path d="M225.985 296.449H149.233C148.07 296.449 146.954 295.996 146.132 295.188C145.309 294.381 144.847 293.287 144.847 292.145C144.847 291.003 145.309 289.909 146.132 289.101C146.954 288.294 148.07 287.841 149.233 287.841H225.985C227.148 287.841 228.264 288.294 229.086 289.101C229.909 289.909 230.371 291.003 230.371 292.145C230.371 293.287 229.909 294.381 229.086 295.188C228.264 295.996 227.148 296.449 225.985 296.449Z" fill="#CCCCCC"/>
<path d="M184.637 270.676H148.916C147.739 270.676 146.61 270.217 145.777 269.4C144.945 268.583 144.477 267.475 144.477 266.32C144.477 265.165 144.945 264.057 145.777 263.24C146.61 262.423 147.739 261.964 148.916 261.964H184.637C185.814 261.964 186.943 262.423 187.776 263.24C188.608 264.057 189.076 265.165 189.076 266.32C189.076 267.475 188.608 268.583 187.776 269.4C186.943 270.217 185.814 270.676 184.637 270.676Z" fill="#1684AC"/>
<path d="M216.434 296.501H148.916C147.739 296.501 146.61 296.042 145.777 295.225C144.945 294.408 144.477 293.3 144.477 292.145C144.477 290.99 144.945 289.882 145.777 289.065C146.61 288.248 147.739 287.789 148.916 287.789H216.434C217.612 287.789 218.741 288.248 219.573 289.065C220.405 289.882 220.873 290.99 220.873 292.145C220.873 293.3 220.405 294.408 219.573 295.225C218.741 296.042 217.612 296.501 216.434 296.501Z" fill="#1684AC"/>
<path d="M205.663 125.721H198.128V103.87C198.128 103.228 198.389 102.612 198.851 102.158C199.314 101.705 199.941 101.449 200.595 101.448H203.196C203.85 101.449 204.477 101.705 204.939 102.158C205.402 102.612 205.662 103.228 205.663 103.87V125.721Z" fill="#3F3D56"/>
<path d="M210.231 162.905H138.205L137.946 123.066C137.943 122.451 138.067 121.841 138.309 121.274C138.55 120.706 138.906 120.191 139.354 119.761L157.448 102.466C158.306 101.643 159.457 101.178 160.657 101.169L190.94 100.897C191.626 100.893 192.306 101.037 192.929 101.319C193.553 101.6 194.106 102.013 194.55 102.528L194.552 102.531L208.936 119.842C209.772 120.85 210.23 122.111 210.231 123.412L210.231 162.905Z" fill="#3F3D56"/>
<path d="M210.231 162.905H171.524V127.202C171.525 126.114 171.92 125.062 172.639 124.234L189.456 104.884C189.893 104.38 190.437 103.976 191.049 103.699C191.661 103.422 192.327 103.278 193.002 103.279H193.019C193.696 103.281 194.365 103.428 194.978 103.71C195.592 103.991 196.135 104.401 196.57 104.91L209.139 119.595C209.844 120.419 210.23 121.461 210.231 122.537V162.905Z" fill="#1684AC"/>
<path d="M193.812 149.192H188.212C187.849 149.191 187.5 149.049 187.243 148.797C186.986 148.545 186.842 148.203 186.841 147.847V143.239C186.842 142.882 186.986 142.54 187.243 142.288C187.5 142.036 187.849 141.894 188.212 141.894H193.812C194.175 141.894 194.524 142.036 194.781 142.288C195.038 142.54 195.182 142.882 195.183 143.239V147.847C195.182 148.203 195.038 148.545 194.781 148.797C194.524 149.049 194.175 149.191 193.812 149.192Z" fill="white"/>
<path d="M193.812 137.384H188.212C187.849 137.384 187.5 137.242 187.243 136.99C186.986 136.738 186.842 136.396 186.841 136.039V131.539C186.842 131.182 186.986 130.84 187.243 130.588C187.5 130.336 187.849 130.194 188.212 130.194H193.812C194.175 130.194 194.524 130.336 194.781 130.588C195.038 130.84 195.182 131.182 195.183 131.539V136.039C195.182 136.396 195.038 136.738 194.781 136.99C194.524 137.242 194.175 137.384 193.812 137.384Z" fill="white"/>
<path d="M159.18 147.398H153.58C153.216 147.398 152.868 147.256 152.611 147.004C152.354 146.751 152.21 146.41 152.209 146.053V141.445C152.21 141.089 152.354 140.747 152.611 140.495C152.868 140.243 153.216 140.101 153.58 140.1H159.18C159.543 140.101 159.891 140.243 160.148 140.495C160.405 140.747 160.55 141.089 160.55 141.445V146.053C160.55 146.41 160.405 146.751 160.148 147.004C159.891 147.256 159.543 147.398 159.18 147.398Z" fill="white"/>
<path d="M159.18 135.59H153.58C153.216 135.59 152.868 135.448 152.611 135.196C152.354 134.944 152.21 134.602 152.209 134.245V129.745C152.21 129.388 152.354 129.046 152.611 128.794C152.868 128.542 153.216 128.4 153.58 128.4H159.18C159.543 128.4 159.891 128.542 160.148 128.794C160.405 129.046 160.55 129.388 160.55 129.745V134.245C160.55 134.602 160.405 134.944 160.148 135.196C159.891 135.448 159.543 135.59 159.18 135.59Z" fill="white"/>
<path d="M224.17 163.371H126.2C126.054 163.371 125.915 163.314 125.812 163.213C125.709 163.112 125.651 162.976 125.651 162.833C125.651 162.69 125.709 162.553 125.812 162.452C125.915 162.352 126.054 162.295 126.2 162.295H224.17C224.315 162.295 224.455 162.352 224.558 162.452C224.661 162.553 224.718 162.69 224.718 162.833C224.718 162.976 224.661 163.112 224.558 163.213C224.455 163.314 224.315 163.371 224.17 163.371Z" fill="#3F3D56"/>
<path d="M448.452 375H0.54823C0.40283 375 0.263385 374.943 0.160572 374.842C0.0577593 374.741 0 374.605 0 374.462C0 374.319 0.0577593 374.182 0.160572 374.081C0.263385 373.981 0.40283 373.924 0.54823 373.924H448.452C448.597 373.924 448.737 373.981 448.839 374.081C448.942 374.182 449 374.319 449 374.462C449 374.605 448.942 374.741 448.839 374.842C448.737 374.943 448.597 375 448.452 375Z" fill="#3F3D56"/>
</svg>
