<svg width="403" height="302" viewBox="0 0 403 302" fill="none" xmlns="http://www.w3.org/2000/svg">
<g clip-path="url(#clip0_1454_51)">
<path d="M367.983 271.675C371.518 278.242 368.521 300.42 368.521 300.42C368.521 300.42 348.894 291.688 345.36 285.124C343.667 281.971 343.234 278.241 344.156 274.753C345.079 271.265 347.281 268.304 350.28 266.522C353.278 264.74 356.827 264.281 360.146 265.248C363.466 266.214 366.285 268.526 367.983 271.675Z" fill="#F1F1F1"/>
<path d="M368.805 300.392L368.388 300.484C364.372 280.431 350.348 266.832 350.207 266.697L350.494 266.366C350.636 266.502 364.76 280.193 368.805 300.392Z" fill="white"/>
<path d="M400.098 279.153C395.302 288.297 368.261 300.685 368.261 300.685C368.261 300.685 363.803 270.038 368.597 260.897C370.9 256.506 374.769 253.257 379.351 251.865C383.934 250.472 388.855 251.05 393.032 253.47C397.21 255.891 400.301 259.957 401.626 264.773C402.951 269.59 402.402 274.762 400.098 279.153Z" fill="#F1F1F1"/>
<path d="M368.5 301.016L368.094 300.567C387.661 281.036 392.727 253.796 392.776 253.523L393.355 253.638C393.306 253.912 388.21 281.344 368.5 301.016Z" fill="white"/>
<path d="M94.746 209.91C91.6514 209.899 88.5703 209.48 85.575 208.663L84.9846 208.492L84.4369 208.203C64.637 197.77 47.9329 183.988 34.7885 167.241C23.9076 153.297 15.4245 137.465 9.72041 120.457C2.89922 100.094 -0.38244 78.608 0.032087 57.0243C0.0404513 56.5713 0.0475302 56.2215 0.0475302 55.9805C0.0475302 45.4885 5.58867 36.2826 14.1642 32.5271C20.7275 29.6528 80.3191 3.92744 84.6248 2.06871C92.7335 -2.20155 101.384 1.36265 102.768 1.98593C105.873 3.32024 160.962 27.0018 172.867 32.9597C185.136 39.1001 188.409 50.1311 188.409 55.681C188.409 80.8071 184.269 104.289 176.103 125.476C169.509 142.625 160.162 158.456 148.47 172.281C125.913 198.961 103.349 208.42 103.131 208.503C100.435 209.478 97.5975 209.954 94.746 209.91ZM89.4398 196.096C91.396 196.557 95.8998 197.248 98.8353 196.123C102.564 194.693 121.45 184.401 139.098 163.528C163.481 134.688 175.853 98.4344 175.871 55.7737C175.827 54.9094 175.243 48.745 167.476 44.8579C155.802 39.0152 98.5423 14.4071 97.9652 14.1591L97.807 14.0886C96.607 13.5601 92.7881 12.4469 90.1557 13.8968L89.6286 14.155C88.9904 14.4305 25.7332 41.7371 18.9868 44.6915C14.2675 46.7582 12.586 51.8781 12.586 55.9805C12.586 56.2803 12.5786 56.7164 12.5682 57.28C12.029 86.4701 18.4559 158.298 89.4398 196.096Z" fill="#3F3D56"/>
<path d="M87.2471 8.05994C87.2471 8.05994 23.415 35.6142 16.5758 38.6093C9.73667 41.6043 6.3171 48.7924 6.3171 55.9805C6.3171 63.1686 1.18774 156.963 87.2471 202.313C87.2471 202.313 95.0578 204.584 100.984 202.313C106.91 200.042 182.14 161.705 182.14 55.681C182.14 55.681 182.14 44.8988 170.172 38.9088C158.203 32.9187 100.338 8.05994 100.338 8.05994C100.338 8.05994 93.2314 4.76541 87.2471 8.05994Z" fill="#1684AC"/>
<path opacity="0.1" d="M94.0862 29.6243V176.617C94.0862 176.617 29.6842 144.035 30.2541 58.3766L94.0862 29.6243Z" fill="black"/>
<path d="M94.9262 135.27L74.4109 107.546L86.3414 97.7932L96.0554 110.92L128.871 74.5112L139.844 85.4386L94.9262 135.27Z" fill="white"/>
<path d="M402.508 302H215.048C214.917 302 214.792 301.946 214.7 301.849C214.608 301.752 214.556 301.62 214.556 301.483C214.556 301.346 214.608 301.214 214.7 301.117C214.792 301.02 214.917 300.966 215.048 300.966H402.508C402.638 300.966 402.764 301.02 402.856 301.117C402.948 301.214 403 301.346 403 301.483C403 301.62 402.948 301.752 402.856 301.849C402.764 301.946 402.638 302 402.508 302Z" fill="#CACACA"/>
<path d="M269.237 293.848L276.846 293.848L280.466 263L269.235 263.001L269.237 293.848Z" fill="#FFB8B8"/>
<path d="M267.296 291.237L282.281 291.237H282.282C284.815 291.237 287.244 292.294 289.035 294.177C290.826 296.059 291.832 298.612 291.832 301.274V301.6L267.296 301.601L267.296 291.237Z" fill="#2F2E41"/>
<path d="M294.822 293.848L302.431 293.848L306.051 263L294.821 263.001L294.822 293.848Z" fill="#FFB8B8"/>
<path d="M292.881 291.237L307.867 291.237H307.867C310.4 291.237 312.829 292.294 314.62 294.177C316.411 296.059 317.417 298.612 317.417 301.274V301.6L292.881 301.601L292.881 291.237Z" fill="#2F2E41"/>
<path d="M281.197 185.518L283.022 283.384L268.256 282.421L258.012 220.086L254.777 177.584L281.197 185.518Z" fill="#2F2E41"/>
<path d="M306.538 169.084L308.608 284.935L291.387 284.418L287.667 215.552L281.197 190.618L254.777 177.584L259.091 146.417L297.911 145.85L306.538 169.084Z" fill="#2F2E41"/>
<path d="M276.848 65.3809C284.141 65.3809 290.053 59.1672 290.053 51.5022C290.053 43.8372 284.141 37.6235 276.848 37.6235C269.555 37.6235 263.643 43.8372 263.643 51.5022C263.643 59.1672 269.555 65.3809 276.848 65.3809Z" fill="#FFB8B8"/>
<path d="M287.801 71.2275L289.824 74.4482L295.216 90.3151L290.902 152.083L265.56 152.651L262.326 81.8146L269.103 72.9118L287.801 71.2275Z" fill="#CCCCCC"/>
<path d="M252.081 83.5149L247.768 82.9482C247.768 82.9482 246.69 83.5149 246.15 87.4817C245.611 91.4485 239.141 126.583 239.141 126.583L247.768 169.651L257.473 156.051L251.542 132.25L257.473 108.449L252.081 83.5149Z" fill="#2F2E41"/>
<path d="M307.077 82.9487H310.312L318.4 128.85L310.852 164.551L303.303 151.517L305.459 137.35L304.381 124.883L300.607 117.516L307.077 82.9487Z" fill="#2F2E41"/>
<path d="M284.651 51.5023L282.25 50.8715C282.25 50.8715 280.45 40.147 276.248 41.4087C272.046 42.6704 261.242 43.9321 261.242 38.8853C261.242 33.8385 271.446 29.4226 277.449 30.0534C283.451 30.6843 291.117 32.7771 293.054 42.0396C296.161 56.8877 286.645 60.6381 286.645 60.6381L286.804 60.0975C287.243 58.5964 287.275 56.996 286.894 55.4772C286.514 53.9583 285.737 52.5815 284.651 51.5023Z" fill="#2F2E41"/>
<path d="M248.307 82.9481L265.561 75.5812L269.605 72.4645L281.736 128.85L287.397 70.7644L309.773 82.9481L302.225 121.483L301.146 136.216L304.382 148.117C304.382 148.117 315.704 156.617 311.93 165.684C308.156 174.751 303.842 175.318 303.842 175.318C303.842 175.318 285.51 157.184 284.432 152.65C283.354 148.117 281.736 140.183 281.736 140.183C281.736 140.183 272.57 176.451 261.787 175.884C251.003 175.318 251.003 163.417 251.003 163.417L253.699 150.95L258.012 137.916L255.856 116.382L248.307 82.9481Z" fill="#2F2E41"/>
</g>
<defs>
<clipPath id="clip0_1454_51">
<rect width="403" height="302" fill="white"/>
</clipPath>
</defs>
</svg>
