<svg width="358" height="288" viewBox="0 0 358 288" fill="none" xmlns="http://www.w3.org/2000/svg">
<g filter="url(#filter0_d_1456_570)">
<g clip-path="url(#clip0_1456_570)">
<path d="M323.589 251.884C326.658 257.973 324.055 278.535 324.055 278.535C324.055 278.535 307.01 270.439 303.94 264.354C302.47 261.43 302.094 257.972 302.895 254.738C303.696 251.504 305.609 248.759 308.213 247.106C310.817 245.454 313.899 245.029 316.782 245.925C319.665 246.821 322.113 248.964 323.589 251.884Z" fill="#F1F1F1"/>
<path d="M324.302 278.509L323.94 278.594C320.452 260.002 308.273 247.394 308.15 247.269L308.399 246.961C308.522 247.087 320.789 259.781 324.302 278.509Z" fill="white"/>
<path d="M351.48 258.817C347.315 267.295 323.83 278.781 323.83 278.781C323.83 278.781 319.958 250.367 324.121 241.891C326.122 237.821 329.481 234.808 333.461 233.517C337.441 232.226 341.715 232.761 345.343 235.006C348.971 237.25 351.656 241.02 352.807 245.485C353.958 249.951 353.48 254.746 351.48 258.817Z" fill="#F1F1F1"/>
<path d="M324.037 279.088L323.685 278.671C340.679 260.563 345.078 235.307 345.12 235.054L345.624 235.16C345.581 235.415 341.155 260.848 324.037 279.088Z" fill="white"/>
<path d="M86.2856 194.619C83.598 194.609 80.9221 194.22 78.3207 193.463L77.8079 193.304L77.3323 193.036C60.1363 183.362 45.629 170.585 34.2133 155.058C24.7635 142.13 17.3959 127.451 12.442 111.682C6.51793 92.8025 3.66785 72.8816 4.02786 52.8702C4.03513 52.4502 4.04128 52.1259 4.04128 51.9024C4.04128 42.1747 8.85368 33.6395 16.3014 30.1576C22.0016 27.4927 73.7561 3.64133 77.4954 1.918C84.5377 -2.04118 92.0506 1.26338 93.2529 1.84126C95.9496 3.07837 143.793 25.0348 154.132 30.5586C164.788 36.2517 167.631 46.4791 167.631 51.6247C167.631 74.9204 164.035 96.6921 156.943 116.335C151.216 132.235 143.098 146.913 132.944 159.731C113.353 184.467 93.7573 193.237 93.5681 193.314C91.2261 194.218 88.7621 194.66 86.2856 194.619ZM81.6772 181.811C83.3762 182.238 87.2877 182.879 89.8371 181.836C93.0758 180.51 109.477 170.967 124.804 151.615C145.981 124.876 156.726 91.2637 156.741 51.7107C156.704 50.9093 156.196 45.194 149.451 41.5901C139.312 36.1731 89.5826 13.3576 89.0815 13.1276L88.9441 13.0623C87.9019 12.5723 84.5852 11.5402 82.299 12.8844L81.8412 13.1239C81.2869 13.3793 26.3489 38.6967 20.4897 41.4358C16.3911 43.3519 14.9308 48.0989 14.9308 51.9024C14.9308 52.1804 14.9243 52.5847 14.9153 53.1073C14.447 80.171 20.0287 146.766 81.6772 181.811Z" fill="#3F3D56"/>
<path d="M79.7727 7.47281C79.7727 7.47281 24.3354 33.0198 18.3957 35.7967C12.4559 38.5735 9.48608 45.238 9.48608 51.9024C9.48608 58.5669 5.03131 145.529 79.7727 187.575C79.7727 187.575 86.5562 189.681 91.7028 187.575C96.8494 185.469 162.186 149.925 162.186 51.6247C162.186 51.6247 162.186 41.6281 151.792 36.0744C141.397 30.5207 91.1416 7.47281 91.1416 7.47281C91.1416 7.47281 84.9699 4.41827 79.7727 7.47281Z" fill="#1684AC"/>
<path opacity="0.1" d="M85.7126 27.4663V163.751C85.7126 163.751 29.7803 133.542 30.2752 54.1241L85.7126 27.4663Z" fill="black"/>
<path d="M86.4423 125.416L68.625 99.7114L78.9865 90.6694L87.423 102.84L115.923 69.0835L125.453 79.2148L86.4423 125.416Z" fill="white"/>
<path d="M353.573 280H190.766C190.653 280 190.544 279.949 190.464 279.859C190.384 279.77 190.339 279.648 190.339 279.52C190.339 279.393 190.384 279.271 190.464 279.181C190.544 279.092 190.653 279.041 190.766 279.041H353.573C353.686 279.041 353.795 279.092 353.875 279.181C353.955 279.271 354 279.393 354 279.52C354 279.648 353.955 279.77 353.875 279.859C353.795 279.949 353.686 280 353.573 280Z" fill="#CACACA"/>
<path d="M237.828 272.443L244.437 272.442L247.581 243.841L237.827 243.842L237.828 272.443Z" fill="#FFB8B8"/>
<path d="M236.143 270.022L249.158 270.021H249.158C251.358 270.021 253.467 271.002 255.023 272.747C256.578 274.492 257.452 276.859 257.452 279.327V279.629L236.143 279.63L236.143 270.022Z" fill="#2F2E41"/>
<path d="M260.049 272.443L266.658 272.442L269.802 243.841L260.048 243.842L260.049 272.443Z" fill="#FFB8B8"/>
<path d="M258.363 270.022L271.378 270.021H271.378C273.578 270.021 275.688 271.002 277.243 272.747C278.798 274.492 279.672 276.859 279.672 279.327V279.629L258.363 279.63L258.363 270.022Z" fill="#2F2E41"/>
<path d="M248.216 172.003L249.801 262.74L236.977 261.847L228.081 204.053L225.271 164.647L248.216 172.003Z" fill="#2F2E41"/>
<path d="M270.224 156.767L272.021 264.178L257.065 263.699L253.835 199.85L248.216 176.732L225.271 164.648L229.017 135.751L262.732 135.226L270.224 156.767Z" fill="#2F2E41"/>
<path d="M244.439 60.6181C250.773 60.6181 255.907 54.8571 255.907 47.7505C255.907 40.6439 250.773 34.8828 244.439 34.8828C238.105 34.8828 232.971 40.6439 232.971 47.7505C232.971 54.8571 238.105 60.6181 244.439 60.6181Z" fill="#FFB8B8"/>
<path d="M253.951 66.0386L255.708 69.0246L260.391 83.7356L256.645 141.004L234.636 141.53L231.827 75.8544L237.712 67.6001L253.951 66.0386Z" fill="#CCCCCC"/>
<path d="M222.929 77.4312L219.183 76.9058C219.183 76.9058 218.247 77.4312 217.778 81.109C217.31 84.7868 211.691 117.362 211.691 117.362L219.183 157.292L227.612 144.683L222.461 122.616L227.612 100.549L222.929 77.4312Z" fill="#2F2E41"/>
<path d="M270.692 76.9062H273.502L280.526 119.463L273.97 152.564L267.414 140.48L269.287 127.345L268.351 115.786L265.073 108.955L270.692 76.9062Z" fill="#2F2E41"/>
<path d="M251.216 47.7504L249.131 47.1655C249.131 47.1655 247.567 37.2223 243.918 38.3921C240.269 39.5619 230.886 40.7316 230.886 36.0525C230.886 31.3733 239.748 27.2791 244.961 27.864C250.173 28.4489 256.831 30.3892 258.514 38.9769C261.212 52.7435 252.948 56.2207 252.948 56.2207L253.085 55.7194C253.467 54.3277 253.494 52.8439 253.164 51.4356C252.834 50.0274 252.159 48.7509 251.216 47.7504Z" fill="#2F2E41"/>
<path d="M219.651 76.9056L234.636 70.0753L238.148 67.1856L248.684 119.463L253.601 65.6094L273.034 76.9055L266.478 112.633L265.542 126.293L268.351 137.327C268.351 137.327 278.185 145.208 274.907 153.614C271.629 162.021 267.883 162.546 267.883 162.546C267.883 162.546 251.962 145.733 251.025 141.53C250.089 137.327 248.684 129.971 248.684 129.971C248.684 129.971 240.723 163.597 231.358 163.072C221.993 162.546 221.993 151.513 221.993 151.513L224.334 139.954L228.08 127.87L226.207 107.904L219.651 76.9056Z" fill="#2F2E41"/>
</g>
</g>
<defs>
<filter id="filter0_d_1456_570" x="0" y="0" width="358" height="288" filterUnits="userSpaceOnUse" color-interpolation-filters="sRGB">
<feFlood flood-opacity="0" result="BackgroundImageFix"/>
<feColorMatrix in="SourceAlpha" type="matrix" values="0 0 0 0 0 0 0 0 0 0 0 0 0 0 0 0 0 0 127 0" result="hardAlpha"/>
<feOffset dy="4"/>
<feGaussianBlur stdDeviation="2"/>
<feComposite in2="hardAlpha" operator="out"/>
<feColorMatrix type="matrix" values="0 0 0 0 0 0 0 0 0 0 0 0 0 0 0 0 0 0 0.25 0"/>
<feBlend mode="normal" in2="BackgroundImageFix" result="effect1_dropShadow_1456_570"/>
<feBlend mode="normal" in="SourceGraphic" in2="effect1_dropShadow_1456_570" result="shape"/>
</filter>
<clipPath id="clip0_1456_570">
<rect x="4" width="350" height="280" fill="white"/>
</clipPath>
</defs>
</svg>
