<svg width="405" height="92" viewBox="0 0 405 92" fill="none" xmlns="http://www.w3.org/2000/svg">
<rect x="118" y="6" width="241" height="65" fill="#1684AC"/>
<path d="M135.068 62H124.523L140.591 15.4545H153.273L169.318 62H158.773L147.114 26.0909H146.75L135.068 62ZM134.409 43.7045H159.318V51.3864H134.409V43.7045ZM199.108 28.8409C198.926 27.0076 198.146 25.5833 196.767 24.5682C195.388 23.553 193.517 23.0455 191.153 23.0455C189.547 23.0455 188.191 23.2727 187.085 23.7273C185.979 24.1667 185.131 24.7803 184.54 25.5682C183.964 26.3561 183.676 27.25 183.676 28.25C183.646 29.0833 183.82 29.8106 184.199 30.4318C184.593 31.053 185.131 31.5909 185.812 32.0455C186.494 32.4848 187.282 32.8712 188.176 33.2045C189.07 33.5227 190.025 33.7955 191.04 34.0227L195.222 35.0227C197.252 35.4773 199.116 36.0833 200.812 36.8409C202.509 37.5985 203.979 38.5303 205.222 39.6364C206.464 40.7424 207.426 42.0455 208.108 43.5455C208.805 45.0455 209.161 46.7652 209.176 48.7045C209.161 51.553 208.434 54.0227 206.994 56.1136C205.57 58.1894 203.509 59.803 200.812 60.9545C198.131 62.0909 194.896 62.6591 191.108 62.6591C187.35 62.6591 184.078 62.0833 181.29 60.9318C178.517 59.7803 176.35 58.0758 174.79 55.8182C173.244 53.5455 172.434 50.7348 172.358 47.3864H181.881C181.987 48.947 182.434 50.25 183.222 51.2955C184.025 52.3258 185.093 53.1061 186.426 53.6364C187.775 54.1515 189.297 54.4091 190.994 54.4091C192.661 54.4091 194.108 54.1667 195.335 53.6818C196.578 53.197 197.54 52.5227 198.222 51.6591C198.903 50.7955 199.244 49.803 199.244 48.6818C199.244 47.6364 198.934 46.7576 198.312 46.0455C197.706 45.3333 196.813 44.7273 195.631 44.2273C194.464 43.7273 193.032 43.2727 191.335 42.8636L186.267 41.5909C182.343 40.6364 179.244 39.1439 176.972 37.1136C174.699 35.0833 173.57 32.3485 173.585 28.9091C173.57 26.0909 174.32 23.6288 175.835 21.5227C177.366 19.4167 179.464 17.7727 182.131 16.5909C184.797 15.4091 187.828 14.8182 191.222 14.8182C194.676 14.8182 197.691 15.4091 200.267 16.5909C202.858 17.7727 204.873 19.4167 206.312 21.5227C207.752 23.6288 208.494 26.0682 208.54 28.8409H199.108ZM241.045 28.8409C240.864 27.0076 240.083 25.5833 238.705 24.5682C237.326 23.553 235.455 23.0455 233.091 23.0455C231.485 23.0455 230.129 23.2727 229.023 23.7273C227.917 24.1667 227.068 24.7803 226.477 25.5682C225.902 26.3561 225.614 27.25 225.614 28.25C225.583 29.0833 225.758 29.8106 226.136 30.4318C226.53 31.053 227.068 31.5909 227.75 32.0455C228.432 32.4848 229.22 32.8712 230.114 33.2045C231.008 33.5227 231.962 33.7955 232.977 34.0227L237.159 35.0227C239.189 35.4773 241.053 36.0833 242.75 36.8409C244.447 37.5985 245.917 38.5303 247.159 39.6364C248.402 40.7424 249.364 42.0455 250.045 43.5455C250.742 45.0455 251.098 46.7652 251.114 48.7045C251.098 51.553 250.371 54.0227 248.932 56.1136C247.508 58.1894 245.447 59.803 242.75 60.9545C240.068 62.0909 236.833 62.6591 233.045 62.6591C229.288 62.6591 226.015 62.0833 223.227 60.9318C220.455 59.7803 218.288 58.0758 216.727 55.8182C215.182 53.5455 214.371 50.7348 214.295 47.3864H223.818C223.924 48.947 224.371 50.25 225.159 51.2955C225.962 52.3258 227.03 53.1061 228.364 53.6364C229.712 54.1515 231.235 54.4091 232.932 54.4091C234.598 54.4091 236.045 54.1667 237.273 53.6818C238.515 53.197 239.477 52.5227 240.159 51.6591C240.841 50.7955 241.182 49.803 241.182 48.6818C241.182 47.6364 240.871 46.7576 240.25 46.0455C239.644 45.3333 238.75 44.7273 237.568 44.2273C236.402 43.7273 234.97 43.2727 233.273 42.8636L228.205 41.5909C224.28 40.6364 221.182 39.1439 218.909 37.1136C216.636 35.0833 215.508 32.3485 215.523 28.9091C215.508 26.0909 216.258 23.6288 217.773 21.5227C219.303 19.4167 221.402 17.7727 224.068 16.5909C226.735 15.4091 229.765 14.8182 233.159 14.8182C236.614 14.8182 239.629 15.4091 242.205 16.5909C244.795 17.7727 246.811 19.4167 248.25 21.5227C249.689 23.6288 250.432 26.0682 250.477 28.8409H241.045ZM267.574 15.4545V62H257.733V15.4545H267.574ZM300.92 28.8409C300.739 27.0076 299.958 25.5833 298.58 24.5682C297.201 23.553 295.33 23.0455 292.966 23.0455C291.36 23.0455 290.004 23.2727 288.898 23.7273C287.792 24.1667 286.943 24.7803 286.352 25.5682C285.777 26.3561 285.489 27.25 285.489 28.25C285.458 29.0833 285.633 29.8106 286.011 30.4318C286.405 31.053 286.943 31.5909 287.625 32.0455C288.307 32.4848 289.095 32.8712 289.989 33.2045C290.883 33.5227 291.837 33.7955 292.852 34.0227L297.034 35.0227C299.064 35.4773 300.928 36.0833 302.625 36.8409C304.322 37.5985 305.792 38.5303 307.034 39.6364C308.277 40.7424 309.239 42.0455 309.92 43.5455C310.617 45.0455 310.973 46.7652 310.989 48.7045C310.973 51.553 310.246 54.0227 308.807 56.1136C307.383 58.1894 305.322 59.803 302.625 60.9545C299.943 62.0909 296.708 62.6591 292.92 62.6591C289.163 62.6591 285.89 62.0833 283.102 60.9318C280.33 59.7803 278.163 58.0758 276.602 55.8182C275.057 53.5455 274.246 50.7348 274.17 47.3864H283.693C283.799 48.947 284.246 50.25 285.034 51.2955C285.837 52.3258 286.905 53.1061 288.239 53.6364C289.587 54.1515 291.11 54.4091 292.807 54.4091C294.473 54.4091 295.92 54.1667 297.148 53.6818C298.39 53.197 299.352 52.5227 300.034 51.6591C300.716 50.7955 301.057 49.803 301.057 48.6818C301.057 47.6364 300.746 46.7576 300.125 46.0455C299.519 45.3333 298.625 44.7273 297.443 44.2273C296.277 43.7273 294.845 43.2727 293.148 42.8636L288.08 41.5909C284.155 40.6364 281.057 39.1439 278.784 37.1136C276.511 35.0833 275.383 32.3485 275.398 28.9091C275.383 26.0909 276.133 23.6288 277.648 21.5227C279.178 19.4167 281.277 17.7727 283.943 16.5909C286.61 15.4091 289.64 14.8182 293.034 14.8182C296.489 14.8182 299.504 15.4091 302.08 16.5909C304.67 17.7727 306.686 19.4167 308.125 21.5227C309.564 23.6288 310.307 26.0682 310.352 28.8409H300.92ZM315.835 23.5682V15.4545H354.062V23.5682H339.812V62H330.085V23.5682H315.835Z" fill="white"/>
<path d="M6.72727 63V16.4545H32.6364V19.0909H9.56818V38.3864H31.25V41.0227H9.56818V60.3636H33.1818V63H6.72727ZM43.142 16.4545L56.892 37.5227H57.142L70.892 16.4545H74.3239L59.0284 39.7273L74.3239 63H70.892L57.142 42.0682H56.892L43.142 63H39.7102L55.142 39.7273L39.7102 16.4545H43.142ZM83.1023 63V16.4545H97.4432C100.398 16.4545 102.928 17.0606 105.034 18.2727C107.155 19.4848 108.784 21.1439 109.92 23.25C111.057 25.3561 111.625 27.7576 111.625 30.4545C111.625 33.1212 111.057 35.5076 109.92 37.6136C108.784 39.7197 107.155 41.3864 105.034 42.6136C102.928 43.8258 100.405 44.4318 97.4659 44.4318H85.1023V41.7955H97.3977C99.7917 41.7955 101.837 41.3106 103.534 40.3409C105.231 39.3561 106.534 38.0152 107.443 36.3182C108.352 34.6061 108.807 32.6515 108.807 30.4545C108.807 28.2424 108.352 26.2803 107.443 24.5682C106.534 22.8561 105.223 21.5152 103.511 20.5455C101.814 19.5758 99.7689 19.0909 97.375 19.0909H85.9432V63H83.1023Z" fill="#1684AC"/>
<line x1="6" y1="7.5" x2="111" y2="7.5" stroke="#1684AC" stroke-width="3"/>
<line x1="6" y1="69.5" x2="111" y2="69.5" stroke="#1684AC" stroke-width="3"/>
<path d="M82.26 89V79.816H83.422V88.006H87.44V89H82.26ZM90.6916 83.862L90.2576 85.262H93.0156L92.5816 83.862C92.4136 83.3487 92.2549 82.84 92.1056 82.336C91.9563 81.8227 91.8069 81.3 91.6576 80.768H91.6016C91.4616 81.3 91.3169 81.8227 91.1676 82.336C91.0183 82.84 90.8596 83.3487 90.6916 83.862ZM87.8916 89L90.9996 79.816H92.3156L95.4236 89H94.1776L93.3096 86.2H89.9636L89.0816 89H87.8916ZM98.0174 89V85.444L95.2594 79.816H96.5054L97.6954 82.406C97.8448 82.742 97.9894 83.0733 98.1294 83.4C98.2788 83.7267 98.4281 84.0627 98.5774 84.408H98.6334C98.7921 84.0627 98.9508 83.7267 99.1094 83.4C99.2681 83.0733 99.4174 82.742 99.5574 82.406L100.733 79.816H101.951L99.1934 85.444V89H98.0174ZM105.994 89V79.816H108.724C109.35 79.816 109.896 79.8907 110.362 80.04C110.838 80.1893 111.207 80.4273 111.468 80.754C111.739 81.0807 111.874 81.5147 111.874 82.056C111.874 82.5133 111.758 82.9287 111.524 83.302C111.3 83.666 110.969 83.918 110.53 84.058V84.114C111.081 84.2167 111.529 84.45 111.874 84.814C112.229 85.178 112.406 85.6773 112.406 86.312C112.406 86.9093 112.257 87.4087 111.958 87.81C111.669 88.2113 111.263 88.51 110.74 88.706C110.218 88.902 109.611 89 108.92 89H105.994ZM107.156 83.722H108.514C109.298 83.722 109.863 83.5867 110.208 83.316C110.554 83.0453 110.726 82.6767 110.726 82.21C110.726 81.678 110.544 81.3 110.18 81.076C109.826 80.852 109.289 80.74 108.57 80.74H107.156V83.722ZM107.156 88.076H108.752C109.546 88.076 110.162 87.9313 110.6 87.642C111.039 87.3433 111.258 86.886 111.258 86.27C111.258 85.7007 111.039 85.2853 110.6 85.024C110.171 84.7533 109.555 84.618 108.752 84.618H107.156V88.076ZM115.807 83.862L115.373 85.262H118.131L117.697 83.862C117.529 83.3487 117.37 82.84 117.221 82.336C117.072 81.8227 116.922 81.3 116.773 80.768H116.717C116.577 81.3 116.432 81.8227 116.283 82.336C116.134 82.84 115.975 83.3487 115.807 83.862ZM113.007 89L116.115 79.816H117.431L120.539 89H119.293L118.425 86.2H115.079L114.197 89H113.007ZM125.175 89.168C124.41 89.168 123.724 88.9813 123.117 88.608C122.52 88.2253 122.044 87.6793 121.689 86.97C121.344 86.2607 121.171 85.4067 121.171 84.408C121.171 83.4187 121.349 82.5693 121.703 81.86C122.058 81.1507 122.543 80.6047 123.159 80.222C123.775 79.8393 124.471 79.648 125.245 79.648C125.805 79.648 126.3 79.7647 126.729 79.998C127.159 80.222 127.504 80.4833 127.765 80.782L127.135 81.538C126.893 81.2767 126.617 81.0667 126.309 80.908C126.001 80.7493 125.651 80.67 125.259 80.67C124.681 80.67 124.172 80.824 123.733 81.132C123.304 81.4307 122.968 81.8553 122.725 82.406C122.492 82.9567 122.375 83.6147 122.375 84.38C122.375 85.1453 122.492 85.8127 122.725 86.382C122.959 86.942 123.285 87.376 123.705 87.684C124.135 87.992 124.639 88.146 125.217 88.146C125.656 88.146 126.048 88.0527 126.393 87.866C126.739 87.6793 127.056 87.4273 127.345 87.11L127.989 87.838C127.625 88.258 127.215 88.5847 126.757 88.818C126.3 89.0513 125.773 89.168 125.175 89.168ZM129.701 89V79.816H130.863V84.422H130.905L134.727 79.816H136.043L133.173 83.316L136.491 89H135.189L132.445 84.226L130.863 86.088V89H129.701ZM137.487 91.38L137.207 90.708C137.608 90.5307 137.921 90.2927 138.145 89.994C138.369 89.7047 138.476 89.3733 138.467 89C138.448 89.0093 138.425 89.014 138.397 89.014C138.369 89.014 138.345 89.014 138.327 89.014C138.103 89.014 137.907 88.9487 137.739 88.818C137.58 88.678 137.501 88.4773 137.501 88.216C137.501 87.964 137.585 87.768 137.753 87.628C137.921 87.4787 138.121 87.404 138.355 87.404C138.653 87.404 138.887 87.5253 139.055 87.768C139.232 88.0107 139.321 88.342 139.321 88.762C139.321 89.3593 139.157 89.882 138.831 90.33C138.504 90.7873 138.056 91.1373 137.487 91.38ZM145.106 89L143.16 79.816H144.364L145.33 84.814C145.414 85.3087 145.503 85.8033 145.596 86.298C145.689 86.7927 145.778 87.2873 145.862 87.782H145.918C146.021 87.2873 146.128 86.7927 146.24 86.298C146.352 85.794 146.459 85.2993 146.562 84.814L147.836 79.816H148.9L150.174 84.814C150.286 85.2993 150.398 85.794 150.51 86.298C150.622 86.7927 150.734 87.2873 150.846 87.782H150.902C150.986 87.2873 151.07 86.7927 151.154 86.298C151.238 85.794 151.327 85.2993 151.42 84.814L152.386 79.816H153.506L151.602 89H150.202L148.816 83.47C148.732 83.1153 148.653 82.77 148.578 82.434C148.513 82.0887 148.443 81.7387 148.368 81.384H148.312C148.247 81.7387 148.172 82.0887 148.088 82.434C148.004 82.77 147.925 83.1153 147.85 83.47L146.492 89H145.106ZM155.104 89V79.816H160.396V80.796H156.266V83.68H159.752V84.674H156.266V88.006H160.536V89H155.104ZM165.289 89V79.816H166.451V83.666H170.721V79.816H171.897V89H170.721V84.674H166.451V89H165.289ZM174.422 89V79.816H179.714V80.796H175.584V83.68H179.07V84.674H175.584V88.006H179.854V89H174.422ZM181.805 89V79.816H182.967V88.006H186.985V89H181.805ZM188.614 89V79.816H191.232C191.922 79.816 192.524 79.9 193.038 80.068C193.551 80.236 193.952 80.5207 194.242 80.922C194.531 81.314 194.676 81.846 194.676 82.518C194.676 83.4793 194.363 84.1933 193.738 84.66C193.112 85.1267 192.296 85.36 191.288 85.36H189.776V89H188.614ZM189.776 84.408H191.148C191.95 84.408 192.543 84.2587 192.926 83.96C193.318 83.652 193.514 83.1713 193.514 82.518C193.514 81.8553 193.308 81.398 192.898 81.146C192.496 80.8847 191.894 80.754 191.092 80.754H189.776V84.408ZM200.83 89V85.444L198.072 79.816H199.318L200.508 82.406C200.657 82.742 200.802 83.0733 200.942 83.4C201.091 83.7267 201.241 84.0627 201.39 84.408H201.446C201.605 84.0627 201.763 83.7267 201.922 83.4C202.081 83.0733 202.23 82.742 202.37 82.406L203.546 79.816H204.764L202.006 85.444V89H200.83ZM209.201 89.168C208.435 89.168 207.754 88.972 207.157 88.58C206.569 88.188 206.107 87.6327 205.771 86.914C205.444 86.1953 205.281 85.346 205.281 84.366C205.281 83.386 205.444 82.546 205.771 81.846C206.107 81.1367 206.569 80.5953 207.157 80.222C207.754 79.8393 208.435 79.648 209.201 79.648C209.975 79.648 210.657 79.8393 211.245 80.222C211.833 80.5953 212.295 81.1367 212.631 81.846C212.967 82.546 213.135 83.386 213.135 84.366C213.135 85.346 212.967 86.1953 212.631 86.914C212.295 87.6327 211.833 88.188 211.245 88.58C210.657 88.972 209.975 89.168 209.201 89.168ZM209.201 88.146C209.751 88.146 210.227 87.992 210.629 87.684C211.039 87.3667 211.357 86.928 211.581 86.368C211.805 85.7987 211.917 85.1313 211.917 84.366C211.917 83.2273 211.669 82.3267 211.175 81.664C210.68 81.0013 210.022 80.67 209.201 80.67C208.379 80.67 207.721 81.0013 207.227 81.664C206.732 82.3267 206.485 83.2273 206.485 84.366C206.485 85.1313 206.597 85.7987 206.821 86.368C207.045 86.928 207.362 87.3667 207.773 87.684C208.183 87.992 208.659 88.146 209.201 88.146ZM218.372 89.168C217.746 89.168 217.182 89.042 216.678 88.79C216.183 88.538 215.791 88.1227 215.502 87.544C215.212 86.9653 215.068 86.186 215.068 85.206V79.816H216.23V85.234C216.23 85.9713 216.323 86.5547 216.51 86.984C216.706 87.404 216.962 87.7027 217.28 87.88C217.606 88.0573 217.97 88.146 218.372 88.146C218.782 88.146 219.151 88.0573 219.478 87.88C219.804 87.7027 220.061 87.404 220.248 86.984C220.444 86.5547 220.542 85.9713 220.542 85.234V79.816H221.662V85.206C221.662 86.186 221.517 86.9653 221.228 87.544C220.938 88.1227 220.546 88.538 220.052 88.79C219.557 89.042 218.997 89.168 218.372 89.168ZM229.484 89.168C228.84 89.168 228.242 89.0467 227.692 88.804C227.141 88.552 226.665 88.2207 226.264 87.81L226.964 86.998C227.29 87.3433 227.673 87.6233 228.112 87.838C228.56 88.0433 229.022 88.146 229.498 88.146C230.104 88.146 230.576 88.0107 230.912 87.74C231.248 87.46 231.416 87.096 231.416 86.648C231.416 86.3307 231.346 86.0787 231.206 85.892C231.075 85.7053 230.893 85.5467 230.66 85.416C230.436 85.2853 230.179 85.1547 229.89 85.024L228.574 84.45C228.284 84.3287 227.995 84.17 227.706 83.974C227.426 83.778 227.188 83.526 226.992 83.218C226.805 82.91 226.712 82.532 226.712 82.084C226.712 81.6173 226.833 81.202 227.076 80.838C227.328 80.4647 227.673 80.1753 228.112 79.97C228.55 79.7553 229.045 79.648 229.596 79.648C230.146 79.648 230.655 79.7553 231.122 79.97C231.588 80.1753 231.985 80.446 232.312 80.782L231.682 81.538C231.402 81.2673 231.089 81.0573 230.744 80.908C230.408 80.7493 230.025 80.67 229.596 80.67C229.082 80.67 228.667 80.7913 228.35 81.034C228.042 81.2767 227.888 81.6033 227.888 82.014C227.888 82.3033 227.962 82.546 228.112 82.742C228.27 82.9287 228.466 83.0827 228.7 83.204C228.933 83.3253 229.171 83.4373 229.414 83.54L230.716 84.1C231.07 84.2493 231.388 84.4313 231.668 84.646C231.957 84.8513 232.186 85.108 232.354 85.416C232.522 85.7147 232.606 86.0927 232.606 86.55C232.606 87.0353 232.48 87.4787 232.228 87.88C231.976 88.272 231.616 88.5847 231.15 88.818C230.683 89.0513 230.128 89.168 229.484 89.168ZM234.414 89V79.816H239.706V80.796H235.576V83.68H239.062V84.674H235.576V88.006H239.846V89H234.414ZM243.701 89V80.796H240.929V79.816H247.649V80.796H244.877V89H243.701ZM251.207 89V80.796H248.435V79.816H255.155V80.796H252.383V89H251.207ZM256.809 89V79.816H257.971V88.006H261.989V89H256.809ZM263.617 89V79.816H268.909V80.796H264.779V83.68H268.265V84.674H264.779V88.006H269.049V89H263.617ZM273.803 89V79.816H274.965V89H273.803ZM277.481 89V79.816H278.685L282.003 85.584L282.997 87.488H283.053C283.025 87.0213 282.992 86.5407 282.955 86.046C282.927 85.542 282.913 85.0473 282.913 84.562V79.816H284.019V89H282.815L279.483 83.218L278.489 81.328H278.433C278.47 81.7853 278.503 82.2567 278.531 82.742C278.568 83.2273 278.587 83.7127 278.587 84.198V89H277.481Z" fill="#1684AC"/>
</svg>
