<svg width="381" height="383" viewBox="0 0 381 383" fill="none" xmlns="http://www.w3.org/2000/svg">
<g clip-path="url(#clip0_1454_52)">
<path d="M381 199.487C381 250.799 348.261 294.518 302.404 311.154C295.428 313.69 288.228 315.567 280.897 316.762C260.731 320.047 240.055 318.182 220.814 311.341C174.667 294.842 141.689 250.975 141.711 199.462C141.711 133.848 195.279 80.6349 261.355 80.6349C286.328 80.5988 310.68 88.3597 330.971 102.821C361.262 124.38 381 159.643 381 199.487Z" fill="#F2F2F2"/>
<path d="M302.404 311.155C295.428 313.69 288.228 315.568 280.897 316.762C260.731 320.048 240.055 318.183 220.814 311.342L226.339 289.318L226.673 287.996L237.948 288.039L294.595 288.241L295.32 290.369L302.404 311.155Z" fill="#2F2E41"/>
<path d="M103.928 64.6609H0V181.48H103.928V64.6609Z" fill="#E6E6E6"/>
<path d="M101.893 67.1323H1.85303V179.009H101.893V67.1323Z" fill="white"/>
<path d="M51.9642 175.031C55.0612 175.031 57.5719 172.537 57.5719 169.461C57.5719 166.384 55.0612 163.89 51.9642 163.89C48.8671 163.89 46.3564 166.384 46.3564 169.461C46.3564 172.537 48.8671 175.031 51.9642 175.031Z" fill="#E6E6E6"/>
<path d="M51.0168 106.734H18.8081V110.007H51.0168V106.734Z" fill="#E6E6E6"/>
<path d="M67.4197 116.542H18.8081V119.815H67.4197V116.542Z" fill="#1684AC"/>
<path d="M62.6481 126.412H18.8081V129.685H62.6481V126.412Z" fill="#E6E6E6"/>
<path d="M86.5063 136.021H18.8081V139.294H86.5063V136.021Z" fill="#1684AC"/>
<path d="M74.6843 145.172H19.5118V148.446H74.6843V145.172Z" fill="#E6E6E6"/>
<path d="M147.782 254.749C148.178 255.152 148.54 255.586 148.867 256.046L199.665 254.811L205.591 244.053L223.102 250.816L214.474 270.873C213.776 272.493 212.569 273.845 211.033 274.725C209.497 275.606 207.714 275.968 205.953 275.757L148.56 268.869C147.206 270.572 145.363 271.825 143.275 272.461C141.187 273.097 138.953 273.087 136.871 272.432C134.789 271.776 132.957 270.507 131.619 268.792C130.281 267.077 129.501 264.998 129.381 262.832C129.262 260.665 129.809 258.514 130.95 256.664C132.091 254.814 133.772 253.353 135.77 252.475C137.767 251.598 139.986 251.345 142.132 251.751C144.277 252.156 146.248 253.202 147.781 254.747L147.782 254.749Z" fill="#9F616A"/>
<path d="M216.154 193.324L239.927 185.584L246.909 176.072L280.887 178.07L285.875 189.17L303.993 197.674L301.208 249.041L296.445 297.114C271.951 284.515 226.239 294.12 225.839 294.277L216.154 193.324Z" fill="#1684AC"/>
<path d="M221.236 262.852L197.055 253.242L197.158 252.814C197.262 252.382 207.554 209.661 208.92 202.796C210.344 195.644 215.544 193.666 215.765 193.586L215.927 193.527L225.496 196.42L229.699 229.224L221.236 262.852Z" fill="#1684AC"/>
<path d="M273.446 295.001C274.013 294.988 274.58 295.019 275.142 295.094L308.768 257.251L304.857 245.623L321.755 237.465L330.694 257.387C331.416 258.996 331.593 260.794 331.199 262.512C330.804 264.23 329.86 265.775 328.506 266.914L284.401 304.036C284.737 306.18 284.408 308.375 283.458 310.328C282.508 312.282 280.982 313.901 279.082 314.972C277.183 316.043 275 316.514 272.824 316.322C270.649 316.131 268.584 315.286 266.903 313.9C265.223 312.514 264.007 310.653 263.418 308.564C262.828 306.475 262.893 304.257 263.603 302.206C264.313 300.154 265.636 298.366 267.394 297.079C269.152 295.792 271.263 295.067 273.446 295.001Z" fill="#9F616A"/>
<path d="M306.084 260.935L292.057 228.159L297.528 205.328L303.423 197.93C303.855 197.746 304.32 197.654 304.79 197.658C305.259 197.663 305.723 197.764 306.151 197.955C308.326 198.824 310.175 201.488 311.654 205.873L324.8 243.07L306.084 260.935Z" fill="#1684AC"/>
<path d="M233.308 163.927V139.217C233.294 134.868 234.141 130.56 235.803 126.537C237.465 122.514 239.908 118.856 242.993 115.771C246.078 112.686 249.744 110.235 253.783 108.557C257.822 106.88 262.153 106.009 266.531 105.995C270.908 105.98 275.245 106.823 279.295 108.473C283.345 110.124 287.027 112.551 290.133 115.616C293.238 118.68 295.706 122.322 297.394 126.334C299.083 130.346 299.959 134.649 299.974 138.997C299.974 139.07 299.974 139.143 299.974 139.217V163.927C299.972 165.106 299.5 166.237 298.661 167.071C297.821 167.905 296.683 168.374 295.496 168.375H237.786C236.599 168.374 235.461 167.905 234.621 167.071C233.782 166.237 233.31 165.106 233.308 163.927Z" fill="#2F2E41"/>
<path d="M259.791 167.799C273.288 167.799 284.23 156.93 284.23 143.523C284.23 130.115 273.288 119.246 259.791 119.246C246.294 119.246 235.353 130.115 235.353 143.523C235.353 156.93 246.294 167.799 259.791 167.799Z" fill="#9F616A"/>
<path d="M225.422 141.194C225.43 134.25 228.211 127.592 233.154 122.681C238.097 117.77 244.8 115.008 251.79 115H256.766C263.756 115.008 270.459 117.77 275.402 122.681C280.345 127.592 283.125 134.25 283.133 141.194V141.688H272.619L269.033 131.712L268.316 141.688H262.882L261.073 136.655L260.711 141.688H225.422V141.194Z" fill="#2F2E41"/>
<path d="M257.386 171.154C256.893 170.49 256.598 169.701 256.536 168.878C256.474 168.055 256.647 167.231 257.036 166.501C262.308 156.54 269.689 138.133 259.892 126.782L259.189 125.967H287.634V168.39L261.794 172.919C261.533 172.965 261.267 172.989 261.002 172.989C260.296 172.989 259.601 172.823 258.973 172.504C258.345 172.185 257.802 171.723 257.388 171.155L257.386 171.154Z" fill="#2F2E41"/>
<path d="M51.8738 73.7593C49.5152 73.7592 47.2097 74.4538 45.2485 75.7554C43.2874 77.057 41.7589 78.907 40.8562 81.0716C39.9535 83.2362 39.7173 85.618 40.1773 87.916C40.6373 90.214 41.7729 92.3248 43.4405 93.9816C45.1082 95.6385 47.2329 96.7668 49.5461 97.224C51.8593 97.6812 54.257 97.4468 56.4361 96.5503C58.6151 95.6538 60.4776 94.1355 61.788 92.1875C63.0984 90.2394 63.798 87.9491 63.7981 85.6061V85.6055C63.7981 84.0498 63.4896 82.5094 62.8903 81.0722C62.2911 79.6349 61.4127 78.329 60.3054 77.229C59.198 76.1289 57.8834 75.2563 56.4366 74.661C54.9898 74.0657 53.4392 73.7593 51.8732 73.7593H51.8738ZM51.8738 77.3128C52.5813 77.3128 53.2729 77.5212 53.8611 77.9117C54.4494 78.3022 54.9079 78.8572 55.1786 79.5065C55.4494 80.1558 55.5202 80.8703 55.3822 81.5596C55.2442 82.249 54.9035 82.8821 54.4032 83.3791C53.903 83.8761 53.2656 84.2145 52.5717 84.3517C51.8778 84.4888 51.1585 84.4184 50.5049 84.1495C49.8512 83.8805 49.2926 83.425 48.8995 82.8407C48.5064 82.2563 48.2966 81.5692 48.2966 80.8664C48.2966 79.9239 48.6735 79.0201 49.3443 78.3537C50.0152 77.6872 50.925 77.3128 51.8738 77.3128ZM51.8738 94.4213C50.4605 94.4148 49.0702 94.066 47.8234 93.405C46.5765 92.744 45.5109 91.7908 44.7188 90.6281C44.7763 88.2588 49.4888 86.9547 51.8738 86.9547C54.2587 86.9547 58.9713 88.2588 59.0287 90.6281C58.2358 91.7899 57.1699 92.7425 55.9233 93.4034C54.6767 94.0643 53.2868 94.4136 51.8738 94.4213Z" fill="#1684AC"/>
<path d="M52.0124 171.596C56.925 162.653 68.6937 156.989 78.3208 162.094C82.6541 164.392 86.0988 168.456 87.1922 173.259C88.4612 178.839 85.7873 184.16 83.0272 188.847C81.5291 191.392 79.8874 193.884 78.6474 196.568C77.3636 199.348 76.446 202.56 77.4126 205.584C78.2827 208.307 80.4646 210.289 82.8539 211.745C85.4909 213.291 88.2958 214.535 91.2148 215.454C97.2237 217.44 103.562 218.254 109.881 217.853C113.022 217.641 116.136 217.141 119.184 216.359C122.427 215.538 125.609 214.497 128.856 213.694C134.279 212.356 140.462 211.691 145.603 214.379C150.599 216.99 152.834 222.453 153.526 227.767C154.803 237.58 150.886 247.763 143.814 254.635C140.421 257.932 136.152 260.656 131.502 261.77C127.444 262.742 122.234 262.68 119.005 259.667C115.402 256.304 116.25 250.912 119.112 247.364C122.764 242.837 128.953 241.75 134.475 241.64C140.756 241.514 147.032 242.444 153.31 241.866C156.375 241.629 159.382 240.908 162.218 239.732C164.711 238.642 166.985 237.113 168.931 235.219C172.806 231.478 175.42 226.495 176.72 221.314C178.285 215.083 177.944 208.535 176.729 202.277C176.082 199.049 175.248 195.862 174.232 192.73C173.812 191.408 171.711 191.973 172.134 193.304C175.876 205.09 177.962 218.718 170.733 229.661C167.741 234.301 163.081 237.634 157.701 238.979C151.445 240.524 144.879 239.76 138.519 239.531C132.47 239.312 125.829 239.548 120.645 243.047C116.391 245.917 113.417 251.377 114.702 256.53C115.942 261.501 120.75 264.022 125.559 264.41C130.605 264.818 135.57 263.136 139.808 260.505C148.623 255.034 154.484 245.41 155.71 235.207C156.349 229.891 155.699 224.164 153.272 219.339C151.993 216.727 150.003 214.523 147.526 212.978C145.057 211.475 142.206 210.734 139.341 210.473C132.834 209.877 126.582 212.097 120.409 213.794C117.256 214.703 114.024 215.316 110.755 215.625C107.583 215.886 104.392 215.835 101.23 215.471C98.0921 215.103 94.9999 214.421 92.0001 213.436C89.0606 212.533 86.2462 211.269 83.6221 209.673C81.3072 208.203 79.3051 206.097 79.1913 203.227C79.0676 200.115 80.6473 197.203 82.1498 194.58C85.118 189.397 88.7846 184.327 89.5587 178.259C90.2367 172.952 88.0867 167.72 84.3741 163.935C82.5134 162.013 80.2734 160.494 77.7943 159.473C75.3153 158.451 72.6505 157.949 69.967 157.998C64.4587 158.154 59.1845 160.534 55.1329 164.188C53.1234 166.002 51.4325 168.136 50.1296 170.502C49.4585 171.723 51.3362 172.815 52.008 171.593L52.0124 171.596Z" fill="#3F3D56"/>
</g>
<defs>
<clipPath id="clip0_1454_52">
<rect width="381" height="383" fill="white"/>
</clipPath>
</defs>
</svg>
