<svg width="350" height="280" viewBox="0 0 350 280" fill="none" xmlns="http://www.w3.org/2000/svg">
<path d="M291.587 66.3328H289.924V24.318C289.924 17.8685 287.145 11.6831 282.198 7.12258C277.251 2.56207 270.542 4.25756e-06 263.546 0H166.989C163.525 0 160.095 0.629002 156.894 1.8511C153.694 3.07319 150.786 4.86444 148.337 7.12258C145.887 9.38071 143.944 12.0615 142.619 15.0119C141.293 17.9623 140.611 21.1245 140.611 24.318V254.818C140.611 261.268 143.39 267.453 148.337 272.014C153.284 276.574 159.993 279.136 166.989 279.136H263.546C270.542 279.136 277.251 276.574 282.198 272.014C287.144 267.453 289.923 261.268 289.923 254.818V96.2398H291.587L291.587 66.3328Z" fill="#E6E6E6"/>
<path d="M264.61 6.32422H252.007C252.587 7.63436 252.808 9.05582 252.652 10.4634C252.495 11.8709 251.965 13.2213 251.109 14.3956C250.253 15.57 249.097 16.5321 247.742 17.1974C246.387 17.8627 244.876 18.2106 243.341 18.2106H188.025C186.49 18.2105 184.979 17.8625 183.625 17.1971C182.27 16.5318 181.114 15.5696 180.258 14.3953C179.402 13.221 178.872 11.8707 178.716 10.4632C178.559 9.05569 178.78 7.6343 179.36 6.32422H167.588C162.363 6.32422 157.353 8.23755 153.659 11.6433C149.965 15.049 147.889 19.6682 147.889 24.4847V254.65C147.889 259.467 149.965 264.086 153.659 267.492C157.353 270.898 162.363 272.811 167.588 272.811H264.61C269.835 272.811 274.845 270.898 278.539 267.492C282.234 264.086 284.309 259.467 284.309 254.65V24.4843C284.309 19.6679 282.233 15.0488 278.539 11.6432C274.845 8.23749 269.835 6.32422 264.61 6.32422Z" fill="white"/>
<path d="M186.751 60.0108C186.226 60.0151 185.705 59.9174 185.223 59.7239C184.741 59.5304 184.308 59.2456 183.953 58.8878C183.532 58.4388 183.217 57.9144 183.026 57.3475C182.835 56.7806 182.774 56.1835 182.846 55.5937C182.946 54.4703 183.457 53.4115 184.295 52.5904C184.697 52.1895 185.184 51.8685 185.726 51.6473C186.267 51.426 186.852 51.3091 187.445 51.3037C187.996 51.3015 188.541 51.4062 189.045 51.611C189.549 51.8159 190.001 52.1162 190.371 52.4926C190.79 52.9297 191.107 53.4423 191.301 53.998C191.495 54.5536 191.562 55.1403 191.498 55.721C191.419 56.9128 190.862 58.0348 189.934 58.8677C189.07 59.6091 187.931 60.018 186.751 60.0108ZM187.445 52.7549C185.904 52.7549 184.573 54.0578 184.414 55.7209C184.362 56.1102 184.397 56.5053 184.517 56.8816C184.638 57.2578 184.841 57.6071 185.114 57.9077C185.321 58.1175 185.574 58.2842 185.856 58.3966C186.139 58.5091 186.444 58.5646 186.751 58.5597C188.192 58.5597 189.733 57.6425 189.93 55.5935C189.975 55.2133 189.934 54.8286 189.81 54.4636C189.687 54.0986 189.482 53.7612 189.21 53.4727C188.987 53.2455 188.714 53.0642 188.41 52.9406C188.106 52.8169 187.777 52.7537 187.445 52.7549Z" fill="#3F3D56"/>
<path d="M186.802 64.3644C185.585 64.3827 184.377 64.162 183.259 63.7171C182.141 63.2722 181.138 62.6132 180.317 61.7838C179.497 60.9544 178.877 59.9736 178.498 58.9064C178.12 57.8392 177.993 56.7101 178.124 55.594C178.382 53.2513 179.563 51.0772 181.444 49.484C183.325 47.8908 185.774 46.9892 188.328 46.9502C191.162 46.9502 193.494 47.7895 195.071 49.3775C196.567 50.8832 197.267 53.0029 197.043 55.346C196.831 57.5656 195.809 58.7216 194.99 59.3006C194.628 59.5725 194.21 59.774 193.761 59.8926C193.312 60.0112 192.842 60.0446 192.379 59.9906C191.083 59.7789 189.65 58.6938 189.875 56.3329L190.293 51.9679C190.312 51.7769 190.412 51.6008 190.572 51.4779C190.732 51.3551 190.938 51.2956 191.145 51.3124C191.353 51.3293 191.544 51.4211 191.678 51.5678C191.812 51.7145 191.878 51.9041 191.861 52.0953L191.443 56.4602C191.331 57.6339 191.784 58.4196 192.653 58.5617C193.154 58.5976 193.65 58.4491 194.032 58.1486C194.601 57.7469 195.313 56.9125 195.475 55.2186C195.662 53.2578 195.121 51.5769 193.91 50.3575C192.639 49.0778 190.709 48.4014 188.328 48.4014C186.168 48.4391 184.097 49.2042 182.506 50.5525C180.915 51.9007 179.914 53.739 179.692 55.7206C179.58 56.6362 179.681 57.5634 179.989 58.44C180.297 59.3166 180.805 60.1224 181.478 60.8034C182.151 61.4844 182.975 62.025 183.893 62.3888C184.811 62.7527 185.803 62.9315 186.802 62.9132C188.035 62.9747 189.266 62.7688 190.397 62.3123C190.59 62.2387 190.806 62.2383 190.998 62.3112C191.191 62.3841 191.344 62.5244 191.425 62.7013C191.506 62.8783 191.507 63.0775 191.429 63.2553C191.35 63.4331 191.199 63.5751 191.007 63.6502C189.683 64.1815 188.245 64.4258 186.802 64.3644Z" fill="#3F3D56"/>
<path d="M178.492 168.079C178.336 168.079 178.184 168.036 178.055 167.956C177.925 167.877 177.825 167.763 177.765 167.631C177.705 167.498 177.69 167.352 177.72 167.211C177.751 167.071 177.826 166.941 177.936 166.84L183.051 162.124C183.199 161.989 183.399 161.914 183.607 161.915C183.814 161.916 184.013 161.992 184.16 162.127C184.307 162.263 184.39 162.446 184.391 162.638C184.392 162.829 184.31 163.013 184.164 163.15L179.049 167.866C178.976 167.934 178.889 167.987 178.793 168.024C178.698 168.06 178.595 168.079 178.492 168.079ZM191.478 166.265C191.323 166.265 191.171 166.222 191.041 166.142C190.912 166.063 190.811 165.949 190.751 165.817C190.692 165.684 190.676 165.538 190.707 165.397C190.737 165.257 190.812 165.127 190.922 165.026L195.251 161.035C195.399 160.901 195.598 160.826 195.806 160.826C196.014 160.827 196.213 160.904 196.36 161.039C196.507 161.174 196.589 161.358 196.59 161.549C196.591 161.741 196.51 161.925 196.364 162.061L192.035 166.052C191.962 166.12 191.875 166.173 191.78 166.21C191.684 166.246 191.582 166.265 191.478 166.265ZM189.117 166.265C189.014 166.265 188.912 166.246 188.816 166.21C188.721 166.173 188.634 166.12 188.561 166.052L185.413 163.15C185.339 163.083 185.28 163.002 185.24 162.914C185.199 162.826 185.178 162.731 185.178 162.636C185.178 162.54 185.198 162.445 185.237 162.357C185.277 162.268 185.335 162.188 185.409 162.12C185.482 162.052 185.569 161.999 185.665 161.962C185.761 161.926 185.864 161.907 185.968 161.907C186.072 161.908 186.175 161.927 186.27 161.964C186.366 162.001 186.453 162.055 186.526 162.124L189.674 165.026C189.784 165.127 189.859 165.257 189.889 165.397C189.92 165.538 189.904 165.684 189.844 165.817C189.785 165.949 189.684 166.063 189.555 166.142C189.425 166.222 189.273 166.265 189.117 166.265Z" fill="#3F3D56"/>
<path d="M196.988 162.274C196.599 162.274 196.219 162.168 195.895 161.968C195.571 161.769 195.319 161.486 195.17 161.154C195.021 160.823 194.982 160.458 195.058 160.106C195.134 159.754 195.322 159.431 195.597 159.177C195.872 158.924 196.223 158.751 196.604 158.681C196.986 158.611 197.382 158.647 197.741 158.784C198.101 158.921 198.408 159.154 198.624 159.452C198.84 159.75 198.956 160.101 198.956 160.46C198.955 160.941 198.748 161.402 198.379 161.742C198.01 162.082 197.51 162.273 196.988 162.274ZM196.988 160.097C196.91 160.097 196.834 160.118 196.77 160.158C196.705 160.198 196.654 160.255 196.625 160.321C196.595 160.387 196.587 160.46 196.602 160.531C196.617 160.601 196.655 160.666 196.71 160.717C196.765 160.767 196.835 160.802 196.911 160.816C196.988 160.83 197.067 160.823 197.139 160.795C197.211 160.768 197.272 160.721 197.315 160.662C197.359 160.602 197.382 160.532 197.382 160.46C197.382 160.364 197.34 160.272 197.266 160.204C197.192 160.136 197.092 160.097 196.988 160.097Z" fill="#3F3D56"/>
<path d="M190.298 168.441C189.909 168.441 189.529 168.335 189.205 168.136C188.881 167.936 188.629 167.653 188.48 167.322C188.331 166.99 188.292 166.625 188.368 166.274C188.444 165.922 188.632 165.598 188.907 165.345C189.182 165.091 189.533 164.918 189.914 164.848C190.296 164.778 190.692 164.814 191.051 164.952C191.411 165.089 191.718 165.321 191.934 165.62C192.15 165.918 192.266 166.269 192.266 166.627C192.265 167.108 192.058 167.569 191.689 167.91C191.32 168.25 190.82 168.441 190.298 168.441ZM190.298 166.265C190.22 166.265 190.144 166.286 190.08 166.326C190.015 166.366 189.964 166.422 189.935 166.489C189.905 166.555 189.897 166.628 189.912 166.698C189.927 166.769 189.965 166.833 190.02 166.884C190.075 166.935 190.145 166.969 190.221 166.983C190.298 166.997 190.377 166.99 190.449 166.963C190.521 166.935 190.582 166.889 190.625 166.829C190.669 166.769 190.692 166.699 190.692 166.627C190.692 166.531 190.65 166.439 190.576 166.371C190.503 166.303 190.403 166.265 190.298 166.265Z" fill="#3F3D56"/>
<path d="M184.788 163.362C184.399 163.362 184.019 163.256 183.695 163.057C183.372 162.857 183.12 162.574 182.971 162.243C182.822 161.911 182.783 161.546 182.859 161.194C182.935 160.843 183.122 160.519 183.397 160.266C183.672 160.012 184.023 159.839 184.405 159.769C184.786 159.699 185.182 159.735 185.541 159.872C185.901 160.01 186.208 160.242 186.424 160.541C186.641 160.839 186.756 161.19 186.756 161.548C186.755 162.029 186.548 162.49 186.179 162.83C185.81 163.17 185.31 163.362 184.788 163.362ZM184.788 161.186C184.711 161.186 184.635 161.207 184.57 161.247C184.505 161.287 184.455 161.343 184.425 161.41C184.395 161.476 184.387 161.549 184.402 161.619C184.418 161.69 184.455 161.754 184.51 161.805C184.565 161.856 184.635 161.89 184.712 161.904C184.788 161.918 184.867 161.911 184.939 161.884C185.011 161.856 185.072 161.81 185.116 161.75C185.159 161.69 185.182 161.62 185.182 161.548C185.182 161.452 185.14 161.36 185.067 161.292C184.993 161.224 184.893 161.186 184.788 161.186Z" fill="#3F3D56"/>
<path d="M177.311 170.255C176.922 170.255 176.542 170.149 176.218 169.95C175.895 169.75 175.642 169.467 175.494 169.136C175.345 168.804 175.306 168.439 175.382 168.088C175.457 167.736 175.645 167.412 175.92 167.159C176.195 166.905 176.546 166.732 176.928 166.662C177.309 166.592 177.705 166.628 178.064 166.766C178.424 166.903 178.731 167.135 178.947 167.434C179.164 167.732 179.279 168.083 179.279 168.441C179.278 168.922 179.071 169.383 178.702 169.723C178.333 170.064 177.833 170.255 177.311 170.255ZM177.311 168.079C177.234 168.079 177.157 168.1 177.093 168.14C177.028 168.18 176.978 168.236 176.948 168.303C176.918 168.369 176.91 168.442 176.925 168.512C176.941 168.583 176.978 168.647 177.033 168.698C177.088 168.749 177.158 168.783 177.235 168.797C177.311 168.811 177.39 168.804 177.462 168.777C177.534 168.749 177.595 168.703 177.639 168.643C177.682 168.583 177.705 168.513 177.705 168.441C177.705 168.345 177.663 168.253 177.59 168.185C177.516 168.117 177.416 168.079 177.311 168.079Z" fill="#3F3D56"/>
<path d="M252.006 226.21H235.478C234.747 226.209 234.047 225.942 233.531 225.465C233.014 224.989 232.724 224.344 232.723 223.671V212.787C232.724 212.113 233.014 211.468 233.531 210.992C234.047 210.516 234.747 210.248 235.478 210.247H252.006C252.736 210.248 253.436 210.516 253.953 210.992C254.469 211.468 254.76 212.113 254.761 212.787V223.671C254.76 224.344 254.469 224.989 253.953 225.465C253.436 225.942 252.736 226.209 252.006 226.21ZM235.478 211.698C235.165 211.699 234.865 211.813 234.643 212.017C234.422 212.221 234.298 212.498 234.297 212.787V223.671C234.298 223.959 234.422 224.236 234.643 224.44C234.865 224.644 235.165 224.759 235.478 224.759H252.006C252.319 224.759 252.619 224.644 252.84 224.44C253.062 224.236 253.186 223.959 253.187 223.671V212.787C253.186 212.498 253.062 212.221 252.84 212.017C252.619 211.813 252.319 211.699 252.006 211.698L235.478 211.698Z" fill="#3F3D56"/>
<path d="M243.742 219.68C243.567 219.68 243.397 219.626 243.258 219.527L236.175 214.448C236.093 214.389 236.025 214.317 235.974 214.234C235.923 214.151 235.89 214.06 235.877 213.965C235.864 213.871 235.872 213.775 235.899 213.683C235.927 213.591 235.973 213.505 236.037 213.43C236.1 213.355 236.179 213.292 236.269 213.245C236.359 213.197 236.458 213.167 236.561 213.155C236.663 213.143 236.767 213.15 236.867 213.176C236.966 213.201 237.06 213.244 237.141 213.303L243.742 218.035L250.342 213.303C250.423 213.244 250.517 213.201 250.616 213.176C250.716 213.15 250.82 213.143 250.923 213.155C251.025 213.167 251.124 213.197 251.214 213.245C251.304 213.292 251.383 213.355 251.446 213.43C251.51 213.505 251.557 213.591 251.584 213.683C251.611 213.775 251.619 213.871 251.606 213.965C251.593 214.06 251.56 214.151 251.509 214.234C251.458 214.317 251.39 214.389 251.308 214.448L244.225 219.527C244.087 219.626 243.917 219.68 243.742 219.68Z" fill="#3F3D56"/>
<path d="M332.515 236.255L241.471 236.288C241.356 236.288 241.245 236.246 241.163 236.171C241.081 236.096 241.036 235.993 241.036 235.887C241.036 235.781 241.081 235.678 241.163 235.603C241.245 235.528 241.356 235.486 241.471 235.486L332.515 235.452C332.631 235.452 332.741 235.495 332.823 235.57C332.905 235.645 332.95 235.747 332.95 235.854C332.95 235.96 332.905 236.062 332.823 236.138C332.741 236.213 332.631 236.255 332.515 236.255Z" fill="#CCCCCC"/>
<path d="M331.304 241.473C334.669 241.473 337.398 238.957 337.398 235.854C337.398 232.751 334.669 230.235 331.304 230.235C327.938 230.235 325.209 232.751 325.209 235.854C325.209 238.957 327.938 241.473 331.304 241.473Z" fill="#1684AC"/>
<path d="M330.338 128.699L238.424 128.732C238.308 128.732 238.197 128.69 238.116 128.615C238.034 128.54 237.988 128.438 237.988 128.331C237.988 128.225 238.034 128.123 238.116 128.047C238.197 127.972 238.308 127.93 238.424 127.93L330.338 127.896C330.454 127.896 330.565 127.939 330.646 128.014C330.728 128.089 330.774 128.191 330.774 128.298C330.774 128.404 330.728 128.506 330.646 128.582C330.565 128.657 330.454 128.699 330.338 128.699Z" fill="#CCCCCC"/>
<path d="M331.304 134.318C334.669 134.318 337.398 131.802 337.398 128.699C337.398 125.596 334.669 123.081 331.304 123.081C327.938 123.081 325.209 125.596 325.209 128.699C325.209 131.802 327.938 134.318 331.304 134.318Z" fill="#1684AC"/>
<path d="M95.0174 73.7172L186.932 73.7505C187.048 73.7505 187.158 73.7082 187.24 73.6329C187.322 73.5577 187.367 73.4556 187.367 73.3491C187.367 73.2427 187.322 73.1406 187.24 73.0654C187.158 72.9901 187.048 72.9478 186.932 72.9478L95.0174 72.9146C94.9019 72.9146 94.7912 72.9568 94.7095 73.0321C94.6279 73.1074 94.582 73.2094 94.582 73.3159C94.582 73.4223 94.6279 73.5244 94.7095 73.5997C94.7912 73.6749 94.9019 73.7172 95.0174 73.7172Z" fill="#CCCCCC"/>
<path d="M94.052 79.3356C97.418 79.3356 100.147 76.8201 100.147 73.717C100.147 70.6139 97.418 68.0984 94.052 68.0984C90.6861 68.0984 87.9575 70.6139 87.9575 73.717C87.9575 76.8201 90.6861 79.3356 94.052 79.3356Z" fill="#1684AC"/>
<path d="M95.0174 182.477L186.932 182.51C187.048 182.51 187.158 182.468 187.24 182.393C187.322 182.317 187.367 182.215 187.367 182.109C187.367 182.002 187.322 181.9 187.24 181.825C187.158 181.75 187.048 181.708 186.932 181.708L95.0174 181.674C94.9019 181.674 94.7912 181.717 94.7095 181.792C94.6279 181.867 94.582 181.969 94.582 182.076C94.582 182.182 94.6279 182.284 94.7095 182.359C94.7912 182.435 94.9019 182.477 95.0174 182.477Z" fill="#CCCCCC"/>
<path d="M94.052 188.096C97.418 188.096 100.147 185.58 100.147 182.477C100.147 179.374 97.418 176.859 94.052 176.859C90.6861 176.859 87.9575 179.374 87.9575 182.477C87.9575 185.58 90.6861 188.096 94.052 188.096Z" fill="#1684AC"/>
<path d="M243.741 236.289C239.867 236.289 236.08 235.229 232.858 233.245C229.637 231.26 227.126 228.44 225.643 225.14C224.16 221.84 223.772 218.209 224.528 214.705C225.284 211.202 227.15 207.984 229.89 205.459C232.629 202.933 236.12 201.213 239.92 200.516C243.72 199.819 247.658 200.177 251.238 201.544C254.818 202.911 257.877 205.225 260.03 208.195C262.182 211.165 263.331 214.657 263.331 218.229C263.325 223.017 261.259 227.607 257.587 230.993C253.914 234.379 248.935 236.283 243.741 236.289ZM243.741 200.972C240.039 200.972 236.42 201.984 233.342 203.88C230.263 205.776 227.864 208.471 226.447 211.625C225.031 214.778 224.66 218.248 225.382 221.595C226.104 224.943 227.887 228.018 230.505 230.431C233.123 232.845 236.458 234.488 240.09 235.154C243.721 235.82 247.484 235.478 250.905 234.172C254.325 232.866 257.249 230.654 259.306 227.816C261.362 224.978 262.46 221.642 262.46 218.229C262.455 213.653 260.481 209.267 256.972 206.032C253.462 202.797 248.704 200.977 243.741 200.972Z" fill="#CCCCCC"/>
<path d="M187.15 182.51C183.275 182.51 179.488 181.451 176.266 179.467C173.045 177.482 170.534 174.662 169.051 171.362C167.569 168.062 167.181 164.431 167.936 160.927C168.692 157.424 170.558 154.206 173.298 151.68C176.037 149.155 179.528 147.435 183.328 146.738C187.128 146.041 191.067 146.399 194.646 147.766C198.226 149.133 201.285 151.447 203.438 154.417C205.59 157.387 206.739 160.879 206.739 164.451C206.733 169.239 204.667 173.829 200.995 177.215C197.323 180.601 192.343 182.505 187.15 182.51ZM187.15 147.194C183.447 147.194 179.828 148.206 176.75 150.102C173.672 151.998 171.272 154.693 169.856 157.847C168.439 161 168.068 164.47 168.79 167.817C169.513 171.165 171.295 174.24 173.913 176.653C176.531 179.067 179.867 180.71 183.498 181.376C187.129 182.042 190.893 181.7 194.313 180.394C197.733 179.088 200.657 176.876 202.714 174.038C204.771 171.2 205.869 167.864 205.869 164.451C205.863 159.875 203.889 155.489 200.38 152.254C196.87 149.019 192.112 147.199 187.15 147.194Z" fill="#CCCCCC"/>
<path d="M239.824 128.732C235.949 128.732 232.162 127.673 228.941 125.689C225.719 123.704 223.208 120.884 221.726 117.584C220.243 114.284 219.855 110.653 220.611 107.149C221.367 103.646 223.232 100.428 225.972 97.9024C228.712 95.3767 232.202 93.6567 236.002 92.9598C239.802 92.263 243.741 92.6206 247.321 93.9875C250.9 95.3544 253.96 97.6692 256.112 100.639C258.265 103.609 259.413 107.101 259.413 110.673C259.408 115.461 257.342 120.051 253.669 123.437C249.997 126.822 245.018 128.727 239.824 128.732ZM239.824 93.4155C236.122 93.4155 232.503 94.4276 229.424 96.3238C226.346 98.22 223.947 100.915 222.53 104.069C221.113 107.222 220.742 110.692 221.465 114.039C222.187 117.387 223.97 120.462 226.588 122.875C229.206 125.289 232.541 126.932 236.172 127.598C239.803 128.264 243.567 127.922 246.987 126.616C250.408 125.31 253.331 123.098 255.388 120.26C257.445 117.422 258.543 114.086 258.543 110.673C258.537 106.097 256.563 101.711 253.054 98.4757C249.545 95.2404 244.787 93.4206 239.824 93.4155Z" fill="#CCCCCC"/>
<path d="M187.585 73.717C183.711 73.717 179.923 72.6578 176.702 70.6734C173.48 68.6889 170.969 65.8684 169.487 62.5684C168.004 59.2684 167.616 55.6372 168.372 52.1339C169.128 48.6307 170.994 45.4127 173.733 42.887C176.473 40.3613 179.963 38.6413 183.763 37.9444C187.563 37.2476 191.502 37.6052 195.082 38.9721C198.661 40.339 201.721 42.6538 203.873 45.6237C206.026 48.5936 207.175 52.0853 207.175 55.6572C207.169 60.4453 205.103 65.0357 201.431 68.4214C197.758 71.8071 192.779 73.7116 187.585 73.717ZM187.585 38.4001C183.883 38.4001 180.264 39.4122 177.185 41.3084C174.107 43.2047 171.708 45.8999 170.291 49.0532C168.874 52.2065 168.504 55.6764 169.226 59.0239C169.948 62.3715 171.731 65.4464 174.349 67.8598C176.967 70.2733 180.302 71.9169 183.933 72.5828C187.564 73.2486 191.328 72.9069 194.749 71.6007C198.169 70.2946 201.093 68.0827 203.149 65.2448C205.206 62.4068 206.304 59.0703 206.304 55.6572C206.298 51.0819 204.325 46.6955 200.815 43.4603C197.306 40.2251 192.548 38.4052 187.585 38.4001Z" fill="#CCCCCC"/>
<path d="M64.6465 196.081C64.111 195.704 63.6675 195.228 63.3448 194.683C63.0222 194.138 62.8276 193.537 62.7737 192.918C62.7618 192.774 62.7581 192.629 62.7627 192.485L42.4905 179.898C41.827 179.482 41.3272 178.879 41.0654 178.18C40.8037 177.481 40.794 176.722 41.038 176.017L50.7269 153.825C51.1438 152.87 51.9544 152.106 52.981 151.701C54.0077 151.295 55.1668 151.281 56.2047 151.662C57.2425 152.042 58.0744 152.787 58.5182 153.732C58.9621 154.676 58.9818 155.745 58.5729 156.703L50.7503 175.04L66.5356 188.258C66.7439 188.214 66.9553 188.184 67.1682 188.168C68.3873 188.079 69.5974 188.423 70.5501 189.129C71.5029 189.836 72.1263 190.852 72.2924 191.969C72.4585 193.086 72.1548 194.22 71.4434 195.137C70.7321 196.054 69.6672 196.686 68.4669 196.902C68.159 196.957 67.8461 196.984 67.5324 196.985C66.4886 196.985 65.4739 196.667 64.6465 196.081Z" fill="#A0616A"/>
<path d="M42.4987 166.892C42.3801 166.637 42.3226 166.361 42.3303 166.083C42.3379 165.806 42.4104 165.533 42.5429 165.283L47.168 156.568C47.6347 155.213 48.665 154.085 50.033 153.429C51.401 152.774 52.9951 152.645 54.4657 153.072C55.9364 153.498 57.1636 154.445 57.8782 155.704C58.5929 156.964 58.7367 158.433 58.2782 159.79L56.5896 169.399C56.5414 169.673 56.4296 169.934 56.2619 170.165C56.0943 170.396 55.8746 170.591 55.6179 170.736C55.3612 170.882 55.0735 170.974 54.7744 171.008C54.4753 171.042 54.1718 171.016 53.8847 170.932L43.7916 167.975C43.5043 167.891 43.2401 167.75 43.017 167.564C42.7939 167.377 42.6171 167.148 42.4987 166.892Z" fill="#1684AC"/>
<path d="M74.4008 274.489H79.7378L82.2766 255.511L74.3999 255.511L74.4008 274.489Z" fill="#A0616A"/>
<path d="M73.0391 272.883L83.5494 272.882H83.5499C84.4295 272.882 85.3005 273.042 86.1131 273.352C86.9258 273.663 87.6642 274.117 88.2861 274.691C88.9081 275.264 89.4015 275.945 89.7381 276.694C90.0747 277.443 90.248 278.246 90.248 279.057V279.258L73.0394 279.259L73.0391 272.883Z" fill="#2F2E41"/>
<path d="M22.2124 271.003L27.3814 272.227L34.9648 254.429L27.3357 252.622L22.2124 271.003Z" fill="#A0616A"/>
<path d="M21.3277 269.135L31.5073 271.546L31.5077 271.546C32.3597 271.748 33.1601 272.103 33.8634 272.59C34.5667 273.077 35.159 273.687 35.6066 274.385C36.0542 275.083 36.3482 275.855 36.4719 276.658C36.5956 277.461 36.5466 278.279 36.3276 279.064L36.2735 279.258L19.6064 275.31L21.3277 269.135Z" fill="#2F2E41"/>
<path d="M59.6461 144.294C65.5511 144.294 70.3381 139.881 70.3381 134.437C70.3381 128.993 65.5511 124.58 59.6461 124.58C53.7411 124.58 48.9541 128.993 48.9541 134.437C48.9541 139.881 53.7411 144.294 59.6461 144.294Z" fill="#A0616A"/>
<path d="M54.2377 175.437C51.6939 173.023 49.5341 170.289 47.8227 167.317C46.9126 165.687 46.3827 163.899 46.2672 162.069C46.1517 160.239 46.4532 158.407 47.1522 156.691C47.866 154.936 48.9704 153.339 50.3942 152.002C51.8181 150.665 53.5298 149.618 55.4193 148.927C58.733 147.687 62.43 147.636 65.7826 148.784C69.1352 149.931 71.9005 152.194 73.5341 155.126C76.2095 159.953 77.258 164.672 76.6505 169.154C75.4889 177.72 74.809 182.148 74.6295 182.314L74.5697 182.369L54.68 183.184L54.2377 175.437Z" fill="#1684AC"/>
<path d="M55.419 180.813L73.2181 179.996C73.6676 179.976 74.1082 180.116 74.4477 180.388C74.7872 180.661 74.9991 181.044 75.0391 181.457L83.2269 266.07C83.2487 266.295 83.2187 266.521 83.1391 266.734C83.0595 266.948 82.9319 267.143 82.7648 267.308C82.5976 267.473 82.3946 267.604 82.169 267.692C81.9434 267.779 81.7002 267.822 81.4555 267.817L74.5017 267.681C74.1193 267.673 73.7502 267.55 73.4514 267.33C73.1526 267.11 72.9408 266.805 72.8487 266.463L59.5643 217.114C59.4774 216.791 59.2838 216.501 59.0104 216.284C58.7369 216.067 58.3971 215.934 58.0379 215.903C57.6787 215.871 57.3178 215.944 57.0051 216.11C56.6925 216.276 56.4435 216.527 56.2926 216.83L31.1179 267.236C30.9469 267.578 30.6507 267.854 30.2811 268.016C29.9116 268.177 29.4923 268.213 29.0967 268.118L22.0986 266.435C21.6654 266.331 21.2923 266.078 21.0567 265.727C20.8212 265.376 20.7414 264.955 20.834 264.552C23.1365 254.531 36.9286 197.146 54.2936 181.263C54.5958 180.99 54.9966 180.83 55.419 180.813Z" fill="#2F2E41"/>
<path d="M89.1248 190.313C88.4812 190.13 87.8867 189.824 87.3798 189.415C86.8729 189.006 86.4652 188.504 86.183 187.94C86.1179 187.808 86.0602 187.674 86.0103 187.537L62.2717 182.174C61.4931 181.994 60.7984 181.588 60.2909 181.015C59.7834 180.442 59.4904 179.733 59.4556 178.993L60.2412 155.083C60.275 154.054 60.7497 153.079 61.5614 152.372C62.3731 151.665 63.4557 151.283 64.5721 151.31C65.6886 151.337 66.748 151.77 67.5183 152.516C68.2887 153.261 68.7073 154.258 68.6825 155.287L68.2052 174.986L87.9692 182.369C88.1484 182.262 88.3354 182.167 88.5287 182.083C89.2345 181.782 90.0096 181.643 90.7866 181.679C91.5636 181.716 92.3193 181.926 92.9886 182.291C93.6578 182.657 94.2204 183.167 94.6279 183.778C95.0353 184.389 95.2753 185.083 95.3271 185.798C95.3789 186.514 95.241 187.23 94.9253 187.886C94.6096 188.541 94.1255 189.116 93.5149 189.561C92.9044 190.005 92.1856 190.306 91.4207 190.437C90.6559 190.568 89.8679 190.525 89.1248 190.313Z" fill="#A0616A"/>
<path d="M57.71 166.997C57.5051 166.794 57.3503 166.552 57.2562 166.288C57.1621 166.024 57.1308 165.744 57.1645 165.468L58.3411 155.827C58.2865 154.406 58.8451 153.024 59.8943 151.983C60.9436 150.941 62.3979 150.326 63.9384 150.272C65.479 150.217 66.98 150.729 68.1124 151.693C69.2449 152.657 69.9163 153.996 69.9795 155.416L71.8943 164.989C71.9489 165.262 71.9391 165.543 71.8653 165.812C71.7916 166.082 71.6558 166.333 71.4671 166.55C71.2785 166.766 71.0414 166.943 70.772 167.067C70.5026 167.192 70.2073 167.261 69.9062 167.271L59.3223 167.616C59.0211 167.626 58.7212 167.576 58.4429 167.469C58.1646 167.362 57.9146 167.201 57.71 166.997Z" fill="#1684AC"/>
<path d="M44.3251 147.451L45.4423 144.122L46.2062 147.858L52.4806 147.705L52.4516 144.022L54.8368 147.657L60.5224 146.498C59.3078 145.006 58.0787 143.49 57.3018 141.732C56.525 139.973 56.2422 137.91 56.968 136.13C58.7626 131.728 65.5663 132.96 69.2876 132.922C70.3733 132.911 71.5989 132.839 72.3099 132.021C72.8453 131.405 72.933 130.523 72.9059 129.709C72.7661 125.513 70.0337 121.51 66.1708 119.842C64.2799 119.039 62.172 118.776 60.1176 119.086C59.046 119.242 58.0056 119.544 57.0305 119.982C56.161 120.374 55.2479 121.306 54.3118 121.281C53.5251 121.26 52.4837 120.505 51.6277 120.375C50.5964 120.229 49.5443 120.263 48.5266 120.475C46.4815 120.896 44.6379 121.913 43.2696 123.375C40.3615 126.491 39.4974 131.081 40.0042 135.307C40.5111 139.533 42.226 143.508 43.9217 147.414" fill="#2F2E41"/>
<path d="M349.565 280H0.435323C0.319868 280 0.209142 279.958 0.127503 279.883C0.045864 279.807 0 279.705 0 279.599C0 279.492 0.045864 279.39 0.127503 279.315C0.209142 279.24 0.319868 279.198 0.435323 279.198H349.565C349.68 279.198 349.791 279.24 349.872 279.315C349.954 279.39 350 279.492 350 279.599C350 279.705 349.954 279.807 349.872 279.883C349.791 279.958 349.68 280 349.565 280Z" fill="#E6E6E6"/>
<path d="M343.675 275.026C345.003 274.033 345.972 272.689 346.45 271.175C346.804 269.642 346.096 267.843 344.513 267.25C342.735 266.617 340.834 267.757 339.396 268.903C337.958 270.049 336.303 271.361 334.416 271.115C335.382 270.303 336.104 269.274 336.511 268.128C336.917 266.983 336.995 265.76 336.736 264.578C336.658 264.087 336.433 263.625 336.086 263.246C335.103 262.273 333.31 262.693 332.125 263.459C328.367 265.898 327.319 270.602 327.304 274.84C326.921 273.307 327.239 271.715 327.232 270.175C327.225 268.636 326.755 266.844 325.324 266.031C324.437 265.591 323.44 265.373 322.433 265.398C320.742 265.345 318.862 265.498 317.706 266.637C316.261 268.05 316.644 270.429 317.894 271.968C319.144 273.507 321.038 274.5 322.78 275.579C324.183 276.346 325.379 277.396 326.278 278.651C326.385 278.824 326.472 279.007 326.538 279.197H337.127C339.504 278.086 341.707 276.683 343.675 275.026Z" fill="#F2F2F2"/>
<path d="M233.51 121.282C233.313 121.282 233.119 121.236 232.947 121.148C232.774 121.061 232.628 120.936 232.521 120.783C232.414 120.631 232.35 120.456 232.335 120.275C232.32 120.095 232.354 119.913 232.434 119.747L233.796 116.946C231.92 115.409 230.724 113.287 230.439 110.988C230.155 108.688 230.801 106.373 232.254 104.485C233.707 102.598 235.864 101.272 238.312 100.76C240.761 100.249 243.328 100.589 245.521 101.715C247.714 102.841 249.379 104.674 250.197 106.863C251.015 109.051 250.927 111.44 249.952 113.573C248.976 115.705 247.181 117.431 244.911 118.418C242.64 119.405 240.054 119.586 237.649 118.924L234.172 121.093C233.977 121.216 233.746 121.282 233.51 121.282ZM240.538 101.912C238.728 101.911 236.961 102.429 235.484 103.395C234.007 104.361 232.893 105.727 232.296 107.303C231.698 108.879 231.647 110.587 232.15 112.191C232.653 113.794 233.685 115.214 235.102 116.253L235.531 116.569L234.066 119.583L237.429 117.484L237.761 117.587C238.961 117.959 240.234 118.085 241.492 117.958C242.75 117.831 243.963 117.453 245.047 116.851C246.131 116.249 247.059 115.437 247.769 114.471C248.478 113.504 248.952 112.408 249.156 111.256C249.36 110.105 249.29 108.926 248.95 107.802C248.611 106.678 248.011 105.635 247.191 104.747C246.372 103.858 245.352 103.144 244.203 102.654C243.055 102.165 241.804 101.911 240.538 101.912Z" fill="#3F3D56"/>
<path d="M240.538 110.831C241.32 110.831 241.954 110.247 241.954 109.526C241.954 108.805 241.32 108.22 240.538 108.22C239.756 108.22 239.123 108.805 239.123 109.526C239.123 110.247 239.756 110.831 240.538 110.831Z" fill="#3F3D56"/>
<path d="M236.527 110.831C237.309 110.831 237.943 110.247 237.943 109.526C237.943 108.805 237.309 108.22 236.527 108.22C235.745 108.22 235.111 108.805 235.111 109.526C235.111 110.247 235.745 110.831 236.527 110.831Z" fill="#3F3D56"/>
<path d="M244.55 110.831C245.332 110.831 245.966 110.247 245.966 109.526C245.966 108.805 245.332 108.22 244.55 108.22C243.768 108.22 243.134 108.805 243.134 109.526C243.134 110.247 243.768 110.831 244.55 110.831Z" fill="#3F3D56"/>
</svg>
