<svg width="345" height="314" viewBox="0 0 345 314" fill="none" xmlns="http://www.w3.org/2000/svg">
<g clip-path="url(#clip0_1454_244)">
<path d="M159.423 308.102L168.008 308.101L172.093 276.892L159.421 276.892L159.423 308.102Z" fill="#FFB6B6"/>
<path d="M188.838 307.919C189.105 308.343 189.246 309.712 189.246 310.206C189.246 311.723 187.941 312.952 186.332 312.952H159.744C158.646 312.952 157.756 312.113 157.756 311.079V310.035C157.756 310.035 156.441 306.9 159.149 303.035C159.149 303.035 162.515 306.061 167.544 301.322L169.027 298.79L179.762 306.189L185.712 306.879C187.014 307.03 188.168 306.856 188.838 307.919Z" fill="#2F2E41"/>
<path d="M126.845 308.102L135.431 308.101L139.515 276.892L126.844 276.892L126.845 308.102Z" fill="#FFB6B6"/>
<path d="M156.26 307.919C156.527 308.343 156.668 309.712 156.668 310.206C156.668 311.723 155.364 312.952 153.754 312.952H127.167C126.069 312.952 125.179 312.113 125.179 311.079V310.035C125.179 310.035 123.863 306.9 126.571 303.035C126.571 303.035 129.937 306.061 134.966 301.322L136.449 298.79L147.184 306.189L153.134 306.879C154.436 307.03 155.59 306.856 156.26 307.919Z" fill="#2F2E41"/>
<path d="M120.523 140.453L109.664 163.651L123.419 290.557L140.431 291.58L147.309 179.344L153.824 291.921L174.095 289.875L178.903 146.962L120.523 140.453Z" fill="#2F2E41"/>
<path d="M163.307 48.0028L141.517 44.2502L137.116 48.3977L114.731 57.2137L116.541 90.3048L118.351 123.396C118.351 123.396 111.111 127.941 114.731 134.197C118.351 140.453 117.627 147.958 117.627 147.958H178.903L176.266 110.432L183.506 62.6721L166.59 55.1242L163.307 48.0028Z" fill="#1684AC"/>
<path d="M153.78 42.3139C164.348 42.3139 172.916 34.2393 172.916 24.2788C172.916 14.3183 164.348 6.24365 153.78 6.24365C143.211 6.24365 134.644 14.3183 134.644 24.2788C134.644 34.2393 143.211 42.3139 153.78 42.3139Z" fill="#FFB6B6"/>
<path d="M140.055 40.289C137.763 40.482 134.02 34.9549 134.187 29.6022C134.294 26.1586 131.122 25.4815 130.887 21.0406C130.749 18.453 134.967 17.6462 135.256 15.5707C135.781 11.8102 138.356 9.27968 138.677 8.97206C141.451 6.31664 143.409 7.17988 146.672 4.10231C148.636 2.24946 148.133 1.74185 149.455 0.92001C153.273 -1.45186 160.133 1.11879 164.235 4.58157C165.655 5.77983 170.946 4.4702 173.258 7.85396C175.981 11.8407 175.349 19.971 174.181 21.044C173.472 21.6959 171.851 20.1032 167.46 19.0811C163.394 18.1347 167.23 22.8147 162.529 22.0294C156.971 21.1007 155.883 19.507 153.802 20.4628C151.601 21.4733 149.882 24.602 150.381 27.0615C150.629 28.282 151.347 28.9625 150.942 29.5831C150.203 30.7162 149.354 29.6049 148.406 30.7421C147.304 32.0647 150.044 35.4577 149.528 35.7854C149.424 35.8514 149.109 35.8428 146.151 33.1618C144.97 32.0913 144.624 31.4339 144.393 31.5348C144.019 31.6982 141.567 33.8508 142.503 35.5508C143.96 38.1962 142.096 38.2786 142.503 40.0596C142.924 41.8969 141.512 40.1663 140.055 40.289Z" fill="#2F2E41"/>
<path d="M160.397 127.915C154.755 130.69 151.701 135.684 153.576 139.067C155.451 142.451 161.543 142.944 167.187 140.166C169.458 139.086 171.421 137.509 172.912 135.567L196.66 123.523L190.426 113.141L167.676 126.116C165.132 126.159 162.636 126.776 160.397 127.915Z" fill="#FFB6B6"/>
<path d="M179.162 63.3545C179.162 63.3545 185.678 59.2607 190.022 70.1773C193.448 78.7897 199.804 104.176 202.334 114.509C203.006 117.252 202.034 120.118 199.801 121.988L196.899 124.419L182.782 134.313L173.157 121.112L184.847 114.47L171.515 87.2133L179.162 63.3545Z" fill="#1684AC"/>
<path d="M179.422 119.803V105.812C179.422 105.005 180.118 104.348 180.975 104.348H188.159C189.015 104.348 189.711 105.005 189.711 105.812V119.803C189.711 120.61 189.015 121.266 188.159 121.266H180.975C180.118 121.266 179.422 120.61 179.422 119.803Z" fill="#6C63FF"/>
<path d="M261.072 204.403L237.027 204.716L227.387 103.411C227.153 100.952 227.996 98.4658 229.699 96.5902L253.343 70.5571C256.653 66.9132 262.28 66.2557 266.434 69.0292L296.047 88.8035C298.463 90.4167 299.96 92.9389 300.154 95.7234L321.771 164.167L318.872 186.992L318.9 187.024L322.326 203.607L261.072 204.403Z" fill="#E6E6E6"/>
<path d="M256.035 94.1121L255.648 89.4102C255.546 88.1691 256.534 87.081 257.851 86.9846L264.861 86.4719C266.178 86.3756 267.332 87.307 267.434 88.5481L267.821 93.25C267.924 94.4912 266.935 95.5793 265.619 95.6756L258.609 96.1883C257.292 96.2846 256.138 95.3532 256.035 94.1121Z" fill="#1684AC"/>
<path d="M244.224 131.693L242.791 114.297C242.689 113.056 243.677 111.967 244.994 111.871L255.371 111.112C256.688 111.016 257.843 111.947 257.945 113.188L259.377 130.585C259.48 131.826 258.492 132.914 257.175 133.01L246.798 133.769C245.481 133.866 244.326 132.934 244.224 131.693Z" fill="#3F3D56"/>
<path d="M271.034 170.699C269.776 170.749 268.686 169.864 268.551 168.684L266.642 151.908C266.561 151.192 266.835 150.501 267.396 150.011C267.956 149.522 268.709 149.317 269.46 149.447L269.996 149.541C271.061 149.727 271.864 150.568 271.948 151.586L273.321 168.269C273.372 168.885 273.16 169.479 272.725 169.942C272.309 170.384 271.742 170.649 271.121 170.694C271.092 170.696 271.063 170.698 271.034 170.699Z" fill="#3F3D56"/>
<path d="M249.07 169.972L247.633 152.524C247.532 151.293 248.474 150.23 249.778 150.104L259.192 149.197C260.498 149.084 261.677 149.971 261.817 151.203L263.815 168.827C263.884 169.439 263.693 170.037 263.275 170.51C262.858 170.984 262.27 171.27 261.619 171.318L251.644 172.048C250.327 172.144 249.172 171.213 249.07 169.972Z" fill="#3F3D56"/>
<path d="M305.799 177.816L314.211 189.661L316.207 203.528L322.122 203.45L318.743 187.095L305.313 172.113C304.413 173.965 304.597 176.124 305.799 177.816Z" fill="#CCCCCC"/>
<path d="M315.642 199.559L291.675 201.623L291.706 201.94L315.673 199.876L315.642 199.559Z" fill="#3F3D56"/>
<path d="M313.956 196.864L291.221 198.696L291.25 199.013L313.985 197.182L313.956 196.864Z" fill="#3F3D56"/>
<path d="M312.54 194.089L290.812 196.081L290.845 196.398L312.572 194.406L312.54 194.089Z" fill="#3F3D56"/>
<path d="M311.63 191.292L290.787 193.474L290.824 193.79L311.667 191.608L311.63 191.292Z" fill="#3F3D56"/>
<path d="M310.411 188.831L290.388 190.965L290.426 191.281L310.449 189.147L310.411 188.831Z" fill="#3F3D56"/>
<path d="M308.885 186.698L289.33 188.129L289.356 188.446L308.912 187.016L308.885 186.698Z" fill="#3F3D56"/>
<path d="M307.69 184.545L288.703 186.145L288.733 186.462L307.72 184.862L307.69 184.545Z" fill="#3F3D56"/>
<path d="M306.493 182.4L288.125 184.323L288.163 184.64L306.53 182.716L306.493 182.4Z" fill="#3F3D56"/>
<path d="M305.641 180.239L287.481 181.87L287.513 182.187L305.673 180.556L305.641 180.239Z" fill="#3F3D56"/>
<path d="M304.11 178.14L286.74 179.926L286.777 180.243L304.147 178.456L304.11 178.14Z" fill="#3F3D56"/>
<path d="M303.281 176.253L286.036 177.674L286.065 177.991L303.31 176.57L303.281 176.253Z" fill="#3F3D56"/>
<path d="M284.223 171.072L282.451 149.55C282.349 148.308 283.337 147.22 284.654 147.124L295.705 146.316C297.021 146.219 298.176 147.151 298.278 148.392L300.05 169.914C300.153 171.155 299.164 172.243 297.848 172.34L286.797 173.148C285.48 173.244 284.326 172.313 284.223 171.072Z" fill="#1684AC"/>
<path d="M261.072 204.403L241.414 204.66L241.255 204.661L240.08 190.394C239.932 188.589 241.368 187.007 243.283 186.867L262.605 185.454C264.519 185.314 266.198 186.668 266.346 188.472L267.619 203.925L267.45 203.937L261.072 204.403Z" fill="#CCCCCC"/>
<path d="M282.356 131.937L281.002 115.493C280.9 114.252 281.888 113.164 283.205 113.067L286.847 112.801C288.164 112.704 289.318 113.636 289.421 114.877L290.775 131.322C290.877 132.563 289.889 133.651 288.572 133.747L284.93 134.013C283.613 134.11 282.458 133.178 282.356 131.937Z" fill="#3F3D56"/>
<path d="M291.995 203.738L289.835 189.848L285.707 176.74L284.564 173.152C282.743 172.17 280.515 173.573 280.782 175.535L280.992 177.085L285.121 190.192L287.281 204.083" fill="#CCCCCC"/>
<path d="M50.0128 206.963L25.9677 207.276L16.3277 105.971C16.0938 103.512 16.9365 101.026 18.64 99.1505L42.2838 73.1174C45.5936 69.4735 51.2212 68.816 55.3746 71.5895L84.988 91.3638C87.4039 92.977 88.901 95.4992 89.0952 98.2837L110.712 166.727L107.812 189.552L107.841 189.584L111.267 206.167L50.0128 206.963Z" fill="#E6E6E6"/>
<path d="M44.9764 96.6724L44.5892 91.9705C44.487 90.7294 45.4752 89.6413 46.7921 89.5449L53.8017 89.0322C55.1186 88.9359 56.273 89.8673 56.3752 91.1084L56.7624 95.8104C56.8646 97.0515 55.8765 98.1396 54.5596 98.2359L47.55 98.7486C46.2331 98.8449 45.0786 97.9135 44.9764 96.6724Z" fill="#1684AC"/>
<path d="M33.165 134.254L31.7325 116.857C31.6303 115.616 32.6185 114.528 33.9354 114.431L44.3125 113.672C45.6294 113.576 46.7838 114.507 46.886 115.749L48.3185 133.145C48.4207 134.386 47.4326 135.474 46.1157 135.571L35.7387 136.33C34.4218 136.426 33.2672 135.495 33.165 134.254Z" fill="#3F3D56"/>
<path d="M59.9747 173.26C58.717 173.309 57.6266 172.424 57.4921 171.245L55.5828 154.468C55.5013 153.752 55.7761 153.061 56.3366 152.571C56.8971 152.082 57.6495 151.877 58.401 152.008L58.9366 152.101C60.0019 152.287 60.8046 153.128 60.8885 154.146L62.2622 170.829C62.313 171.445 62.1012 172.04 61.666 172.502C61.2502 172.944 60.6833 173.209 60.0618 173.254C60.0328 173.257 60.0039 173.258 59.9747 173.26Z" fill="#3F3D56"/>
<path d="M38.0109 172.532L36.5742 155.085C36.4728 153.853 37.415 152.79 38.719 152.664L48.1328 151.757C49.4387 151.645 50.6184 152.531 50.7584 153.764L52.7562 171.388C52.8254 172 52.6338 172.597 52.2162 173.071C51.799 173.544 51.2106 173.831 50.5596 173.878L40.5846 174.608C39.2677 174.704 38.1131 173.773 38.0109 172.532Z" fill="#3F3D56"/>
<path d="M94.7398 180.376L103.152 192.221L105.148 206.089L111.063 206.01L107.684 189.655L94.2541 174.673C93.354 176.525 93.5379 178.684 94.7398 180.376Z" fill="#CCCCCC"/>
<path d="M104.583 202.119L80.616 204.183L80.6467 204.5L104.614 202.436L104.583 202.119Z" fill="#3F3D56"/>
<path d="M102.897 199.425L80.1621 201.256L80.1909 201.573L102.926 199.742L102.897 199.425Z" fill="#3F3D56"/>
<path d="M101.481 196.649L79.7534 198.641L79.7861 198.958L101.513 196.966L101.481 196.649Z" fill="#3F3D56"/>
<path d="M100.571 193.852L79.7275 196.034L79.7649 196.351L100.608 194.168L100.571 193.852Z" fill="#3F3D56"/>
<path d="M99.3515 191.391L79.3289 193.525L79.3668 193.841L99.3894 191.708L99.3515 191.391Z" fill="#3F3D56"/>
<path d="M97.8264 189.259L78.2712 190.689L78.2974 191.006L97.8525 189.576L97.8264 189.259Z" fill="#3F3D56"/>
<path d="M96.6308 187.106L77.6436 188.706L77.6736 189.023L96.6609 187.423L96.6308 187.106Z" fill="#3F3D56"/>
<path d="M95.434 184.96L77.0664 186.883L77.1037 187.2L95.4714 185.277L95.434 184.96Z" fill="#3F3D56"/>
<path d="M94.5815 182.799L76.4219 184.431L76.4539 184.748L94.6136 183.116L94.5815 182.799Z" fill="#3F3D56"/>
<path d="M93.0509 180.7L75.6814 182.486L75.7181 182.803L93.0875 181.017L93.0509 180.7Z" fill="#3F3D56"/>
<path d="M92.2218 178.813L74.9768 180.234L75.0062 180.551L92.2513 179.13L92.2218 178.813Z" fill="#3F3D56"/>
<path d="M73.1643 173.632L71.392 152.11C71.2898 150.869 72.2781 149.781 73.595 149.684L84.6455 148.876C85.9624 148.78 87.1168 149.711 87.219 150.952L88.9913 172.475C89.0935 173.716 88.1054 174.804 86.7885 174.9L75.7379 175.708C74.4211 175.805 73.2665 174.873 73.1643 173.632Z" fill="#1684AC"/>
<path d="M50.0128 206.963L30.3546 207.22L30.1961 207.222L29.0212 192.954C28.8726 191.149 30.3093 189.567 32.2239 189.427L51.5455 188.014C53.4601 187.874 55.1386 189.228 55.2872 191.033L56.5596 206.485L56.3912 206.497L50.0128 206.963Z" fill="#CCCCCC"/>
<path d="M71.297 134.498L69.9428 118.053C69.8406 116.812 70.8289 115.724 72.1457 115.627L75.7879 115.361C77.1048 115.265 78.2592 116.196 78.3614 117.437L79.7156 133.882C79.8177 135.123 78.8297 136.211 77.5128 136.307L73.8706 136.574C72.5537 136.67 71.3992 135.739 71.297 134.498Z" fill="#3F3D56"/>
<path d="M80.936 206.298L78.7759 192.408L74.6476 179.3L73.5052 175.712C71.6839 174.73 69.4559 176.134 69.7225 178.095L69.9332 179.645L74.0615 192.753L76.2216 206.643" fill="#CCCCCC"/>
<path d="M176.804 205.458L152.76 205.771L143.119 104.466C142.886 102.007 143.728 99.5208 145.432 97.6452L169.076 71.6121C172.385 67.9677 178.013 67.3109 182.166 70.0842L211.78 89.8585C214.196 91.4717 227.193 100.626 227.387 103.411L221.211 173.106L234.604 188.047L234.633 188.079L238.059 204.662L176.804 205.458Z" fill="#E6E6E6"/>
<path d="M171.768 95.1673L171.381 90.4654C171.279 89.2243 172.267 88.1361 173.584 88.0398L180.593 87.5271C181.91 87.4308 183.065 88.3622 183.167 89.6033L183.554 94.3052C183.656 95.5463 182.668 96.6344 181.351 96.7308L174.342 97.2434C173.025 97.3398 171.87 96.4084 171.768 95.1673Z" fill="#1684AC"/>
<path d="M159.957 132.748L158.524 115.352C158.422 114.11 159.41 113.022 160.727 112.926L171.104 112.167C172.421 112.071 173.576 113.002 173.678 114.243L175.11 131.64C175.213 132.881 174.224 133.969 172.908 134.065L162.531 134.824C161.214 134.921 160.059 133.989 159.957 132.748Z" fill="#3F3D56"/>
<path d="M183.358 151.3C182.877 151.72 182.641 152.314 182.711 152.929L184.62 169.705C184.736 170.719 185.672 171.479 186.752 171.436C187.321 171.416 187.832 171.182 188.205 170.785C188.579 170.388 188.761 169.878 188.717 169.349L187.344 152.666C187.272 151.791 186.582 151.069 185.667 150.909L185.131 150.816C184.95 150.784 184.769 150.775 184.591 150.788C184.136 150.821 183.704 150.998 183.358 151.3Z" fill="#3F3D56"/>
<path d="M154.896 173.452C154.39 173.058 154.084 172.502 154.033 171.885L152.659 155.203C152.575 154.184 153.231 153.237 154.253 152.898L154.767 152.728C155.487 152.49 156.265 152.583 156.899 152.985C157.533 153.387 157.917 154.03 157.954 154.749L158.814 171.602C158.874 172.787 157.942 173.82 156.691 173.954C156.662 173.957 156.633 173.96 156.604 173.962C155.983 174.007 155.379 173.827 154.896 173.452Z" fill="#3F3D56"/>
<path d="M221.532 178.871L229.944 190.716L231.939 204.583L237.855 204.505L234.475 188.15L221.046 173.168C220.146 175.02 220.33 177.179 221.532 178.871Z" fill="#CCCCCC"/>
<path d="M231.375 200.614L207.408 202.678L207.438 202.995L231.406 200.931L231.375 200.614Z" fill="#3F3D56"/>
<path d="M229.689 197.92L206.954 199.751L206.983 200.068L229.717 198.237L229.689 197.92Z" fill="#3F3D56"/>
<path d="M228.272 195.144L206.545 197.136L206.578 197.453L228.305 195.46L228.272 195.144Z" fill="#3F3D56"/>
<path d="M227.363 192.347L206.52 194.529L206.557 194.846L227.4 192.663L227.363 192.347Z" fill="#3F3D56"/>
<path d="M226.143 189.886L206.121 192.02L206.159 192.336L226.181 190.203L226.143 189.886Z" fill="#3F3D56"/>
<path d="M224.618 187.754L205.063 189.184L205.089 189.501L224.645 188.071L224.618 187.754Z" fill="#3F3D56"/>
<path d="M223.423 185.601L204.435 187.2L204.465 187.518L223.453 185.918L223.423 185.601Z" fill="#3F3D56"/>
<path d="M222.226 183.455L203.858 185.378L203.896 185.695L222.263 183.772L222.226 183.455Z" fill="#3F3D56"/>
<path d="M221.373 181.294L203.214 182.925L203.246 183.242L221.405 181.611L221.373 181.294Z" fill="#3F3D56"/>
<path d="M219.843 179.195L202.473 180.981L202.51 181.298L219.88 179.511L219.843 179.195Z" fill="#3F3D56"/>
<path d="M219.014 177.308L201.769 178.729L201.798 179.046L219.043 177.625L219.014 177.308Z" fill="#3F3D56"/>
<path d="M199.956 172.127L198.184 150.605C198.082 149.364 199.07 148.275 200.387 148.179L211.438 147.371C212.754 147.275 213.909 148.206 214.011 149.447L215.783 170.97C215.885 172.211 214.897 173.299 213.58 173.395L202.53 174.203C201.213 174.3 200.058 173.368 199.956 172.127Z" fill="#1684AC"/>
<path d="M176.804 205.458L157.146 205.714L156.988 205.716L155.813 191.448C155.664 189.644 157.101 188.062 159.016 187.922L178.338 186.509C180.252 186.369 181.93 187.723 182.079 189.527L183.351 204.979L183.183 204.992L176.804 205.458Z" fill="#CCCCCC"/>
<path d="M198.089 132.992L196.735 116.548C196.632 115.307 197.621 114.218 198.938 114.122L202.58 113.856C203.897 113.759 205.051 114.691 205.153 115.932L206.507 132.376C206.61 133.618 205.621 134.706 204.305 134.802L200.662 135.068C199.345 135.165 198.191 134.233 198.089 132.992Z" fill="#3F3D56"/>
<path d="M207.728 204.793L205.568 190.903L201.439 177.795L200.297 174.207C198.476 173.225 196.248 174.628 196.514 176.59L196.725 178.14L200.853 191.248L203.013 205.138" fill="#CCCCCC"/>
<path d="M344.991 203.181L37.0593 206.944L37.0681 207.58L345 203.818L344.991 203.181Z" fill="#CCCCCC"/>
<path d="M139.926 109.591C147.543 109.591 153.718 103.771 153.718 96.5925C153.718 89.4138 147.543 83.5942 139.926 83.5942C132.309 83.5942 126.134 89.4138 126.134 96.5925C126.134 103.771 132.309 109.591 139.926 109.591Z" fill="#1684AC"/>
<path d="M148.876 82.8988C148.071 82.4549 146.843 82.6854 146.4 83.5107C144.653 86.768 143.38 90.1776 142.55 93.7074C141.226 92.1688 139.901 90.6302 138.577 89.0915C137.961 88.3756 136.658 88.4877 136.017 89.0915C135.266 89.7993 135.4 90.786 136.017 91.5038C138.126 93.953 140.234 96.4022 142.342 98.8514C142.787 99.3687 143.722 99.4514 144.319 99.2041C145.04 98.9057 145.334 98.3543 145.432 97.6453C146.029 93.3381 147.449 89.1055 149.526 85.2326C149.966 84.4107 149.756 83.3836 148.876 82.8988Z" fill="white"/>
<path d="M147.513 125.107C153.704 126.5 159.484 124.619 160.424 120.906C161.364 117.193 157.108 113.055 150.915 111.662C148.449 111.074 145.87 111.051 143.393 111.595L117.084 106.006L114.565 117.697L140.767 121.965C142.718 123.505 145.031 124.583 147.513 125.107Z" fill="#FFB6B6"/>
<path d="M119.075 60.6253L114.731 57.2139C114.731 57.2139 106.044 61.3076 104.596 64.7191C103.148 68.1305 94.4607 100.88 94.4607 100.88C94.4607 100.88 92.7563 118.829 97.2283 121.112C101.7 123.396 129.934 122.031 129.934 122.031L132.106 108.386L120.523 104.292L119.075 60.6253Z" fill="#1684AC"/>
<path d="M292.318 251.73C291.707 250.759 289.062 251.799 288.576 250.917C288.092 250.039 290.549 248.701 291.952 245.643C292.205 245.092 293.8 241.618 292.62 240.546C290.381 238.514 280.139 246.899 276.555 244.155C275.768 243.553 275.219 242.351 272.838 240.399C271.891 239.622 271.318 239.271 270.764 239.402C269.977 239.587 269.915 240.579 269.072 242.53C267.807 245.455 267.059 245.278 266.322 247.612C265.775 249.344 265.9 250.352 265.256 250.548C264.345 250.826 263.507 248.988 262.352 249.152C261.174 249.32 260.462 251.46 260.237 253.062C259.815 256.068 260.986 258.052 261.636 260.138C262.341 262.405 262.76 265.852 261.131 270.732L245.003 313.557C248.564 304.769 258.873 280.68 263.205 271.729C264.455 269.145 265.836 266.524 268.671 265.489C271.401 264.493 275.15 265.088 279.929 264.003C280.487 263.876 282.036 263.504 282.231 262.646C282.392 261.936 281.481 261.54 281.621 260.875C281.809 259.983 283.6 259.972 285.802 258.943C287.354 258.218 288.322 257.355 289.153 256.613C289.404 256.39 293.131 253.023 292.318 251.73Z" fill="#F2F2F2"/>
<path d="M228.868 274.275C228.185 274.277 227.964 275.8 227.365 275.771C226.767 275.742 226.779 274.219 225.592 272.688C225.378 272.412 224.029 270.671 223.13 270.908C221.426 271.357 222.838 278.514 220.375 279.381C219.834 279.571 219.049 279.478 217.346 280.016C216.668 280.23 216.32 280.394 216.228 280.688C216.098 281.105 216.596 281.42 217.369 282.373C218.527 283.802 218.219 284.097 219.222 285.111C219.967 285.864 220.527 286.097 220.444 286.451C220.325 286.953 219.126 286.811 218.879 287.392C218.627 287.985 219.535 288.932 220.305 289.498C221.749 290.561 223.12 290.592 224.393 290.893C225.777 291.221 227.693 292.022 229.765 294.184L247.413 314C243.864 309.817 234.294 298.098 230.882 293.512C229.897 292.188 228.931 290.793 229.21 289.183C229.479 287.633 230.87 286.07 231.684 283.546C231.779 283.252 232.033 282.428 231.642 282.09C231.319 281.811 230.849 282.118 230.544 281.861C230.133 281.517 230.645 280.685 230.744 279.37C230.814 278.443 230.644 277.746 230.497 277.147C230.453 276.967 229.776 274.272 228.868 274.275Z" fill="#F2F2F2"/>
<path d="M242.477 277.154L242.066 273.696L242.254 273.434C243.123 272.222 243.566 271.038 243.571 269.914C243.572 269.736 243.563 269.557 243.555 269.375C243.519 268.654 243.475 267.757 243.971 266.712C244.249 266.129 245.03 264.78 246.205 264.947C246.521 264.989 246.76 265.126 246.942 265.286C246.969 265.246 246.996 265.206 247.025 265.162C247.391 264.636 247.681 264.411 247.96 264.194C248.174 264.027 248.396 263.855 248.743 263.447C248.895 263.269 249.014 263.112 249.114 262.98C249.418 262.581 249.815 262.105 250.515 262.113C251.262 262.147 251.654 262.73 251.913 263.115C252.377 263.803 252.586 264.299 252.726 264.628C252.776 264.748 252.834 264.883 252.863 264.925C253.104 265.259 255.062 264.947 255.8 264.833C257.458 264.573 258.892 264.347 259.483 265.333C259.906 266.037 259.592 266.969 258.52 268.176C258.186 268.552 257.831 268.837 257.515 269.061C257.776 269.208 258.01 269.433 258.105 269.787C258.328 270.626 257.564 271.465 255.834 272.287C255.404 272.492 254.826 272.766 254.015 272.898C253.634 272.96 253.29 272.975 252.996 272.983C252.99 273.143 252.95 273.317 252.846 273.496C252.542 274.022 251.91 274.272 250.957 274.212C249.908 274.16 249.044 273.972 248.282 273.806C247.617 273.663 247.044 273.541 246.594 273.569C245.759 273.633 245.116 274.262 244.362 275.079L242.477 277.154Z" fill="#F2F2F2"/>
<path d="M244.384 256.565L240.939 257.817L240.623 257.713C239.158 257.228 237.831 257.124 236.676 257.405C236.492 257.449 236.311 257.502 236.127 257.557C235.395 257.772 234.486 258.04 233.288 257.853C232.619 257.747 231.036 257.377 230.91 256.264C230.872 255.965 230.952 255.712 231.071 255.506C231.023 255.492 230.975 255.477 230.923 255.461C230.29 255.261 229.985 255.054 229.692 254.855C229.466 254.702 229.233 254.544 228.727 254.33C228.505 254.237 228.314 254.168 228.153 254.111C227.666 253.935 227.077 253.694 226.908 253.054C226.753 252.364 227.252 251.859 227.582 251.524C228.17 250.928 228.626 250.61 228.928 250.4C229.039 250.324 229.163 250.237 229.199 250.2C229.48 249.895 228.663 248.189 228.359 247.545C227.672 246.1 227.076 244.85 227.938 244.061C228.553 243.497 229.589 243.547 231.1 244.218C231.571 244.427 231.954 244.679 232.263 244.909C232.348 244.634 232.52 244.363 232.859 244.187C233.663 243.771 234.719 244.255 236.001 245.624C236.321 245.963 236.748 246.421 237.089 247.127C237.25 247.459 237.352 247.769 237.435 248.035C237.601 248 237.79 247.992 237.999 248.041C238.616 248.185 239.034 248.698 239.214 249.582C239.427 250.551 239.452 251.386 239.476 252.123C239.497 252.766 239.517 253.319 239.661 253.722C239.937 254.467 240.747 254.893 241.776 255.374L244.384 256.565Z" fill="#F2F2F2"/>
<path d="M242.477 246.378L242.066 242.92L242.254 242.658C243.123 241.446 243.566 240.262 243.571 239.138C243.572 238.96 243.563 238.781 243.555 238.599C243.519 237.878 243.475 236.981 243.971 235.936C244.249 235.353 245.03 234.004 246.205 234.171C246.521 234.213 246.76 234.35 246.942 234.51C246.969 234.47 246.996 234.43 247.025 234.386C247.391 233.86 247.681 233.635 247.96 233.418C248.174 233.251 248.396 233.079 248.743 232.672C248.895 232.493 249.014 232.336 249.114 232.204C249.418 231.805 249.815 231.329 250.515 231.338C251.262 231.371 251.654 231.954 251.913 232.339C252.377 233.027 252.586 233.523 252.726 233.852C252.776 233.972 252.834 234.108 252.863 234.149C253.104 234.483 255.062 234.171 255.8 234.057C257.458 233.797 258.892 233.572 259.483 234.557C259.906 235.261 259.592 236.193 258.52 237.4C258.186 237.776 257.831 238.061 257.515 238.285C257.776 238.432 258.01 238.657 258.105 239.011C258.328 239.85 257.564 240.69 255.834 241.511C255.404 241.716 254.826 241.99 254.015 242.122C253.634 242.184 253.29 242.199 252.996 242.207C252.99 242.368 252.95 242.541 252.846 242.72C252.542 243.246 251.91 243.496 250.957 243.436C249.908 243.384 249.044 243.196 248.282 243.03C247.617 242.887 247.044 242.765 246.594 242.793C245.759 242.857 245.116 243.486 244.362 244.303L242.477 246.378Z" fill="#F2F2F2"/>
<path d="M246.232 313.5L245.463 313.046L244.566 313.143C244.552 313.065 244.503 312.884 244.43 312.602C244.029 311.056 242.805 306.351 241.785 298.94C241.073 293.768 240.67 288.45 240.586 283.132C240.503 277.805 240.771 273.773 240.985 270.532C241.147 268.088 241.344 265.76 241.537 263.493C242.051 257.435 242.535 251.713 242.175 245.378C242.095 243.964 241.927 241.02 240.103 237.888C239.044 236.071 237.586 234.458 235.768 233.096L236.899 231.757C238.905 233.263 240.518 235.049 241.694 237.066C243.717 240.539 243.899 243.747 243.987 245.288C244.354 251.735 243.864 257.512 243.345 263.628C243.153 265.887 242.957 268.205 242.796 270.639C242.583 273.85 242.318 277.847 242.4 283.105C242.482 288.36 242.881 293.612 243.583 298.72C244.591 306.037 245.797 310.672 246.193 312.195C246.404 313.008 246.448 313.178 246.232 313.5Z" fill="#F2F2F2"/>
<path d="M232.441 235.812C232.367 235.812 232.291 235.811 232.215 235.806C230.67 235.727 229.24 234.856 227.962 233.216C227.363 232.445 227.057 231.565 226.446 229.81C226.351 229.539 225.89 228.167 225.61 226.278C225.427 225.044 225.45 224.529 225.71 224.073C225.997 223.565 226.463 223.211 226.988 222.972C226.965 222.809 226.983 222.64 227.059 222.468C227.368 221.755 228.19 221.849 228.635 221.894C228.86 221.92 229.14 221.955 229.443 221.94C229.92 221.919 230.176 221.785 230.564 221.585C230.935 221.393 231.397 221.154 232.081 221.022C233.431 220.757 234.563 221.117 234.935 221.236C236.898 221.852 237.865 223.29 238.985 224.954C239.208 225.288 239.974 226.504 240.48 228.17C240.845 229.372 240.793 229.907 240.684 230.304C240.46 231.12 239.933 231.588 238.595 232.62C237.197 233.7 236.495 234.241 235.893 234.57C234.491 235.333 233.61 235.812 232.441 235.812Z" fill="#F2F2F2"/>
<path d="M309.878 312.723C309.878 313.04 309.606 313.296 309.27 313.296H0.608137C0.272276 313.296 0 313.04 0 312.723C0 312.407 0.272269 312.15 0.608137 312.15H309.27C309.606 312.15 309.878 312.407 309.878 312.723Z" fill="#E6E6E6"/>
</g>
<defs>
<clipPath id="clip0_1454_244">
<rect width="345" height="314" fill="white"/>
</clipPath>
</defs>
</svg>
