<svg width="347" height="323" viewBox="0 0 347 323" fill="none" xmlns="http://www.w3.org/2000/svg">
<path d="M308.826 304.647C308.951 310.649 308.136 316.633 306.413 322.374C306.352 322.583 306.28 322.791 306.208 323H270.678C271.186 320.458 271.992 317.986 273.079 315.639C276.036 309.26 280.864 303.801 285.631 298.378C292.196 290.907 298.604 283.497 299.618 273.781C302.221 277.814 304.298 282.173 305.797 286.748C303.961 287.44 302.276 288.49 300.837 289.84C300.439 290.22 300.016 290.772 300.222 291.3C300.415 291.741 300.946 291.889 301.416 291.987C302.551 292.207 303.685 292.428 304.82 292.637C305.713 292.821 306.618 292.993 307.523 293.164C308.319 296.941 308.755 300.786 308.826 304.647Z" fill="#F2F2F2"/>
<path d="M339.013 299.966C333.308 303.598 329.683 309.218 326.722 315.508C324.145 316.123 321.767 317.431 319.821 319.304C319.41 319.697 318.987 320.266 319.205 320.81C319.386 321.266 319.93 321.418 320.401 321.519C321.525 321.747 322.673 321.975 323.797 322.19C323.689 322.456 323.58 322.734 323.471 323H285.765C287.476 320.583 289.372 318.314 291.433 316.216C291.88 315.748 292.339 315.305 292.81 314.85C297.617 310.301 303.136 306.653 309.126 304.067C318.561 299.936 328.879 298.52 339.013 299.966Z" fill="#F2F2F2"/>
<path d="M291.977 323H258.379C258.196 320.246 258.212 317.481 258.428 314.73C259.155 306.212 261.678 297.957 265.823 290.533C269.967 283.11 275.635 276.695 282.434 271.73C280.693 278.082 281.588 284.396 283.402 290.735C283.148 290.822 282.894 290.896 282.664 290.995C280.824 291.693 279.136 292.753 277.694 294.115C277.295 294.499 276.871 295.056 277.077 295.588C277.258 296.034 277.802 296.183 278.274 296.282C279.411 296.505 280.548 296.728 281.673 296.938C282.58 297.124 283.487 297.297 284.394 297.483C284.817 297.557 285.24 297.644 285.664 297.73C285.724 297.879 285.76 298.015 285.821 298.151C287.949 304.156 290.271 310.21 291.36 316.364C291.629 317.908 291.815 319.466 291.916 321.031C291.952 321.688 291.977 322.344 291.977 323Z" fill="#F2F2F2"/>
<path d="M34.6113 22.5587C40.9831 22.5587 46.1484 17.5088 46.1484 11.2794C46.1484 5.04994 40.9831 0 34.6113 0C28.2395 0 23.0742 5.04994 23.0742 11.2794C23.0742 17.5088 28.2395 22.5587 34.6113 22.5587Z" fill="#F6A200"/>
<path d="M60.0912 6.31635C59.7676 5.21877 59.1415 4.2432 58.2901 3.50963C57.4387 2.77605 56.3991 2.31647 55.2991 2.18741C55.2742 2.18378 55.2506 2.18858 55.2259 2.18692C55.1939 2.17678 55.1612 2.16899 55.1282 2.1636C49.8939 1.46226 43.8518 4.05764 41.6703 9.20227C41.1381 8.44984 40.4371 7.84304 39.628 7.43429C38.819 7.02554 37.9261 6.82713 37.0265 6.85619C35.8665 6.93632 34.7586 7.38512 33.8534 8.14148C32.9483 8.89785 32.29 9.92502 31.9681 11.0832C31.9339 11.2249 31.944 11.3743 31.9972 11.5097C32.0503 11.645 32.1436 11.7593 32.2636 11.836C32.6094 12.1397 33.0189 12.3553 33.4595 12.4653C34.4101 12.6741 35.364 12.8653 36.3214 13.0391C38.1894 13.378 40.0673 13.652 41.9548 13.8611C45.7865 14.2868 49.6419 14.4379 53.4936 14.3133C54.7764 14.2718 56.0135 14.2277 57.1889 13.6408C58.044 13.2029 58.7746 12.5419 59.3088 11.7229C59.8121 10.9356 60.143 10.0436 60.2782 9.10954C60.4134 8.1755 60.3495 7.22208 60.0912 6.31635Z" fill="#F0F0F0"/>
<path d="M37.017 21.6973C36.6933 20.5998 36.0673 19.6242 35.2159 18.8906C34.3645 18.1571 33.3249 17.6975 32.2249 17.5684C32.2 17.5648 32.1764 17.5696 32.1516 17.5679C32.1197 17.5578 32.087 17.55 32.054 17.5446C26.8197 16.8432 20.7776 19.4386 18.5961 24.5832C18.0638 23.8308 17.3629 23.224 16.5538 22.8152C15.7447 22.4065 14.8519 22.2081 13.9523 22.2372C12.7923 22.3173 11.6843 22.7661 10.7792 23.5225C9.87407 24.2788 9.21576 25.306 8.8939 26.4641C8.85966 26.6059 8.86985 26.7553 8.92299 26.8906C8.97613 27.026 9.06945 27.1403 9.18944 27.217C9.53514 27.5207 9.94469 27.7362 10.3852 27.8463C11.3358 28.055 12.2898 28.2463 13.2471 28.4201C15.1152 28.759 16.993 29.033 18.8806 29.2421C22.7123 29.6678 26.5677 29.8189 30.4194 29.6943C31.7022 29.6528 32.9393 29.6087 34.1147 29.0217C34.9698 28.5838 35.7003 27.9229 36.2346 27.1038C36.7379 26.3166 37.0688 25.4245 37.204 24.4905C37.3391 23.5565 37.2753 22.6031 37.017 21.6973Z" fill="#F0F0F0"/>
<path d="M146.433 200.648C146.143 201.075 145.38 201.583 145.083 202.003L145.4 201.037L145.292 200.814L144.617 199.458L127.435 164.679L127.428 164.672L98.3003 105.741V105.734L97.632 104.385V104.379L83.2166 75.2114L82.5352 73.8286C83.0479 73.8422 83.5608 73.8625 84.0737 73.8896L84.7621 75.2792L99.1373 104.379L99.1439 104.385L99.8121 105.734V105.741L128.197 163.174V163.181L128.866 164.529V164.536L146.048 199.289L146.277 199.756L146.433 200.648Z" fill="#3F3D56"/>
<path d="M143.77 105.616H16.8618C17.2017 104.929 17.5477 104.242 17.9074 103.565H142.724C143.084 104.242 143.43 104.929 143.77 105.616Z" fill="#3F3D56"/>
<path d="M160.632 163.038C160.591 163.382 160.545 163.725 160.484 164.063H127.795V163.038H160.632Z" fill="#3F3D56"/>
<path d="M21.2991 99.4635V209.181C20.9929 208.683 20.7 208.179 20.4116 207.674V100.97C20.7 100.466 20.9929 99.9613 21.2991 99.4635Z" fill="#3F3D56"/>
<path d="M145.545 198.927H20.4116V200.978H145.545V198.927Z" fill="#3F3D56"/>
<path d="M145.111 200.102H145.265V199.878C145.218 199.956 145.166 200.031 145.111 200.102ZM144.08 104.82C143.738 104.365 143.391 103.91 143.029 103.461C135.92 94.4079 126.989 86.9985 116.834 81.728C106.678 76.4575 95.531 73.4473 84.1375 72.8983C83.629 72.8711 83.1204 72.8508 82.6117 72.8372C81.8486 72.8168 81.0855 72.8032 80.3159 72.8032C69.2466 72.7972 58.2964 75.1207 48.1566 79.627C38.0167 84.1333 28.9076 90.7245 21.4042 98.9844C20.9424 99.4803 20.5006 99.983 20.0656 100.486C19.2156 101.457 18.3945 102.449 17.6025 103.461C17.2411 103.91 16.8933 104.365 16.5518 104.82C5.24093 119.786 -0.593285 138.278 0.0477122 157.129C0.688709 175.98 7.76506 194.019 20.0656 208.159C20.5006 208.662 20.9424 209.164 21.4042 209.66C29.4927 218.551 39.4322 225.5 50.4996 230.001C61.567 234.502 73.4838 236.442 85.383 235.68C97.2821 234.918 108.864 231.473 119.287 225.596C129.709 219.719 138.709 211.557 145.633 201.705C145.927 201.284 146.222 200.863 146.509 200.435C153.932 189.52 158.596 176.92 160.089 163.745C160.15 163.296 160.197 162.841 160.237 162.386C160.498 159.737 160.629 157.049 160.632 154.322C160.652 136.419 154.832 119.013 144.08 104.82ZM158.744 163.745C157.287 176.391 152.857 188.497 145.827 199.042C145.646 199.321 145.459 199.599 145.265 199.878C145.218 199.956 145.166 200.031 145.111 200.102C145.064 200.177 145.01 200.251 144.957 200.326C138.129 210.228 129.182 218.432 118.786 224.324C108.389 230.215 96.814 233.642 84.9271 234.347C73.0403 235.051 61.1505 233.015 50.1493 228.392C39.148 223.768 29.3207 216.677 21.4042 207.649C20.9424 207.133 20.494 206.617 20.0656 206.087C8.29641 192.013 1.68483 174.241 1.35181 155.784C1.01879 137.327 6.98483 119.322 18.2384 104.82C18.5933 104.365 18.9479 103.91 19.3159 103.461C19.557 103.155 19.8044 102.857 20.0656 102.558C20.494 102.028 20.9424 101.512 21.4042 100.995C28.798 92.5511 37.8713 85.7937 48.0259 81.1684C58.1804 76.5432 69.1856 74.1552 80.3158 74.1619C81.3132 74.1619 82.3038 74.1822 83.2875 74.223C83.8029 74.2366 84.3117 74.2638 84.8202 74.2909C95.7127 74.9229 106.358 77.8416 116.082 82.8626C125.806 87.8835 134.399 94.8975 141.316 103.461C141.684 103.91 142.039 104.365 142.393 104.82C155.023 121.12 160.938 141.753 158.898 162.386C158.851 162.841 158.805 163.296 158.744 163.745ZM145.111 200.102H145.265V199.878C145.218 199.956 145.166 200.031 145.111 200.102Z" fill="#CCCCCC"/>
<path d="M70.11 47.586C70.11 47.9574 70.0981 48.3256 70.0742 48.6907C69.9402 50.7965 69.4118 52.8578 68.517 54.7659C68.5101 54.7822 68.5019 54.7973 68.495 54.8125C68.4533 54.901 68.4106 54.9894 68.3667 55.0768C68.1005 55.6164 67.8053 56.141 67.4823 56.6482C66.0067 58.9766 63.9843 60.9032 61.5937 62.2578C59.2031 63.6123 56.518 64.3531 53.7755 64.4147L53.9409 73.9879L56.097 72.8448L56.482 73.5817L53.9571 74.9203L54.2658 92.7001L54.2692 92.9375L52.6021 93.3112L52.6055 93.0725L53.1304 64.4159C50.923 64.384 48.7439 63.9109 46.7196 63.0241C44.6952 62.1372 42.8661 60.8543 41.3382 59.2498C41.233 59.1405 41.129 59.0275 41.0272 58.9158L41.0156 58.9029C39.7426 57.5052 38.7131 55.9011 37.9705 54.1583C37.9867 54.1769 38.004 54.1943 38.0202 54.213C31.1312 36.7818 35.1391 28.701 45.9487 32.5174C46.0065 32.4883 46.0655 32.4603 46.1233 32.4312C49.9041 30.5976 54.2311 30.2611 58.2467 31.4886C62.2623 32.716 65.6733 35.4177 67.8036 39.0582C67.9054 39.2304 68.0037 39.4062 68.0985 39.5831C69.4218 42.0399 70.1133 44.7912 70.11 47.586Z" fill="#E5E5E5"/>
<path d="M89.5037 32.1072C89.3042 35.4786 88.4539 38.7758 87.0022 41.8073C84.2087 47.607 79.3053 52.0044 73.1942 53.6449C73.184 53.6504 73.1725 53.6528 73.161 53.6517C71.6234 54.0631 70.0451 54.2938 68.4566 54.3392H68.3239C68.158 54.346 67.9922 54.346 67.8263 54.346C67.7135 54.346 67.6007 54.346 67.4879 54.3392C61.7983 54.2492 56.3715 51.8673 52.3791 47.7078C48.3866 43.5483 46.1489 37.9448 46.1489 32.1072V31.8622C46.1589 30.4429 46.3598 29.0318 46.7461 27.669C46.7461 27.6622 46.7527 27.6554 46.7527 27.6486C47.4734 25.2802 48.7731 23.1407 50.5282 21.4337C54.8743 17.0227 61.755 14.2522 67.8263 9.86844C81.1233 0.270427 90.8904 9.8208 89.5037 32.1072Z" fill="#E5E5E5"/>
<path opacity="0.2" d="M86.9725 41.8758C84.1693 47.6666 79.2488 52.0572 73.1165 53.6952C73.1063 53.7007 73.0947 53.7031 73.0832 53.702C71.5443 54.092 69.9677 54.3063 68.3825 54.3409H68.2293C67.9497 54.3477 67.67 54.3477 67.3903 54.3409C61.6657 54.1951 56.2274 51.7543 52.2524 47.5465C48.2774 43.3388 46.0852 37.7026 46.1503 31.8575C46.1706 30.481 46.3133 29.1092 46.5765 27.7591C46.5765 27.7523 46.5831 27.7455 46.5831 27.7387C47.3063 25.374 48.6105 23.2377 50.3717 21.5333C49.7802 24.4134 49.7555 27.3848 50.2989 30.2747C50.8423 33.1646 51.943 35.9154 53.5371 38.3673C55.1311 40.8191 57.1867 42.9231 59.5844 44.5569C61.982 46.1906 64.6739 47.3216 67.5035 47.8841C67.7099 47.9248 67.9164 47.9656 68.1228 47.9996C68.722 48.1016 69.3212 48.1763 69.9272 48.2239C73.0487 48.4825 76.1881 48.0491 79.1302 46.9534C82.0722 45.8576 84.7475 44.1256 86.9725 41.8758Z" fill="black"/>
<path d="M68.433 68.673L71.8849 66.9182L71.3582 65.9518L68.4098 67.4508L68.1881 55.1532V55.1516L68.1828 54.8912V54.8448L68.0683 48.5359L67.9079 39.6445L67.7849 32.8127H67.7205L67.6002 39.1185V39.1201L67.4229 48.4223L67.3005 54.8407L67.2999 54.8942L67.2646 56.7255L66.5648 93.4609L66.5601 93.7035L68.8953 94.3366L68.891 94.0919L68.433 68.673Z" fill="#3F3D56"/>
<path d="M148.28 112.081C134.448 109.266 120.572 106.713 106.528 105.15C93.2107 103.559 79.7815 103.165 66.3962 103.972C54.3078 104.8 42.1159 106.741 30.7597 111.168C22.0088 114.579 12.6808 119.741 7.95391 128.348C3.3974 136.645 5.17459 146.212 10.1361 153.867C16.1057 163.078 25.4146 169.39 35.0927 174.003C46.1122 179.255 57.8985 182.66 69.6999 185.555C75.6852 187.024 81.7029 188.351 87.7211 189.672C88.9766 189.947 89.5131 187.989 88.2531 187.712C76.1167 185.049 63.9453 182.377 52.1104 178.522C41.1584 174.954 29.9505 170.383 20.9818 162.892C13.7261 156.831 6.82747 147.978 7.25573 137.913C7.68746 127.767 16.07 120.682 24.286 116.322C34.5538 110.872 46.2194 108.218 57.6503 106.83C70.7389 105.349 83.9385 105.167 97.0619 106.286C114.601 107.641 131.881 110.785 149.095 114.307" fill="black"/>
<path d="M83.2857 128.175C89.0951 131.141 92.632 135.058 92.632 139.355C92.632 148.612 76.2356 156.115 56.0099 156.115C47.2164 156.115 39.1489 154.696 32.8359 152.332C39.5412 155.755 49.2746 157.911 60.1116 157.911C80.3373 157.911 96.7336 150.407 96.7336 141.151C96.7337 135.919 91.493 131.248 83.2857 128.175Z" fill="#F1F1F1"/>
<path d="M96.5049 134.327C103.121 137.702 107.149 142.16 107.149 147.05C107.149 157.583 88.4758 166.122 65.441 166.122C55.426 166.122 46.2382 164.506 39.0483 161.816C46.6849 165.712 57.7702 168.165 70.1123 168.165C93.1471 168.165 111.821 159.626 111.821 149.093C111.821 143.14 105.852 137.825 96.5049 134.327Z" fill="#F1F1F1"/>
<path d="M78.3333 131.251C82.4483 133.296 84.9536 135.998 84.9536 138.962C84.9536 145.345 73.3396 150.52 59.0131 150.52C53.4315 150.592 47.8791 149.709 42.5981 147.911C47.3477 150.272 54.2422 151.759 61.9184 151.759C76.2449 151.759 87.859 146.584 87.859 140.2C87.859 136.592 84.1468 133.37 78.3333 131.251Z" fill="#F1F1F1"/>
<path d="M56.3823 143.556C47.7715 143.556 43.584 141.074 41.5874 138.993C41.2231 138.61 40.975 138.123 40.8744 137.593C40.7738 137.063 40.8253 136.513 41.0223 136.013C41.2194 135.514 41.5532 135.087 41.9814 134.787C42.4096 134.486 42.913 134.326 43.4278 134.327H73.4676C73.8765 134.327 74.2754 134.46 74.6087 134.709C74.942 134.958 75.193 135.31 75.327 135.716C75.4609 136.122 75.4711 136.562 75.356 136.974C75.241 137.386 75.0064 137.751 74.685 138.016C71.625 140.543 65.9657 143.556 56.3823 143.556Z" fill="#3F3D56"/>
<path d="M62.2914 113.137C60.0822 111.301 57.3093 110.471 54.5534 110.821C59.446 112.143 55.5851 119.538 60.0407 127.208C62.4689 131.388 57.7466 133.437 53.248 133.998C55.6557 134.633 58.1901 134.343 60.4251 133.176C62.66 132.008 64.4593 130.034 65.5205 127.587C66.5816 125.139 66.8398 122.366 66.2518 119.734C65.6637 117.103 64.2652 114.773 62.2914 113.137Z" fill="#3F3D56"/>
<path d="M57.6851 109.717H55.9102V136.378H57.6851V109.717Z" fill="#3F3D56"/>
<path d="M161.877 116.741C158.969 114.679 155.686 113.215 152.216 112.431C148.746 111.646 145.156 111.558 141.651 112.17C138.147 112.782 134.797 114.083 131.792 115.998C128.787 117.914 126.186 120.406 124.138 123.333C115.525 135.643 106.883 167.922 112.984 186.622C131.18 167.276 159.135 165.266 168.427 154.726C178.355 143.465 174.107 125.41 161.877 116.741Z" fill="#1684AC"/>
<path d="M146.433 144.581C151.334 144.581 155.307 140.679 155.307 135.865C155.307 131.051 151.334 127.149 146.433 127.149C141.531 127.149 137.558 131.051 137.558 135.865C137.558 140.679 141.531 144.581 146.433 144.581Z" fill="white"/>
<path d="M106.052 196.876C109.238 196.876 111.821 194.122 111.821 190.724C111.821 187.326 109.238 184.571 106.052 184.571C102.866 184.571 100.284 187.326 100.284 190.724C100.284 194.122 102.866 196.876 106.052 196.876Z" fill="#1684AC"/>
<path opacity="0.2" d="M155.848 134.453C156.447 135.449 156.838 136.549 156.999 137.691C157.16 138.833 157.087 139.995 156.785 141.11C156.483 142.225 155.958 143.271 155.239 144.189C154.52 145.107 153.622 145.878 152.596 146.46C151.57 147.041 150.436 147.42 149.259 147.576C148.082 147.732 146.884 147.662 145.735 147.369C144.586 147.076 143.507 146.566 142.561 145.869C141.615 145.172 140.819 144.301 140.22 143.305C141.835 144.68 143.902 145.452 146.05 145.483C148.198 145.515 150.288 144.803 151.945 143.477C153.602 142.15 154.718 140.295 155.094 138.242C155.47 136.19 155.08 134.075 153.996 132.276C154.73 132.9 155.355 133.635 155.848 134.453Z" fill="#231F20"/>
<path opacity="0.2" d="M168.44 155.136C159.17 165.54 131.28 167.525 113.126 186.622C112.559 184.876 112.123 183.09 111.821 181.279C129.966 163.918 156.304 161.724 165.26 151.672C173.276 142.675 172.028 129.287 164.794 119.971C174.715 129.131 177.517 144.949 168.44 155.136Z" fill="#231F20"/>
<path d="M263.577 315.822H256.963L253.816 290.187H263.578L263.577 315.822Z" fill="#FFB6B6"/>
<path d="M264.465 321.975L244.054 321.974V321.71C244.054 319.556 244.891 317.49 246.381 315.966C247.871 314.443 249.891 313.587 251.998 313.587H251.999L255.727 310.695L262.684 313.588L264.465 313.588L264.465 321.975Z" fill="#2F2E41"/>
<path d="M237.842 312.297L231.413 313.771L222.755 289.287L232.243 287.111L237.842 312.297Z" fill="#FFB6B6"/>
<path d="M240.504 317.48L220.347 321.975L220.289 321.723C219.82 319.668 220.196 317.513 221.335 315.731C222.474 313.95 224.282 312.689 226.363 312.224L226.364 312.224L229.415 308.644L236.915 309.871L238.675 309.479L240.504 317.48Z" fill="#2F2E41"/>
<path d="M271.239 159.962C274.305 169.333 273.981 179.506 270.502 190.423L269.014 251.893C271.473 254.635 273.016 265.816 269.228 273.821C264.171 284.512 267.655 299.296 264.08 306.389H253.71L251.162 277.513L248.917 274.257L248.576 248.212C247.198 244.907 245.603 241.63 248.404 237.802L248.329 233.278L247.931 209.163L232.292 232.338C231.848 237.583 229.202 240.331 225.699 242.107L230.543 263.769C239.014 271.117 236.942 282.488 237.082 293.015L239.859 305.437L227.096 306.594L221.464 289.748L215.132 279.367L204.118 237.865L211.799 219.801L214.938 212.418L232.469 171.187L271.239 159.962Z" fill="#2F2E41"/>
<path d="M162.989 125.906C163.497 126.447 164.109 126.862 164.783 127.123C165.457 127.384 166.176 127.483 166.89 127.415C167.605 127.347 168.296 127.113 168.916 126.729C169.536 126.345 170.07 125.82 170.479 125.192L187.256 130.225L184.502 121.017L168.993 117.649C167.959 116.985 166.732 116.748 165.546 116.985C164.359 117.221 163.295 117.914 162.555 118.931C161.815 119.949 161.45 121.221 161.53 122.507C161.61 123.792 162.13 125.002 162.989 125.906Z" fill="#FFB8B8"/>
<path d="M176.763 118.745L193.381 118.624C197.863 117.386 202.588 117.28 207.122 118.317L208.004 118.518L214.939 117.741C219.074 109.57 226.746 102.183 237.045 95.3776C238.598 94.1401 240.399 93.2419 242.328 92.742C244.258 92.242 246.273 92.1518 248.24 92.4772C250.208 92.8026 252.083 93.5362 253.743 94.6298C255.403 95.7233 256.81 97.1521 257.871 98.8219C259.787 101.845 260.461 105.477 259.756 108.976C259.051 112.475 257.02 115.574 254.079 117.641L222.695 135.882C219.941 137.482 216.814 138.347 213.62 138.389L213.544 138.429L195.641 131.798L186.432 130.639L173.944 127.051L176.763 118.745Z" fill="#1684AC"/>
<path d="M243.166 79.9809C251.988 79.9809 259.14 72.8651 259.14 64.0873C259.14 55.3094 251.988 48.1936 243.166 48.1936C234.343 48.1936 227.191 55.3094 227.191 64.0873C227.191 72.8651 234.343 79.9809 243.166 79.9809Z" fill="#FFB8B8"/>
<path d="M257.862 73.9668C259.024 72.2834 259.847 69.5873 260.334 67.6166C260.984 65.0219 261.091 62.3172 260.648 59.6778C260.204 57.0383 259.219 54.5231 257.758 52.295C257.218 51.3869 256.445 50.6456 255.522 50.151C254.574 49.721 253.324 49.8234 252.663 50.6369C252.661 49.9231 252.515 49.2173 252.234 48.563C251.954 47.9088 251.544 47.32 251.03 46.8329C249.995 45.8643 248.751 45.1541 247.399 44.7587C244.793 43.9513 242.021 43.8758 239.376 44.5402C236.732 45.2046 234.313 46.584 232.378 48.5322C231.622 49.3138 231.892 45.4082 231.052 46.0962C230.239 46.8352 229.173 47.2215 228.083 47.1723C227.011 47.0563 225.038 50.9395 225.027 49.8437C223.899 50.9925 223.402 55.8371 223.755 57.4199C224.107 59.0028 229.358 58.3032 230.863 58.8457C231.861 59.205 232.944 59.2172 233.977 59.4511C235.813 59.9332 237.412 61.0816 238.471 62.6796C239.531 64.2776 239.979 66.2146 239.729 68.1247C240.39 67.2221 241.189 66.4338 242.097 65.7903C242.555 65.4725 243.08 65.2704 243.63 65.2006C244.18 65.1309 244.738 65.1956 245.259 65.3893C245.728 65.6453 246.142 65.9962 246.473 66.4203C246.804 66.8445 247.047 67.333 247.185 67.8559C247.527 68.8793 247.66 69.9658 248.008 70.987C249.03 73.9836 249.557 77.1291 252.406 77.8396C254.653 78.4003 256.277 76.2653 257.862 73.9668Z" fill="#2F2E41"/>
<path d="M272.59 156.072L270.903 152.635C268.838 139.599 266.798 127.441 269.57 116.504C269.744 106.957 266.848 97.9876 258.806 93.0897L255.178 90.8791L253.342 86.1333L236.433 86.5541L236.383 92.7753L230.327 102.617V102.657L230.705 156.209L232.377 161.736L229.854 168.165L231.193 172.267L264.529 166.836L268.405 166.203C268.853 166.057 269.285 165.865 269.694 165.63C271.085 164.843 272.175 163.601 272.789 162.106C272.824 162.02 272.854 161.939 272.884 161.852C273.145 161.154 273.296 160.418 273.332 159.672C273.392 158.427 273.137 157.187 272.59 156.072Z" fill="#1684AC"/>
<path opacity="0.2" d="M273.34 159.84C273.306 160.6 273.159 161.35 272.905 162.061L269.804 165.91C269.406 166.15 268.986 166.345 268.551 166.494L264.783 167.14L270.234 156.192L258.253 128.175L273.34 159.84Z" fill="black"/>
<path d="M287.074 191.838C286.427 191.406 285.884 190.84 285.484 190.181C285.084 189.521 284.837 188.784 284.76 188.02C284.683 187.257 284.777 186.486 285.037 185.763C285.297 185.039 285.716 184.38 286.264 183.832L277.778 167.14L287.603 168.311L294.155 183.983C295.035 184.945 295.523 186.19 295.527 187.482C295.532 188.773 295.052 190.021 294.179 190.99C293.306 191.958 292.101 192.579 290.791 192.736C289.482 192.892 288.159 192.573 287.074 191.838Z" fill="#FFB8B8"/>
<path d="M253.816 134.53L260.122 133.653C260.122 133.653 260.73 143.223 263.747 144.673C266.763 146.123 265.746 146.362 266.102 147.897C266.457 149.433 268.067 151.753 270.456 152.811C272.845 153.868 283.713 180.47 283.713 180.47L292.865 178.322C292.018 176.012 291.46 173.606 291.205 171.157C290.883 167.456 286.716 158.721 285.343 157.425C283.971 156.128 284.513 153.843 283.802 150.772C283.091 147.702 283.584 150.549 282.399 145.431C281.213 140.314 267.884 109.644 267.326 104.919C266.767 100.194 260.226 97.4127 260.226 97.4127L255.142 98.6061L253.816 134.53Z" fill="#1684AC"/>
<path d="M149.724 323H346.37C346.537 323 346.697 322.946 346.815 322.85C346.933 322.754 347 322.623 347 322.487C347 322.351 346.933 322.221 346.815 322.125C346.697 322.029 346.537 321.975 346.37 321.975H149.724C149.557 321.975 149.397 322.029 149.279 322.125C149.161 322.221 149.094 322.351 149.094 322.487C149.094 322.623 149.161 322.754 149.279 322.85C149.397 322.946 149.557 323 149.724 323Z" fill="#CCCCCC"/>
</svg>
