<svg width="98" height="141" viewBox="0 0 98 141" fill="none" xmlns="http://www.w3.org/2000/svg">
<rect width="45" height="94" transform="matrix(4.37114e-08 1 1 -4.37114e-08 0 47)" fill="#FDECC0"/>
<rect width="45" height="94" transform="matrix(4.37114e-08 1 1 -4.37114e-08 0 47)" fill="#FDECC0"/>
<rect width="45" height="94" transform="matrix(4.37114e-08 1 1 -4.37114e-08 0 47)" fill="#FDECC0"/>
<rect width="45" height="94" transform="matrix(4.37114e-08 1 1 -4.37114e-08 0 47)" fill="#FDECC0"/>
<rect width="45" height="94" transform="matrix(-1 0 0 1 94 47)" fill="#F9D989"/>
<g filter="url(#filter0_d_1411_2256)">
<rect width="45" height="45" transform="matrix(-1 0 0 1 94 2)" fill="#FDECC0"/>
</g>
<defs>
<filter id="filter0_d_1411_2256" x="41" y="0" width="57" height="57" filterUnits="userSpaceOnUse" color-interpolation-filters="sRGB">
<feFlood flood-opacity="0" result="BackgroundImageFix"/>
<feColorMatrix in="SourceAlpha" type="matrix" values="0 0 0 0 0 0 0 0 0 0 0 0 0 0 0 0 0 0 127 0" result="hardAlpha"/>
<feOffset dx="-2" dy="4"/>
<feGaussianBlur stdDeviation="3"/>
<feComposite in2="hardAlpha" operator="out"/>
<feColorMatrix type="matrix" values="0 0 0 0 0 0 0 0 0 0 0 0 0 0 0 0 0 0 0.25 0"/>
<feBlend mode="normal" in2="BackgroundImageFix" result="effect1_dropShadow_1411_2256"/>
<feBlend mode="normal" in="SourceGraphic" in2="effect1_dropShadow_1411_2256" result="shape"/>
</filter>
</defs>
</svg>
