<svg width="301" height="266" viewBox="0 0 301 266" fill="none" xmlns="http://www.w3.org/2000/svg">
<g clip-path="url(#clip0_1420_2260)">
<path d="M250.765 63.0162H249.334V23.1021C249.334 16.975 246.944 11.0989 242.69 6.76645C238.436 2.43397 232.666 4.04468e-06 226.649 0H143.61C140.631 0 137.681 0.597552 134.929 1.75854C132.177 2.91953 129.676 4.62122 127.569 6.76645C125.463 8.91167 123.792 11.4584 122.652 14.2613C121.512 17.0642 120.925 20.0683 120.925 23.1021V242.078C120.925 248.205 123.315 254.081 127.569 258.413C131.824 262.746 137.594 265.18 143.61 265.18H226.649C232.666 265.18 238.436 262.746 242.69 258.413C246.944 254.081 249.334 248.205 249.334 242.078V91.4278H250.765L250.765 63.0162Z" fill="#E6E6E6"/>
<path d="M227.565 6.00806H216.726C217.225 7.25269 217.415 8.60307 217.28 9.94024C217.146 11.2774 216.69 12.5603 215.954 13.6759C215.217 14.7915 214.223 15.7056 213.058 16.3376C211.893 16.9696 210.593 17.3001 209.274 17.3001H161.701C160.381 17.3 159.082 16.9694 157.917 16.3373C156.752 15.7053 155.758 14.7912 155.022 13.6756C154.285 12.56 153.83 11.2772 153.695 9.94006C153.561 8.60296 153.751 7.25263 154.249 6.00806H144.125C139.632 6.00806 135.323 7.82572 132.146 11.0612C128.969 14.2966 127.185 18.6848 127.185 23.2605V241.918C127.185 246.494 128.969 250.882 132.146 254.117C135.323 257.353 139.632 259.17 144.125 259.17H227.565C232.058 259.17 236.367 257.353 239.544 254.117C242.721 250.882 244.506 246.494 244.506 241.918V23.2601C244.506 18.6846 242.721 14.2964 239.544 11.061C236.367 7.82567 232.058 6.00805 227.565 6.00806Z" fill="white"/>
<path d="M160.606 57.0103C160.154 57.0144 159.706 56.9215 159.291 56.7377C158.877 56.5539 158.505 56.2833 158.2 55.9435C157.838 55.5169 157.566 55.0187 157.402 54.4801C157.238 53.9415 157.186 53.3743 157.247 52.814C157.334 51.7468 157.773 50.741 158.493 49.9609C158.839 49.58 159.258 49.2751 159.724 49.0649C160.19 48.8547 160.693 48.7436 161.202 48.7386C161.676 48.7364 162.145 48.8359 162.579 49.0305C163.012 49.2251 163.401 49.5104 163.719 49.868C164.08 50.2832 164.352 50.7702 164.519 51.2981C164.686 51.8259 164.743 52.3833 164.688 52.935C164.62 54.0672 164.141 55.1331 163.343 55.9243C162.6 56.6286 161.621 57.0171 160.606 57.0103ZM161.202 50.1172C159.877 50.1172 158.733 51.3549 158.596 52.9349C158.551 53.3047 158.581 53.68 158.685 54.0375C158.788 54.3949 158.963 54.7268 159.198 55.0124C159.376 55.2117 159.594 55.37 159.836 55.4768C160.079 55.5836 160.342 55.6364 160.606 55.6317C161.845 55.6317 163.171 54.7604 163.339 52.8138C163.378 52.4527 163.343 52.0872 163.237 51.7405C163.13 51.3937 162.954 51.0732 162.72 50.799C162.528 50.5833 162.294 50.411 162.033 50.2936C161.771 50.1761 161.488 50.116 161.202 50.1172Z" fill="#3F3D56"/>
<path d="M160.65 61.1463C159.603 61.1636 158.564 60.954 157.603 60.5314C156.641 60.1087 155.779 59.4826 155.073 58.6947C154.367 57.9068 153.834 56.975 153.509 55.9612C153.183 54.9474 153.073 53.8747 153.186 52.8144C153.408 50.5888 154.424 48.5234 156.042 47.0099C157.659 45.4963 159.766 44.6399 161.962 44.6028C164.399 44.6028 166.404 45.4002 167.761 46.9087C169.047 48.3391 169.649 50.3528 169.457 52.5788C169.274 54.6874 168.396 55.7856 167.691 56.3356C167.38 56.594 167.02 56.7853 166.634 56.898C166.248 57.0107 165.844 57.0424 165.445 56.9912C164.331 56.79 163.099 55.7592 163.293 53.5163L163.652 49.3696C163.668 49.1882 163.755 49.0208 163.892 48.9041C164.029 48.7874 164.207 48.7309 164.385 48.7469C164.563 48.7629 164.728 48.8501 164.843 48.9895C164.958 49.1289 165.015 49.309 165 49.4906L164.641 53.6373C164.545 54.7523 164.934 55.4987 165.682 55.6337C166.113 55.6678 166.539 55.5267 166.868 55.2413C167.357 54.8597 167.969 54.067 168.108 52.4578C168.269 50.595 167.804 48.9981 166.762 47.8398C165.669 46.624 164.009 45.9814 161.962 45.9814C160.104 46.0173 158.323 46.7441 156.955 48.025C155.587 49.3058 154.726 51.0521 154.535 52.9347C154.438 53.8045 154.526 54.6853 154.79 55.5181C155.055 56.3508 155.492 57.1163 156.071 57.7633C156.65 58.4103 157.358 58.9238 158.148 59.2695C158.937 59.6152 159.791 59.785 160.65 59.7676C161.71 59.826 162.769 59.6305 163.742 59.1968C163.907 59.1268 164.093 59.1265 164.258 59.1957C164.424 59.265 164.556 59.3983 164.625 59.5664C164.695 59.7345 164.696 59.9237 164.628 60.0926C164.561 60.2616 164.431 60.3964 164.266 60.4678C163.127 60.9725 161.89 61.2046 160.65 61.1463Z" fill="#3F3D56"/>
<path d="M153.503 159.675C153.369 159.675 153.239 159.634 153.127 159.559C153.016 159.483 152.929 159.375 152.878 159.249C152.827 159.123 152.813 158.985 152.839 158.851C152.866 158.717 152.93 158.594 153.025 158.498L157.424 154.017C157.551 153.89 157.723 153.818 157.902 153.819C158.081 153.82 158.252 153.892 158.378 154.021C158.504 154.15 158.576 154.324 158.576 154.506C158.577 154.688 158.507 154.863 158.381 154.992L153.982 159.473C153.919 159.537 153.844 159.588 153.762 159.622C153.68 159.657 153.592 159.675 153.503 159.675ZM164.672 157.951C164.538 157.951 164.407 157.911 164.295 157.835C164.184 157.76 164.097 157.652 164.046 157.526C163.995 157.4 163.982 157.261 164.008 157.128C164.034 156.994 164.098 156.871 164.193 156.775L167.916 152.984C168.043 152.856 168.215 152.784 168.393 152.785C168.572 152.786 168.743 152.858 168.869 152.987C168.996 153.116 169.067 153.29 169.068 153.472C169.068 153.654 168.998 153.829 168.873 153.958L165.15 157.75C165.087 157.814 165.013 157.864 164.931 157.899C164.848 157.934 164.76 157.952 164.672 157.951ZM162.641 157.951C162.552 157.952 162.464 157.934 162.382 157.899C162.3 157.864 162.225 157.814 162.162 157.75L159.455 154.992C159.391 154.928 159.341 154.852 159.306 154.769C159.272 154.685 159.254 154.595 159.253 154.504C159.253 154.413 159.27 154.323 159.304 154.239C159.338 154.155 159.388 154.078 159.451 154.014C159.515 153.95 159.59 153.899 159.672 153.864C159.755 153.83 159.843 153.812 159.932 153.812C160.022 153.812 160.11 153.831 160.192 153.866C160.275 153.901 160.349 153.953 160.412 154.017L163.12 156.775C163.214 156.871 163.279 156.994 163.305 157.128C163.331 157.261 163.317 157.4 163.266 157.526C163.215 157.652 163.128 157.76 163.017 157.835C162.906 157.911 162.775 157.951 162.641 157.951Z" fill="#3F3D56"/>
<path d="M169.41 154.16C169.075 154.16 168.748 154.059 168.47 153.87C168.191 153.68 167.974 153.411 167.846 153.096C167.718 152.781 167.685 152.435 167.75 152.101C167.815 151.766 167.976 151.459 168.213 151.218C168.45 150.977 168.751 150.813 169.08 150.747C169.408 150.68 169.748 150.714 170.057 150.845C170.366 150.975 170.631 151.196 170.817 151.479C171.003 151.763 171.102 152.096 171.102 152.437C171.101 152.894 170.923 153.332 170.606 153.655C170.288 153.978 169.858 154.16 169.41 154.16ZM169.41 152.092C169.343 152.092 169.277 152.112 169.222 152.15C169.166 152.188 169.123 152.242 169.097 152.305C169.071 152.368 169.065 152.437 169.078 152.504C169.091 152.571 169.123 152.632 169.17 152.681C169.218 152.729 169.278 152.762 169.344 152.775C169.409 152.788 169.477 152.781 169.539 152.755C169.601 152.729 169.654 152.685 169.691 152.628C169.728 152.572 169.748 152.505 169.748 152.437C169.748 152.346 169.712 152.258 169.649 152.193C169.585 152.129 169.499 152.092 169.41 152.092Z" fill="#3F3D56"/>
<path d="M163.656 160.019C163.322 160.019 162.994 159.918 162.716 159.729C162.438 159.54 162.221 159.27 162.093 158.956C161.965 158.641 161.931 158.294 161.997 157.96C162.062 157.626 162.223 157.318 162.46 157.077C162.696 156.836 162.998 156.672 163.326 156.606C163.654 156.539 163.995 156.573 164.304 156.704C164.613 156.834 164.877 157.055 165.063 157.339C165.249 157.622 165.348 157.955 165.348 158.296C165.348 158.753 165.169 159.191 164.852 159.514C164.535 159.837 164.105 160.019 163.656 160.019ZM163.656 157.951C163.589 157.951 163.524 157.972 163.468 158.009C163.413 158.047 163.369 158.101 163.344 158.164C163.318 158.227 163.311 158.296 163.324 158.363C163.337 158.43 163.37 158.492 163.417 158.54C163.464 158.588 163.525 158.621 163.59 158.634C163.656 158.647 163.724 158.641 163.786 158.614C163.848 158.588 163.9 158.544 163.938 158.488C163.975 158.431 163.995 158.364 163.995 158.296C163.995 158.205 163.959 158.117 163.895 158.052C163.832 157.988 163.746 157.951 163.656 157.951Z" fill="#3F3D56"/>
<path d="M158.918 155.194C158.584 155.194 158.256 155.093 157.978 154.904C157.7 154.714 157.483 154.445 157.355 154.13C157.227 153.815 157.193 153.469 157.259 153.135C157.324 152.8 157.485 152.493 157.722 152.252C157.958 152.011 158.26 151.847 158.588 151.781C158.916 151.714 159.257 151.748 159.566 151.879C159.875 152.009 160.139 152.23 160.325 152.513C160.511 152.797 160.61 153.13 160.61 153.471C160.61 153.928 160.431 154.366 160.114 154.689C159.797 155.012 159.367 155.194 158.918 155.194ZM158.918 153.126C158.851 153.126 158.786 153.146 158.73 153.184C158.675 153.222 158.631 153.276 158.606 153.339C158.58 153.402 158.573 153.471 158.586 153.538C158.599 153.605 158.632 153.666 158.679 153.715C158.726 153.763 158.787 153.796 158.852 153.809C158.918 153.822 158.986 153.815 159.048 153.789C159.11 153.763 159.162 153.719 159.2 153.662C159.237 153.606 159.257 153.539 159.257 153.471C159.257 153.379 159.221 153.292 159.157 153.227C159.094 153.163 159.008 153.126 158.918 153.126Z" fill="#3F3D56"/>
<path d="M152.488 161.742C152.153 161.742 151.826 161.641 151.548 161.452C151.27 161.263 151.053 160.994 150.925 160.679C150.797 160.364 150.763 160.017 150.828 159.683C150.894 159.349 151.055 159.042 151.292 158.801C151.528 158.56 151.83 158.396 152.158 158.329C152.486 158.263 152.826 158.297 153.136 158.427C153.445 158.558 153.709 158.778 153.895 159.062C154.081 159.345 154.18 159.678 154.18 160.019C154.18 160.476 154.001 160.914 153.684 161.237C153.367 161.56 152.937 161.742 152.488 161.742ZM152.488 159.675C152.421 159.675 152.356 159.695 152.3 159.733C152.244 159.77 152.201 159.824 152.175 159.887C152.15 159.95 152.143 160.02 152.156 160.086C152.169 160.153 152.201 160.215 152.249 160.263C152.296 160.311 152.356 160.344 152.422 160.357C152.488 160.371 152.556 160.364 152.618 160.338C152.679 160.312 152.732 160.267 152.769 160.211C152.807 160.154 152.827 160.087 152.827 160.019C152.826 159.928 152.791 159.84 152.727 159.776C152.664 159.711 152.578 159.675 152.488 159.675Z" fill="#3F3D56"/>
<path d="M216.725 214.9H202.511C201.883 214.899 201.281 214.645 200.836 214.192C200.392 213.74 200.143 213.127 200.142 212.487V202.147C200.143 201.508 200.392 200.895 200.836 200.442C201.281 199.99 201.883 199.736 202.511 199.735H216.725C217.353 199.736 217.955 199.99 218.399 200.442C218.844 200.895 219.093 201.508 219.094 202.147V212.487C219.093 213.127 218.844 213.74 218.399 214.192C217.955 214.645 217.353 214.899 216.725 214.9ZM202.511 201.113C202.242 201.114 201.984 201.223 201.793 201.417C201.603 201.611 201.496 201.873 201.496 202.147V212.487C201.496 212.761 201.603 213.024 201.793 213.218C201.984 213.412 202.242 213.521 202.511 213.521H216.725C216.994 213.521 217.252 213.412 217.443 213.218C217.633 213.024 217.74 212.761 217.74 212.487V202.147C217.74 201.873 217.633 201.611 217.443 201.417C217.252 201.223 216.994 201.114 216.725 201.113L202.511 201.113Z" fill="#3F3D56"/>
<path d="M209.618 208.696C209.467 208.696 209.321 208.645 209.202 208.551L203.111 203.725C203.041 203.67 202.982 203.601 202.938 203.522C202.894 203.443 202.866 203.357 202.855 203.267C202.844 203.177 202.85 203.086 202.874 202.998C202.897 202.911 202.937 202.83 202.992 202.758C203.047 202.687 203.114 202.627 203.192 202.582C203.269 202.537 203.354 202.508 203.442 202.497C203.53 202.486 203.62 202.493 203.706 202.517C203.791 202.541 203.872 202.582 203.942 202.637L209.618 207.133L215.294 202.637C215.364 202.582 215.445 202.541 215.53 202.517C215.616 202.493 215.706 202.486 215.794 202.497C215.882 202.508 215.967 202.537 216.044 202.582C216.122 202.627 216.19 202.687 216.244 202.758C216.299 202.83 216.339 202.911 216.362 202.998C216.386 203.086 216.392 203.177 216.381 203.267C216.37 203.357 216.342 203.443 216.298 203.522C216.254 203.601 216.196 203.67 216.125 203.725L210.034 208.551C209.915 208.645 209.769 208.696 209.618 208.696Z" fill="#3F3D56"/>
<path d="M285.963 224.442L207.665 224.474C207.566 224.474 207.471 224.434 207.4 224.362C207.33 224.291 207.291 224.194 207.291 224.093C207.291 223.992 207.33 223.895 207.4 223.823C207.471 223.752 207.566 223.712 207.665 223.712L285.963 223.68C286.062 223.68 286.158 223.72 286.228 223.792C286.298 223.863 286.337 223.96 286.337 224.061C286.337 224.162 286.298 224.259 286.228 224.331C286.158 224.402 286.062 224.442 285.963 224.442Z" fill="#CCCCCC"/>
<path d="M284.921 229.399C287.816 229.399 290.162 227.009 290.162 224.061C290.162 221.113 287.816 218.723 284.921 218.723C282.026 218.723 279.68 221.113 279.68 224.061C279.68 227.009 282.026 229.399 284.921 229.399Z" fill="#1684AC"/>
<path d="M284.091 122.264L205.044 122.296C204.945 122.296 204.85 122.256 204.78 122.184C204.709 122.113 204.67 122.016 204.67 121.915C204.67 121.813 204.709 121.716 204.78 121.645C204.85 121.573 204.945 121.533 205.044 121.533L284.091 121.502C284.19 121.502 284.285 121.542 284.356 121.613C284.426 121.685 284.465 121.782 284.465 121.883C284.465 121.984 284.426 122.081 284.356 122.153C284.285 122.224 284.19 122.264 284.091 122.264Z" fill="#CCCCCC"/>
<path d="M284.921 127.602C287.816 127.602 290.162 125.212 290.162 122.264C290.162 119.316 287.816 116.927 284.921 116.927C282.026 116.927 279.68 119.316 279.68 122.264C279.68 125.212 282.026 127.602 284.921 127.602Z" fill="#1684AC"/>
<path d="M81.7147 70.0313L160.761 70.0629C160.861 70.0629 160.956 70.0228 161.026 69.9512C161.096 69.8797 161.136 69.7828 161.136 69.6817C161.136 69.5805 161.096 69.4836 161.026 69.4121C160.956 69.3406 160.861 69.3004 160.761 69.3004L81.7147 69.2688C81.6154 69.2688 81.5202 69.309 81.45 69.3805C81.3798 69.452 81.3403 69.5489 81.3403 69.6501C81.3403 69.7512 81.3798 69.8481 81.45 69.9196C81.5202 69.9911 81.6154 70.0313 81.7147 70.0313Z" fill="#CCCCCC"/>
<path d="M80.8848 75.3689C83.7795 75.3689 86.1261 72.9792 86.1261 70.0313C86.1261 67.0834 83.7795 64.6936 80.8848 64.6936C77.9902 64.6936 75.6436 67.0834 75.6436 70.0313C75.6436 72.9792 77.9902 75.3689 80.8848 75.3689Z" fill="#1684AC"/>
<path d="M81.7147 173.353L160.761 173.385C160.861 173.385 160.956 173.345 161.026 173.273C161.096 173.202 161.136 173.105 161.136 173.004C161.136 172.903 161.096 172.806 161.026 172.734C160.956 172.663 160.861 172.622 160.761 172.622L81.7147 172.591C81.6154 172.591 81.5202 172.631 81.45 172.702C81.3798 172.774 81.3403 172.871 81.3403 172.972C81.3403 173.073 81.3798 173.17 81.45 173.242C81.5202 173.313 81.6154 173.353 81.7147 173.353Z" fill="#CCCCCC"/>
<path d="M80.8848 178.691C83.7795 178.691 86.1261 176.301 86.1261 173.353C86.1261 170.405 83.7795 168.016 80.8848 168.016C77.9902 168.016 75.6436 170.405 75.6436 173.353C75.6436 176.301 77.9902 178.691 80.8848 178.691Z" fill="#1684AC"/>
<path d="M209.618 224.474C206.286 224.474 203.029 223.468 200.258 221.583C197.488 219.697 195.329 217.018 194.053 213.883C192.778 210.748 192.445 207.298 193.095 203.97C193.745 200.642 195.349 197.585 197.705 195.186C200.061 192.786 203.063 191.152 206.331 190.49C209.599 189.828 212.987 190.168 216.065 191.466C219.143 192.765 221.775 194.964 223.626 197.785C225.477 200.607 226.465 203.924 226.465 207.317C226.46 211.866 224.683 216.227 221.525 219.443C218.367 222.66 214.085 224.469 209.618 224.474ZM209.618 190.923C206.434 190.923 203.322 191.884 200.674 193.686C198.027 195.487 195.964 198.048 194.745 201.043C193.527 204.039 193.208 207.335 193.829 210.516C194.45 213.696 195.983 216.617 198.235 218.91C200.486 221.202 203.355 222.764 206.477 223.396C209.6 224.029 212.837 223.704 215.779 222.464C218.72 221.223 221.234 219.121 223.003 216.425C224.772 213.729 225.716 210.56 225.716 207.317C225.711 202.971 224.014 198.804 220.996 195.73C217.978 192.657 213.886 190.928 209.618 190.923Z" fill="#CCCCCC"/>
<path d="M160.949 173.385C157.617 173.385 154.36 172.379 151.589 170.493C148.819 168.608 146.659 165.929 145.384 162.794C144.109 159.659 143.775 156.209 144.426 152.881C145.076 149.553 146.68 146.496 149.036 144.096C151.392 141.697 154.394 140.063 157.662 139.401C160.93 138.739 164.318 139.079 167.396 140.377C170.474 141.676 173.105 143.875 174.957 146.696C176.808 149.518 177.796 152.835 177.796 156.228C177.791 160.777 176.014 165.138 172.856 168.354C169.698 171.57 165.415 173.38 160.949 173.385ZM160.949 139.834C157.765 139.834 154.652 140.795 152.005 142.597C149.358 144.398 147.294 146.959 146.076 149.954C144.858 152.95 144.539 156.246 145.16 159.426C145.781 162.607 147.314 165.528 149.566 167.821C151.817 170.113 154.685 171.675 157.808 172.307C160.931 172.94 164.168 172.615 167.109 171.374C170.051 170.134 172.565 168.032 174.334 165.336C176.103 162.64 177.047 159.471 177.047 156.228C177.042 151.882 175.345 147.714 172.327 144.641C169.309 141.568 165.217 139.839 160.949 139.834Z" fill="#CCCCCC"/>
<path d="M206.249 122.296C202.917 122.296 199.659 121.29 196.889 119.404C194.118 117.519 191.959 114.84 190.684 111.705C189.409 108.57 189.075 105.12 189.725 101.792C190.375 98.4638 191.98 95.4067 194.336 93.0073C196.692 90.6079 199.694 88.9738 202.962 88.3118C206.23 87.6498 209.617 87.9896 212.696 89.2882C215.774 90.5867 218.405 92.7858 220.256 95.6072C222.108 98.4286 223.096 101.746 223.096 105.139C223.091 109.688 221.314 114.049 218.156 117.265C214.997 120.481 210.715 122.291 206.249 122.296ZM206.249 88.7447C203.065 88.7447 199.952 89.7062 197.305 91.5076C194.658 93.3091 192.594 95.8695 191.376 98.8652C190.157 101.861 189.839 105.157 190.46 108.337C191.081 111.518 192.614 114.439 194.865 116.731C197.117 119.024 199.985 120.586 203.108 121.218C206.231 121.851 209.468 121.526 212.409 120.285C215.351 119.044 217.865 116.943 219.634 114.247C221.403 111.551 222.347 108.381 222.347 105.139C222.342 100.792 220.644 96.6254 217.627 93.5519C214.609 90.4784 210.517 88.7496 206.249 88.7447Z" fill="#CCCCCC"/>
<path d="M161.323 70.0311C157.991 70.0311 154.734 69.0249 151.963 67.1397C149.193 65.2545 147.034 62.5749 145.758 59.44C144.483 56.305 144.15 52.8553 144.8 49.5272C145.45 46.1991 147.054 43.1421 149.41 40.7426C151.767 38.3432 154.768 36.7092 158.036 36.0472C161.304 35.3852 164.692 35.725 167.77 37.0235C170.849 38.3221 173.48 40.5211 175.331 43.3425C177.182 46.1639 178.17 49.481 178.17 52.8743C178.165 57.423 176.388 61.7839 173.23 65.0003C170.072 68.2167 165.79 70.026 161.323 70.0311ZM161.323 36.4801C158.139 36.4801 155.027 37.4416 152.379 39.243C149.732 41.0444 147.669 43.6049 146.45 46.6005C145.232 49.5962 144.913 52.8925 145.534 56.0727C146.155 59.2529 147.689 62.1741 149.94 64.4668C152.191 66.7596 155.06 68.321 158.182 68.9536C161.305 69.5862 164.542 69.2615 167.484 68.0207C170.425 66.7798 172.939 64.6785 174.708 61.9825C176.477 59.2865 177.421 56.1168 177.421 52.8743C177.417 48.5278 175.719 44.3607 172.701 41.2873C169.683 38.2138 165.591 36.485 161.323 36.4801Z" fill="#CCCCCC"/>
<path d="M55.5959 186.277C55.1354 185.919 54.754 185.467 54.4765 184.949C54.199 184.431 54.0317 183.86 53.9854 183.272C53.9751 183.135 53.9719 182.998 53.9758 182.86L36.5418 170.903C35.9712 170.508 35.5413 169.935 35.3162 169.271C35.0911 168.607 35.0828 167.886 35.2926 167.216L43.6251 146.134C43.9836 145.227 44.6807 144.501 45.5637 144.115C46.4466 143.73 47.4434 143.717 48.336 144.079C49.2285 144.44 49.9439 145.147 50.3256 146.045C50.7074 146.943 50.7243 147.958 50.3727 148.868L43.6452 166.288L57.2206 178.845C57.3997 178.804 57.5815 178.775 57.7646 178.76C58.813 178.675 59.8537 179.001 60.6731 179.673C61.4925 180.344 62.0286 181.31 62.1714 182.371C62.3143 183.432 62.053 184.509 61.4413 185.38C60.8296 186.251 59.9137 186.851 58.8815 187.057C58.6167 187.109 58.3476 187.135 58.0778 187.135C57.1802 187.136 56.3075 186.834 55.5959 186.277Z" fill="#A0616A"/>
<path d="M36.549 158.548C36.447 158.305 36.3976 158.043 36.4041 157.779C36.4107 157.516 36.4731 157.256 36.587 157.019L40.5646 148.74C40.966 147.453 41.852 146.381 43.0285 145.758C44.205 145.135 45.5759 145.013 46.8406 145.418C48.1054 145.824 49.1608 146.723 49.7754 147.919C50.39 149.116 50.5137 150.511 50.1194 151.801L48.6672 160.929C48.6257 161.189 48.5296 161.438 48.3854 161.657C48.2412 161.876 48.0523 162.061 47.8315 162.199C47.6107 162.338 47.3633 162.426 47.1061 162.458C46.8489 162.49 46.5879 162.465 46.3409 162.385L37.6609 159.576C37.4138 159.496 37.1866 159.363 36.9947 159.186C36.8028 159.008 36.6508 158.791 36.549 158.548Z" fill="#1684AC"/>
<path d="M63.9841 260.764H68.574L70.7574 242.735L63.9834 242.736L63.9841 260.764Z" fill="#A0616A"/>
<path d="M62.8135 259.238L71.8524 259.238H71.8528C72.6092 259.238 73.3583 259.39 74.0572 259.685C74.756 259.979 75.3911 260.411 75.926 260.956C76.4609 261.501 76.8852 262.148 77.1746 262.859C77.4641 263.571 77.6131 264.334 77.6131 265.104V265.295L62.8138 265.295L62.8135 259.238Z" fill="#2F2E41"/>
<path d="M19.1025 257.453L23.5479 258.616L30.0696 241.708L23.5086 239.991L19.1025 257.453Z" fill="#A0616A"/>
<path d="M18.3416 255.678L27.0961 257.969L27.0964 257.969C27.8291 258.161 28.5175 258.497 29.1223 258.96C29.7271 259.423 30.2365 260.002 30.6215 260.666C31.0064 261.329 31.2593 262.063 31.3656 262.825C31.472 263.588 31.4299 264.365 31.2416 265.111L31.195 265.295L16.8613 261.544L18.3416 255.678Z" fill="#2F2E41"/>
<path d="M51.2952 137.079C56.3735 137.079 60.4903 132.887 60.4903 127.715C60.4903 122.544 56.3735 118.351 51.2952 118.351C46.2169 118.351 42.1001 122.544 42.1001 127.715C42.1001 132.887 46.2169 137.079 51.2952 137.079Z" fill="#A0616A"/>
<path d="M46.6446 166.665C44.4569 164.372 42.5995 161.775 41.1277 158.951C40.345 157.402 39.8893 155.704 39.79 153.966C39.6906 152.227 39.9499 150.487 40.5511 148.856C41.165 147.19 42.1147 145.672 43.3392 144.402C44.5637 143.132 46.0358 142.137 47.6608 141.481C50.5105 140.303 53.69 140.254 56.5732 141.344C59.4564 142.434 61.8346 144.584 63.2395 147.37C65.5404 151.956 66.442 156.439 65.9196 160.696C64.9207 168.834 64.3359 173.041 64.1815 173.198L64.1301 173.25L47.025 174.024L46.6446 166.665Z" fill="#1684AC"/>
<path d="M47.6605 171.772L62.9677 170.996C63.3542 170.977 63.7332 171.11 64.0251 171.369C64.3171 171.628 64.4993 171.991 64.5337 172.384L71.5753 252.766C71.594 252.98 71.5682 253.195 71.4998 253.398C71.4313 253.6 71.3216 253.786 71.1778 253.943C71.034 254.1 70.8595 254.224 70.6654 254.307C70.4714 254.39 70.2623 254.431 70.0518 254.426L64.0716 254.297C63.7427 254.29 63.4252 254.172 63.1683 253.963C62.9114 253.754 62.7292 253.465 62.65 253.139L51.2254 206.259C51.1506 205.952 50.9842 205.676 50.749 205.47C50.5139 205.264 50.2216 205.137 49.9127 205.108C49.6038 205.078 49.2934 205.147 49.0245 205.304C48.7556 205.462 48.5415 205.701 48.4117 205.988L26.7615 253.874C26.6145 254.199 26.3597 254.462 26.0419 254.615C25.7241 254.768 25.3635 254.802 25.0233 254.712L19.0049 253.113C18.6324 253.015 18.3115 252.774 18.1089 252.441C17.9064 252.107 17.8378 251.707 17.9174 251.324C19.8975 241.804 31.7587 187.289 46.6926 172.199C46.9525 171.94 47.2972 171.788 47.6605 171.772Z" fill="#2F2E41"/>
<path d="M76.6476 180.797C76.0942 180.623 75.5828 180.333 75.1469 179.944C74.711 179.556 74.3603 179.078 74.1177 178.543C74.0617 178.418 74.0121 178.29 73.9691 178.16L53.5539 173.065C52.8844 172.895 52.2869 172.508 51.8505 171.964C51.414 171.419 51.1621 170.746 51.1321 170.044L51.8077 147.329C51.8368 146.351 52.245 145.425 52.9431 144.753C53.6412 144.081 54.5722 143.719 55.5323 143.744C56.4925 143.77 57.4036 144.182 58.0661 144.89C58.7286 145.598 59.0886 146.545 59.0672 147.523L58.6568 166.237L75.6538 173.251C75.8079 173.149 75.9687 173.059 76.135 172.979C76.742 172.693 77.4086 172.561 78.0768 172.595C78.745 172.63 79.3949 172.829 79.9705 173.177C80.546 173.524 81.0299 174.009 81.3803 174.589C81.7307 175.17 81.937 175.828 81.9816 176.508C82.0262 177.188 81.9076 177.869 81.6361 178.491C81.3645 179.114 80.9482 179.66 80.4231 180.082C79.898 180.505 79.2799 180.79 78.6221 180.915C77.9643 181.04 77.2867 180.999 76.6476 180.797Z" fill="#A0616A"/>
<path d="M49.6303 158.647C49.4541 158.454 49.321 158.224 49.24 157.973C49.1591 157.723 49.1322 157.457 49.1612 157.195L50.1731 148.035C50.1261 146.686 50.6065 145.373 51.5089 144.383C52.4112 143.394 53.6619 142.81 54.9868 142.758C56.3116 142.707 57.6025 143.192 58.5764 144.108C59.5503 145.024 60.1277 146.296 60.1821 147.646L61.8288 156.739C61.8758 156.999 61.8673 157.266 61.8039 157.522C61.7405 157.777 61.6237 158.016 61.4615 158.222C61.2992 158.428 61.0953 158.596 60.8636 158.714C60.632 158.832 60.378 158.898 60.119 158.908L51.0169 159.235C50.7579 159.244 50.4999 159.197 50.2606 159.095C50.0213 158.994 49.8063 158.841 49.6303 158.647Z" fill="#1684AC"/>
<path d="M38.1195 140.078L39.0803 136.916L39.7373 140.465L45.1332 140.32L45.1083 136.82L47.1596 140.274L52.0492 139.173C51.0046 137.756 49.9476 136.316 49.2795 134.645C48.6114 132.974 48.3682 131.015 48.9924 129.323C50.5357 125.141 56.387 126.312 59.5873 126.276C60.5209 126.266 61.575 126.197 62.1864 125.42C62.6469 124.835 62.7223 123.997 62.699 123.223C62.5788 119.237 60.2289 115.434 56.9068 113.85C55.2807 113.087 53.4678 112.837 51.7011 113.132C50.7795 113.28 49.8848 113.567 49.0461 113.983C48.2984 114.355 47.5131 115.241 46.7081 115.217C46.0315 115.197 45.1359 114.479 44.3997 114.357C43.5128 114.217 42.608 114.249 41.7328 114.451C39.974 114.851 38.3886 115.817 37.2118 117.207C34.7108 120.166 33.9677 124.527 34.4036 128.542C34.8395 132.557 36.3143 136.332 37.7726 140.043" fill="#2F2E41"/>
<path d="M300.626 266H0.374378C0.275087 266 0.179862 265.96 0.109653 265.888C0.039443 265.817 0 265.72 0 265.619C0 265.517 0.039443 265.42 0.109653 265.349C0.179862 265.277 0.275087 265.237 0.374378 265.237H300.626C300.725 265.237 300.82 265.277 300.89 265.349C300.961 265.42 301 265.517 301 265.619C301 265.72 300.961 265.817 300.89 265.888C300.82 265.96 300.725 266 300.626 266Z" fill="#E6E6E6"/>
<path d="M295.56 261.275C296.703 260.331 297.536 259.055 297.947 257.616C298.252 256.16 297.643 254.451 296.281 253.888C294.752 253.286 293.118 254.369 291.881 255.457C290.644 256.546 289.22 257.793 287.598 257.559C288.429 256.788 289.05 255.81 289.399 254.722C289.749 253.634 289.816 252.472 289.593 251.349C289.526 250.882 289.332 250.444 289.034 250.083C288.188 249.159 286.647 249.558 285.628 250.286C282.395 252.603 281.494 257.072 281.482 261.098C281.152 259.642 281.426 258.129 281.42 256.667C281.413 255.204 281.009 253.502 279.779 252.729C279.015 252.312 278.158 252.104 277.292 252.128C275.838 252.077 274.222 252.223 273.227 253.305C271.984 254.647 272.313 256.907 273.389 258.369C274.464 259.832 276.093 260.775 277.591 261.8C278.797 262.529 279.826 263.526 280.599 264.718C280.691 264.883 280.766 265.057 280.823 265.237H289.929C291.973 264.182 293.868 262.849 295.56 261.275Z" fill="#F2F2F2"/>
<path d="M200.818 115.218C200.649 115.217 200.483 115.174 200.334 115.091C200.186 115.008 200.06 114.889 199.968 114.744C199.876 114.599 199.821 114.433 199.808 114.261C199.795 114.09 199.824 113.917 199.893 113.76L201.065 111.098C199.451 109.638 198.423 107.623 198.178 105.438C197.933 103.254 198.488 101.054 199.738 99.2609C200.987 97.4679 202.843 96.2078 204.949 95.7221C207.054 95.2365 209.262 95.5596 211.148 96.6294C213.034 97.6992 214.466 99.4404 215.169 101.519C215.872 103.598 215.797 105.868 214.958 107.894C214.119 109.92 212.576 111.559 210.623 112.497C208.67 113.435 206.446 113.606 204.378 112.977L201.388 115.038C201.22 115.155 201.022 115.218 200.818 115.218ZM206.863 96.8158C205.306 96.8149 203.787 97.3074 202.516 98.225C201.246 99.1427 200.288 100.44 199.774 101.937C199.26 103.434 199.217 105.057 199.649 106.581C200.082 108.104 200.969 109.453 202.188 110.44L202.557 110.74L201.296 113.604L204.189 111.61L204.474 111.708C205.506 112.061 206.601 112.181 207.683 112.06C208.765 111.939 209.808 111.581 210.74 111.008C211.672 110.436 212.471 109.665 213.081 108.747C213.691 107.829 214.098 106.787 214.274 105.693C214.449 104.599 214.389 103.48 214.097 102.412C213.806 101.344 213.289 100.353 212.584 99.509C211.879 98.6645 211.003 97.9863 210.015 97.5212C209.027 97.0562 207.951 96.8155 206.863 96.8158Z" fill="#3F3D56"/>
<path d="M206.863 105.29C207.536 105.29 208.081 104.735 208.081 104.05C208.081 103.365 207.536 102.81 206.863 102.81C206.191 102.81 205.646 103.365 205.646 104.05C205.646 104.735 206.191 105.29 206.863 105.29Z" fill="#3F3D56"/>
<path d="M203.413 105.29C204.086 105.29 204.631 104.735 204.631 104.05C204.631 103.365 204.086 102.81 203.413 102.81C202.74 102.81 202.195 103.365 202.195 104.05C202.195 104.735 202.74 105.29 203.413 105.29Z" fill="#3F3D56"/>
<path d="M210.313 105.29C210.986 105.29 211.531 104.735 211.531 104.05C211.531 103.365 210.986 102.81 210.313 102.81C209.641 102.81 209.095 103.365 209.095 104.05C209.095 104.735 209.641 105.29 210.313 105.29Z" fill="#3F3D56"/>
</g>
<defs>
<clipPath id="clip0_1420_2260">
<rect width="301" height="266" fill="white"/>
</clipPath>
</defs>
</svg>
