<svg width="268" height="267" viewBox="0 0 268 267" fill="none" xmlns="http://www.w3.org/2000/svg">
<path d="M43.5529 215.246C42.5125 215.248 41.5151 215.683 40.7795 216.457C40.0439 217.231 39.6301 218.28 39.6289 219.374V229.032C39.6301 230.126 40.0439 231.175 40.7795 231.949C41.5151 232.723 42.5125 233.158 43.5529 233.16H48.5301C49.5704 233.158 50.5678 232.723 51.3035 231.949C52.0391 231.175 52.4529 230.126 52.4541 229.032V219.374C52.4529 218.28 52.0391 217.231 51.3035 216.457C50.5678 215.683 49.5704 215.248 48.5301 215.246H43.5529Z" fill="#3F3D56"/>
<path d="M135.558 233.481H130.581C129.46 233.48 128.385 233.011 127.592 232.176C126.799 231.342 126.353 230.211 126.352 229.032V219.374C126.353 218.195 126.799 217.064 127.592 216.23C128.385 215.396 129.46 214.927 130.581 214.925H135.558C136.679 214.927 137.754 215.396 138.547 216.23C139.34 217.064 139.786 218.195 139.787 219.374V229.032C139.786 230.211 139.34 231.342 138.547 232.176C137.754 233.011 136.679 233.48 135.558 233.481Z" fill="#3F3D56"/>
<path d="M132.256 225.748H46.5503C42.6498 225.748 39.4766 223.329 39.4766 220.356V203.019L43.7306 198.306H135.903L139.33 203.029V220.356C139.33 223.329 136.156 225.748 132.256 225.748Z" fill="#CCCCCC"/>
<path d="M135.502 206.979H44.2186L43.291 192.016L43.8813 190.485L47.3126 181.602H131.791L136.43 191.689L135.502 206.979Z" fill="#CCCCCC"/>
<path d="M136.274 191.721L135.593 202.964H115.51V194.612L135.703 190.481L136.274 191.721Z" fill="white"/>
<path d="M63.9048 194.612V202.964H44.1233L43.4453 192.042L44.0226 190.545L63.9048 194.612Z" fill="white"/>
<path d="M131.281 184.172H47.8203L56.722 152.958C57.0851 151.669 57.8327 150.537 58.8545 149.729C59.8763 148.922 61.118 148.481 62.3961 148.473L117.669 147.919C119.005 147.906 120.306 148.363 121.366 149.217C122.426 150.072 123.184 151.275 123.519 152.635L131.281 184.172Z" fill="#CCCCCC"/>
<path d="M124.856 181.221L54.2319 180.34C54.1426 180.339 54.0548 180.316 53.9756 180.272C53.8963 180.229 53.8278 180.167 53.7756 180.09C53.7234 180.014 53.689 179.926 53.675 179.833C53.661 179.741 53.668 179.646 53.6952 179.556L60.4656 157.335C60.5025 157.214 60.5751 157.108 60.6727 157.033C60.7704 156.958 60.8882 156.918 61.0091 156.918H117.814C117.935 156.918 118.052 156.958 118.15 157.033C118.248 157.108 118.32 157.214 118.357 157.335L125.406 180.437C125.434 180.528 125.441 180.624 125.426 180.718C125.411 180.812 125.376 180.901 125.322 180.977C125.268 181.054 125.198 181.116 125.117 181.158C125.036 181.2 124.947 181.222 124.856 181.221Z" fill="white"/>
<path d="M47.8733 183.53H35.3535V180.635C35.3545 179.699 35.7083 178.802 36.3374 178.14C36.9664 177.478 37.8193 177.106 38.7089 177.105H47.8733V183.53Z" fill="#CCCCCC"/>
<path d="M143.756 183.53H131.236V177.105H140.401C141.29 177.106 142.143 177.478 142.772 178.14C143.401 178.802 143.755 179.699 143.756 180.635V183.53Z" fill="#CCCCCC"/>
<path d="M34.2635 229.754L0.357422 242.567L0.000289287 241.521L33.9064 228.708L34.2635 229.754Z" fill="#3F3D56"/>
<path d="M144.421 229.872L144.711 229.022L176.962 241.207L176.672 242.057L144.421 229.872Z" fill="#3F3D56"/>
<path d="M92.9565 245.429H89.293V240.451H92.9565V245.429ZM92.9565 235.473H89.293V230.495H92.9565V235.473Z" fill="#E6E6E6"/>
<path d="M92.9565 266.049H89.293V261.071H92.9565V266.049ZM92.9565 256.093H89.293V251.115H92.9565V256.093Z" fill="#E6E6E6"/>
<path d="M200.832 241.206H197.071L195.281 226.317H200.832V241.206Z" fill="#FFB8B8"/>
<path d="M201.943 245.067H189.73V244.91C189.732 243.636 190.233 242.414 191.124 241.513C192.015 240.612 193.224 240.105 194.484 240.104H201.943L201.943 245.067Z" fill="#2F2E41"/>
<path d="M249.681 233.685L246.462 235.692L237.469 223.765L242.22 220.803L249.681 233.685Z" fill="#FFB8B8"/>
<path d="M241.584 243.412L241.502 243.273C240.829 242.137 240.629 240.778 240.946 239.493C241.262 238.208 242.07 237.103 243.191 236.419L249.831 232.383L252.456 236.804L241.584 243.412Z" fill="#2F2E41"/>
<path d="M202.075 238.449L202.01 238.449C200.18 238.443 198.351 238.332 196.532 238.117C195.838 238.045 195.086 237.966 194.18 237.888L194.149 237.882C193.53 237.689 193.513 231.584 193.775 210.686C193.91 199.982 194.062 187.851 193.881 180.125L193.879 180.049L193.933 179.999C200.646 173.852 209.266 171.548 218.207 173.511L218.273 173.525L218.307 173.587C222.006 180.175 227.59 189.665 232.99 198.843C245.386 219.91 248.931 226.106 248.543 226.574L248.496 226.612C247.649 227.057 247.014 227.4 246.474 227.692C244.664 228.669 243.915 229.073 239.892 230.818L239.792 230.861L239.72 230.777C227.142 216.266 216.675 200.056 210.2 185.072C209.444 190.187 208.526 196.867 207.555 203.926C204.765 224.222 202.88 237.587 202.12 238.4L202.075 238.449Z" fill="#2F2E41"/>
<path d="M221.641 115.479C222.928 110.056 224.019 103.94 221.591 98.9458C219.907 95.4805 213.677 94.3135 210.105 95.5619C206.534 96.8103 203.951 100.197 202.816 103.89C201.68 107.583 201.812 111.563 202.307 115.402C208.876 115.273 215.444 115.144 221.641 115.479Z" fill="#2F2E41"/>
<path d="M210.547 115.479C214.686 115.479 218.041 112.023 218.041 107.759C218.041 103.495 214.686 100.039 210.547 100.039C206.408 100.039 203.053 103.495 203.053 107.759C203.053 112.023 206.408 115.479 210.547 115.479Z" fill="#FFB8B8"/>
<path d="M219.704 106.386C219.728 105.044 219.497 103.71 219.026 102.464C218.555 101.218 217.852 100.085 216.961 99.1333C216.069 98.1813 215.006 97.4292 213.835 96.9218C212.664 96.4145 211.409 96.1621 210.144 96.1798C208.88 96.1975 207.632 96.4849 206.474 97.0249C205.316 97.5648 204.272 98.3464 203.404 99.3231C202.536 100.3 201.862 101.452 201.422 102.71C200.982 103.969 200.784 105.309 200.842 106.65C207.272 106.664 213.703 106.679 219.704 106.386Z" fill="#2F2E41"/>
<path d="M205.446 181.649C212.942 181.614 220.39 182.92 227.467 185.511C227.713 173.068 223.624 160.602 216.23 151.276L216.175 151.206L216.203 151.121C218.178 145.143 220.219 138.964 222.043 132.815L222.016 132.712C220.736 127.948 217.99 123.134 213.621 117.994C213.147 117.479 212.504 117.173 211.823 117.137C211.141 117.101 210.472 117.337 209.951 117.799C202.185 125.257 197.962 136.431 198.931 146.962L198.933 146.993L198.925 147.023C195.504 159.165 194.262 165.401 193.166 170.903C192.367 174.917 191.675 178.393 190.285 183.359C195.266 182.224 200.348 181.65 205.446 181.649Z" fill="#3F3D56"/>
<path opacity="0.1" d="M216.375 143.051L205.07 168.968L198.611 162.085L216.375 143.051Z" fill="black"/>
<path d="M195.97 157.421L196.746 158.977C196.754 158.991 196.755 159.008 196.75 159.024C196.745 159.039 196.735 159.052 196.721 159.059L196.683 159.079L200.73 167.182C200.842 167.407 200.863 167.667 200.788 167.908C200.713 168.148 200.549 168.348 200.332 168.463L195.419 171.069C195.311 171.126 195.194 171.161 195.073 171.171C194.952 171.181 194.831 171.167 194.715 171.129C194.6 171.091 194.493 171.03 194.401 170.949C194.308 170.868 194.232 170.769 194.177 170.658L190.272 162.839L190.245 162.854C190.235 162.859 190.224 162.86 190.213 162.856C190.203 162.853 190.194 162.845 190.189 162.835L189.747 161.95C189.744 161.945 189.743 161.939 189.742 161.934C189.742 161.928 189.742 161.922 189.744 161.917C189.746 161.912 189.749 161.907 189.752 161.902C189.756 161.898 189.76 161.894 189.765 161.892L189.792 161.877L189.625 161.544L189.598 161.559C189.588 161.564 189.576 161.565 189.565 161.561C189.554 161.558 189.544 161.55 189.539 161.539L189.103 160.666C189.098 160.655 189.097 160.643 189.1 160.631C189.104 160.62 189.112 160.611 189.122 160.605L189.149 160.591L188.922 160.135L188.894 160.15C188.885 160.155 188.874 160.156 188.865 160.153C188.855 160.149 188.847 160.142 188.842 160.133L188.604 159.656C188.599 159.647 188.598 159.636 188.602 159.626C188.605 159.616 188.612 159.607 188.621 159.602L188.648 159.588L188.167 158.623C188.055 158.398 188.034 158.138 188.108 157.898C188.183 157.657 188.347 157.458 188.565 157.342L193.477 154.737C193.695 154.621 193.948 154.6 194.181 154.676C194.414 154.753 194.608 154.922 194.72 155.147L195.852 157.415L195.89 157.395C195.904 157.388 195.92 157.386 195.935 157.391C195.95 157.396 195.962 157.407 195.97 157.421Z" fill="#3F3D56"/>
<path d="M194.341 155.517L200.213 167.724C200.283 167.87 200.296 168.039 200.249 168.195C200.202 168.35 200.1 168.48 199.964 168.555L195.332 171.105C195.196 171.18 195.038 171.195 194.893 171.145C194.747 171.095 194.626 170.986 194.556 170.841L194.555 170.839L188.683 158.632C188.648 158.56 188.627 158.482 188.621 158.401C188.615 158.32 188.624 158.239 188.647 158.162C188.67 158.085 188.707 158.013 188.756 157.951C188.805 157.889 188.865 157.838 188.932 157.801L189.625 157.42L189.671 157.515C189.699 157.574 189.739 157.627 189.786 157.67C189.834 157.713 189.889 157.746 189.948 157.766C190.008 157.786 190.07 157.794 190.132 157.789C190.194 157.783 190.255 157.765 190.31 157.734L192.666 156.437C192.778 156.375 192.863 156.269 192.901 156.14C192.939 156.012 192.929 155.873 192.871 155.753L192.825 155.658L193.564 155.251C193.7 155.176 193.858 155.162 194.004 155.212C194.149 155.262 194.27 155.371 194.34 155.517L194.341 155.517Z" fill="#1684AC"/>
<path d="M191.458 170.062C191.915 170.029 192.36 169.893 192.761 169.664C193.162 169.435 193.51 169.118 193.779 168.736C194.049 168.353 194.233 167.914 194.32 167.45C194.407 166.986 194.394 166.509 194.283 166.05L203.607 159.755L198.289 157.388L190.25 163.729C189.515 163.973 188.893 164.487 188.501 165.172C188.109 165.858 187.975 166.668 188.124 167.448C188.273 168.229 188.694 168.926 189.309 169.408C189.923 169.889 190.688 170.122 191.458 170.062Z" fill="#FFB8B8"/>
<path d="M200.3 165.66L200.184 165.575C197.991 163.903 195.556 162.175 193.202 160.504L193.061 160.403L193.172 160.268C198.197 154.18 203.228 147.821 208.094 141.67C208.09 141.66 208.087 141.653 208.084 141.648L208.13 141.624L208.15 141.599L208.16 141.608L208.189 141.593L208.057 141.603L206.557 129.425C205.202 127.511 204.943 123.712 206.718 121.06C208.557 118.313 212.447 117.394 215.044 119.092C215.724 119.565 216.293 120.19 216.708 120.921C217.123 121.652 217.374 122.471 217.443 123.316C217.539 124.069 217.472 124.835 217.246 125.558C217.02 126.281 216.641 126.942 216.137 127.494C216.774 133.939 216.798 139.699 216.822 145.272L216.822 145.327L216.789 145.373C211.602 152.197 205.904 158.985 200.393 165.549L200.3 165.66Z" fill="#3F3D56"/>
<path d="M267.64 245.618H181.762C181.666 245.618 181.575 245.589 181.508 245.537C181.44 245.485 181.402 245.415 181.402 245.342C181.402 245.269 181.44 245.199 181.508 245.147C181.575 245.095 181.666 245.066 181.762 245.066H267.64C267.735 245.066 267.827 245.095 267.894 245.147C267.961 245.199 267.999 245.269 267.999 245.342C267.999 245.415 267.961 245.485 267.894 245.537C267.827 245.589 267.735 245.618 267.64 245.618Z" fill="#3F3D56"/>
<path d="M44.7454 83.6345C50.3403 61.4384 61.4261 42.3605 79.7856 27.4131C80.4961 26.276 81.6413 25.4595 82.9699 25.1427C84.2985 24.826 85.702 25.0348 86.8725 25.7235L130.518 51.4677C131.687 52.1589 132.526 53.273 132.852 54.5655C133.177 55.858 132.962 57.2234 132.255 58.362C125.247 81.1376 114.751 100.901 97.2144 114.583C96.5039 115.721 95.3587 116.537 94.0301 116.854C92.7015 117.171 91.298 116.962 90.1276 116.273L46.4823 90.5289C45.3134 89.8376 44.4741 88.7236 44.1485 87.4311C43.8229 86.1386 44.0375 84.7732 44.7454 83.6345Z" fill="#F2F2F2"/>
<path opacity="0.2" d="M52.455 91.1214C51.2927 90.4301 50.4581 89.316 50.1343 88.0233C49.8106 86.7307 50.024 85.3652 50.7279 84.2264C56.2913 62.0281 67.3145 42.9483 85.5704 27.9995C86.0381 27.2551 86.6985 26.6447 87.4847 26.2302L86.6307 25.7235C85.4668 25.0348 84.0712 24.826 82.7501 25.1427C81.4291 25.4595 80.2903 26.2761 79.5838 27.4133C61.3278 42.3621 50.3046 61.4419 44.7413 83.6403C44.0374 84.7791 43.8239 86.1446 44.1476 87.4372C44.4714 88.7298 45.306 89.844 46.4683 90.5353L89.8673 116.282C90.6398 116.737 91.5213 116.984 92.4227 116.998C93.3241 117.012 94.2132 116.792 95 116.362L52.455 91.1214Z" fill="black"/>
<path d="M103.838 78.7173L74.0089 61.6753C73.535 61.4038 73.1941 60.965 73.0611 60.4553C72.9282 59.9456 73.014 59.4068 73.2998 58.9571C73.5855 58.5074 74.0479 58.1836 74.5852 58.0569C75.1225 57.9302 75.691 58.0108 76.1656 58.2812L105.995 75.3233C106.467 75.5953 106.807 76.034 106.939 76.5432C107.072 77.0523 106.986 77.5904 106.7 78.0395C106.415 78.4887 105.953 78.8122 105.417 78.9393C104.88 79.0663 104.312 78.9865 103.838 78.7173Z" fill="white"/>
<path d="M86.7614 56.7066L80.0412 52.8173C79.5542 52.5375 79.2029 52.0833 79.0646 51.5546C78.9262 51.026 79.0122 50.4662 79.3035 49.9984C79.5949 49.5306 80.0677 49.1932 80.6181 49.0603C81.1685 48.9274 81.7513 49.01 82.2383 49.2898L82.2499 49.2965L88.97 53.1858C89.4543 53.468 89.8023 53.923 89.9378 54.4513C90.0734 54.9795 89.9853 55.5378 89.693 56.0037C89.4007 56.4697 88.928 56.8054 88.3784 56.9371C87.8289 57.0689 87.2474 56.986 86.7614 56.7066Z" fill="white"/>
<path d="M99.8381 85.7308L70.0115 69.5014C69.5371 69.2434 69.1955 68.8259 69.0618 68.3406C68.9281 67.8553 69.0132 67.3419 69.2985 66.9133C69.5837 66.4846 70.0457 66.1758 70.583 66.0545C71.1203 65.9333 71.6889 66.0097 72.1638 66.2669L72.168 66.2692L101.995 82.4985C102.467 82.7576 102.807 83.1754 102.939 83.6602C103.072 84.1451 102.986 84.6575 102.7 85.0853C102.415 85.513 101.953 85.8211 101.417 85.9421C100.88 86.0631 100.313 85.9871 99.8381 85.7308Z" fill="white"/>
<path d="M107 45.9983C111.971 45.9983 116 42.1927 116 37.4983C116 32.8039 111.971 28.9983 107 28.9983C102.029 28.9983 98 32.8039 98 37.4983C98 42.1927 102.029 45.9983 107 45.9983Z" fill="#3F3D56"/>
<path d="M92.5 126.998C102.717 126.998 111 119.163 111 109.498C111 99.8333 102.717 91.9983 92.5 91.9983C82.2827 91.9983 74 99.8333 74 109.498C74 119.163 82.2827 126.998 92.5 126.998Z" fill="white"/>
<path d="M92.5 126.998C88.8411 126.998 85.2643 125.943 82.222 123.965C79.1797 121.987 76.8085 119.176 75.4082 115.887C74.008 112.598 73.6417 108.978 74.3555 105.487C75.0693 101.995 76.8312 98.7878 79.4185 96.2704C82.0057 93.7531 85.3021 92.0387 88.8908 91.3442C92.4794 90.6496 96.1991 91.0061 99.5796 92.3684C102.96 93.7308 105.849 96.0379 107.882 98.9979C109.915 101.958 111 105.438 111 108.998C110.994 113.77 109.044 118.346 105.575 121.72C102.107 125.095 97.4048 126.993 92.5 126.998ZM92.5 91.4936C88.9417 91.4936 85.4634 92.5202 82.5048 94.4437C79.5462 96.3671 77.2402 99.101 75.8785 102.3C74.5168 105.498 74.1606 109.018 74.8548 112.413C75.5489 115.809 77.2624 118.928 79.7785 121.376C82.2946 123.824 85.5003 125.491 88.9902 126.167C92.4801 126.842 96.0975 126.495 99.3849 125.171C102.672 123.846 105.482 121.602 107.459 118.723C109.436 115.845 110.491 112.46 110.491 108.998C110.486 104.357 108.588 99.9079 105.216 96.6263C101.843 93.3447 97.2698 91.4988 92.5 91.4936Z" fill="#3F3D56"/>
<path d="M90.3796 117.998C90.0478 117.998 89.7206 117.929 89.4238 117.795C89.1271 117.662 88.869 117.468 88.67 117.229L83.4285 110.938C83.2598 110.736 83.1371 110.506 83.0672 110.262C82.9973 110.017 82.9818 109.762 83.0214 109.512C83.061 109.262 83.155 109.021 83.298 108.803C83.441 108.586 83.6303 108.396 83.8549 108.244C84.0795 108.093 84.3352 107.982 84.6072 107.92C84.8793 107.857 85.1624 107.843 85.4403 107.879C85.7183 107.915 85.9857 108 86.2272 108.129C86.4687 108.258 86.6797 108.428 86.8479 108.63L90.2771 112.745L99.0846 100.855C99.2402 100.645 99.4404 100.464 99.6736 100.324C99.9068 100.183 100.168 100.085 100.444 100.036C100.719 99.9861 101.002 99.9858 101.278 100.035C101.553 100.084 101.815 100.181 102.048 100.321C102.282 100.461 102.482 100.642 102.639 100.852C102.795 101.061 102.903 101.297 102.958 101.545C103.014 101.792 103.014 102.047 102.959 102.295C102.905 102.543 102.797 102.779 102.641 102.989L92.158 117.142C91.9684 117.398 91.7133 117.609 91.4142 117.758C91.1151 117.907 90.7807 117.989 90.4391 117.998C90.4192 117.998 90.3994 117.998 90.3796 117.998Z" fill="#1684AC"/>
<path d="M137.489 38.537C138.214 38.4769 138.767 38.0317 138.724 37.5426C138.681 37.0535 138.058 36.7058 137.333 36.7659C136.607 36.826 136.054 37.2712 136.098 37.7603C136.141 38.2493 136.764 38.5971 137.489 38.537Z" fill="white"/>
<path d="M145.649 35.8541C146.374 35.794 146.927 35.3488 146.884 34.8597C146.841 34.3707 146.218 34.0229 145.493 34.0831C144.768 34.1432 144.215 34.5884 144.258 35.0774C144.301 35.5665 144.924 35.9142 145.649 35.8541Z" fill="#3F3D56"/>
<path d="M133.622 32.5025C134.347 32.4424 134.9 31.9972 134.857 31.5082C134.813 31.0191 134.191 30.6714 133.465 30.7315C132.74 30.7916 132.187 31.2368 132.23 31.7259C132.274 32.2149 132.896 32.5626 133.622 32.5025Z" fill="#1684AC"/>
<path d="M130.198 30.5578C130.51 30.4894 130.681 30.0814 130.58 29.6464C130.478 29.2115 130.143 28.9143 129.831 28.9827C129.519 29.051 129.348 29.4591 129.449 29.894C129.551 30.329 129.886 30.6262 130.198 30.5578Z" fill="#E6E6E6"/>
<path d="M127.762 25.8369C128.074 25.7685 128.245 25.3604 128.144 24.9255C128.043 24.4905 127.707 24.1933 127.395 24.2617C127.083 24.3301 126.912 24.7381 127.014 25.1731C127.115 25.608 127.45 25.9052 127.762 25.8369Z" fill="#3F3D56"/>
<path d="M139.454 32.4667C139.766 32.3984 139.937 31.9903 139.835 31.5554C139.734 31.1204 139.399 30.8232 139.087 30.8916C138.775 30.96 138.604 31.368 138.705 31.803C138.806 32.2379 139.142 32.5351 139.454 32.4667Z" fill="#E6E6E6"/>
<path d="M142.378 37.6711C142.69 37.6027 142.861 37.1947 142.759 36.7597C142.658 36.3247 142.323 36.0276 142.01 36.0959C141.698 36.1643 141.527 36.5723 141.629 37.0073C141.73 37.4423 142.065 37.7395 142.378 37.6711Z" fill="#3F3D56"/>
<path d="M103.802 1.97076C103.926 1.49496 103.455 0.968728 102.749 0.795396C102.044 0.622063 101.371 0.867264 101.247 1.34307C101.122 1.81887 101.593 2.3451 102.299 2.51844C103.005 2.69177 103.677 2.44657 103.802 1.97076Z" fill="white"/>
<path d="M95.1865 1.91704C95.3108 1.44123 94.8397 0.915003 94.1342 0.74167C93.4286 0.568337 92.7559 0.813539 92.6315 1.28934C92.5071 1.76515 92.9782 2.29139 93.6837 2.46473C94.3893 2.63806 95.0621 2.39284 95.1865 1.91704Z" fill="#3F3D56"/>
<path d="M105.419 8.90045C105.543 8.42465 105.072 7.89842 104.367 7.72508C103.661 7.55175 102.988 7.79695 102.864 8.27276C102.74 8.74856 103.211 9.27479 103.916 9.44812C104.622 9.62146 105.294 9.37626 105.419 8.90045Z" fill="#1684AC"/>
<path d="M107.426 11.5132C107.477 11.0701 107.26 10.6829 106.942 10.6484C106.624 10.614 106.325 10.9453 106.274 11.3885C106.223 11.8317 106.439 12.2188 106.757 12.2533C107.075 12.2877 107.375 11.9564 107.426 11.5132Z" fill="#E6E6E6"/>
<path d="M108.135 16.7476C108.186 16.3044 107.969 15.9172 107.651 15.8828C107.333 15.8484 107.034 16.1797 106.983 16.6229C106.932 17.066 107.148 17.4532 107.466 17.4877C107.784 17.5221 108.084 17.1908 108.135 16.7476Z" fill="#3F3D56"/>
<path d="M99.3262 6.77251C99.3773 6.32934 99.1609 5.94215 98.8428 5.9077C98.5248 5.87325 98.2256 6.20459 98.1745 6.64776C98.1234 7.09093 98.3398 7.47812 98.6579 7.51257C98.9759 7.54702 99.2751 7.21568 99.3262 6.77251Z" fill="#E6E6E6"/>
<path d="M98.3203 0.927295C98.3714 0.484122 98.155 0.0969353 97.837 0.0624871C97.519 0.0280388 97.2197 0.359374 97.1687 0.802547C97.1176 1.24572 97.334 1.63291 97.652 1.66735C97.97 1.7018 98.2692 1.37047 98.3203 0.927295Z" fill="#3F3D56"/>
</svg>
