<svg width="301" height="266" viewBox="0 0 301 266" fill="none" xmlns="http://www.w3.org/2000/svg">
<path d="M48.915 215.207C47.7465 215.208 46.6263 215.644 45.8001 216.417C44.9739 217.191 44.5091 218.24 44.5078 219.334V228.99C44.5091 230.084 44.9739 231.133 45.8001 231.907C46.6263 232.681 47.7465 233.116 48.915 233.117H54.505C55.6735 233.116 56.7937 232.681 57.6199 231.907C58.4461 231.133 58.9109 230.084 58.9122 228.99V219.334C58.9109 218.24 58.4461 217.191 57.6199 216.417C56.7937 215.644 55.6735 215.208 54.505 215.207H48.915Z" fill="#3F3D56"/>
<path d="M152.249 233.438H146.659C145.399 233.437 144.192 232.968 143.302 232.134C142.411 231.3 141.91 230.169 141.909 228.99V219.334C141.91 218.155 142.411 217.024 143.302 216.19C144.192 215.356 145.399 214.887 146.659 214.886H152.249C153.508 214.887 154.716 215.356 155.606 216.19C156.497 217.024 156.998 218.155 156.999 219.334V228.99C156.998 230.169 156.497 231.3 155.606 232.134C154.716 232.968 153.508 233.437 152.249 233.438Z" fill="#3F3D56"/>
<path d="M148.54 225.707H52.2812C47.9004 225.707 44.3364 223.288 44.3364 220.316V202.982L49.1143 198.27H152.636L156.485 202.992V220.316C156.485 223.288 152.921 225.707 148.54 225.707Z" fill="#CCCCCC"/>
<path d="M152.187 206.942H49.6629L48.6211 191.981L49.2841 190.45L53.1379 181.569H148.018L153.229 191.654L152.187 206.942Z" fill="#CCCCCC"/>
<path d="M153.055 191.686L152.29 202.927H129.733V194.576L152.413 190.446L153.055 191.686Z" fill="white"/>
<path d="M71.7732 194.577V202.927H49.5559L48.7944 192.007L49.4428 190.511L71.7732 194.577Z" fill="white"/>
<path d="M147.446 184.139H53.7087L63.7065 152.931C64.1143 151.642 64.954 150.51 66.1016 149.702C67.2492 148.895 68.6438 148.454 70.0793 148.446L132.158 147.892C133.658 147.879 135.12 148.336 136.311 149.19C137.501 150.045 138.352 151.248 138.728 152.608L147.446 184.139Z" fill="#CCCCCC"/>
<path d="M140.23 181.188L60.9095 180.307C60.8092 180.306 60.7106 180.283 60.6216 180.239C60.5326 180.196 60.4557 180.134 60.3971 180.058C60.3384 179.981 60.2997 179.893 60.284 179.801C60.2683 179.708 60.2761 179.613 60.3067 179.524L67.9108 157.306C67.9523 157.185 68.0337 157.079 68.1434 157.004C68.2531 156.93 68.3854 156.889 68.5212 156.889H132.32C132.456 156.889 132.588 156.93 132.698 157.004C132.808 157.079 132.889 157.185 132.931 157.306L140.848 180.404C140.879 180.495 140.887 180.591 140.87 180.685C140.854 180.779 140.814 180.868 140.753 180.944C140.693 181.021 140.614 181.083 140.523 181.125C140.432 181.167 140.332 181.189 140.23 181.188Z" fill="white"/>
<path d="M53.7672 183.496H39.7058V180.602C39.7069 179.666 40.1043 178.769 40.8108 178.108C41.5173 177.446 42.4752 177.074 43.4744 177.073H53.7672V183.496Z" fill="#CCCCCC"/>
<path d="M161.457 183.496H147.396V177.073H157.689C158.688 177.074 159.646 177.446 160.352 178.108C161.059 178.769 161.456 179.666 161.457 180.602V183.496Z" fill="#CCCCCC"/>
<path d="M38.4829 229.712L0.401123 242.523L-4.85566e-05 241.477L38.0818 228.666L38.4829 229.712Z" fill="#3F3D56"/>
<path d="M162.204 229.83L162.53 228.98L198.753 241.163L198.427 242.013L162.204 229.83Z" fill="#3F3D56"/>
<path d="M104.402 245.384H100.287V240.407H104.402V245.384ZM104.402 235.43H100.287V230.453H104.402V235.43Z" fill="#E6E6E6"/>
<path d="M104.402 266H100.287V261.023H104.402V266ZM104.402 256.046H100.287V251.069H104.402V256.046Z" fill="#E6E6E6"/>
<path d="M225.561 241.162H221.337L219.327 226.276H225.561V241.162Z" fill="#FFB8B8"/>
<path d="M226.808 245.023H213.092V244.867C213.093 243.592 213.656 242.371 214.657 241.469C215.658 240.568 217.015 240.061 218.431 240.06H226.808L226.808 245.023Z" fill="#2F2E41"/>
<path d="M280.426 233.643L276.81 235.649L266.709 223.724L272.046 220.763L280.426 233.643Z" fill="#FFB8B8"/>
<path d="M271.333 243.368L271.24 243.228C270.484 242.093 270.26 240.734 270.615 239.449C270.971 238.164 271.878 237.059 273.137 236.376L280.595 232.341L283.543 236.76L271.333 243.368Z" fill="#2F2E41"/>
<path d="M226.958 238.406L226.885 238.405C224.829 238.399 222.775 238.288 220.731 238.073C219.953 238.001 219.108 237.923 218.09 237.845L218.055 237.839C217.361 237.645 217.342 231.541 217.636 210.648C217.787 199.946 217.958 187.817 217.754 180.092L217.752 180.016L217.813 179.966C225.352 173.82 235.034 171.517 245.076 173.479L245.15 173.494L245.189 173.555C249.342 180.142 255.614 189.63 261.679 198.806C275.602 219.87 279.583 226.065 279.147 226.532L279.094 226.571C278.144 227.016 277.43 227.359 276.823 227.651C274.791 228.627 273.95 229.031 269.431 230.776L269.319 230.819L269.238 230.735C255.111 216.227 243.355 200.02 236.083 185.038C235.234 190.153 234.202 196.831 233.113 203.888C229.979 224.181 227.861 237.543 227.009 238.357L226.958 238.406Z" fill="#2F2E41"/>
<path d="M248.934 115.458C250.379 110.036 251.604 103.921 248.878 98.9278C246.986 95.4631 239.988 94.2963 235.977 95.5445C231.966 96.7927 229.065 100.179 227.79 103.871C226.514 107.564 226.663 111.542 227.219 115.381C234.596 115.252 241.973 115.123 248.934 115.458Z" fill="#2F2E41"/>
<path d="M236.472 115.458C241.12 115.458 244.888 112.002 244.888 107.739C244.888 103.477 241.12 100.021 236.472 100.021C231.823 100.021 228.055 103.477 228.055 107.739C228.055 112.002 231.823 115.458 236.472 115.458Z" fill="#FFB8B8"/>
<path d="M246.757 106.367C246.784 105.025 246.525 103.691 245.996 102.445C245.466 101.2 244.677 100.067 243.676 99.1155C242.674 98.1636 241.481 97.4117 240.165 96.9044C238.85 96.3971 237.441 96.1448 236.02 96.1625C234.6 96.1802 233.198 96.4675 231.897 97.0074C230.597 97.5472 229.425 98.3286 228.45 99.3051C227.475 100.282 226.718 101.433 226.224 102.692C225.73 103.95 225.508 105.29 225.572 106.631C232.795 106.645 240.017 106.66 246.757 106.367Z" fill="#2F2E41"/>
<path d="M230.743 181.616C239.163 181.581 247.527 182.887 255.476 185.477C255.752 173.036 251.159 160.573 242.855 151.248L242.793 151.179L242.825 151.093C245.043 145.116 247.336 138.938 249.384 132.791L249.353 132.688C247.916 127.924 244.832 123.111 239.925 117.972C239.393 117.458 238.671 117.152 237.905 117.115C237.14 117.079 236.388 117.316 235.803 117.777C227.08 125.234 222.338 136.406 223.426 146.935L223.429 146.966L223.419 146.996C219.577 159.136 218.182 165.371 216.951 170.872C216.054 174.885 215.276 178.36 213.716 183.325C219.31 182.19 225.018 181.617 230.743 181.616Z" fill="#3F3D56"/>
<path opacity="0.1" d="M243.018 143.025L230.321 168.938L223.067 162.055L243.018 143.025Z" fill="black"/>
<path d="M220.1 157.393L220.973 158.948C220.981 158.962 220.982 158.979 220.977 158.994C220.971 159.01 220.96 159.023 220.944 159.03L220.902 159.05L225.446 167.152C225.572 167.376 225.596 167.637 225.512 167.877C225.428 168.117 225.244 168.317 224.999 168.432L219.482 171.037C219.361 171.095 219.229 171.129 219.093 171.14C218.958 171.15 218.821 171.136 218.691 171.097C218.562 171.059 218.442 170.998 218.338 170.918C218.234 170.837 218.149 170.738 218.086 170.627L213.701 162.809L213.671 162.824C213.66 162.829 213.647 162.83 213.635 162.827C213.623 162.823 213.613 162.816 213.608 162.805L213.111 161.92C213.108 161.915 213.107 161.91 213.106 161.904C213.106 161.898 213.106 161.893 213.108 161.887C213.11 161.882 213.113 161.877 213.117 161.873C213.121 161.868 213.126 161.865 213.131 161.862L213.162 161.848L212.975 161.514L212.944 161.529C212.933 161.534 212.919 161.535 212.907 161.532C212.894 161.528 212.884 161.52 212.878 161.509L212.388 160.636C212.382 160.626 212.381 160.613 212.385 160.602C212.389 160.591 212.398 160.581 212.409 160.576L212.44 160.561L212.185 160.106L212.154 160.121C212.143 160.126 212.131 160.127 212.12 160.123C212.109 160.12 212.1 160.113 212.095 160.104L211.828 159.627C211.822 159.618 211.821 159.607 211.825 159.597C211.828 159.586 211.836 159.578 211.846 159.573L211.878 159.558L211.337 158.594C211.211 158.369 211.187 158.109 211.271 157.869C211.355 157.629 211.539 157.429 211.784 157.314L217.301 154.708C217.545 154.593 217.83 154.571 218.091 154.648C218.353 154.725 218.571 154.894 218.696 155.118L219.969 157.386L220.011 157.366C220.026 157.359 220.045 157.358 220.061 157.363C220.078 157.367 220.092 157.378 220.1 157.393Z" fill="#3F3D56"/>
<path d="M218.271 155.489L224.866 167.694C224.944 167.839 224.959 168.008 224.906 168.164C224.854 168.32 224.739 168.449 224.586 168.524L219.384 171.074C219.231 171.149 219.054 171.163 218.891 171.114C218.727 171.064 218.591 170.955 218.513 170.81L218.512 170.808L211.917 158.603C211.878 158.531 211.854 158.453 211.847 158.372C211.84 158.291 211.85 158.21 211.876 158.133C211.902 158.056 211.943 157.984 211.998 157.922C212.053 157.861 212.12 157.81 212.196 157.773L212.975 157.391L213.026 157.486C213.058 157.545 213.102 157.598 213.155 157.641C213.209 157.684 213.271 157.717 213.337 157.737C213.404 157.758 213.474 157.765 213.544 157.76C213.614 157.754 213.682 157.736 213.744 157.705L216.39 156.408C216.516 156.347 216.611 156.24 216.654 156.112C216.697 155.983 216.685 155.844 216.62 155.724L216.569 155.629L217.398 155.222C217.551 155.148 217.729 155.134 217.892 155.183C218.056 155.233 218.192 155.343 218.27 155.488L218.271 155.489Z" fill="#1684AC"/>
<path d="M215.033 170.031C215.547 169.998 216.046 169.862 216.497 169.633C216.947 169.404 217.338 169.087 217.64 168.705C217.943 168.322 218.15 167.884 218.248 167.42C218.345 166.956 218.331 166.478 218.206 166.02L228.679 159.726L222.706 157.359L213.676 163.699C212.851 163.943 212.152 164.457 211.712 165.142C211.272 165.827 211.121 166.637 211.288 167.418C211.455 168.198 211.929 168.895 212.619 169.377C213.309 169.858 214.168 170.091 215.033 170.031Z" fill="#FFB8B8"/>
<path d="M224.964 165.63L224.834 165.545C222.371 163.874 219.636 162.146 216.992 160.474L216.833 160.374L216.958 160.239C222.602 154.152 228.252 147.794 233.717 141.644C233.713 141.634 233.71 141.627 233.707 141.622L233.758 141.598L233.78 141.573L233.792 141.582L233.825 141.567L233.676 141.577L231.991 129.401C230.47 127.488 230.179 123.69 232.172 121.038C234.238 118.291 238.607 117.372 241.523 119.07C242.287 119.543 242.926 120.168 243.392 120.899C243.858 121.63 244.141 122.449 244.217 123.294C244.326 124.047 244.25 124.812 243.996 125.535C243.743 126.258 243.317 126.919 242.75 127.47C243.466 133.914 243.494 139.674 243.52 145.245L243.521 145.301L243.483 145.347C237.657 152.169 231.258 158.956 225.069 165.519L224.964 165.63Z" fill="#3F3D56"/>
<path d="M300.597 245.573H204.144C204.037 245.573 203.934 245.544 203.858 245.492C203.783 245.441 203.74 245.371 203.74 245.297C203.74 245.224 203.783 245.154 203.858 245.102C203.934 245.051 204.037 245.022 204.144 245.022H300.597C300.704 245.022 300.806 245.051 300.882 245.102C300.958 245.154 301 245.224 301 245.297C301 245.371 300.958 245.441 300.882 245.492C300.806 245.544 300.704 245.573 300.597 245.573Z" fill="#3F3D56"/>
<path d="M50.2549 83.6194C56.5388 61.4274 68.9896 42.3529 89.6098 27.4083C90.4078 26.2714 91.694 25.455 93.1862 25.1383C94.6784 24.8216 96.2547 25.0304 97.5693 25.719L146.589 51.4585C147.902 52.1496 148.844 53.2635 149.21 54.5557C149.576 55.848 149.334 57.2131 148.539 58.3516C140.669 81.123 128.881 100.883 109.185 114.563C108.387 115.7 107.1 116.516 105.608 116.833C104.116 117.149 102.54 116.941 101.225 116.252L52.2057 90.5125C50.8929 89.8214 49.9502 88.7076 49.5845 87.4153C49.2188 86.123 49.4599 84.7579 50.2549 83.6194Z" fill="#F2F2F2"/>
<path opacity="0.2" d="M58.9138 91.105C57.6084 90.4138 56.671 89.2998 56.3074 88.0074C55.9438 86.7151 56.1835 85.3498 56.9741 84.2112C63.2225 62.0169 75.6031 42.9406 96.1069 27.9945C96.6322 27.2502 97.3739 26.64 98.2569 26.2256L97.2977 25.719C95.9905 25.0304 94.4231 24.8216 92.9393 25.1383C91.4556 25.455 90.1766 26.2715 89.3831 27.4085C68.8792 42.3546 56.4986 61.4309 50.2503 83.6252C49.4597 84.7638 49.2199 86.129 49.5836 87.4214C49.9472 88.7138 50.8845 89.8277 52.19 90.5189L100.933 116.261C101.8 116.716 102.791 116.963 103.803 116.976C104.815 116.99 105.814 116.771 106.698 116.34L58.9138 91.105Z" fill="black"/>
<path d="M116.624 78.7031L83.1219 61.6641C82.5896 61.3927 82.2068 60.9539 82.0574 60.4444C81.9081 59.9348 82.0045 59.396 82.3255 58.9464C82.6464 58.4968 83.1657 58.1731 83.7692 58.0464C84.3727 57.9197 85.0111 58.0003 85.5442 58.2707L119.046 75.3096C119.577 75.5816 119.959 76.0202 120.107 76.5293C120.256 77.0383 120.159 77.5763 119.839 78.0254C119.518 78.4744 119 78.7979 118.397 78.9249C117.795 79.052 117.157 78.9722 116.624 78.7031Z" fill="white"/>
<path d="M97.4446 56.6961L89.897 52.8076C89.35 52.5278 88.9554 52.0737 88.8001 51.5451C88.6447 51.0166 88.7412 50.4569 89.0684 49.9892C89.3957 49.5215 89.9268 49.1841 90.5449 49.0513C91.1631 48.9184 91.8176 49.0009 92.3646 49.2807L92.3776 49.2875L99.9252 53.176C100.469 53.4581 100.86 53.9131 101.012 54.4412C101.164 54.9694 101.066 55.5275 100.737 55.9934C100.409 56.4593 99.878 56.7949 99.2608 56.9266C98.6436 57.0583 97.9905 56.9755 97.4446 56.6961Z" fill="white"/>
<path d="M112.132 85.7152L78.6324 69.4888C78.0995 69.2309 77.7159 68.8134 77.5658 68.3282C77.4156 67.843 77.5112 67.3297 77.8316 66.9011C78.1519 66.4726 78.6708 66.1638 79.2743 66.0426C79.8777 65.9214 80.5163 65.9977 81.0497 66.2549L81.0545 66.2572L114.554 82.4836C115.085 82.7426 115.466 83.1603 115.615 83.6451C115.763 84.1298 115.667 84.6422 115.346 85.0698C115.026 85.4974 114.507 85.8055 113.905 85.9265C113.302 86.0474 112.665 85.9715 112.132 85.7152Z" fill="white"/>
<path d="M120.175 45.9898C125.758 45.9898 130.284 42.1849 130.284 37.4914C130.284 32.7978 125.758 28.9929 120.175 28.9929C114.593 28.9929 110.067 32.7978 110.067 37.4914C110.067 42.1849 114.593 45.9898 120.175 45.9898Z" fill="#3F3D56"/>
<path d="M103.89 126.975C115.365 126.975 124.668 119.141 124.668 109.478C124.668 99.815 115.365 91.9814 103.89 91.9814C92.4147 91.9814 83.1121 99.815 83.1121 109.478C83.1121 119.141 92.4147 126.975 103.89 126.975Z" fill="white"/>
<path d="M103.89 126.975C99.7806 126.975 95.7633 125.92 92.3464 123.942C88.9295 121.965 86.2663 119.154 84.6937 115.865C83.1211 112.577 82.7096 108.958 83.5113 105.467C84.313 101.976 86.2919 98.7697 89.1977 96.2528C92.1036 93.736 95.8059 92.0219 99.8364 91.3275C103.867 90.6331 108.045 90.9895 111.841 92.3516C115.638 93.7137 118.883 96.0203 121.166 98.9799C123.449 101.939 124.668 105.419 124.668 108.978C124.662 113.75 122.471 118.324 118.575 121.698C114.68 125.072 109.399 126.97 103.89 126.975ZM103.89 91.4769C99.8936 91.4769 95.9869 92.5033 92.664 94.4264C89.3411 96.3495 86.7512 99.0829 85.2219 102.281C83.6925 105.479 83.2924 108.998 84.0721 112.393C84.8517 115.788 86.7762 118.906 89.6021 121.354C92.428 123.802 96.0285 125.468 99.9481 126.144C103.868 126.819 107.931 126.472 111.623 125.148C115.315 123.823 118.471 121.58 120.691 118.702C122.911 115.824 124.096 112.44 124.096 108.978C124.09 104.338 121.959 99.8897 118.171 96.6087C114.383 93.3277 109.247 91.4821 103.89 91.4769Z" fill="#3F3D56"/>
<path d="M101.508 117.977C101.136 117.977 100.768 117.907 100.435 117.774C100.102 117.64 99.8119 117.446 99.5884 117.207L93.7015 110.918C93.512 110.716 93.3741 110.486 93.2957 110.241C93.2172 109.997 93.1997 109.742 93.2442 109.492C93.2887 109.242 93.3942 109.001 93.5549 108.783C93.7155 108.566 93.9281 108.376 94.1804 108.224C94.4327 108.073 94.7198 107.963 95.0253 107.9C95.3309 107.837 95.6488 107.823 95.961 107.859C96.2732 107.895 96.5735 107.98 96.8448 108.109C97.1161 108.238 97.353 108.408 97.542 108.611L101.393 112.725L111.285 100.836C111.46 100.626 111.685 100.446 111.947 100.305C112.209 100.165 112.503 100.067 112.812 100.017C113.121 99.9678 113.439 99.9675 113.748 100.017C114.058 100.066 114.352 100.163 114.614 100.303C114.876 100.443 115.102 100.623 115.277 100.833C115.452 101.043 115.574 101.278 115.636 101.526C115.698 101.774 115.698 102.029 115.637 102.276C115.576 102.524 115.455 102.76 115.28 102.97L103.506 117.12C103.293 117.376 103.006 117.587 102.671 117.736C102.335 117.885 101.959 117.967 101.575 117.976C101.553 117.976 101.531 117.977 101.508 117.977Z" fill="#1684AC"/>
<path d="M154.419 38.5301C155.234 38.47 155.855 38.0249 155.806 37.5358C155.758 37.0467 155.058 36.699 154.244 36.7591C153.429 36.8192 152.808 37.2644 152.857 37.7534C152.905 38.2425 153.605 38.5903 154.419 38.5301Z" fill="white"/>
<path d="M163.583 35.8478C164.398 35.7877 165.019 35.3425 164.97 34.8534C164.922 34.3644 164.222 34.0166 163.408 34.0767C162.593 34.1368 161.972 34.582 162.021 35.0711C162.069 35.5601 162.769 35.9079 163.583 35.8478Z" fill="#3F3D56"/>
<path d="M150.075 32.4969C150.889 32.4368 151.51 31.9917 151.462 31.5026C151.413 31.0135 150.714 30.6658 149.899 30.7259C149.085 30.786 148.464 31.2312 148.512 31.7202C148.561 32.2093 149.26 32.557 150.075 32.4969Z" fill="#1684AC"/>
<path d="M146.231 30.5524C146.581 30.4841 146.773 30.0761 146.659 29.6411C146.545 29.2061 146.169 28.9089 145.818 28.9773C145.468 29.0457 145.276 29.4537 145.39 29.8886C145.503 30.3236 145.88 30.6208 146.231 30.5524Z" fill="#E6E6E6"/>
<path d="M143.494 25.8325C143.844 25.7641 144.036 25.3561 143.922 24.9211C143.808 24.4861 143.432 24.1889 143.081 24.2573C142.731 24.3257 142.539 24.7337 142.653 25.1687C142.767 25.6036 143.143 25.9008 143.494 25.8325Z" fill="#3F3D56"/>
<path d="M156.625 32.4611C156.976 32.3928 157.167 31.9847 157.054 31.5498C156.94 31.1148 156.563 30.8176 156.213 30.886C155.862 30.9544 155.67 31.3624 155.784 31.7973C155.898 32.2323 156.274 32.5295 156.625 32.4611Z" fill="#E6E6E6"/>
<path d="M159.909 37.6645C160.26 37.5961 160.452 37.1881 160.338 36.7532C160.224 36.3182 159.848 36.021 159.497 36.0894C159.146 36.1577 158.955 36.5657 159.069 37.0007C159.182 37.4357 159.559 37.7329 159.909 37.6645Z" fill="#3F3D56"/>
<path d="M116.583 1.97018C116.723 1.49438 116.193 0.96818 115.401 0.794878C114.609 0.621575 113.853 0.866795 113.713 1.34259C113.573 1.81839 114.103 2.34459 114.895 2.51789C115.687 2.6912 116.443 2.44598 116.583 1.97018Z" fill="white"/>
<path d="M106.906 1.91645C107.046 1.44065 106.517 0.914455 105.724 0.741152C104.932 0.567849 104.176 0.81307 104.036 1.28887C103.897 1.76467 104.426 2.29088 105.218 2.46418C106.011 2.63749 106.766 2.39225 106.906 1.91645Z" fill="#3F3D56"/>
<path d="M118.399 8.89865C118.538 8.42285 118.009 7.89665 117.217 7.72335C116.424 7.55004 115.669 7.79526 115.529 8.27106C115.389 8.74686 115.919 9.27306 116.711 9.44636C117.503 9.61966 118.259 9.37444 118.399 8.89865Z" fill="#1684AC"/>
<path d="M120.655 11.511C120.712 11.0678 120.469 10.6807 120.112 10.6462C119.755 10.6118 119.419 10.9431 119.361 11.3863C119.304 11.8295 119.547 12.2166 119.904 12.2511C120.261 12.2855 120.597 11.9542 120.655 11.511Z" fill="#E6E6E6"/>
<path d="M121.45 16.7444C121.508 16.3012 121.265 15.9141 120.908 15.8796C120.55 15.8452 120.214 16.1765 120.157 16.6197C120.099 17.0629 120.343 17.45 120.7 17.4845C121.057 17.5189 121.393 17.1876 121.45 16.7444Z" fill="#3F3D56"/>
<path d="M111.557 6.77102C111.615 6.32785 111.372 5.94067 111.014 5.90623C110.657 5.87179 110.321 6.20313 110.264 6.6463C110.206 7.08947 110.449 7.47665 110.807 7.51109C111.164 7.54554 111.5 7.2142 111.557 6.77102Z" fill="#E6E6E6"/>
<path d="M110.427 0.927031C110.485 0.483859 110.242 0.0966785 109.885 0.0622364C109.527 0.0277944 109.191 0.359134 109.134 0.802305C109.077 1.24548 109.32 1.63266 109.677 1.6671C110.034 1.70154 110.37 1.3702 110.427 0.927031Z" fill="#3F3D56"/>
</svg>
