<svg width="321" height="289" viewBox="0 0 321 289" fill="none" xmlns="http://www.w3.org/2000/svg">
<path d="M246.795 131.795L58.0428 214.565C56.7537 215.129 55.2993 215.145 53.9983 214.611C52.6973 214.077 51.6564 213.035 51.1038 211.715L1.31081 92.4173C0.908016 91.4492 0.896281 90.3571 1.27818 89.3802C1.66008 88.4033 2.40443 87.6218 3.34792 87.2067L194.638 3.32404C195.599 2.90407 196.682 2.89186 197.652 3.29011C198.622 3.68836 199.397 4.46453 199.809 5.44836L249.576 124.683C250.126 126.004 250.142 127.495 249.62 128.829C249.099 130.162 248.083 131.229 246.795 131.795Z" fill="#F2F2F2"/>
<path d="M238.825 128.06L62.3416 205.552C59.7547 206.688 56.8067 205.589 55.7702 203.103L12.2691 98.742C11.5005 96.898 12.4348 94.713 14.3518 93.8711L193.208 15.3373C195.157 14.4816 197.378 15.3104 198.159 17.1848L241.637 121.491C242.674 123.977 241.412 126.924 238.825 128.06Z" fill="white"/>
<path d="M200 5.83917L1.48381 93L0.425053 90.4599C-0.126265 89.1323 -0.14185 87.6341 0.381715 86.2947C0.905279 84.9549 1.92524 83.8832 3.21784 83.3143L191.977 0.437561C193.27 -0.12908 194.73 -0.146008 196.036 0.390488C197.341 0.926988 198.386 1.9731 198.941 3.29933L200 5.83917Z" fill="#1684AC"/>
<path d="M106.794 115.308L83.3228 125.566C82.0333 126.128 80.5779 126.145 79.2766 125.612C77.975 125.079 76.9337 124.041 76.3805 122.724L63.4244 91.7844C62.8744 90.4667 62.8584 88.9801 63.3798 87.6503C63.9016 86.3209 64.918 85.2567 66.2064 84.6918L89.6772 74.4336C90.967 73.8717 92.4221 73.8553 93.7237 74.3881C95.025 74.9208 96.0667 75.9595 96.6195 77.2758L109.576 108.215C110.126 109.533 110.142 111.02 109.62 112.349C109.099 113.679 108.082 114.743 106.794 115.308Z" fill="#F2F2F2"/>
<path d="M136.794 102.308L113.323 112.566C112.033 113.128 110.578 113.145 109.276 112.612C107.975 112.079 106.933 111.041 106.38 109.724L93.4244 78.7844C92.8744 77.4668 92.8584 75.9802 93.3798 74.6504C93.9013 73.321 94.918 72.2568 96.2064 71.6919L119.677 61.4337C120.967 60.8715 122.422 60.8554 123.723 61.3882C125.025 61.9209 126.066 62.9596 126.62 64.2759L139.576 95.2154C140.126 96.533 140.142 98.0196 139.62 99.3494C139.098 100.679 138.082 101.743 136.794 102.308Z" fill="#F2F2F2"/>
<path d="M176.794 84.3079L153.323 94.5665C152.033 95.1284 150.578 95.1447 149.277 94.6117C147.975 94.0789 146.934 93.0406 146.38 91.7242L133.424 60.7846C132.874 59.4669 132.858 57.9803 133.38 56.6506C133.902 55.3211 134.918 54.2569 136.206 53.6921L159.677 43.4335C160.967 42.8716 162.422 42.8553 163.724 43.3883C165.025 43.9211 166.067 44.9594 166.62 46.2758L179.576 77.2154C180.126 78.5331 180.142 80.0197 179.62 81.3494C179.099 82.6789 178.082 83.7431 176.794 84.3079Z" fill="#F2F2F2"/>
<path d="M117.794 167.308L94.3228 177.566C93.033 178.128 91.5779 178.145 90.2766 177.612C88.975 177.079 87.9337 176.041 87.3805 174.724L74.4244 143.784C73.8744 142.467 73.8584 140.98 74.3798 139.65C74.9016 138.321 75.918 137.257 77.2064 136.692L100.677 126.434C101.967 125.872 103.422 125.855 104.724 126.388C106.025 126.921 107.067 127.959 107.62 129.276L120.576 160.215C121.126 161.533 121.142 163.02 120.62 164.349C120.099 165.679 119.082 166.743 117.794 167.308Z" fill="#F2F2F2"/>
<path d="M157.725 150.308L133.755 160.566C132.438 161.128 130.952 161.145 129.623 160.612C128.294 160.079 127.23 159.041 126.665 157.724L113.434 126.785C112.872 125.467 112.855 123.98 113.388 122.651C113.921 121.321 114.959 120.257 116.274 119.692L140.245 109.434C141.562 108.872 143.048 108.855 144.377 109.388C145.706 109.921 146.77 110.959 147.335 112.276L160.567 143.215C161.128 144.533 161.145 146.02 160.612 147.349C160.079 148.679 159.041 149.743 157.725 150.308Z" fill="#F2F2F2"/>
<path d="M196.794 133.102L173.323 143.558C172.033 144.131 170.578 144.148 169.277 143.604C167.975 143.061 166.934 142.003 166.38 140.661L153.424 109.127C152.874 107.784 152.858 106.268 153.38 104.913C153.902 103.558 154.918 102.473 156.206 101.898L179.677 91.4419C180.967 90.8692 182.422 90.8525 183.724 91.3958C185.025 91.9388 186.067 92.9971 186.619 94.3388L199.576 125.873C200.126 127.216 200.141 128.732 199.62 130.087C199.099 131.442 198.082 132.527 196.794 133.102Z" fill="#F2F2F2"/>
<path d="M258.711 242H53.2891C51.887 241.998 50.5426 241.423 49.5511 240.401C48.5594 239.379 48.0016 237.994 48 236.549V105.994C48.0013 104.935 48.41 103.92 49.1364 103.171C49.8627 102.423 50.8475 102.001 51.8748 102H260.058C261.103 102.001 262.105 102.43 262.844 103.191C263.583 103.953 263.999 104.986 264 106.063V236.549C263.998 237.994 263.441 239.379 262.449 240.401C261.457 241.423 260.113 241.998 258.711 242Z" fill="#E6E6E6"/>
<path d="M251.901 235H60.0988C57.2872 235 55 232.801 55 230.098V116.636C55 114.631 56.695 113 58.7783 113H253.159C255.277 113 257 114.658 257 116.696V230.098C257 232.801 254.712 235 251.901 235Z" fill="white"/>
<path d="M264 107H48V104.307C48.0019 102.899 48.5619 101.55 49.5572 100.555C50.5522 99.5605 51.9014 99.001 53.3083 99H258.692C260.099 99.001 261.448 99.5605 262.443 100.555C263.438 101.55 263.998 102.899 264 104.307V107Z" fill="#1684AC"/>
<path d="M241.415 145H150.585C146.948 145 144 148.134 144 152C144 155.866 146.948 159 150.585 159H241.415C245.052 159 248 155.866 248 152C248 148.134 245.052 145 241.415 145Z" fill="#E6E6E6"/>
<path d="M241.415 167H150.585C146.948 167 144 170.134 144 174C144 177.866 146.948 181 150.585 181H241.415C245.052 181 248 177.866 248 174C248 170.134 245.052 167 241.415 167Z" fill="#E6E6E6"/>
<path d="M241.415 190H150.585C146.948 190 144 192.91 144 196.5C144 200.09 146.948 203 150.585 203H241.415C245.052 203 248 200.09 248 196.5C248 192.91 245.052 190 241.415 190Z" fill="#E6E6E6"/>
<path d="M136 174C136 181.12 133.918 188.08 130.017 194C126.116 199.921 120.572 204.535 114.085 207.26C107.598 209.984 100.461 210.697 93.5744 209.308C86.688 207.919 80.3626 204.491 75.3978 199.456C70.4329 194.421 67.0521 188.007 65.6821 181.023C64.3124 174.04 65.0153 166.802 67.7023 160.223C70.389 153.645 74.9392 148.023 80.7773 144.067C86.6151 140.112 93.4788 138 100.5 138C109.914 138.003 118.942 141.797 125.599 148.548C132.256 155.298 135.997 164.453 136 174Z" fill="white"/>
<path d="M105.668 204.744C106.354 200.189 100.936 201.089 98.0689 201.044C97.6065 201.046 97.1503 201.149 96.7336 201.345C96.3166 201.543 95.9499 201.828 95.6596 202.183C95.3692 202.537 95.1629 202.95 95.0554 203.393C94.948 203.835 94.9421 204.296 95.0384 204.741C92.8191 205.416 90.7641 206.532 89 208.02C96.4335 210.572 104.511 210.659 112 208.271C110.174 206.657 108.013 205.453 105.668 204.744Z" fill="#2F2E41"/>
<path d="M100.469 211C91.286 210.992 82.443 207.475 75.7043 201.152C68.9655 194.828 64.8256 186.161 64.1108 176.88C63.396 167.599 66.1588 158.386 71.8479 151.079C77.5369 143.771 85.734 138.906 94.8049 137.453C103.876 136.001 113.153 138.068 120.787 143.242C128.422 148.416 133.851 156.317 135.993 165.369C138.135 174.422 136.832 183.96 132.345 192.082C127.857 200.204 120.514 206.312 111.78 209.189C108.128 210.393 104.31 211.004 100.469 211ZM100.469 138.904C93.6266 138.903 86.937 140.959 81.2469 144.812C75.5572 148.665 71.1221 154.142 68.5029 160.551C65.884 166.96 65.1983 174.011 66.5331 180.814C67.8676 187.618 71.1628 193.867 76.0014 198.772C80.8399 203.677 87.0048 207.017 93.7161 208.37C100.428 209.723 107.384 209.028 113.706 206.373C120.028 203.718 125.431 199.222 129.232 193.454C133.033 187.687 135.061 180.905 135.06 173.969C135.05 164.672 131.402 155.76 124.918 149.186C118.433 142.612 109.64 138.914 100.469 138.904Z" fill="#3F3D56"/>
<mask id="mask0_1384_1268" style="mask-type:luminance" maskUnits="userSpaceOnUse" x="214" y="187" width="107" height="102">
<path d="M320.999 187.823H214.395V288.965H320.999V187.823Z" fill="white"/>
</mask>
<g mask="url(#mask0_1384_1268)">
<path d="M218.781 231.235C218.215 231.413 217.612 231.438 217.033 231.307C216.453 231.177 215.919 230.897 215.482 230.493C215.046 230.09 214.723 229.579 214.547 229.011C214.371 228.443 214.347 227.839 214.478 227.258C216.443 219.067 223.915 199.033 251.135 190.608C262.926 186.958 274.234 186.895 284.73 190.421C293.365 193.309 299.098 197.829 301.839 200.014C302.536 200.566 302.985 201.373 303.089 202.257C303.191 203.142 302.94 204.031 302.388 204.729C302.381 204.737 302.374 204.746 302.368 204.755C301.802 205.455 300.984 205.904 300.09 206.006C299.197 206.107 298.299 205.853 297.591 205.298C292.623 201.375 277.547 189.459 253.113 197.023C229.255 204.408 222.774 221.682 221.093 228.75C220.965 229.334 220.683 229.872 220.277 230.309C219.87 230.747 219.354 231.066 218.781 231.235Z" fill="#1684AC"/>
<path d="M292.974 277.634C292.703 277.721 292.423 277.774 292.14 277.791C270.874 278.938 257.344 261.236 256.789 260.497L256.686 260.327C256.347 259.8 248.16 247.319 251.764 237.406C253.419 232.874 257.081 229.694 262.677 227.961C267.881 226.35 272.14 226.827 275.765 229.42C278.737 231.534 280.642 234.685 282.489 237.729C286.329 244.048 288.682 247.263 295.981 245.408C299.186 244.593 300.682 242.082 301.366 240.126C303.206 234.804 301.575 227.548 297.259 222.059C291.683 214.938 276.08 203.109 256.827 209.069C248.606 211.613 241.878 216.629 237.372 223.534C233.639 229.265 231.469 236.383 231.421 243.02C231.346 255.379 241.455 271.639 241.55 271.787C241.783 272.16 241.94 272.575 242.013 273.009C242.086 273.443 242.072 273.887 241.974 274.315C241.875 274.744 241.693 275.149 241.438 275.507C241.183 275.866 240.86 276.17 240.488 276.403C240.478 276.409 240.467 276.416 240.457 276.422C239.694 276.899 238.775 277.056 237.898 276.859C237.021 276.663 236.256 276.128 235.769 275.371C235.312 274.627 224.519 257.291 224.606 243.007C224.727 227.524 234.116 209.046 254.842 202.63C264.422 199.665 274.49 200.163 283.964 204.056C291.308 207.091 298.104 212.116 302.597 217.854C308.336 225.177 310.358 234.764 307.746 242.246C306.004 247.235 302.398 250.677 297.606 251.907C285.116 255.091 280.224 247.075 276.655 241.228C272.991 235.234 270.964 232.423 264.631 234.384C261.154 235.46 259.011 237.185 258.11 239.663C256.884 243.051 258.046 247.393 259.237 250.437C259.249 250.469 259.262 250.5 259.274 250.532C260.8 254.401 263.183 257.873 266.241 260.686C271.141 265.221 280.237 271.684 291.831 271.061C292.717 271.006 293.589 271.306 294.255 271.895C294.92 272.484 295.325 273.314 295.38 274.202C295.381 274.212 295.381 274.223 295.382 274.234C295.409 274.987 295.188 275.728 294.753 276.343C294.318 276.957 293.692 277.411 292.974 277.634Z" fill="#1684AC"/>
<path d="M267.186 283.998C266.743 284.136 266.276 284.182 265.815 284.134C265.353 284.085 264.906 283.944 264.501 283.717C254.012 277.763 246.649 269.753 241.347 258.528L241.326 258.459C237.984 250.974 235.973 239.539 240.41 229.874C243.686 222.742 249.835 217.73 258.655 215C269.087 211.77 278.8 214.148 286.773 221.842C290.399 225.393 293.347 229.578 295.473 234.19C295.812 235.02 295.812 235.95 295.472 236.779C295.131 237.608 294.479 238.27 293.656 238.621C292.832 238.973 291.904 238.985 291.072 238.656C290.24 238.327 289.57 237.682 289.209 236.862C287.408 233.013 284.922 229.525 281.873 226.569C275.728 220.711 268.584 218.979 260.616 221.445C253.731 223.577 248.989 227.345 246.562 232.646C243.062 240.277 244.864 249.805 247.479 255.669C252.154 265.597 258.639 272.64 267.87 277.871C268.251 278.087 268.587 278.376 268.857 278.721C269.127 279.066 269.326 279.462 269.444 279.884C269.561 280.307 269.595 280.748 269.542 281.184C269.489 281.619 269.351 282.04 269.136 282.422C269.128 282.437 269.119 282.452 269.11 282.468C268.68 283.199 267.995 283.745 267.186 283.998Z" fill="#1684AC"/>
<path d="M268.29 250.44C270.686 250.44 272.628 248.493 272.628 246.092C272.628 243.691 270.686 241.745 268.29 241.745C265.894 241.745 263.951 243.691 263.951 246.092C263.951 248.493 265.894 250.44 268.29 250.44Z" fill="#E6E6E6"/>
</g>
<path d="M101 200C110.941 200 119 191.717 119 181.5C119 171.283 110.941 163 101 163C91.0587 163 83 171.283 83 181.5C83 191.717 91.0587 200 101 200Z" fill="#FFB6B6"/>
<path d="M116.606 166.037C117.712 166.591 118.75 167.285 119.685 168.082C119.958 168.316 117.38 168.628 117.636 168.87C115.807 171.868 123.428 175.621 120.187 175.803C119.541 174.399 109.563 171.115 108.483 170.032C108.636 171.279 112.677 172.83 112.532 174.07C108.9 173.836 100.803 172.449 96.3714 170.604C99.0412 176.024 99.0611 180.284 92.9691 181.869C88.4093 181.869 85.2258 186.47 86.7597 190.845L87.8654 194L83.6126 189.667C81.8441 187.866 78.4183 183.603 77.291 179.051C76.4814 175.783 77.1409 172.358 78.8262 169.457C78.8885 169.349 78.9448 169.246 78.994 169.148C78.0329 169.598 77.0294 169.945 76.0002 170.179C75.9574 168.29 83.1533 164.789 83.6126 163.671C85.7475 158.463 82.6345 158.472 91.2677 158.472C92.0122 157.966 93.5071 158.83 95.5206 158.472C99.226 157.813 100.758 155.237 105.359 156.222C109.329 157.072 113.192 158.319 116.188 159.591L117.636 160.205C118.512 161.635 118.869 162.969 118.818 164.182C118.741 164.165 118.656 164.148 118.58 164.139C117.074 163.922 118.086 165.707 116.606 166.037Z" fill="#2F2E41"/>
</svg>
