<svg width="301" height="259" viewBox="0 0 301 259" fill="none" xmlns="http://www.w3.org/2000/svg">
<path d="M250.766 61.3578H249.335V22.4941C249.335 16.5283 246.945 10.8069 242.691 6.58839C238.436 2.36992 232.666 3.93824e-06 226.65 0H143.611C140.632 0 137.682 0.581827 134.93 1.71226C132.177 2.8427 129.677 4.49961 127.57 6.58838C125.464 8.67716 123.793 11.1569 122.653 13.886C121.513 16.6151 120.926 19.5402 120.926 22.4941V235.707C120.926 241.673 123.316 247.394 127.57 251.613C131.824 255.831 137.594 258.201 143.611 258.201H226.65C232.666 258.201 238.436 255.831 242.69 251.613C246.945 247.394 249.335 241.673 249.335 235.707V89.0218H250.765L250.766 61.3578Z" fill="#E6E6E6"/>
<path d="M227.564 5.8501H216.725C217.224 7.06198 217.414 8.37682 217.279 9.6788C217.145 10.9808 216.689 12.2299 215.953 13.3162C215.216 14.4024 214.222 15.2924 213.057 15.9078C211.892 16.5232 210.592 16.845 209.273 16.845H161.7C160.38 16.8449 159.081 16.523 157.916 15.9076C156.751 15.2921 155.757 14.4021 155.021 13.3159C154.284 12.2296 153.829 10.9805 153.694 9.67863C153.56 8.37671 153.75 7.06192 154.248 5.8501H144.124C139.631 5.8501 135.323 7.61993 132.145 10.7702C128.968 13.9205 127.184 18.1933 127.184 22.6485V235.552C127.184 240.007 128.968 244.28 132.145 247.43C135.323 250.58 139.631 252.35 144.124 252.35H227.564C232.057 252.35 236.366 250.58 239.543 247.43C242.72 244.28 244.505 240.007 244.505 235.552V22.6482C244.505 18.193 242.72 13.9204 239.543 10.7701C236.366 7.61988 232.057 5.8501 227.564 5.8501Z" fill="white"/>
<path d="M160.606 55.5102C160.154 55.5141 159.706 55.4237 159.292 55.2447C158.877 55.0658 158.505 54.8023 158.2 54.4714C157.838 54.0561 157.566 53.5709 157.403 53.0466C157.239 52.5222 157.186 51.9698 157.248 51.4243C157.334 50.3851 157.773 49.4058 158.494 48.6463C158.84 48.2754 159.258 47.9785 159.724 47.7738C160.19 47.5692 160.693 47.461 161.203 47.4561C161.676 47.454 162.145 47.5509 162.579 47.7403C163.012 47.9298 163.401 48.2076 163.719 48.5558C164.08 48.9601 164.352 49.4342 164.519 49.9482C164.686 50.4622 164.743 51.0049 164.688 51.5421C164.621 52.6445 164.141 53.6823 163.343 54.4527C162.6 55.1385 161.621 55.5168 160.606 55.5102ZM161.203 48.7984C159.878 48.7984 158.733 50.0035 158.596 51.542C158.551 51.9021 158.581 52.2675 158.685 52.6156C158.788 52.9636 158.963 53.2867 159.198 53.5648C159.376 53.7588 159.594 53.913 159.837 54.017C160.079 54.121 160.342 54.1724 160.606 54.1678C161.845 54.1678 163.171 53.3194 163.34 51.4241C163.379 51.0725 163.344 50.7166 163.237 50.379C163.131 50.0414 162.955 49.7293 162.721 49.4623C162.529 49.2522 162.294 49.0845 162.033 48.9702C161.771 48.8558 161.488 48.7973 161.203 48.7984Z" fill="#3F3D56"/>
<path d="M160.649 59.5371C159.602 59.554 158.563 59.3499 157.602 58.9384C156.64 58.5268 155.778 57.9172 155.072 57.15C154.366 56.3828 153.833 55.4756 153.508 54.4884C153.183 53.5013 153.073 52.4569 153.186 51.4245C153.407 49.2574 154.423 47.2464 156.041 45.7727C157.659 44.299 159.765 43.465 161.962 43.429C164.398 43.429 166.404 44.2053 167.76 45.6742C169.046 47.067 169.649 49.0277 169.456 51.195C169.274 53.2482 168.395 54.3175 167.69 54.8531C167.379 55.1046 167.02 55.2909 166.634 55.4006C166.248 55.5104 165.843 55.5412 165.445 55.4914C164.331 55.2955 163.098 54.2918 163.292 52.1079L163.651 48.0704C163.667 47.8937 163.754 47.7307 163.891 47.6171C164.029 47.5035 164.206 47.4484 164.384 47.464C164.562 47.4796 164.727 47.5645 164.842 47.7002C164.958 47.8359 165.014 48.0114 164.999 48.1882L164.641 52.2257C164.544 53.3114 164.933 54.0382 165.681 54.1696C166.112 54.2028 166.538 54.0654 166.867 53.7875C167.356 53.4159 167.968 52.6441 168.108 51.0773C168.269 49.2635 167.803 47.7086 166.762 46.5808C165.668 45.397 164.009 44.7713 161.962 44.7713C160.103 44.8062 158.322 45.5139 156.954 46.7611C155.586 48.0082 154.725 49.7086 154.534 51.5416C154.438 52.3885 154.525 53.2461 154.79 54.057C155.055 54.8678 155.491 55.6132 156.07 56.2432C156.649 56.8731 157.357 57.3731 158.147 57.7097C158.937 58.0463 159.79 58.2116 160.649 58.1947C161.709 58.2516 162.768 58.0612 163.741 57.6389C163.906 57.5708 164.092 57.5704 164.258 57.6379C164.423 57.7053 164.555 57.8351 164.625 57.9988C164.694 58.1624 164.695 58.3467 164.628 58.5112C164.56 58.6757 164.43 58.807 164.265 58.8764C163.127 59.3679 161.89 59.5939 160.649 59.5371Z" fill="#3F3D56"/>
<path d="M153.503 155.473C153.369 155.473 153.238 155.433 153.127 155.36C153.016 155.286 152.929 155.181 152.878 155.058C152.826 154.936 152.813 154.801 152.839 154.671C152.865 154.54 152.93 154.421 153.024 154.327L157.424 149.964C157.551 149.84 157.723 149.771 157.902 149.771C158.08 149.772 158.251 149.842 158.378 149.968C158.504 150.093 158.575 150.263 158.576 150.44C158.577 150.617 158.507 150.787 158.381 150.913L153.982 155.276C153.919 155.339 153.844 155.388 153.762 155.422C153.68 155.455 153.592 155.473 153.503 155.473ZM164.671 153.795C164.537 153.795 164.407 153.755 164.295 153.682C164.184 153.608 164.097 153.503 164.046 153.38C163.995 153.258 163.981 153.123 164.007 152.993C164.034 152.862 164.098 152.743 164.193 152.649L167.915 148.958C168.043 148.833 168.214 148.764 168.393 148.764C168.572 148.765 168.743 148.836 168.869 148.961C168.995 149.086 169.067 149.256 169.067 149.433C169.068 149.61 168.998 149.781 168.873 149.907L165.15 153.598C165.087 153.661 165.013 153.71 164.93 153.744C164.848 153.778 164.76 153.795 164.671 153.795ZM162.641 153.795C162.552 153.795 162.464 153.778 162.382 153.744C162.299 153.71 162.225 153.661 162.162 153.598L159.455 150.913C159.391 150.851 159.34 150.777 159.306 150.696C159.271 150.614 159.253 150.526 159.253 150.438C159.253 150.349 159.27 150.262 159.304 150.18C159.338 150.098 159.388 150.024 159.451 149.961C159.514 149.898 159.589 149.849 159.672 149.815C159.754 149.781 159.843 149.764 159.932 149.764C160.022 149.765 160.11 149.783 160.192 149.817C160.275 149.851 160.349 149.901 160.412 149.964L163.119 152.649C163.214 152.743 163.278 152.862 163.305 152.993C163.331 153.123 163.317 153.258 163.266 153.38C163.215 153.503 163.128 153.608 163.017 153.682C162.905 153.755 162.775 153.795 162.641 153.795Z" fill="#3F3D56"/>
<path d="M169.409 150.103C169.074 150.103 168.747 150.005 168.469 149.82C168.191 149.636 167.974 149.374 167.846 149.067C167.718 148.761 167.684 148.423 167.749 148.098C167.815 147.772 167.976 147.473 168.212 147.239C168.449 147.004 168.751 146.844 169.079 146.78C169.407 146.715 169.747 146.748 170.057 146.875C170.366 147.002 170.63 147.217 170.816 147.493C171.002 147.769 171.101 148.093 171.101 148.425C171.101 148.87 170.922 149.297 170.605 149.611C170.288 149.926 169.858 150.103 169.409 150.103ZM169.409 148.09C169.342 148.09 169.277 148.109 169.221 148.146C169.165 148.183 169.122 148.236 169.096 148.297C169.071 148.358 169.064 148.426 169.077 148.491C169.09 148.556 169.122 148.616 169.17 148.663C169.217 148.709 169.277 148.741 169.343 148.754C169.409 148.767 169.477 148.761 169.538 148.735C169.6 148.71 169.653 148.667 169.69 148.612C169.728 148.557 169.747 148.492 169.747 148.425C169.747 148.336 169.712 148.251 169.648 148.188C169.585 148.125 169.499 148.09 169.409 148.09Z" fill="#3F3D56"/>
<path d="M163.657 155.808C163.322 155.808 162.995 155.71 162.717 155.525C162.439 155.341 162.222 155.079 162.094 154.772C161.966 154.466 161.932 154.128 161.997 153.803C162.063 153.477 162.224 153.179 162.46 152.944C162.697 152.709 162.999 152.549 163.327 152.485C163.655 152.42 163.995 152.453 164.305 152.58C164.614 152.707 164.878 152.922 165.064 153.198C165.25 153.474 165.349 153.798 165.349 154.13C165.349 154.575 165.17 155.002 164.853 155.316C164.536 155.631 164.106 155.808 163.657 155.808ZM163.657 153.795C163.59 153.795 163.525 153.814 163.469 153.851C163.413 153.888 163.37 153.941 163.344 154.002C163.319 154.063 163.312 154.131 163.325 154.196C163.338 154.261 163.37 154.321 163.418 154.368C163.465 154.415 163.525 154.447 163.591 154.459C163.657 154.472 163.725 154.466 163.787 154.44C163.848 154.415 163.901 154.372 163.938 154.317C163.976 154.262 163.995 154.197 163.995 154.13C163.995 154.041 163.96 153.956 163.896 153.893C163.833 153.83 163.747 153.795 163.657 153.795Z" fill="#3F3D56"/>
<path d="M158.919 151.11C158.584 151.11 158.257 151.012 157.979 150.827C157.7 150.643 157.483 150.381 157.355 150.074C157.227 149.768 157.194 149.43 157.259 149.105C157.324 148.779 157.486 148.48 157.722 148.246C157.959 148.011 158.26 147.851 158.589 147.786C158.917 147.722 159.257 147.755 159.566 147.882C159.875 148.009 160.14 148.224 160.326 148.5C160.512 148.776 160.611 149.1 160.611 149.432C160.61 149.877 160.432 150.303 160.115 150.618C159.797 150.933 159.367 151.11 158.919 151.11ZM158.919 149.096C158.852 149.096 158.786 149.116 158.731 149.153C158.675 149.19 158.632 149.242 158.606 149.304C158.58 149.365 158.574 149.432 158.587 149.498C158.6 149.563 158.632 149.622 158.679 149.669C158.727 149.716 158.787 149.748 158.853 149.761C158.918 149.774 158.986 149.768 159.048 149.742C159.11 149.717 159.163 149.674 159.2 149.619C159.237 149.563 159.257 149.498 159.257 149.432C159.257 149.343 159.221 149.258 159.158 149.195C159.094 149.132 159.008 149.097 158.919 149.096Z" fill="#3F3D56"/>
<path d="M152.487 157.486C152.152 157.486 151.825 157.388 151.547 157.203C151.269 157.019 151.052 156.757 150.924 156.45C150.796 156.144 150.762 155.806 150.827 155.481C150.893 155.155 151.054 154.856 151.291 154.622C151.527 154.387 151.829 154.227 152.157 154.163C152.485 154.098 152.825 154.131 153.135 154.258C153.444 154.385 153.708 154.6 153.894 154.876C154.08 155.152 154.179 155.476 154.179 155.808C154.179 156.253 154 156.68 153.683 156.994C153.366 157.309 152.936 157.486 152.487 157.486ZM152.487 155.473C152.42 155.473 152.355 155.492 152.299 155.529C152.243 155.566 152.2 155.619 152.174 155.68C152.149 155.741 152.142 155.809 152.155 155.874C152.168 155.939 152.2 155.999 152.248 156.046C152.295 156.093 152.355 156.124 152.421 156.137C152.487 156.15 152.555 156.144 152.617 156.118C152.678 156.093 152.731 156.05 152.768 155.995C152.806 155.94 152.826 155.875 152.826 155.808C152.825 155.719 152.79 155.634 152.726 155.571C152.663 155.508 152.577 155.473 152.487 155.473Z" fill="#3F3D56"/>
<path d="M216.726 209.244H202.512C201.884 209.244 201.281 208.996 200.837 208.555C200.393 208.115 200.143 207.518 200.143 206.895V196.828C200.143 196.205 200.393 195.608 200.837 195.167C201.281 194.727 201.884 194.479 202.512 194.479H216.726C217.354 194.479 217.956 194.727 218.4 195.167C218.844 195.608 219.094 196.205 219.095 196.828V206.895C219.094 207.518 218.844 208.115 218.4 208.555C217.956 208.996 217.354 209.244 216.726 209.244ZM202.512 195.821C202.242 195.821 201.984 195.927 201.794 196.116C201.604 196.305 201.497 196.561 201.496 196.828V206.895C201.497 207.162 201.604 207.418 201.794 207.607C201.984 207.796 202.242 207.902 202.512 207.902H216.726C216.995 207.902 217.253 207.796 217.443 207.607C217.634 207.418 217.741 207.162 217.741 206.895V196.828C217.741 196.561 217.634 196.305 217.443 196.116C217.253 195.927 216.995 195.821 216.726 195.821L202.512 195.821Z" fill="#3F3D56"/>
<path d="M209.618 203.204C209.468 203.204 209.321 203.154 209.203 203.062L203.111 198.364C203.041 198.31 202.982 198.243 202.938 198.166C202.894 198.09 202.866 198.005 202.855 197.918C202.844 197.83 202.85 197.742 202.874 197.657C202.897 197.572 202.938 197.492 202.992 197.422C203.047 197.353 203.115 197.295 203.192 197.251C203.269 197.208 203.354 197.179 203.443 197.169C203.531 197.158 203.62 197.164 203.706 197.187C203.792 197.211 203.872 197.251 203.942 197.305L209.618 201.682L215.294 197.305C215.365 197.251 215.445 197.211 215.531 197.187C215.616 197.164 215.706 197.158 215.794 197.169C215.882 197.179 215.967 197.208 216.045 197.251C216.122 197.295 216.19 197.353 216.244 197.422C216.299 197.492 216.339 197.572 216.363 197.657C216.386 197.742 216.393 197.83 216.382 197.918C216.371 198.005 216.342 198.09 216.298 198.166C216.255 198.243 216.196 198.31 216.126 198.364L210.034 203.062C209.915 203.154 209.769 203.204 209.618 203.204Z" fill="#3F3D56"/>
<path d="M285.963 218.536L207.665 218.567C207.566 218.567 207.471 218.528 207.401 218.458C207.33 218.388 207.291 218.294 207.291 218.195C207.291 218.097 207.33 218.003 207.401 217.933C207.471 217.863 207.566 217.824 207.665 217.824L285.963 217.793C286.063 217.793 286.158 217.833 286.228 217.902C286.298 217.972 286.338 218.066 286.338 218.165C286.338 218.263 286.298 218.358 286.228 218.427C286.158 218.497 286.063 218.536 285.963 218.536Z" fill="#CCCCCC"/>
<path d="M284.921 223.362C287.816 223.362 290.162 221.035 290.162 218.165C290.162 215.294 287.816 212.968 284.921 212.968C282.026 212.968 279.68 215.294 279.68 218.165C279.68 221.035 282.026 223.362 284.921 223.362Z" fill="#1684AC"/>
<path d="M284.091 119.047L205.044 119.077C204.945 119.077 204.85 119.038 204.78 118.969C204.709 118.899 204.67 118.805 204.67 118.706C204.67 118.608 204.709 118.513 204.78 118.444C204.85 118.374 204.945 118.335 205.044 118.335L284.091 118.304C284.19 118.304 284.285 118.343 284.356 118.413C284.426 118.483 284.465 118.577 284.465 118.675C284.465 118.774 284.426 118.868 284.356 118.938C284.285 119.008 284.19 119.047 284.091 119.047Z" fill="#CCCCCC"/>
<path d="M284.921 124.244C287.816 124.244 290.162 121.917 290.162 119.047C290.162 116.176 287.816 113.849 284.921 113.849C282.026 113.849 279.68 116.176 279.68 119.047C279.68 121.917 282.026 124.244 284.921 124.244Z" fill="#1684AC"/>
<path d="M81.7142 68.1883L160.761 68.219C160.86 68.219 160.955 68.1799 161.026 68.1103C161.096 68.0407 161.135 67.9463 161.135 67.8478C161.135 67.7493 161.096 67.6549 161.026 67.5853C160.955 67.5157 160.86 67.4766 160.761 67.4766L81.7142 67.4458C81.6149 67.4458 81.5197 67.4849 81.4495 67.5545C81.3793 67.6241 81.3398 67.7186 81.3398 67.817C81.3398 67.9155 81.3793 68.0099 81.4495 68.0795C81.5197 68.1491 81.6149 68.1883 81.7142 68.1883Z" fill="#CCCCCC"/>
<path d="M80.8839 73.3854C83.7786 73.3854 86.1252 71.0585 86.1252 68.1882C86.1252 65.3178 83.7786 62.991 80.8839 62.991C77.9892 62.991 75.6426 65.3178 75.6426 68.1882C75.6426 71.0585 77.9892 73.3854 80.8839 73.3854Z" fill="#1684AC"/>
<path d="M81.7142 168.791L160.761 168.822C160.86 168.822 160.955 168.783 161.026 168.713C161.096 168.644 161.135 168.549 161.135 168.451C161.135 168.352 161.096 168.258 161.026 168.188C160.955 168.119 160.86 168.08 160.761 168.08L81.7142 168.049C81.6149 168.049 81.5197 168.088 81.4495 168.158C81.3793 168.227 81.3398 168.322 81.3398 168.42C81.3398 168.519 81.3793 168.613 81.4495 168.683C81.5197 168.752 81.6149 168.791 81.7142 168.791Z" fill="#CCCCCC"/>
<path d="M80.8839 173.989C83.7786 173.989 86.1252 171.662 86.1252 168.791C86.1252 165.921 83.7786 163.594 80.8839 163.594C77.9892 163.594 75.6426 165.921 75.6426 168.791C75.6426 171.662 77.9892 173.989 80.8839 173.989Z" fill="#1684AC"/>
<path d="M209.619 218.567C206.286 218.567 203.029 217.587 200.259 215.752C197.488 213.916 195.329 211.307 194.054 208.254C192.779 205.202 192.445 201.843 193.095 198.603C193.745 195.362 195.35 192.385 197.706 190.049C200.062 187.713 203.064 186.122 206.332 185.477C209.6 184.833 212.987 185.163 216.066 186.428C219.144 187.692 221.775 189.833 223.626 192.581C225.477 195.328 226.466 198.558 226.466 201.862C226.46 206.291 224.684 210.537 221.526 213.668C218.367 216.8 214.085 218.562 209.619 218.567ZM209.619 185.899C206.435 185.899 203.322 186.835 200.675 188.589C198.027 190.343 195.964 192.836 194.746 195.753C193.527 198.67 193.208 201.879 193.83 204.976C194.451 208.072 195.984 210.917 198.235 213.149C200.487 215.381 203.355 216.902 206.478 217.518C209.601 218.134 212.837 217.817 215.779 216.609C218.721 215.401 221.235 213.355 223.004 210.73C224.773 208.105 225.717 205.019 225.717 201.862C225.712 197.629 224.014 193.572 220.996 190.579C217.978 187.587 213.887 185.903 209.619 185.899Z" fill="#CCCCCC"/>
<path d="M160.949 168.822C157.617 168.822 154.359 167.842 151.589 166.007C148.818 164.171 146.659 161.562 145.384 158.51C144.109 155.457 143.775 152.098 144.425 148.858C145.075 145.617 146.68 142.641 149.036 140.304C151.392 137.968 154.394 136.377 157.662 135.732C160.93 135.088 164.317 135.419 167.396 136.683C170.474 137.947 173.105 140.089 174.956 142.836C176.808 145.583 177.796 148.813 177.796 152.117C177.791 156.546 176.014 160.792 172.856 163.924C169.697 167.055 165.415 168.817 160.949 168.822ZM160.949 136.154C157.765 136.154 154.652 137.09 152.005 138.844C149.358 140.598 147.294 143.091 146.076 146.008C144.857 148.925 144.538 152.134 145.16 155.231C145.781 158.327 147.314 161.172 149.565 163.404C151.817 165.637 154.685 167.157 157.808 167.773C160.931 168.389 164.168 168.073 167.109 166.864C170.051 165.656 172.565 163.61 174.334 160.985C176.103 158.36 177.047 155.274 177.047 152.117C177.042 147.885 175.344 143.827 172.326 140.835C169.308 137.842 165.217 136.159 160.949 136.154Z" fill="#CCCCCC"/>
<path d="M206.249 119.077C202.917 119.077 199.66 118.098 196.89 116.262C194.119 114.426 191.96 111.817 190.685 108.765C189.41 105.712 189.076 102.354 189.726 99.113C190.376 95.8725 191.981 92.8959 194.337 90.5596C196.693 88.2233 199.695 86.6323 202.963 85.9877C206.231 85.3432 209.618 85.674 212.696 86.9384C215.775 88.2028 218.406 90.3439 220.257 93.0911C222.108 95.8383 223.096 99.0681 223.096 102.372C223.091 106.801 221.315 111.047 218.156 114.179C214.998 117.311 210.716 119.072 206.249 119.077ZM206.249 86.4092C203.065 86.4092 199.953 87.3454 197.306 89.0994C194.658 90.8535 192.595 93.3465 191.377 96.2633C190.158 99.1802 189.839 102.39 190.46 105.486C191.082 108.583 192.615 111.427 194.866 113.659C197.118 115.892 199.986 117.412 203.109 118.028C206.232 118.644 209.468 118.328 212.41 117.12C215.351 115.912 217.866 113.866 219.635 111.241C221.403 108.615 222.348 105.529 222.348 102.372C222.343 98.1399 220.645 94.0825 217.627 91.0899C214.609 88.0973 210.517 86.414 206.249 86.4092Z" fill="#CCCCCC"/>
<path d="M161.324 68.1882C157.992 68.1882 154.734 67.2085 151.964 65.3729C149.193 63.5373 147.034 60.9282 145.759 57.8757C144.484 54.8232 144.15 51.4644 144.8 48.2239C145.45 44.9833 147.055 42.0067 149.411 39.6705C151.767 37.3342 154.769 35.7432 158.037 35.0986C161.305 34.454 164.692 34.7848 167.771 36.0492C170.849 37.3136 173.48 39.4548 175.331 42.2019C177.183 44.9491 178.171 48.1789 178.171 51.4829C178.166 55.9119 176.389 60.158 173.231 63.2898C170.072 66.4216 165.79 68.1832 161.324 68.1882ZM161.324 35.5201C158.14 35.5201 155.027 36.4563 152.38 38.2103C149.733 39.9643 147.669 42.4574 146.451 45.3742C145.232 48.291 144.913 51.5006 145.535 54.5971C146.156 57.6936 147.689 60.5379 149.94 62.7703C152.192 65.0028 155.06 66.5231 158.183 67.139C161.306 67.755 164.543 67.4388 167.484 66.2306C170.426 65.0225 172.94 62.9765 174.709 60.3514C176.478 57.7263 177.422 54.64 177.422 51.4829C177.417 47.2508 175.719 43.1933 172.701 40.2007C169.683 37.2082 165.592 35.5248 161.324 35.5201Z" fill="#CCCCCC"/>
<path d="M55.5954 181.375C55.1349 181.027 54.7535 180.586 54.476 180.082C54.1985 179.578 54.0312 179.022 53.9849 178.449C53.9746 178.316 53.9714 178.182 53.9754 178.048L36.5413 166.406C35.9707 166.021 35.5408 165.463 35.3157 164.816C35.0906 164.169 35.0823 163.468 35.2921 162.816L43.6246 142.288C43.9832 141.405 44.6802 140.698 45.5632 140.323C46.4461 139.948 47.443 139.935 48.3355 140.287C49.228 140.639 49.9434 141.328 50.3252 142.202C50.7069 143.076 50.7238 144.064 50.3722 144.95L43.6447 161.912L57.2201 174.139C57.3992 174.098 57.581 174.07 57.7641 174.055C58.8126 173.973 59.8532 174.291 60.6726 174.945C61.492 175.599 62.0281 176.538 62.1709 177.572C62.3138 178.605 62.0526 179.653 61.4408 180.502C60.8291 181.35 59.9132 181.934 58.881 182.134C58.6162 182.185 58.3471 182.21 58.0773 182.211C57.1797 182.211 56.307 181.917 55.5954 181.375Z" fill="#A0616A"/>
<path d="M36.5498 154.376C36.4477 154.139 36.3983 153.884 36.4049 153.627C36.4114 153.37 36.4738 153.118 36.5877 152.887L40.5653 144.826C40.9667 143.573 41.8527 142.528 43.0292 141.922C44.2057 141.316 45.5766 141.197 46.8414 141.592C48.1061 141.986 49.1615 142.862 49.7761 144.027C50.3907 145.192 50.5144 146.551 50.1201 147.806L48.6679 156.694C48.6264 156.947 48.5303 157.189 48.3861 157.403C48.2419 157.616 48.053 157.796 47.8322 157.931C47.6115 158.066 47.3641 158.151 47.1068 158.183C46.8496 158.214 46.5886 158.19 46.3417 158.112L37.6616 155.377C37.4146 155.299 37.1873 155.169 36.9955 154.997C36.8036 154.824 36.6515 154.612 36.5498 154.376Z" fill="#1684AC"/>
<path d="M63.9851 253.902H68.575L70.7584 236.347L63.9844 236.348L63.9851 253.902Z" fill="#A0616A"/>
<path d="M62.8125 252.416L71.8514 252.416H71.8518C72.6082 252.416 73.3573 252.564 74.0562 252.851C74.7551 253.138 75.3901 253.559 75.925 254.089C76.4599 254.619 76.8842 255.249 77.1737 255.942C77.4632 256.635 77.6122 257.378 77.6121 258.128V258.313L62.8128 258.314L62.8125 252.416Z" fill="#2F2E41"/>
<path d="M19.1035 250.678L23.5489 251.81L30.0705 235.347L23.5096 233.675L19.1035 250.678Z" fill="#A0616A"/>
<path d="M18.3416 248.949L27.0961 251.18L27.0964 251.18C27.8291 251.367 28.5175 251.695 29.1223 252.145C29.7271 252.596 30.2365 253.16 30.6215 253.806C31.0064 254.452 31.2593 255.166 31.3656 255.909C31.472 256.651 31.4299 257.408 31.2416 258.134L31.195 258.314L16.8613 254.661L18.3416 248.949Z" fill="#2F2E41"/>
<path d="M51.2947 133.472C56.373 133.472 60.4898 129.39 60.4898 124.354C60.4898 119.319 56.373 115.237 51.2947 115.237C46.2164 115.237 42.0996 119.319 42.0996 124.354C42.0996 129.39 46.2164 133.472 51.2947 133.472Z" fill="#A0616A"/>
<path d="M46.6448 162.279C44.4572 160.047 42.5997 157.518 41.128 154.768C40.3452 153.26 39.8895 151.607 39.7902 149.914C39.6909 148.221 39.9502 146.526 40.5513 144.939C41.1652 143.316 42.115 141.839 43.3395 140.602C44.564 139.365 46.0361 138.396 47.661 137.758C50.5108 136.611 53.6902 136.563 56.5734 137.625C59.4567 138.686 61.8348 140.779 63.2398 143.492C65.5406 147.957 66.4423 152.322 65.9198 156.467C64.9209 164.391 64.3361 168.487 64.1817 168.64L64.1304 168.691L47.0253 169.445L46.6448 162.279Z" fill="#1684AC"/>
<path d="M47.6602 167.252L62.9675 166.496C63.354 166.477 63.7329 166.607 64.0249 166.859C64.3168 167.111 64.4991 167.465 64.5335 167.847L71.575 246.114C71.5937 246.322 71.568 246.532 71.4995 246.729C71.431 246.927 71.3213 247.108 71.1776 247.26C71.0338 247.413 70.8592 247.533 70.6652 247.614C70.4712 247.696 70.2621 247.735 70.0516 247.731L64.0713 247.605C63.7424 247.598 63.425 247.484 63.1681 247.28C62.9111 247.076 62.729 246.794 62.6497 246.478L51.2251 200.831C51.1504 200.532 50.984 200.264 50.7488 200.063C50.5136 199.862 50.2214 199.739 49.9125 199.71C49.6035 199.681 49.2932 199.748 49.0243 199.901C48.7554 200.055 48.5412 200.288 48.4115 200.567L26.7613 247.193C26.6142 247.51 26.3595 247.765 26.0417 247.914C25.7239 248.063 25.3633 248.097 25.023 248.009L19.0046 246.452C18.6321 246.356 18.3112 246.122 18.1087 245.797C17.9061 245.473 17.8375 245.083 17.9171 244.71C19.8973 235.441 31.7585 182.36 46.6924 167.668C46.9523 167.415 47.2969 167.267 47.6602 167.252Z" fill="#2F2E41"/>
<path d="M76.6484 176.039C76.0949 175.87 75.5836 175.587 75.1477 175.209C74.7118 174.831 74.3611 174.366 74.1184 173.844C74.0624 173.723 74.0128 173.598 73.9699 173.472L53.5547 168.511C52.8851 168.345 52.2876 167.969 51.8512 167.439C51.4148 166.908 51.1628 166.253 51.1328 165.569L51.8084 143.452C51.8375 142.5 52.2457 141.598 52.9438 140.944C53.6419 140.29 54.5729 139.936 55.5331 139.961C56.4932 139.986 57.4043 140.388 58.0668 141.077C58.7293 141.767 59.0893 142.689 59.068 143.641L58.6575 161.862L75.6546 168.692C75.8087 168.593 75.9694 168.504 76.1357 168.427C76.7427 168.148 77.4093 168.02 78.0775 168.053C78.7457 168.087 79.3956 168.281 79.9712 168.619C80.5467 168.958 81.0306 169.43 81.381 169.995C81.7314 170.56 81.9378 171.201 81.9823 171.863C82.0269 172.525 81.9083 173.188 81.6368 173.794C81.3653 174.401 80.949 174.932 80.4239 175.343C79.8988 175.755 79.2806 176.033 78.6229 176.154C77.9651 176.275 77.2874 176.236 76.6484 176.039Z" fill="#A0616A"/>
<path d="M49.6308 154.472C49.4546 154.284 49.3215 154.06 49.2405 153.816C49.1596 153.572 49.1327 153.313 49.1617 153.058L50.1736 144.139C50.1266 142.826 50.607 141.547 51.5094 140.584C52.4117 139.621 53.6624 139.051 54.9873 139.001C56.3121 138.951 57.603 139.424 58.5769 140.316C59.5508 141.208 60.1282 142.446 60.1826 143.76L61.8293 152.615C61.8763 152.867 61.8678 153.127 61.8044 153.376C61.741 153.625 61.6242 153.858 61.462 154.058C61.2997 154.259 61.0958 154.422 60.8641 154.537C60.6325 154.652 60.3785 154.717 60.1195 154.726L51.0174 155.044C50.7584 155.054 50.5004 155.007 50.2611 154.908C50.0218 154.81 49.8068 154.661 49.6308 154.472Z" fill="#1684AC"/>
<path d="M38.1186 136.392L39.0793 133.313L39.7363 136.769L45.1322 136.627L45.1074 133.22L47.1586 136.582L52.0483 135.511C51.0036 134.13 49.9466 132.729 49.2785 131.102C48.6105 129.475 48.3672 127.567 48.9915 125.92C50.5348 121.848 56.386 122.987 59.5863 122.953C60.52 122.943 61.574 122.876 62.1855 122.119C62.6459 121.549 62.7213 120.734 62.698 119.98C62.5778 116.099 60.228 112.396 56.9058 110.854C55.2797 110.111 53.4668 109.868 51.7001 110.154C50.7786 110.299 49.8838 110.578 49.0451 110.984C48.2974 111.346 47.5121 112.208 46.7071 112.185C46.0306 112.165 45.1349 111.467 44.3988 111.347C43.5118 111.211 42.6071 111.243 41.7319 111.439C39.9731 111.828 38.3876 112.769 37.2108 114.122C34.7098 117.004 33.9667 121.25 34.4026 125.159C34.8385 129.068 36.3133 132.745 37.7717 136.357" fill="#2F2E41"/>
<path d="M300.626 259H0.374378C0.275087 259 0.179862 258.961 0.109653 258.891C0.039443 258.822 0 258.727 0 258.629C0 258.53 0.039443 258.436 0.109653 258.366C0.179862 258.297 0.275087 258.258 0.374378 258.258H300.626C300.725 258.258 300.82 258.297 300.89 258.366C300.961 258.436 301 258.53 301 258.629C301 258.727 300.961 258.822 300.89 258.891C300.82 258.961 300.725 259 300.626 259Z" fill="#E6E6E6"/>
<path d="M295.561 254.399C296.704 253.48 297.536 252.237 297.948 250.837C298.252 249.419 297.643 247.755 296.282 247.206C294.753 246.621 293.118 247.675 291.881 248.735C290.644 249.795 289.221 251.009 287.599 250.781C288.43 250.03 289.05 249.078 289.4 248.019C289.75 246.959 289.816 245.828 289.594 244.735C289.527 244.28 289.333 243.853 289.035 243.502C288.189 242.602 286.648 242.991 285.628 243.699C282.396 245.955 281.495 250.307 281.482 254.227C281.153 252.809 281.426 251.336 281.42 249.912C281.414 248.488 281.01 246.83 279.779 246.079C279.016 245.672 278.159 245.47 277.293 245.493C275.839 245.444 274.222 245.586 273.228 246.639C271.985 247.946 272.314 250.146 273.39 251.57C274.465 252.994 276.093 253.912 277.591 254.911C278.798 255.62 279.827 256.592 280.6 257.752C280.691 257.913 280.766 258.082 280.824 258.258H289.93C291.974 257.23 293.869 255.932 295.561 254.399Z" fill="#F2F2F2"/>
<path d="M200.818 112.186C200.649 112.185 200.483 112.143 200.334 112.062C200.186 111.981 200.06 111.865 199.968 111.724C199.876 111.583 199.821 111.422 199.808 111.255C199.795 111.087 199.824 110.919 199.893 110.766L201.065 108.175C199.451 106.753 198.423 104.79 198.178 102.663C197.933 100.536 198.488 98.3946 199.738 96.6488C200.987 94.903 202.843 93.676 204.949 93.2031C207.054 92.7303 209.262 93.0449 211.148 94.0865C213.034 95.1282 214.466 96.8236 215.169 98.8477C215.872 100.872 215.797 103.082 214.958 105.055C214.119 107.027 212.576 108.623 210.623 109.536C208.67 110.45 206.446 110.616 204.378 110.004L201.388 112.011C201.22 112.125 201.022 112.186 200.818 112.186ZM206.863 94.268C205.306 94.2671 203.787 94.7467 202.516 95.6402C201.246 96.5337 200.288 97.7969 199.774 99.2547C199.26 100.712 199.217 102.293 199.649 103.776C200.082 105.26 200.969 106.573 202.188 107.534L202.557 107.826L201.296 110.615L204.189 108.673L204.474 108.768C205.506 109.112 206.601 109.229 207.683 109.111C208.765 108.994 209.808 108.644 210.74 108.087C211.672 107.53 212.471 106.779 213.081 105.885C213.691 104.991 214.098 103.977 214.274 102.912C214.449 101.847 214.389 100.756 214.097 99.7167C213.806 98.677 213.289 97.7126 212.584 96.8904C211.879 96.0681 211.003 95.4077 210.015 94.9549C209.027 94.5021 207.951 94.2677 206.863 94.268Z" fill="#3F3D56"/>
<path d="M206.862 102.519C207.535 102.519 208.08 101.978 208.08 101.311C208.08 100.645 207.535 100.104 206.862 100.104C206.19 100.104 205.645 100.645 205.645 101.311C205.645 101.978 206.19 102.519 206.862 102.519Z" fill="#3F3D56"/>
<path d="M203.413 102.519C204.086 102.519 204.631 101.978 204.631 101.311C204.631 100.645 204.086 100.104 203.413 100.104C202.74 100.104 202.195 100.645 202.195 101.311C202.195 101.978 202.74 102.519 203.413 102.519Z" fill="#3F3D56"/>
<path d="M210.313 102.519C210.986 102.519 211.531 101.978 211.531 101.311C211.531 100.645 210.986 100.104 210.313 100.104C209.641 100.104 209.096 100.645 209.096 101.311C209.096 101.978 209.641 102.519 210.313 102.519Z" fill="#3F3D56"/>
</svg>
