<svg width="350" height="280" viewBox="0 0 350 280" fill="none" xmlns="http://www.w3.org/2000/svg">
<path d="M269.399 127.42L63.2995 207.524C61.8918 208.069 60.3037 208.085 58.8832 207.568C57.4626 207.051 56.3261 206.043 55.7227 204.766L1.35353 89.3103C0.913722 88.3734 0.900909 87.3165 1.31791 86.371C1.73491 85.4256 2.54766 84.6692 3.57787 84.2676L212.448 3.08656C213.497 2.68011 214.681 2.6683 215.739 3.05372C216.798 3.43914 217.645 4.19031 218.095 5.14245L272.435 120.537C273.035 121.816 273.053 123.258 272.484 124.549C271.915 125.839 270.805 126.872 269.399 127.42Z" fill="#F2F2F2"/>
<path d="M260.309 124.2L68.0345 199.193C65.2161 200.292 62.0044 199.229 60.8752 196.823L13.4817 95.8282C12.6443 94.0437 13.6621 91.9291 15.7507 91.1144L210.611 15.1136C212.734 14.2854 215.154 15.0875 216.005 16.9014L263.373 117.843C264.502 120.249 263.128 123.101 260.309 124.2Z" fill="white"/>
<path d="M218.116 5.68669L1.61822 90.5714L0.463555 88.0977C-0.137702 86.8048 -0.154699 85.3456 0.416291 84.0412C0.987279 82.7364 2.09963 81.6927 3.50932 81.1386L209.366 0.426134C210.777 -0.125709 212.368 -0.142195 213.793 0.380291C215.216 0.902781 216.356 1.92157 216.961 3.21317L218.116 5.68669Z" fill="#1684AC"/>
<path d="M116.249 111.732L90.9187 121.578C89.527 122.117 87.9563 122.133 86.5519 121.622C85.1471 121.11 84.0232 120.113 83.4262 118.85L69.4434 89.1558C68.8498 87.8912 68.8325 86.4645 69.3953 85.1882C69.9584 83.9123 71.0553 82.891 72.4459 82.3488L97.7767 72.5035C99.1687 71.9643 100.739 71.9485 102.144 72.4598C103.548 72.9712 104.672 73.968 105.269 75.2314L119.252 104.925C119.846 106.19 119.863 107.617 119.3 108.893C118.737 110.169 117.64 111.19 116.249 111.732Z" fill="#F2F2F2"/>
<path d="M148.713 98.7939L123.383 108.64C121.991 109.179 120.42 109.195 119.015 108.683C117.611 108.172 116.487 107.175 115.89 105.912L101.907 76.2174C101.314 74.9528 101.296 73.5261 101.859 72.2498C102.422 70.9739 103.519 69.9526 104.91 69.4105L130.24 59.5652C131.632 59.0256 133.203 59.0102 134.607 59.5215C136.012 60.0328 137.136 61.0296 137.733 62.293L151.716 91.9869C152.309 93.2516 152.327 94.6783 151.764 95.9545C151.201 97.2308 150.104 98.2518 148.713 98.7939Z" fill="#F2F2F2"/>
<path d="M192.337 81.9681L167.006 91.996C165.614 92.5452 164.044 92.5612 162.639 92.0402C161.235 91.5194 160.111 90.5044 159.514 89.2177L145.531 58.9736C144.937 57.6856 144.92 56.2324 145.483 54.9325C146.046 53.633 147.143 52.5927 148.533 52.0406L173.864 42.0127C175.256 41.4634 176.827 41.4474 178.231 41.9685C179.636 42.4893 180.76 43.5042 181.357 44.791L195.339 75.0351C195.933 76.3231 195.95 77.7763 195.387 79.0761C194.825 80.3757 193.727 81.4159 192.337 81.9681Z" fill="#F2F2F2"/>
<path d="M128.423 162.373L103.092 172.401C101.701 172.95 100.13 172.966 98.7257 172.446C97.3209 171.925 96.1971 170.91 95.6 169.623L81.6172 139.379C81.0236 138.091 81.0063 136.637 81.5691 135.338C82.1323 134.038 83.2292 132.998 84.6197 132.446L109.951 122.418C111.342 121.869 112.913 121.853 114.318 122.373C115.722 122.894 116.846 123.91 117.443 125.196L131.426 155.44C132.019 156.728 132.037 158.181 131.474 159.481C130.911 160.781 129.814 161.821 128.423 162.373Z" fill="#F2F2F2"/>
<path d="M171.909 145.738L145.565 155.766C144.117 156.315 142.484 156.331 141.023 155.81C139.562 155.289 138.393 154.274 137.772 152.988L123.23 122.744C122.613 121.456 122.595 120.002 123.18 118.703C123.766 117.403 124.907 116.363 126.353 115.811L152.697 105.783C154.144 105.233 155.778 105.217 157.238 105.739C158.699 106.259 159.868 107.274 160.489 108.561L175.031 138.805C175.649 140.093 175.667 141.546 175.081 142.846C174.496 144.146 173.355 145.186 171.909 145.738Z" fill="#F2F2F2"/>
<path d="M214.587 128.912L188.749 139.122C187.329 139.682 185.727 139.698 184.295 139.167C182.862 138.637 181.716 137.604 181.107 136.294L166.844 105.5C166.239 104.188 166.221 102.709 166.795 101.385C167.37 100.062 168.488 99.0027 169.907 98.4406L195.744 88.2303C197.164 87.6711 198.766 87.6548 200.199 88.1853C201.631 88.7156 202.778 89.749 203.386 91.0592L217.649 121.853C218.255 123.165 218.272 124.644 217.698 125.968C217.124 127.291 216.005 128.35 214.587 128.912Z" fill="#F2F2F2"/>
<path d="M282.353 234.746H58.5166C56.9889 234.745 55.524 234.187 54.4436 233.195C53.3629 232.203 52.7552 230.859 52.7534 229.456V102.765C52.7548 101.737 53.2002 100.752 53.9916 100.026C54.7831 99.2992 55.8561 98.8904 56.9756 98.8892H283.821C284.959 98.8904 286.051 99.3063 286.856 100.045C287.662 100.785 288.114 101.787 288.116 102.832V229.456C288.114 230.859 287.506 232.203 286.426 233.195C285.345 234.187 283.88 234.745 282.353 234.746Z" fill="#E6E6E6"/>
<path d="M274.443 227.353H65.4123C62.3481 227.353 59.8555 225.221 59.8555 222.599V112.581C59.8555 110.637 61.7027 109.056 63.9731 109.056H275.814C278.122 109.056 280 110.664 280 112.639V222.599C280 225.221 277.507 227.353 274.443 227.353Z" fill="white"/>
<path d="M288.116 103.51H52.7534V101.021C52.7555 99.7201 53.3657 98.4735 54.4502 97.5539C55.5344 96.6347 57.0046 96.1176 58.5376 96.1167H282.332C283.865 96.1176 285.335 96.6347 286.419 97.5539C287.504 98.4735 288.114 99.7201 288.116 101.021V103.51Z" fill="#1684AC"/>
<path d="M72.5362 97.0408C73.3767 97.0408 74.0581 96.627 74.0581 96.1167C74.0581 95.6062 73.3767 95.1924 72.5362 95.1924C71.696 95.1924 71.0146 95.6062 71.0146 96.1167C71.0146 96.627 71.696 97.0408 72.5362 97.0408Z" fill="white"/>
<path d="M77.6087 97.0408C78.4493 97.0408 79.1304 96.627 79.1304 96.1167C79.1304 95.6062 78.4493 95.1924 77.6087 95.1924C76.768 95.1924 76.0869 95.6062 76.0869 96.1167C76.0869 96.627 76.768 97.0408 77.6087 97.0408Z" fill="white"/>
<path d="M84.2031 97.0408C84.7634 97.0408 85.2175 96.627 85.2175 96.1167C85.2175 95.6062 84.7634 95.1924 84.2031 95.1924C83.6427 95.1924 83.1885 95.6062 83.1885 96.1167C83.1885 96.627 83.6427 97.0408 84.2031 97.0408Z" fill="white"/>
<path d="M263.675 140.479H164.44C160.467 140.479 157.246 143.582 157.246 147.41C157.246 151.238 160.467 154.341 164.44 154.341H263.675C267.649 154.341 270.869 151.238 270.869 147.41C270.869 143.582 267.649 140.479 263.675 140.479Z" fill="#E6E6E6"/>
<path d="M263.675 161.735H164.44C160.467 161.735 157.246 164.838 157.246 168.666C157.246 172.495 160.467 175.598 164.44 175.598H263.675C267.649 175.598 270.869 172.495 270.869 168.666C270.869 164.838 267.649 161.735 263.675 161.735Z" fill="#E6E6E6"/>
<path d="M263.675 183.916H164.44C160.467 183.916 157.246 186.812 157.246 190.385C157.246 193.958 160.467 196.854 164.44 196.854H263.675C267.649 196.854 270.869 193.958 270.869 190.385C270.869 186.812 267.649 183.916 263.675 183.916Z" fill="#E6E6E6"/>
<path d="M148.116 168.666C148.116 175.521 145.855 182.222 141.619 187.921C137.383 193.62 131.362 198.062 124.318 200.685C117.274 203.309 109.523 203.995 102.045 202.658C94.5665 201.32 87.6974 198.02 82.306 193.173C76.9145 188.326 73.243 182.15 71.7553 175.427C70.268 168.705 71.0313 161.736 73.9492 155.403C76.8668 149.071 81.808 143.658 88.1478 139.85C94.4873 136.042 101.941 134.009 109.565 134.009C119.789 134.012 129.592 137.664 136.821 144.163C144.05 150.662 148.113 159.475 148.116 168.666Z" fill="white"/>
<path d="M115.036 198.466C115.762 194.256 110.027 195.088 106.992 195.046C106.502 195.048 106.02 195.143 105.578 195.325C105.137 195.507 104.749 195.771 104.441 196.098C104.134 196.426 103.916 196.808 103.802 197.217C103.688 197.626 103.682 198.052 103.784 198.463C101.435 199.087 99.2591 200.118 97.3916 201.493C105.261 203.851 113.812 203.932 121.739 201.725C119.807 200.233 117.519 199.121 115.036 198.466Z" fill="#2F2E41"/>
<path d="M109.532 204.248C99.5775 204.24 89.9919 200.858 82.6872 194.777C75.3825 188.695 70.8949 180.361 70.1201 171.436C69.3453 162.511 72.3401 153.651 78.5069 146.624C84.6738 139.596 93.5592 134.917 103.392 133.52C113.225 132.124 123.281 134.111 131.556 139.087C139.832 144.063 145.717 151.661 148.039 160.366C150.361 169.072 148.949 178.244 144.084 186.055C139.219 193.865 131.26 199.74 121.793 202.506C117.833 203.664 113.695 204.252 109.532 204.248ZM109.532 134.915C102.115 134.915 94.8632 136.892 88.6953 140.597C82.5277 144.303 77.7202 149.57 74.881 155.733C72.0422 161.895 71.2989 168.677 72.7459 175.219C74.1924 181.762 77.7644 187.772 83.0092 192.489C88.2541 197.205 94.9368 200.417 102.212 201.719C109.487 203.02 117.027 202.351 123.88 199.798C130.733 197.245 136.59 192.922 140.71 187.375C144.83 181.828 147.029 175.307 147.028 168.636C147.016 159.696 143.063 151.125 136.033 144.803C129.004 138.482 119.473 134.926 109.532 134.915Z" fill="#3F3D56"/>
<mask id="mask0_1456_309" style="mask-type:luminance" maskUnits="userSpaceOnUse" x="233" y="181" width="117" height="99">
<path d="M350 181.996H233.764V280H350V181.996Z" fill="white"/>
</mask>
<g mask="url(#mask0_1456_309)">
<path d="M238.547 224.061C237.929 224.233 237.271 224.258 236.64 224.131C236.009 224.005 235.426 223.733 234.95 223.342C234.474 222.952 234.122 222.456 233.93 221.906C233.738 221.356 233.712 220.77 233.854 220.208C235.997 212.27 244.144 192.858 273.824 184.694C286.68 181.158 299.009 181.097 310.454 184.513C319.869 187.312 326.119 191.692 329.109 193.808C329.868 194.344 330.358 195.126 330.471 195.982C330.583 196.839 330.308 197.701 329.707 198.377C329.7 198.385 329.692 198.394 329.685 198.402C329.067 199.081 328.176 199.516 327.201 199.615C326.227 199.713 325.248 199.467 324.476 198.929C319.059 195.128 302.621 183.582 275.98 190.91C249.966 198.066 242.9 214.805 241.067 221.653C240.928 222.219 240.621 222.741 240.177 223.164C239.734 223.588 239.171 223.897 238.547 224.061Z" fill="#1684AC"/>
<path d="M319.441 269.02C319.146 269.105 318.841 269.156 318.531 269.173C295.344 270.285 280.592 253.131 279.987 252.416L279.874 252.25C279.505 251.74 270.578 239.646 274.508 230.041C276.313 225.649 280.305 222.568 286.407 220.889C292.081 219.328 296.725 219.79 300.677 222.303C303.918 224.351 305.995 227.405 308.009 230.353C312.195 236.477 314.761 239.592 322.72 237.794C326.214 237.005 327.846 234.572 328.591 232.677C330.598 227.52 328.819 220.489 324.113 215.17C318.034 208.27 301.02 196.808 280.029 202.583C271.065 205.048 263.728 209.908 258.815 216.599C254.745 222.152 252.379 229.049 252.328 235.481C252.246 247.457 263.267 263.212 263.372 263.355C263.626 263.716 263.797 264.119 263.876 264.539C263.955 264.959 263.941 265.389 263.833 265.805C263.725 266.22 263.527 266.613 263.249 266.96C262.971 267.307 262.619 267.602 262.214 267.828C262.202 267.834 262.191 267.841 262.18 267.847C261.348 268.309 260.346 268.461 259.389 268.27C258.433 268.079 257.599 267.562 257.068 266.828C256.57 266.107 244.802 249.308 244.897 235.468C245.028 220.465 255.266 202.561 277.865 196.344C288.31 193.471 299.287 193.954 309.618 197.725C317.625 200.666 325.035 205.535 329.934 211.095C336.191 218.192 338.396 227.481 335.547 234.731C333.648 239.565 329.717 242.9 324.492 244.092C310.873 247.177 305.539 239.41 301.648 233.744C297.653 227.936 295.443 225.212 288.538 227.112C284.746 228.155 282.41 229.826 281.428 232.228C280.091 235.51 281.358 239.718 282.656 242.667C282.67 242.698 282.683 242.729 282.697 242.76C284.361 246.509 286.958 249.873 290.294 252.599C295.636 256.992 305.554 263.256 318.195 262.652C319.161 262.598 320.112 262.889 320.838 263.459C321.563 264.03 322.005 264.834 322.065 265.695C322.065 265.705 322.066 265.716 322.067 265.726C322.096 266.456 321.855 267.174 321.381 267.769C320.906 268.365 320.224 268.804 319.441 269.02Z" fill="#1684AC"/>
<path d="M291.324 275.187C290.841 275.32 290.332 275.365 289.829 275.318C289.326 275.271 288.838 275.134 288.396 274.915C276.96 269.145 268.932 261.384 263.151 250.507L263.127 250.44C259.484 243.187 257.291 232.107 262.129 222.742C265.7 215.832 272.405 210.975 282.022 208.329C293.397 205.2 303.988 207.504 312.681 214.96C316.634 218.4 319.848 222.455 322.167 226.924C322.536 227.728 322.536 228.629 322.165 229.433C321.794 230.236 321.083 230.878 320.185 231.218C319.287 231.558 318.276 231.57 317.368 231.251C316.461 230.932 315.731 230.308 315.336 229.513C313.373 225.784 310.662 222.404 307.338 219.54C300.638 213.863 292.849 212.185 284.161 214.575C276.653 216.64 271.483 220.291 268.837 225.428C265.02 232.822 266.985 242.055 269.837 247.737C274.934 257.357 282.005 264.181 292.07 269.25C292.486 269.459 292.851 269.739 293.146 270.074C293.44 270.408 293.657 270.791 293.786 271.2C293.914 271.61 293.95 272.038 293.893 272.46C293.835 272.882 293.685 273.29 293.451 273.66C293.441 273.674 293.432 273.689 293.422 273.704C292.953 274.413 292.206 274.942 291.324 275.187Z" fill="#1684AC"/>
<path d="M292.528 242.67C295.141 242.67 297.259 240.784 297.259 238.457C297.259 236.131 295.141 234.245 292.528 234.245C289.916 234.245 287.798 236.131 287.798 238.457C287.798 240.784 289.916 242.67 292.528 242.67Z" fill="#E6E6E6"/>
</g>
<path d="M110.073 194.082C120.998 194.082 129.855 186.013 129.855 176.06C129.855 166.107 120.998 158.038 110.073 158.038C99.1468 158.038 90.29 166.107 90.29 176.06C90.29 186.013 99.1468 194.082 110.073 194.082Z" fill="#FFB6B6"/>
<path d="M127.13 161.088C128.326 161.614 129.449 162.272 130.461 163.028C130.756 163.25 127.967 163.546 128.243 163.776C126.265 166.62 134.512 170.179 131.005 170.352C130.305 169.02 119.508 165.905 118.34 164.878C118.505 166.061 122.877 167.532 122.721 168.708C118.79 168.486 110.028 167.171 105.233 165.42C108.122 170.561 108.143 174.602 101.551 176.105C96.6169 176.105 93.172 180.47 94.8318 184.62L96.0284 187.612L91.4263 183.502C89.5125 181.793 85.8054 177.75 84.5856 173.433C83.7094 170.333 84.4231 167.084 86.2468 164.332C86.3142 164.231 86.3751 164.133 86.4283 164.039C85.3883 164.467 84.3024 164.795 83.1887 165.017C83.1424 163.225 90.9292 159.905 91.4263 158.845C93.7365 153.905 90.3678 153.913 99.7101 153.913C100.516 153.434 102.133 154.253 104.312 153.913C108.322 153.288 109.98 150.844 114.958 151.779C119.254 152.585 123.435 153.768 126.677 154.974L128.243 155.557C129.192 156.913 129.578 158.179 129.523 159.33C129.44 159.313 129.348 159.297 129.265 159.288C127.636 159.083 128.731 160.776 127.13 161.088Z" fill="#2F2E41"/>
</svg>
