<svg width="14" height="15" viewBox="0 0 14 15" fill="none" xmlns="http://www.w3.org/2000/svg">
<path d="M7 15C5.61553 15 4.26214 14.5601 3.111 13.736C1.95986 12.9119 1.06266 11.7406 0.532848 10.3701C0.00303456 8.99969 -0.135591 7.49169 0.134506 6.03683C0.404602 4.58198 1.07129 3.2456 2.05026 2.1967C3.02922 1.14781 4.2765 0.433502 5.63436 0.144113C6.99223 -0.145276 8.39969 0.00325132 9.67877 0.570909C10.9579 1.13857 12.0511 2.09986 12.8203 3.33323C13.5895 4.5666 14 6.01666 14 7.50002C13.9979 9.48845 13.2597 11.3948 11.9474 12.8008C10.6351 14.2068 8.85587 14.9977 7 15ZM7 0.789475C5.76126 0.789474 4.55036 1.18304 3.52038 1.9204C2.49041 2.65776 1.68764 3.70581 1.2136 4.93199C0.739552 6.15818 0.615517 7.50745 0.857181 8.80917C1.09885 10.1109 1.69535 11.3066 2.57127 12.2451C3.44719 13.1835 4.56317 13.8227 5.77811 14.0816C6.99304 14.3405 8.25236 14.2076 9.3968 13.6997C10.5412 13.1918 11.5194 12.3317 12.2076 11.2282C12.8958 10.1246 13.2631 8.82723 13.2631 7.50002C13.2631 6.61878 13.1012 5.74615 12.7864 4.93199C12.4717 4.11783 12.0103 3.37808 11.4287 2.75494C10.8471 2.13181 10.1567 1.63752 9.3968 1.30028C8.63692 0.963047 7.82249 0.789475 7 0.789475Z" fill="#3F3D56"/>
<path d="M9.09643 11H9.09526C8.99661 11.0002 8.89892 10.9774 8.80785 10.9331C8.71678 10.8888 8.63415 10.8237 8.56475 10.7417L7.31899 9.28095C7.23315 9.18482 7.1189 9.13113 7.00006 9.13107C6.88121 9.131 6.76693 9.18457 6.68101 9.28061L5.43525 10.7421C5.3658 10.824 5.28314 10.8889 5.19208 10.9332C5.10102 10.9775 5.00336 11.0002 4.90474 11H4.90357C4.8051 11.0003 4.70754 10.9778 4.61656 10.9338C4.52557 10.8898 4.44297 10.8251 4.3735 10.7434L4.24901 10.5987C4.10832 10.4341 4.02912 10.2111 4.0288 9.97833C4.02847 9.7456 4.10702 9.52221 4.24725 9.35709L5.49859 7.88877C5.58253 7.78993 5.62963 7.65625 5.6296 7.51693C5.62957 7.37762 5.58242 7.24398 5.49844 7.14518L4.21868 5.6429C4.07838 5.47793 3.99973 5.25462 4 5.02193C4.00028 4.78924 4.07944 4.56617 4.22013 4.40164L4.34493 4.25621C4.4144 4.17468 4.49699 4.11007 4.58795 4.06609C4.6789 4.02212 4.77642 3.99965 4.87485 4H4.87602C4.97466 3.99982 5.07234 4.02255 5.16341 4.06689C5.25448 4.11122 5.33713 4.17628 5.40652 4.25827L6.68103 5.75335C6.76697 5.84928 6.88121 5.9028 7.00002 5.9028C7.11882 5.9028 7.23306 5.84928 7.31901 5.75335L8.59351 4.25827C8.66291 4.17628 8.74554 4.11122 8.83661 4.06689C8.92768 4.02255 9.02535 3.99982 9.124 4H9.12519C9.22366 3.99966 9.3212 4.02216 9.41218 4.0662C9.50316 4.11024 9.58577 4.17494 9.65524 4.25656L9.77987 4.40164C9.92056 4.56616 9.99972 4.78924 10 5.02193C10.0003 5.25462 9.92164 5.47793 9.78134 5.6429L8.50141 7.14484C8.41744 7.24373 8.37032 7.37744 8.37032 7.51681C8.37032 7.65617 8.41744 7.78988 8.50141 7.88877L9.7526 9.35709C9.8929 9.52207 9.97153 9.7454 9.97126 9.97809C9.97098 10.2108 9.89182 10.4338 9.75113 10.5984L9.62635 10.7438C9.55688 10.8253 9.47427 10.89 9.38331 10.9339C9.29236 10.9779 9.19485 11.0004 9.09643 11Z" fill="#CCCCCC"/>
</svg>
